<?xml version="1.0" encoding="UTF-8"?>
<svg id="_Layer_" data-name="&amp;lt;Layer&amp;gt;" xmlns="http://www.w3.org/2000/svg" viewBox="0 0 794.88 794.88">
  <defs>
    <style>
      .cls-1 {
        fill: #000;
      }

      .cls-1, .cls-2, .cls-3 {
        stroke-width: 0px;
      }

      .cls-2 {
        fill: #cf0;
      }

      .cls-3 {
        fill: #fff;
      }
    </style>
  </defs>
  <g>
    <path class="cls-2" d="M300.09,265.18c.45,0,.93.11,1.33-.03.34-.12.84-.51.85-.8.1-3.37.36-3.51-2.68-4.32-.18-.05-.36-.09-.55-.13-10.06-2.05-20.12-4.11-30.19-6.13-1.86-.37-3.75-.59-5.63-.8-.96-.11-1.46.43-1.43,1.44.01.38,0,.76,0,1.14,0,1.58.26,1.89,1.78,2.2,9.83,2.04,19.66,4.09,29.49,6.13,2.33.49,4.66.98,6.99,1.46.01-.06.02-.12.03-.18Z"/>
    <path class="cls-2" d="M240.4,301.23c6.79,1.42,13.58,2.9,20.38,4.27,3.69.74,7.41,1.32,9.83,1.75,4.07,0,4.05.01,3.97-2.74-.03-1.06-.5-1.58-1.5-1.78-9.01-1.79-18.01-3.64-27.02-5.4-2.11-.41-4.28-.6-6.42-.78-.43-.03-1.15.36-1.32.75-.84,1.91.06,3.5,2.09,3.92Z"/>
    <path class="cls-2" d="M298.44,274.33c-1.04-.32-2.07-.67-3.12-.91-7.24-1.68-14.48-3.36-21.73-4.98-1.19-.27-2.43-.28-3.65-.35-.83-.05-1.23.43-1.23,1.27,0,.34,0,.69,0,1.03,0,2.27,0,2.25,2.2,2.76,5.93,1.35,11.86,2.71,17.79,4.08,2.51.58,5,1.25,7.53,1.74,3.12.6,3.62.11,3.46-2.94-.05-.88-.44-1.43-1.25-1.68Z"/>
    <path class="cls-2" d="M245.15,242.5c5.24.98,10.48,1.99,15.74,2.88,2.49.42,5.02.62,7.54.86.39.04.99-.13,1.18-.41,1.02-1.5-.11-4.1-1.85-4.41-4.37-.77-8.75-1.52-13.12-2.29-2.94-.51-5.87-1.05-9.05-1.61-.67.25-1.76.32-2.19.9-1.1,1.46-.02,3.74,1.75,4.08Z"/>
    <path class="cls-2" d="M308.2,309.58c0-.08,0-.15,0-.23-.02-1.54-.29-1.83-1.78-2.07-5.23-.83-10.46-1.69-15.7-2.5-2.39-.37-4.79-.68-7.19-.92-.42-.04-1.09.26-1.3.61-.98,1.68,0,3.78,1.89,4.16,3,.59,6,1.21,9.02,1.7,4.19.69,8.4,1.27,12.6,1.89q2.47-.18,2.45-2.65Z"/>
    <path class="cls-2" d="M281.11,247.96c1.7.42,3.42.77,5.15,1.06,4.56.76,9.12,1.48,13.68,2.21l.05-.21c.93-.08,1.86-.11,2.78-.29.32-.06.75-.42.83-.73.59-2.23-.08-3.21-2.29-3.57-4.09-.65-8.17-1.38-12.27-1.99-2.69-.4-5.39-.73-8.09-.94-.56-.04-1.59.48-1.68.9-.37,1.88-.31,3.03,1.84,3.56Z"/>
    <path class="cls-2" d="M243.23,267.4c3.93.89,7.87,1.7,11.81,2.55,2.11.46,4.21.94,6.32,1.4.01-.07.03-.14.04-.21.45,0,.91.06,1.34-.02.28-.06.66-.28.75-.53.79-2.03-.08-3.8-2.19-4.29-5.38-1.25-10.77-2.46-16.17-3.62-.86-.19-1.79-.11-2.68-.05-.31.02-.73.27-.89.55-.9,1.54-.02,3.84,1.66,4.22Z"/>
    <path class="cls-2" d="M295.18,317.14c-3.22-.42-6.44-.75-9.66-1.19-2.33-.32-4.62-.94-6.95-1.1-3.17-.22-3.26.01-3.15,3.24.03.89.44,1.33,1.24,1.47.77.13,1.55.25,2.32.37,5.01.77,10.01,1.54,15.02,2.3.02-.11.03-.22.05-.32,3.38-.03,3.04.34,3.04-2.76,0-1.34-.44-1.83-1.91-2.02Z"/>
    <path class="cls-2" d="M254.89,322.74c-1.42-.31-2.81-.8-4.24-1.01-4.31-.64-8.63-1.2-12.95-1.77-.59-.08-1.23-.14-1.78.04-.43.14-1,.61-1.08,1.02-.52,2.87-.15,3.42,2.67,3.82,3.21.46,6.44.71,9.64,1.19,2.2.33,4.37.88,5.54,1.12,3.7,0,3.68,0,3.64-2.57-.02-1.04-.45-1.62-1.45-1.84Z"/>
    <path class="cls-2" d="M282.36,326.99c-.36-.1-.72-.21-1.09-.26-3.47-.46-6.94-.98-10.43-1.35-1.99-.21-4.01-.23-6.01-.2-.6.01-1.19.5-1.79.77.21.4.42.8.63,1.2.02.03.03.07.03.11.16,1.55,1.38,1.89,2.53,2.18,1.12.28,2.28.39,3.42.54,4.29.53,8.58,1.05,12.87,1.57,0-.03,0-.06,0-.09.41,0,.84.08,1.22-.03.3-.09.69-.36.77-.64.59-2.13-.07-3.24-2.18-3.82Z"/>
    <path class="cls-2" d="M238.15,313.65c.7.12,1.39.26,2.1.33,3.56.34,7.11.67,10.67.99,1.1.1,1.61-.4,1.49-1.54-.03-.26,0-.53,0-.8-.02-1.43-.24-1.76-1.64-1.93-2.14-.26-4.3-.4-6.45-.64-1.85-.21-3.69-.51-5.53-.77,0,.03,0,.06-.01.08-.11,0-.22,0-.34,0-.9.01-1.86-.12-1.98,1.23-.2,2.22.09,2.77,1.7,3.06Z"/>
    <path class="cls-2" d="M269.85,318.16c.78.09,1.2-.28,1.15-1.13-.02-.46-.02-.92,0-1.37.04-.89-.37-1.49-1.2-1.69-2.9-.69-5.81-1.34-7.39-1.7-4.22-.09-4.24-.04-4.23,2.74,0,1.03.38,1.55,1.38,1.69,1.85.25,3.69.57,5.53.84,1.58.23,3.17.44,4.76.63Z"/>
    <path class="cls-2" d="M255.23,251.58c-2.4-.67-4.84-1.15-7.27-1.7-.02.08-.03.16-.05.24-.37,0-.75,0-1.12,0-.87,0-1.31.49-1.35,1.34-.03.68-.11,1.4.05,2.04.12.48.52,1.16.91,1.25,2.35.56,4.72,1.18,7.11,1.39,2.99.26,3.08.06,2.77-3.06-.06-.55-.6-1.37-1.07-1.5Z"/>
  </g>
  <g>
    <path class="cls-2" d="M598.2,228.82c1.02,7.64.15,16.18-.33,22-.13,1.63-.27,3.25-.4,4.88-.63,8.05-1.24,16.11-1.9,24.15-.31,3.79-.65,7.59-1.11,11.36-.15,1.26-.69,2.48-1.13,3.7-1.66,4.65-5.17,6.7-9.77,6.84-3.31.1-6.63-.25-9.95-.43-.44-.02-.88-.18-1.31-.31-.94-.28-1.46-.88-1.34-1.94.04-.34.03-.69,0-1.03-.07-1.01.34-1.49,1.37-1.43,2.27.14,4.55.26,6.82.35,1.19.05,2.4.14,3.58-.02,3.1-.42,5.21-2.15,6.48-5.13,1.27-2.98,1.48-6.11,1.72-9.27.62-8.17,1.34-16.33,1.88-24.51.34-5.21.51-10.43.63-15.65.1-4.76,0-9.53.04-14.3,0-.97-.2-1.28-1.23-1.43-5.58-.83-11.12-1.87-16.7-2.69-6.24-.91-12.5-1.69-18.76-2.47-8.44-1.06-16.9-2.08-25.34-3.12-5.82-.71-11.63-1.46-17.46-2.12-6.27-.71-12.54-1.37-18.82-1.99-3.9-.38-7.82-.65-11.72-.98-4.65-.4-9.3-.77-13.94-1.26-.94-.1-1.2.2-1.29,1.02-.44,4.24-1.08,8.47-1.29,12.72-.48,9.82-.79,19.65-1.08,29.48-.19,6.4-.25,12.81-.3,19.22-.02,3.28,1.8,5.65,4.84,6.61.78.24,1.56.54,2.31.87,2.35,1.04,2.07,1.64,2.01,3.88,0,.27-.41.77-.62.76-1.06-.04-2.14-.13-3.17-.36-.72-.16-1.35-.7-2.07-.85-5.04-1.06-6.79-5.18-6.99-9.28-.19-3.76-.02-7.55.05-11.32.09-4.38.19-8.77.37-13.15.5-12.04.96-24.07,1.63-36.1.17-3.05,1.01-6.07,1.7-9.06.57-2.46,2.21-4.06,4.61-4.68,1.77-.45,3.58-.94,5.39-.97,4.18-.07,8.38-.06,12.54.27,7.29.59,14.56,1.51,21.85,2.18,9.04.83,18.1,1.41,27.12,2.33,12.59,1.3,25.17,2.77,37.74,4.27,3.63.43,7.23,1.15,10.81,1.89,8.22,1.69,11.48,8.86,12.57,17.05Z"/>
    <path class="cls-2" d="M452.24,207.01c-.14-2.5-.33-4.97-.57-7.41-.11-1.05-.25-2.14-.44-3.24l-146.97-13.49c-.26,1.57-.47,3.15-.56,4.74-.46,8.22-.78,16.45-1.13,24.67-.17,4.04-.32,8.08-.45,12.11-.02.73-.25.85-.95.75-7.99-1.13-15.98-2.24-23.97-3.3-8.63-1.15-17.25-2.28-25.89-3.37-3.85-.49-7.71-.88-11.57-1.27-2.7-.27-4.48,1.14-5.32,3.61-.64,1.89-1.2,3.89-1.35,5.87-.62,8.74-1.03,17.5-1.59,26.25-.44,6.89-.95,13.77-1.48,20.64-.67,8.63-1.43,17.24-2.09,25.87-.55,7.22-1.05,14.45-1.5,21.68-.25,3.99-.48,7.99-.49,11.99,0,4.33,1.11,5.95,5.1,7.3,3.29,1.12,6.64,2.12,10.04,2.76,4.88.92,9.84,1.34,14.73,2.21,12.02,2.15,24.02,4.39,36.02,6.69,6.51,1.24,13.04,1.52,19.63,1.03,2-.15,3.31-1.18,3.76-3.15.41-1.78.72-3.58.98-5.39,1.03-7.08,1.94-14.19,3.07-21.25,1.15-7.18,2.53-14.32,3.75-21.49.15-.92.57-.76,1.13-.66,3.9.67,7.79,1.46,11.71,1.99,11.44,1.53,22.88,2.99,34.33,4.43,13,1.63,26,3.32,39.02,4.78,7.04.79,14.13,1.14,21.21,1.69,0-.06.02-.12.03-.18,2.5-.13,5-.16,7.49-.4,4.7-.45,6.92-2.41,7.67-7.16.76-4.85,1.26-9.74,1.77-14.62.61-5.87,1.16-11.75,1.67-17.63,1.84-21.35,4.44-45.19,3.23-67.04ZM318.52,302.65c-1.79,10.08-3.61,20.16-5.3,30.26-.71,4.24-1.13,8.53-1.69,12.8-.06.45-.2.89-.33,1.32-.3.99-.96,1.52-1.99,1.52-1.9,0-3.81,0-5.71,0,0,.13-.02.26-.02.39-3.25-.47-6.52-.85-9.75-1.42-12.32-2.18-24.63-4.47-36.96-6.6-4.63-.81-9.35-1.15-13.97-2-3.33-.62-6.6-1.63-9.84-2.65-2.72-.86-3.34-1.76-3.3-4.7.04-3.12.29-6.24.49-9.36.32-4.98.66-9.96,1.03-14.94.55-7.48,1.12-14.97,1.72-22.45.53-6.61,1.18-13.2,1.64-19.81.58-8.55,1.01-17.11,1.53-25.67.21-3.38.47-6.76.75-10.14.12-1.47.17-1.49,1.59-1.26,10.46,1.7,20.92,3.48,31.4,5.12,6.27.98,12.57,1.79,18.86,2.65,3.6.49,7.17,1.05,10.57,2.41.04.01.07.03.1.04.53.14,1.38.13,1.53.45.26.56.13,1.33.08,2-.65,8.2-1.18,16.42-2.04,24.6-.5,4.8-1.65,9.53-2.28,14.32-.36,2.74-.46,5.55-.33,8.31.19,4.11,2.08,6.47,5.96,7.61,4.7,1.38,9.44,2.59,14.18,3.85,2.58.69,2.56.67,2.08,3.35Z"/>
  </g>
  <g>
    <path class="cls-2" d="M590.51,267.22c-.4,1.03-1.21,1.4-2.22,1.37-1.75-.05-3.51-.08-5.26-.23-4.5-.37-8.99-.87-13.5-1.17-2.37-.16-4.77.01-7.15.03-.37,0-.75-.03-1.12-.09-1.42-.24-2.08-1.49-1.36-2.78.19-.35.87-.61,1.31-.59,3.65.15,7.3.34,10.94.6,2.86.21,5.71.56,8.57.82,1.82.17,3.65.26,5.46.43,1.45.14,1.69.05,1.65-1.45-.08-3.01-.34-6.01-.45-9.02-.24-6.97-.45-13.93-.62-20.9-.02-.95-.25-1.33-1.19-1.6-5.29-1.53-10.68-2.22-16.15-2.22-5.51,0-10.94-.8-16.36-1.67-1.74-.28-1.8-.32-1.81,1.45-.02,4.99.01,9.98.02,14.96,0,1.29-.02,2.59-.02,3.88,0,.9-.56,1.01-1.28,1-.72,0-1.4-.02-1.4-1.01,0-1.22.04-2.44.04-3.65,0-5.3-.02-10.6.02-15.89.03-3.53.48-4.07,3.9-3.85,4.24.27,8.47.81,12.7,1.21,1,.09,2.01.13,3.02.12,5.5-.03,10.97.27,16.34,1.6.9.23,1.8.51,2.67.83,1.57.57,1.83.96,1.86,2.69.08,5.41.07,10.83.23,16.24.15,4.99.46,9.97.74,14.95.03.55.27,1.09.42,1.64v2.29Z"/>
    <path class="cls-1" d="M316.14,204.99c1.92.2,4.63.52,7.35.75,3.72.32,7.45.52,11.17.87,6.35.6,12.7,1.3,19.05,1.92,3.94.39,7.88.7,11.83,1.06,2.49.22,4.98.44,7.47.71,1.68.18,2.02.63,2.03,2.36,0,.15,0,.31,0,.46,0,1.84-.06,1.96-1.92,1.89-2.8-.1-5.59-.29-8.38-.48-2.68-.18-5.36-.36-8.04-.63-4.16-.43-8.3-.99-12.46-1.42-3.3-.35-6.61-.59-9.92-.88-5.87-.51-11.75-1.02-17.62-1.53-1.04-.09-2.08-.2-3.12-.32-.92-.1-1.37-.57-1.38-1.57-.06-3.19-.06-3.21,3.94-3.18Z"/>
    <path class="cls-2" d="M536.37,239.38c-5.26-.55-10.53-1.09-15.79-1.65-4.34-.46-8.68-.92-13.01-1.44-4.66-.57-9.32-1.22-13.98-1.82-.83-.11-1.25-.5-1.29-1.4-.14-3.21.35-3.67,3.74-3.24,4.52.57,9.03,1.21,13.54,1.76,4.59.56,9.19,1.12,13.79,1.56,5.57.53,11.15.94,16.73,1.39,1.39.11,1.72.47,1.74,1.94q.03,2.58-2.52,2.61c-.97,0-1.94,0-2.91,0-.01.1-.02.2-.03.3Z"/>
    <path class="cls-3" d="M407.72,233.63c-2.17-.23-4.99-.56-7.81-.83-2.56-.24-5.13-.41-7.7-.61-4.98-.4-9.96-.81-14.94-1.22-2.3-.19-4.61-.37-6.9-.62-1.4-.15-1.69-.57-1.72-2-.06-2.92,0-3.09,2.79-2.94,3.87.21,7.73.65,11.6.95,3.94.31,7.89.53,11.83.88,4.76.41,9.51.88,14.25,1.4,1.76.19,2.15.75,2.15,2.54,0,2.68.27,2.46-3.55,2.46Z"/>
    <path class="cls-3" d="M426.6,258.5c-8.89-.07-17.75-.67-26.55-1.99-2.03-.3-4.08-.41-6.13-.54-2.01-.13-2.32-.41-2.32-2.43,0-.3,0-.61,0-.91.02-1.35.31-1.8,1.65-1.72,3.65.22,7.29.57,10.93.87,6.17.51,12.34,1.05,18.52,1.5,2.61.19,5.23.17,7.84.27,2.05.08,2.39.46,2.39,2.53q0,2.41-2.42,2.42c-1.31,0-2.62,0-3.92,0Z"/>
    <path class="cls-1" d="M350.5,200.37c-7.12-.28-14.24-.58-21.36-.85-2.87-.11-5.75-.11-8.61-.29-1.93-.12-3.85-.46-5.76-.72-.71-.1-1.11-.49-1.17-1.28-.24-3.42-.05-3.67,3.3-3.62.97.01,1.93.17,2.9.25,2.86.22,5.71.52,8.58.63,6.08.22,12.16.31,18.24.51,1.82.06,3.64.27,5.46.48,1.62.19,1.96.64,1.97,2.29q.01,2.63-2.53,2.63c-.34,0-.67,0-1.01,0,0,0,0-.01,0-.02Z"/>
    <path class="cls-3" d="M332.83,270.8c4.53.74,9.04,1.54,13.58,2.2,4.24.61,8.51,1.06,12.77,1.58,2.48.3,4.97.57,7.44.94,1.56.23,1.84.66,1.85,2.3.01,2.51,0,2.64-2.41,2.47-3.83-.26-7.64-.83-11.47-1.05-6.47-.38-12.75-1.91-19.13-2.84-1.29-.19-2.6-.22-3.9-.32-1.67-.13-2-.48-2-2.17,0-2.89.06-2.95,3.28-3.12Z"/>
    <path class="cls-3" d="M407.8,268.9c-4.65-.33-9.31-.62-13.96-1.01-5.69-.48-11.37-1.02-17.05-1.58-2.24-.22-3.13-1.8-2.31-3.98.33-.86,1.09-1.02,1.85-1,2.28.07,4.55.14,6.82.32,5.58.46,11.16,1.01,16.74,1.49,2.98.26,5.96.44,8.93.71,1.76.16,2.1.55,2.09,2.15,0,3.03.34,2.83-2.77,2.83-.11,0-.22,0-.34,0,0,.02,0,.04,0,.05Z"/>
    <path class="cls-3" d="M378.46,276.67c6.19.15,12.39.23,18.58.48,3.05.12,6.09.49,9.13.85,1.45.17,1.79.68,1.78,2.12-.03,2.96.54,3.15-2.96,3.02-3.84-.15-7.67-.48-11.5-.68-3.54-.18-7.09-.26-10.63-.41-2.54-.11-5.07-.28-7.6-.4-1.02-.05-1.44-.53-1.44-1.59,0-3.87-.07-3.42,3.31-3.43.45,0,.9,0,1.34,0,0,.01,0,.02,0,.03Z"/>
    <path class="cls-3" d="M354.66,244.87c4.23.47,8.47.83,12.68,1.43,4.84.69,9.64,1.59,14.46,2.41,1.92.33,2.09.57,2.1,2.53,0,2.43,0,2.58-2.39,2.39-2.56-.21-5.08-.79-7.63-1.14-4.51-.62-9.02-1.23-13.54-1.77-2.56-.31-5.13-.48-7.69-.73-1.26-.12-1.66-.56-1.69-1.79-.08-3.2-.07-3.21,3.02-3.2.22,0,.45,0,.67,0,0-.05.01-.09.02-.14Z"/>
    <path class="cls-3" d="M410.96,219.57c-7-.81-14-1.63-21-2.43-1.7-.19-3.42-.34-5.13-.49-1-.09-1.42-.64-1.46-1.65-.1-3.07.03-3.36,3.06-3.16,4.21.29,8.39.87,12.59,1.25,5.13.47,10.26.91,15.39,1.29,2.07.15,2.34.32,2.34,2.4,0,.34-.02.69,0,1.03.04.85-.34,1.28-1.17,1.32-.93.05-1.86.13-2.8.17-.6.03-1.19,0-1.79,0-.01.09-.02.17-.04.26Z"/>
    <path class="cls-3" d="M430.79,209.98c-5.65.33-11.84-.96-18.04-2.15-1.17-.23-2.36-.37-3.54-.58-1.29-.23-1.66-.68-1.67-1.97-.04-3.28-.03-3.44,3.13-3.23,2.82.19,5.64.63,8.4,1.22,5.18,1.09,10.4,1.59,15.68,1.53.63,0,1.35-.1,1.87.16.43.22.92.91.9,1.37-.05,1.15.58,2.46-.46,3.44-.23.21-.71.2-1.07.21-1.49.02-2.99,0-5.2,0Z"/>
    <path class="cls-2" d="M517.2,222.4c8.12-.04,16.17.93,24.19,2.08.83.12,1.25.58,1.32,1.42.26,2.89.09,3.21-2.74,3.05-3.27-.18-6.53-.7-9.8-.91-5.43-.36-10.87-.6-16.31-.89-.86-.05-1.75.02-2.55-.21-.43-.13-.96-.77-1-1.22-.28-3.16-.11-3.31,2.96-3.31,1.31,0,2.62,0,3.92,0Z"/>
    <path class="cls-3" d="M392.27,205.53c-6.18-.73-12.36-1.45-18.54-2.18-2.3-.27-3.41-2.18-2.32-4.26.25-.48,1.16-.89,1.75-.87,2.27.07,4.53.29,6.79.52,3.97.4,7.92.94,11.89,1.23,2.4.17,4.83-.03,7.25-.04,1.26,0,1.6.35,1.64,1.61.01.38,0,.76,0,1.14,0,2.04-.16,2.33-2.17,2.45-2.08.12-4.17.03-6.26.03-.01.13-.02.25-.03.38Z"/>
    <path class="cls-1" d="M338.87,227.33c-4.54-.35-9.08-.66-13.62-1.05-3.08-.26-6.16-.61-9.24-.97-1.67-.19-1.92-.54-1.93-2.28,0-.38,0-.76,0-1.14-.02-1.05.5-1.59,1.51-1.51,2.86.23,5.72.52,8.59.74,4.95.37,9.91.71,14.86,1.06,1.08.08,2.16.14,3.24.27.99.12,1.52.7,1.51,1.77-.03,3.21.34,2.92-2.78,2.94-.71,0-1.42,0-2.13,0,0,.05,0,.11-.01.16Z"/>
    <path class="cls-3" d="M345.28,257.77c5.61.45,11.22.9,16.83,1.37,1.26.11,2.52.29,3.77.46,1,.13,1.48.69,1.49,1.77.03,2.69.02,2.84-2.62,2.76-3.31-.1-6.62-.43-9.93-.66-2.86-.2-5.72-.41-8.59-.61-.26-.02-.52,0-.78-.01-3.07-.08-3.29-.33-3.22-3.42.02-1.04.42-1.57,1.47-1.55.52.01,1.04,0,1.57,0,0-.04,0-.07,0-.11Z"/>
    <path class="cls-2" d="M567.69,271.19c5.38.05,10.73.47,15.97,1.84,1.72.45,2.76,2.99,1.81,4.53-.16.27-.71.44-1.05.41-1.81-.18-3.6-.49-5.41-.68-4-.42-8-.79-12-1.17-.33-.03-.67,0-1.01-.01-3.63-.12-3-.62-3-3.65,0-.89.67-1.23,1.45-1.26,1.08-.04,2.16,0,3.25,0Z"/>
    <path class="cls-1" d="M331.91,261.51c-2.71-.48-5.41-1.04-8.14-1.43-2.73-.39-5.48-.61-8.22-.9-.07,0-.15,0-.22,0-2.62-.13-3.46-1.31-2.59-3.84.14-.4.9-.85,1.36-.83,2.64.1,5.3.19,7.91.55,3.84.53,7.65,1.27,11.47,1.94,1.34.23,1.62.59,1.64,1.97,0,.27-.02.54,0,.8.12,1.16-.43,1.6-1.51,1.54-.56-.03-1.12,0-1.68,0-.01.07-.02.15-.04.22Z"/>
    <path class="cls-2" d="M475.27,241.34c4.77.64,9.54,1.24,14.29,1.95,1.99.3,2.91,2.15,2.07,4.02-.14.32-.79.59-1.19.56-2.04-.15-4.08-.42-6.12-.61-3.45-.31-6.91-.56-10.36-.92-.72-.07-1.88-.36-2-.79-.28-.99-.1-2.15.02-3.22.02-.21.57-.47.9-.53.77-.13,1.56-.14,2.34-.2.01-.09.03-.18.04-.27Z"/>
    <path class="cls-1" d="M319.91,241.4c3.1.4,6.21.76,9.3,1.21,1.4.2,2.31,2.73,1.38,3.8-.24.28-.81.41-1.21.39-1.71-.09-3.41-.3-5.11-.4-2.23-.13-4.47-.19-6.7-.27-1.52-.06-1.74-.27-1.74-1.81-.01-2.65,0-2.66,2.6-2.68.48,0,.97,0,1.45,0,0-.08.02-.16.03-.24Z"/>
    <path class="cls-1" d="M321.41,274.96c-3.05-.48-6.1-.95-9.14-1.46-.75-.13-1.08-.65-1.1-1.47-.09-3.42-.09-3.58,3.25-3.36,2.81.19,5.61.73,8.39,1.2.43.07,1.07.56,1.12.93.16,1.11.12,2.27.05,3.4-.01.2-.54.47-.86.52-.55.09-1.11.02-1.67.02-.01.07-.02.15-.03.22Z"/>
    <path class="cls-2" d="M483.74,233.98c-2.67-.29-5.34-.54-8-.87-1.42-.18-1.77-.65-1.78-2.1,0-.3,0-.61,0-.91.02-1.35.39-1.83,1.74-1.76,2.3.11,4.6.37,6.9.57,1.23.11,2.45.23,3.67.33.92.07,1.29.62,1.37,1.49.24,2.95.11,3.12-2.77,3.15-.37,0-.75,0-1.12,0,0,.03,0,.07-.01.1Z"/>
    <path class="cls-2" d="M485.63,224.17c-1.89-.19-4.79-.44-7.68-.77-1.42-.16-1.69-.56-1.71-2.01,0-.34,0-.69,0-1.03.04-1.33.37-1.79,1.68-1.71,3.46.22,6.92.55,10.37.88.85.08,1.3.62,1.36,1.53.22,3.08.2,3.12-4.02,3.11Z"/>
    <path class="cls-2" d="M579.75,287.57c-2.34-.28-5.44-.65-8.55-1.04-.92-.12-1.31-.69-1.34-1.65-.08-2.8.07-3.12,2.82-2.93,3,.2,5.99.7,8.98,1.1.92.12,1.35.73,1.35,1.66,0,.11,0,.23,0,.34q.03,2.53-3.27,2.52Z"/>
    <path class="cls-2" d="M481.34,258.84c-1.59-.29-3.9-.71-6.22-1.11-.85-.15-1.7-.25-2.55-.38-.94-.15-1.48-.67-1.42-1.7.02-.38.02-.76,0-1.14-.06-1.08.51-1.59,1.48-1.57,1.37.03,2.76.1,4.12.32,1.99.32,3.96.78,5.93,1.18,1.04.21,1.56.82,1.47,1.93,0,.11,0,.23,0,.34q0,2.15-2.81,2.14Z"/>
    <path class="cls-2" d="M501.55,226.23c-.95-.12-2.62-.27-4.27-.54-1.55-.25-1.98-1.17-1.79-3.45.09-1.12.68-1.64,2.16-1.56,1.82.1,3.63.32,5.43.59,1.11.16,1.68.91,1.6,2.1-.01.15,0,.3,0,.46q0,2.4-3.12,2.4Z"/>
    <path class="cls-3" d="M355.89,223.1c1.76.27,3.53.54,5.29.82.92.15,1.3.76,1.36,1.67.18,2.99.09,3.14-2.84,3.04-1.63-.06-3.26-.26-4.89-.42-1.05-.1-1.64-.66-1.53-1.81.02-.19,0-.38,0-.57,0-2.57.03-2.59,2.61-2.73Z"/>
    <path class="cls-2" d="M480.36,268.44c-2.4-.4-4.73-.72-7.02-1.21-.4-.09-.91-.8-.96-1.27-.26-2.55.07-2.96,2.57-2.74,2.07.18,4.12.64,6.16,1.09,1.14.25,1.86,3,.99,3.72-.43.35-1.18.3-1.73.41Z"/>
    <path class="cls-3" d="M342.01,248.33c-1.29-.15-2.58-.29-3.87-.47-.86-.11-1.26-.57-1.27-1.53-.04-3.19,0-3.29,3.15-3.08,1.22.08,2.42.39,3.63.61.85.16,1.25.69,1.28,1.59.12,2.81.13,2.81-2.92,2.87Z"/>
    <path class="cls-3" d="M363.43,201.42s-.07,0-.11,0c-2.67-.08-3.1-.59-2.59-3.32.07-.39.62-.95.98-.98,1.07-.1,2.15,0,3.23.08.81.06,1.14.62,1.21,1.39.25,2.58-.03,2.88-2.72,2.82Z"/>
  </g>
  <path class="cls-1" d="M349.66,351.98c.69,8.92-2.2,20-2.78,25.94-.3,3.07-.67,6.13-1.08,9.18-.11.81-.46,1.61-.77,2.38-1.08,2.69-3.05,3.92-5.91,4.05-4.84.23-9.49-.95-14.19-1.77-10.7-1.88-21.41-3.71-32.11-5.61-3.9-.69-7.77-1.49-11.65-2.28-.84-.17-1.65-.48-2.46-.76-4.37-1.51-6.35-4.78-6.64-9.33-.13-2.05-.32-4.1-.49-6.15-.04-.45-.14-.9-.21-1.34v-5.26c.09-1.25.19-2.49.26-3.74.3-5.02.44-10.05.92-15.04.64-6.57,3.04-8.87,9.41-9.58,1.25-.14,2.51-.31,3.76-.46h6.5c1.7.15,3.41.33,5.11.44,10.23.65,20.31,2.46,30.39,4.26,3.9.7,7.84,1.11,11.75,1.74,7.13,1.14,9.68,6.63,10.2,13.35Z"/>
  <g>
    <path class="cls-1" d="M196.21,509.25c.27-2.95.43-5.93.84-8.86,1.22-8.73,3.89-17.05,7.16-25.18,2.3-5.72,4.84-11.31,8.6-16.24,4.61-6.05,10.66-9.16,18.1-9.88,9.37-.9,18.43.59,27.25,3.62,7.07,2.43,14,5.29,21,7.96.3.11.62.15.93.23-.03-.33-.02-.67-.11-.98-3.5-12.91-6.24-25.98-8.18-39.22-.46-3.14-.92-6.26-.27-9.43.64-3.11,2.22-4.37,5.31-4.49,3.74-.14,7.34.79,10.99,1.35,5.61.86,11.25,1.51,16.87,2.35,11.23,1.67,22.46,3.4,33.68,5.11,2.44.37,4.86.86,7.3,1.16.51.06,1.23-.29,1.6-.69,3.86-4.2,7.58-8.53,11.52-12.65,10.8-11.31,21.65-22.56,32.54-33.78,6.86-7.07,13.63-14.26,20.8-21,8.06-7.57,16.86-14.25,26.13-20.24,4.67-3.02,9.89-4.68,15.2-5.99,4.64-1.14,9.31-2.16,14.01-3.02,1.44-.26,3.01.13,4.51.29,1.97.22,3.92.53,5.89.77.28.04.59-.07.88-.11-.3-.27-.56-.72-.9-.79-.83-.16-1.72-.03-2.53-.24-2.01-.51-3.2-2.04-4.07-3.82-.81-1.64-1.54-3.32-2.26-5.01-.13-.32-.05-.75,0-1.13,1.18-10.97,2.95-21.83,6.46-32.3,1.3-3.89,2.95-7.65,4.38-11.5.25-.66.39-1.48.24-2.16-1.77-8.23,3.3-15.58,8.53-18.56,5.88-3.35,12.22-5.52,18.97-6.2,4.05-.41,8.11-.66,12.17-.99.33-.03.66-.13.98-.2h2.69c.7.09,1.4.18,2.1.26,1.7.2,3.44.26,5.1.63,6.32,1.42,11.9,4.49,16.89,8.59,2.01,1.66,3.85,3.64,5.4,5.75,2.02,2.77,3.76,5.78,5.48,8.76,5.98,10.37,10.38,21.47,13.83,32.91,4.02,13.32,7.45,26.82,11.32,40.19,3.28,11.35,5.32,22.98,7.77,34.51,1.11,5.23,2.33,10.37,4.35,15.33.98,2.41,1.5,5.02,2.11,7.56.32,1.32.37,2.7.55,4.06v1.83c-.06.26-.17.51-.18.77-.23,4.73-2.2,8.57-5.74,11.58-.86.73-1.07,1.58-1.06,2.7,0,3.92.19,7.88-.27,11.75-.73,6.16-3.68,11.13-8.95,14.48-.66.42-1.32,1.02-2.04,1.12-.88.13-.99.53-1.03,1.25-.21,3.23-.39,6.47-.72,9.69-.83,8.21-2.83,16.06-7.21,23.11-2.83,4.56-5.43,9.35-10.03,12.43-.59.4-.14.59.16.8,2.19,1.47,3.99,3.35,5.43,5.55,6.36,9.71,9.6,20.4,9.62,32.09,0,3.4-.84,6.65-2.94,9.3-1.84,2.33-4.03,4.37-6.08,6.53-.6.63-1.3,1.16-1.84,1.83-5.94,7.35-12.52,14.04-19.55,20.28-4.85,4.3-9.74,8.52-15.25,11.99-14.57,9.17-30.49,13.33-47.47,13.79-3.29.09-6.57.18-9.86.22-.66,0-.89.18-.93.89-.1,1.52-.18,3.06-.52,4.53-1.93,8.33-6.39,15.3-11.58,21.83-1.39,1.74-3.42,2.53-5.69,2.52-2.34,0-4.62-.17-6.9-.95-4.49-1.54-9.08-2.77-13.63-4.16-7.54-2.32-15.07-4.68-22.62-6.98-1.5-.45-3.05-.78-4.6-.96-4.15-.47-8.33-.66-12.39-1.82-1.58-.45-3.02-1.04-4.27-2.13-2.36-2.06-4.76-4.06-7.11-6.12-1.03-.91-2.19-1.49-3.53-1.55-2.57-.11-5.15-.26-7.66.61-.6.21-.83.47-.93,1.06-.28,1.65-.48,3.34-.96,4.93-1.08,3.56-2.23,7.1-3.5,10.59-.78,2.16-2.51,3.13-4.73,2.8-1.72-.25-3.47-.59-5.09-1.22-5.79-2.24-11.54-4.6-17.28-6.95-.41-.17-.8-.55-1.05-.93-.66-1-1.24-2.06-1.91-3.2-.07.24-.13.32-.11.38,1.14,2.94-.2,5.13-3.31,5.43-3.11.29-5.94-.41-8.38-2.46-.34-.29-.57-.47-.8.13-.7,1.84-2.11,2.61-3.93,2.24-1.45-.3-2.38-.12-2.92,1.42-.16.45-.78.89-1.27,1.04-1.84.55-3.67.65-5.39-.47-.3-.19-.63-.33-.95-.49-.04.37-.12.75-.11,1.11.05.99-.24,1.82-1.28,1.96-1.37.19-2.8.27-4-.62-.99-.74-1.94-1.54-2.83-2.39-.43-.41-.63-.42-1.08-.04-.88.76-1.84,1.43-2.79,2.1-4.67,3.29-9.89,5.48-15.02,7.84-1.88.86-3.97,1.27-5.96,1.88h-5.16c-1.17-.16-2.35-.4-3.52-.45-5.17-.25-10.11-1.41-14.77-3.76-3.41-1.72-6.66-3.64-8.94-6.86-.34-.48-.71-1.06-.74-1.62-.12-1.89-.45-3.88-.06-5.68.8-3.65,1.62-7.39,3.16-10.75,2.82-6.16,7.18-11.29,11.84-16.12,1.32-1.37,2.91-2.5,4.45-3.63.79-.58.68-.76-.09-1.13-2.53-1.22-5.13-2.34-7.55-3.76-9.61-5.64-19.23-11.27-28.71-17.14-6.54-4.05-12.91-8.39-19.23-12.79-3.16-2.2-6.08-4.85-7.43-8.64-1.1-3.09-1.91-6.32-2.57-9.55-.48-2.37-.5-4.83-.73-7.26v-2.52ZM249.72,595.86c-1.78,3.17-2.71,6.65-3.38,10.2-.07.37.41.85.63,1.29.12-.3.33-.59.34-.89.06-3.17.79-6.17,2.03-9.06.2-.47.24-1,.35-1.5.01,0,.03.02.04.03,0-.02,0-.04,0-.07ZM266.05,575.19c-.57.26-1.19.45-1.69.81-5.59,3.97-9.19,9.72-13.01,15.27-.28.41-.19,1.08-.27,1.63,1.75-2.27,3.26-4.58,4.88-6.8,2.95-4.04,6.24-7.78,10.12-10.93,0-.01-.02-.02-.03-.04,0,.02,0,.04,0,.06ZM316.63,552.03c.49-.16,1.02-.24,1.48-.48,4.74-2.49,9.47-4.99,14.19-7.51.89-.48,1.73-1.05,2.56-1.63.12-.08.17-.55.09-.61-2.23-1.64-5.69-1.4-7.63.6-2.97,3.05-5.98,6.06-9.45,8.53-.44.31-.81.74-1.21,1.12l-.03-.02s.01-.01.01-.01ZM503.26,243.72c-3.05,1.12-6.13,2.19-9.15,3.38-4.48,1.76-7.55,5.06-9.59,9.44-.8,1.72-1.04,3.49-.78,5.34.06.42.26.81.4,1.22.46-.29.95-.54,1.37-.88.18-.15.22-.47.33-.71,3.78-7.48,8.81-13.68,16.59-17.12.31-.14.55-.43.83-.65.09,0,.18,0,.26,0-.03,0-.05.03-.08.02-.06-.01-.12-.03-.19-.05ZM456.9,612.98c1.25-1.75,2.55-3.47,3.75-5.26,3.02-4.47,5.56-9.19,7.2-14.4,1.45-4.6.19-8.71-1.98-12.67-.21-.38-.88-.5-1.34-.74-.1.43-.3.86-.29,1.29,0,3.08.26,6.18.05,9.25-.53,7.83-3.08,15.01-7.14,21.66-.14.23-.16.55-.24.81-.02,0-.04,0-.06,0,.02.02.03.03.05.05ZM483.56,267.03c-.27.43-.6.83-.79,1.29-4.76,11.27-7.66,23.05-9.4,35.16-.39,2.68-.57,5.34-.3,8.03.19,1.8,1.13,3.08,2.68,3.95,1.24.7,2.51.39,3.8.32.57-.03.59-.14.55-.59-.26-3.15-.67-6.29-.71-9.44-.07-5.79-.14-11.59.2-17.36.43-7.27,1.77-14.42,3.93-21.4,0-.06,0-.12-.01-.17.01.07.03.13.04.2ZM396.11,495.53h.09s-.08,0-.08,0c1.36,6.2,2.72,12.4,4.11,18.6.08.34.45.87.68.87,1.74-.03,3.28.56,4.82,1.28,1.08.5,2.21.92,3.35,1.28.39.12.9.11,1.28-.05,3.4-1.37,6.81-2.73,10.16-4.21,5.68-2.51,11.33-5.12,17-7.65,1.57-.7,3.18-1.28,4.95-1.99-.44-.18-.69-.32-.96-.4-3.04-.92-6.09-1.81-9.13-2.75-.66-.2-1.26-.6-1.91-.86-.16-.06-.54.05-.57.15-.45,1.56-1.71,1.93-3.04,2.1-.84.11-1.7-.01-2.24.91-.12.21-.6.24-.93.27-1.66.14-3.28-.18-4.53-1.28-1.46-1.28-2.91-2.65-4.04-4.23-1.71-2.39-3.13-5-4.71-7.5-.31-.5-.67-1.18-1.14-1.33-1.93-.61-3.92-1.05-5.98-1.58.14.3.2.52.33.7,1.68,2.33,3.3,4.71,5.06,6.97,2,2.57,3.65,5.33,4.41,8.52.32,1.37.42,2.9.17,4.27-.44,2.47-2.56,3.3-4.57,1.86-1.05-.75-1.97-1.74-2.82-2.74-2.76-3.25-5.45-6.56-8.2-9.82-.44-.52-1.03-.92-1.54-1.38ZM443.44,353.34s.04-.01.06-.02c-.03,0-.05,0-.08,0,0-.29.07-.6-.02-.86-.63-1.75-1.39-3.46-1.9-5.25-.25-.88-.32-2,0-2.81.21-.51.29-.83.19-1.33-.08-.37-.12-.92.08-1.15.98-1.11,2.25-.87,2.9.51.25.54.46.98,1.2.92,3.19-.28,6.4-.45,9.59-.77,4.6-.46,9.18-1.11,13.79-1.48,2.22-.18,4.47.05,6.7.16.73.04.85-.12.53-.78-.43-.87-.81-1.77-1.18-2.67-1.66-4.02-2.62-8.15-1.77-12.53.14-.75-.08-.93-.75-.98-4.22-.37-8.44-.38-12.56.76-4.71,1.31-9.48,2.51-14.04,4.25-5.78,2.22-10.61,6.17-15.53,9.9-.61.47-.38.73.03,1.13,1.96,1.88,3.95,3.73,5.85,5.67,2.34,2.4,4.61,4.88,6.9,7.32ZM550.66,550.96c-.29.17-.55.39-.86.52-5.53,2.41-11,4.94-16.6,7.17-12.88,5.13-26.21,8.86-39.47,12.79-7.7,2.28-15.43,4.5-23.16,6.71-.85.24-1.07.48-.61,1.36.56,1.07,1.02,2.22,1.32,3.39.26,1.01.72,1.28,1.71,1.22,3.5-.21,7-.38,10.51-.46,4.94-.12,9.84-.65,14.62-1.89,5.35-1.39,10.8-2.59,15.89-4.67,9.72-3.99,18.57-9.58,26.42-16.75,3.09-2.82,6.33-5.47,9.47-8.22.32-.28.48-.76.71-1.14,0,.02,0,.03.01.05,0-.02.01-.05.02-.07ZM261.6,481.76l-.07.02h.07c-1.98-2.81-4.28-5.31-7.01-7.36-2.56-1.92-5.25-3.64-7.81-5.56-1.02-.77-1.9-1.78-2.72-2.79-.56-.69-.1-1.53.76-1.42,1.27.17,2.7.21,3.75.85,3.11,1.88,6.19,3.85,9.06,6.09,4.12,3.2,7.52,7.07,9.43,12.12.18.48.85.77,1.31,1.13.38.29.96.47,1.13.85.54,1.19.89,2.47,1.4,3.68.21.51.55,1.08.99,1.34,6.23,3.77,12.49,7.5,18.75,11.24.27.16.56.3.99.54-.09-.46-.12-.76-.2-1.04-.63-2.27-1.29-4.54-1.91-6.81-2.38-8.7-4.73-17.4-7.14-26.1-.14-.51-.58-1.13-1.03-1.33-8.8-3.9-17.6-7.82-26.86-10.51-7.07-2.05-14.18-3.74-21.62-2.86-4.69.55-9.01,1.96-12.65,5.24-2.96,2.67-5.35,5.79-7.16,9.31-5.99,11.73-10.62,23.94-12.08,37.22-.54,4.85-.27,9.65.56,14.45.93,5.37,3.42,9.69,7.71,12.94,1.05.79,2.02,1.71,3.11,2.43,6.55,4.34,13.15,8.6,19.69,12.95,11.37,7.58,22.94,14.77,35.45,20.25.5.22,1.17.32,1.68.16,6.06-1.81,12.08-3.74,18.14-5.51,7.45-2.18,14.5-4.96,20.63-10.1,6.01-5.03,11.33-10.81,17.44-15.71,1.28-1.03,2.7-1.62,4.15-1.54,2.09.12,4.19.64,6.23,1.19,2.02.55,3.97,1.35,5.96,2.04-2.35-1.96-4.82-3.68-7.12-5.61-4.1-3.42-8.68-5.91-13.57-7.9-8.39-3.41-16.33-7.73-23.89-12.75-7.23-4.8-14.31-9.85-21.62-14.52-7.31-4.67-14.84-8.98-22.25-13.49-1.66-1.01-3.24-2.19-4.81-3.35-.84-.63-1.25-2.65-.75-3.54.15-.27.59-.53.88-.51.92.05,1.88.08,2.73.39,2.32.84,4.59,1.83,6.9,2.72,1.11.43,2.24.76,3.36,1.14ZM572.51,523.03c-.22-1.66-.36-3.33-.67-4.98-1.51-7.99-4.29-15.46-9-22.1-1.74-2.45-3.92-4.4-6.55-5.79-.56-.3-1.31-.58-1.89-.45-5.05,1.14-10.17,1.04-15.29,1.01-3.15-.02-6.17-.67-9-2.07-1.73-.86-3.39-1.54-5.27-.57-.09.05-.22.03-.33.05-3.59.81-7.24,1.41-10.75,2.49-3.46,1.07-6.76,2.65-10.15,3.95-8.88,3.41-17.88,6.52-26.62,10.25-16.83,7.16-33.75,14.01-51.07,19.87-13.18,4.46-26.25,9.27-39.34,14.02-3.48,1.26-6.82,2.9-10.24,4.33-.81.34-.95.72-.39,1.41.48.59.96,1.18,1.33,1.83.17.29.08.74.1,1.11-.34-.08-.73-.07-1-.26-.93-.63-1.8-1.36-2.73-1.99-.27-.18-.72-.3-1.02-.21-2.38.76-4.74,1.58-7.11,2.36-.62.21-.76.47-.36,1.06.94,1.37,1.84,2.78,2.76,4.17.14.21.33.47.55.54,1.89.65,3.06,2.15,4.14,3.7,5.65,8.03,11.92,15.55,18.37,22.93.17.2.33.53.53.57,1.59.26,1.71,1.8,2.43,2.81.15.21.26.46.43.67,2.21,2.78,4.43,5.56,6.65,8.34.46.58,2.11.92,2.76.63.85-.38,1.69-.81,2.58-1.08.8-.25.7-.53.29-1.08-.65-.88-1.27-1.8-1.83-2.74-5.98-9.91-12.46-19.47-19.42-28.69-.24-.31-.16-.87-.22-1.32.4.16.94.21,1.2.51,5.98,6.88,11.65,14.01,16.7,21.64,2.09,3.16,4.18,6.32,6.09,9.59.56.97.95,1.13,1.91.85,6.43-1.87,12.88-3.67,19.31-5.52,22.75-6.56,45.51-13.08,68.25-19.71,12.43-3.62,24.82-7.39,36.79-12.44,8.08-3.41,16.13-6.91,23.57-11.66,3.72-2.37,7.16-5.12,9.99-8.59,2.22-2.73,3.61-5.78,3.5-9.44ZM518.83,418.69c.12,0,.24,0,.36,0,0,2.48-.02,4.96,0,7.43.07,9.15.08,18.3.26,27.45.12,6.01.3,12.04.85,18.03.46,5.02,3.06,8.81,7.77,10.88,1.78.78,3.47,1.79,5.26,2.56,1.33.57,2.72,1.12,4.14,1.36,3.96.69,7.96.67,11.95.23,4.83-.52,9.23-2.24,12.47-6.03,5.39-6.3,9.55-13.37,11.51-21.59,2.4-10.06,2.59-20.29,1.94-30.57-.14-2.21-.25-4.41-.37-6.62-.03-.52-.04-.99-.8-.86-6.55,1.12-13.1,2.24-19.65,3.32-.71.12-.96.38-.88,1.11.59,5.03,1.14,10.06,1.76,15.09.27,2.19.78,4.34.98,6.53.14,1.54-.29,1.85-1.77,1.65-.42-.06-.94-.44-1.14-.83-.34-.66-.51-1.43-.68-2.17-2.29-9.97-2.74-20.14-3.1-30.31-.31-8.61-.4-17.22-.68-25.84-.34-10.74-.71-21.48-1.17-32.22-.22-5.06-.65-10.11-1.04-15.17-.29-3.67-.63-7.34-1.02-11.01-.44-4.16-1.21-8.21-3.72-11.71-2.46-3.43-6.09-4.29-9.78-2.41-9.53,4.88-18.4,10.75-26.66,17.62-1.47,1.22-3.06,2.33-4.69,3.32-2.41,1.46-4.87,2.83-7.37,4.12-1.54.8-2.24,2.28-2.82,3.67-1.15,2.76-1.98,5.66-2.92,8.51-.72,2.2-.16,4.3,1.29,5.35.6.44.93.47,1.13-.35.58-2.49,1.33-4.94,1.75-7.45.38-2.24.41-4.54.59-6.82.08-1.02.53-1.43,1.59-1.42,1.07.01,1.24.6,1.29,1.44.02.46.06.91.06,1.37,0,4.77-.9,9.4-2.25,13.94-.49,1.64-.34,2.05,1.2,2.67.55.22,1.14.37,1.73.47.16.03.51-.23.54-.41.33-1.83.68-3.67.89-5.52.42-3.79.75-7.58,1.1-11.37.08-.91.51-1.22,1.39-1.21.86,0,1.28.35,1.27,1.19-.01,1.6.04,3.21-.13,4.79-.4,3.71-.89,7.41-1.41,11.11-.16,1.18.19,2.03,1.31,2.26,1.27.25,2.58.28,3.87.35.15,0,.42-.37.46-.6.79-4.89.55-9.8.04-14.68-.23-2.19,1.55-3.99,3.74-3.94.18,0,.53.39.51.56-.13.89-.15,1.9-.6,2.62-.63,1.01-.67,1.96-.53,3.04.29,2.19.69,4.38.74,6.58.04,1.5-.46,3-.63,4.52-.06.6-.02,1.32.26,1.82.31.57.87,1.13,1.45,1.39,5.55,2.49,12.05-.89,12.72-6.84.25-2.23.32-4.48.5-6.72.05-.66-.29-.47-.61-.35-1.02.37-2.02.81-3.06,1.11-.64.19-.8.54-.98,1.16-.65,2.3-1.41,4.57-2.17,6.84-.27.8-.97,1.2-1.68.91-.37-.15-.55-.91-.7-1.42-.09-.3,0-.69.07-1.01.59-2.48,1.17-4.96,1.8-7.43.08-.33.36-.71.65-.85,1-.49,2.06-.85,3.08-1.31,3.76-1.69,7.52-3.36,11.27-5.09,1.92-.89,3.42-2.32,4.46-4.2.8-1.46,1.51-2.98,2.3-4.45.43-.8.83-1.66,1.43-2.3.33-.35,1.06-.4,1.61-.38.15,0,.37.75.38,1.15.02.52-.05,1.09-.25,1.56-1.04,2.4-2.07,4.81-3.24,7.14-.79,1.56-2.09,2.66-3.68,3.39-2.38,1.1-4.75,2.24-7.13,3.33-.94.43-2.04.68-1.18,2.16.2.35.13.9.09,1.35-.16,1.9-.28,3.81-.56,5.69-.14.96-.44,1.96-.91,2.8-2.5,4.46-8.01,8.64-14.05,7.07-3.07-.8-6.15-1.25-9.33-1.28-1.2,0-2.38-.9-3.58-1.37-.3-.12-.67-.24-.96-.18-2.47.56-4.67.25-6.41-1.83-.15-.18-.38-.33-.6-.43-1.62-.69-3.05-1.7-3.88-3.27-1.53-2.89-2.07-5.94-.76-9.09.27-.65.11-1.03-.4-1.46-1.41-1.19-2.75-2.46-4.16-3.65-.2-.17-.57-.21-.87-.2-.81.02-1.63.16-2.44.14-3.32-.07-6.65-.39-9.96-.22-3.75.2-7.49.8-11.23,1.28-3.15.4-6.28.9-9.42,1.32-.71.09-.79.39-.54.99.39.95.72,1.93,1.14,2.86,1.42,3.11,1.08,5.86-1.3,8.39-1.55,1.65-2.94,3.45-4.39,5.2-.18.22-.25.52-.38.78.27.08.54.2.82.22,3.76.33,7.51.7,11.27.97,6.71.47,13.42.9,20.13,1.3,7.53.44,15.07.84,22.6,1.23,5.82.3,11.64.55,17.46.85.72.04,1.1-.13,1.21-.92.05-.33.32-.75.6-.89,1.54-.78,3.05.06,3.18,1.83.19,2.43.36,4.87.37,7.31.04,13.19.02,26.39.02,39.58ZM594.64,396.63c-.14-1.13-.18-2.29-.43-3.39-.39-1.74-.72-3.54-1.41-5.16-2.39-5.63-3.76-11.55-5.07-17.51-2.07-9.36-4.04-18.76-6.45-28.03-3.15-12.11-6.85-24.08-10.02-36.18-3.02-11.49-7.16-22.53-11.95-33.35-2.29-5.16-5.42-9.82-8.28-14.64-1.89-3.19-4.1-6.08-7.07-8.16-3.16-2.21-6.5-4.18-9.92-5.95-4.4-2.28-9.22-2.69-14.09-2.46-.26.01-.74.25-.74.37.02.9.06,1.82.25,2.71.89,4.17,1.8,8.33,2.74,12.48,1.54,6.78,3.09,13.57,4.67,20.34.33,1.4.71,2.81,1.31,4.1.81,1.75,1.79,3.43,2.82,5.06,1.58,2.49,3.28,4.91,4.92,7.36.54.8.89,1.02,1.67.06,2.45-3.03,5.66-4.7,9.54-4.79,4.52-.11,7.44,2.55,7.92,7.1.37,3.47-.68,6.56-2.52,9.4-2.15,3.33-5,5.94-8.31,8.05-.29.18-1.09.32-.33.9,2.07,1.6,3.17,3.88,3.86,6.28.7,2.44,1.23,4.97,1.43,7.49.15,1.89.97,2.6,2.59,3.03,4.27,1.16,8.38,2.78,12.23,5.03,7.29,4.27,12.28,10.36,14.1,18.86,3.14,14.68,4.13,29.55,3.84,44.54-.03,1.64-.08,3.28-.06,4.92,0,.32.28.68.52.94.56.62,1.31,1.11,1.72,1.81,1.54,2.6,1.47,5.43,1.01,8.31-.19,1.18-.79,1.99-1.81,2.43-1.4.6-2.86,1.06-4.26,1.64-.28.12-.67.51-.66.76.21,4.8.48,9.59.71,14.39.03.7.27.85.78.4,1.18-1.04,2.48-1.99,3.47-3.2,3.47-4.23,4.84-9.19,4.58-14.67-.11-2.36-.14-4.72-.17-7.09-.02-1.2.34-2.26,1.36-2.98,3.87-2.68,5.44-6.52,5.5-11.18ZM322.21,586.91l.21-.07c.17-1.01.32-2.03.52-3.03.64-3.19,1.43-6.32,3.3-9.04,1.17-1.71,2.86-1.96,4.69-1.63,1.66.3,2.24,1.62,2.57,3.11.07.3.04.66.2.88.19.25.58.58.8.52,1.69-.42,3.19-1.14,4.42-2.51,1.58-1.77,3.34-3.37,4.99-5.08.24-.25.43-.7.41-1.05-.15-3.22.72-6.14,2.56-8.7.93-1.3,2.1-2.44,3.27-3.53.46-.43,1.28-.45,1.82-.83,2.22-1.57,4.7-2.27,7.34-2.55,1.93-.2,1.92-.22,1.03-2.01-.1-.2-.27-.42-.26-.62.04-.95-.21-2.27.3-2.76.6-.59.57-1.11.66-1.73.08-.55-.13-.7-.63-.47-.95.45-1.92.84-2.85,1.33-2.98,1.57-5.93,1.65-8.87-.07-2.57-1.51-5.29-2.66-8.18-3.34-.41-.1-.97-.08-1.32.13-4.26,2.51-8.42,5.22-12.77,7.57-3.72,2.01-7.65,3.63-11.48,5.43-.41.19-.95.35-1.14.7-.76,1.36-2.14,1.69-3.36,2.29-1.5.73-3.05,1.23-4.76.71-.26-.08-.63.14-.93.27-3.63,1.58-7.22,3.3-10.91,4.72-4.12,1.59-8.63,2.04-12.41,4.66-1.03.71-2.37.93-3.48,1.54-7.37,4.05-13.63,9.45-18.83,16.14-3.53,4.54-6.61,9.33-8.08,15.03-.64,2.49-.85,4.96-.05,7.43.15.46.48,1.01.88,1.2,1.81.9,3.6,1.95,5.53,2.45,3.43.89,6.93,1.51,10.43,2.06,2.17.34,4.4.58,6.58.42,3.17-.24,6.04-1.62,8.74-3.32,2.42-1.51,4.86-2.98,7.32-4.43,1.39-.82,1.43-.78.84-2.27-1.41-3.56-2.31-7.19-1.32-11.03.53-2.04,1.29-3.9,3.45-4.76.28-.11.42-.7.54-1.1.46-1.55.76-3.17,1.39-4.63.28-.65,1.17-1.26,1.89-1.42,1.52-.33,3.06-.18,4.33.95.44.39.91.75,1.37,1.12.18-.56.36-1.13.54-1.69.8-2.44,1.83-3.25,3.92-3.08,1.38.11,2.19,1.05,2.89,2.12.34.51.62,1.07.93,1.61.43-1.65.73-3.21,1.24-4.7.48-1.4,1.48-2.16,3.07-2.18,1.76-.02,2.95.84,3.75,2.26.8,1.41,1.41,2.93,2.05,4.43.35.82.59,1.69.87,2.54ZM497.38,279.45c.21-.69.42-1.25.56-1.84.57-2.52,1.05-5.03-1.47-6.87-.09-.06-.15-.17-.22-.26-1.81-2.49-4.14-3.98-7.24-4.21-1.07-.08-1.67.07-2.09,1.22-2.32,6.38-3.38,13.03-4.14,19.74-.71,6.28-.39,12.57-.19,18.85.15,4.79.76,9.5,2.67,13.94,1.15,2.68,2.93,4.84,5.62,5.92,2.53,1.01,5.24,1.25,7.94.83,4.02-.62,8.03-1.31,12.04-2.02.53-.09,1.06-.37,1.52-.66,3-1.85,5.9-3.92,9.01-5.57,3.93-2.08,8.03-3.84,12.05-5.75.18-.09.35-.35.39-.56.28-1.47,1.95-2.25,3-1.22,1.36,1.34,2.74,1.03,4.1.34,4.27-2.17,7.58-5.39,9.79-9.72.49-.96.83-2.06,1.02-3.13.46-2.64-2.64-5.81-5.2-5.2-3.25.77-5.89,2.54-7.44,5.71-.14.29-.41.76-.59.75-1.37-.09-2.77.64-4.08-.7-5.11-5.26-8.47-11.57-10.91-18.45-.3-.84-.74-1.3-1.51-1.66-1.76-.84-3.61-.88-5.48-.88-.71,0-1.56.13-1.64-1.04-.14-1.91.11-2.55,1.41-2.71,1.51-.18,3.05-.24,4.57-.17.79.03.99-.01.8-.86-.7-3.16-1.35-6.33-1.97-9.5-1.18-5.97-2.34-11.95-3.47-17.93-.12-.64-.39-.74-.89-.68-1.41.17-2.83.26-4.22.52-9.46,1.72-16.28,7.22-21.17,15.46-.32.55-.32.76.4.81,1.11.09,2.24.22,3.33.46,4.19.93,7.62,5.17,7.44,9.27-.07,1.67-.35,3.32-.53,4.98-.44,3.94-2.52,7.1-4.55,10.32-1.08,1.72-1.95,3.58-2.85,5.41-.4.8-.24,1.57.26,2.36.39.62.58,1.39.76,2.12.14.55-.12.85-.74.79-1.6-.15-2.7-1.22-2.8-2.87-.04-.71.01-1.45.13-2.16.41-2.5,1.59-4.66,2.9-6.76.76-1.22,1.53-2.44,2.25-3.69.11-.2.14-.65.01-.76-.55-.49-1.17-.9-1.77-1.34-.45-.33-.72-.3-.81.34-.11.71-.22,1.44-.43,2.12-.44,1.4-1.22,1.85-2.65,1.7-1.29-.14-1.51-1.15-1.58-2.15-.1-1.54-.11-3.1-.02-4.64.02-.38.57-1.04.9-1.05,2.9-.11,5.69.19,7.78,3.02ZM475.08,404.11c0-.07,0-.15,0-.22-4.67-.15-9.34-.28-14.01-.44-8.25-.28-16.51-.57-24.76-.88-.91-.03-1.15.22-.8,1.07,1.23,2.94,2.47,5.88,3.66,8.84.27.68.51,1.45.48,2.17-.04,1.08-.37,2.14-.49,3.23-.11.9.02,1.83-.17,2.7-.54,2.53-1.16,5.05-1.8,7.55-.19.76-.04,1.05.75,1.01,1.38-.06,2.76-.09,4.14-.09,18.98.02,37.97-.35,56.94.58,4.96.24,9.92.57,14.87.9.81.05,1.02-.18,1.01-.99-.1-7.89-.18-15.79-.23-23.68,0-.86-.34-.97-1.06-.98-12.85-.24-25.7-.5-38.56-.76ZM474.43,398.68s0,.03,0,.04c5.6.19,11.2.41,16.8.56,7.5.2,15.01.35,22.52.54.72.02.96-.22.95-.98-.09-7.09-.16-14.18-.2-21.27,0-.75-.31-.87-.94-.87-1.76.01-3.51.02-5.27-.08-12.05-.62-24.1-1.25-36.15-1.93-7.05-.4-14.09-.87-21.13-1.38-3.91-.29-7.81-.7-11.7-1.15-1.2-.14-2,.06-2.47,1.29-.59,1.56-1.45,3.03-1.87,4.63-1.59,6.09-1.48,12.3-.81,18.5.03.29.62.7.97.73,1.67.14,3.36.16,5.04.22,11.42.38,22.85.75,34.27,1.13ZM472.99,495.65c-2.54-.11-3.18-.51-3.83-3-.27-1.03-.27-2.19-.17-3.26.9-9.28,1.87-18.56,2.77-27.85.02-.25-.34-.75-.58-.79-4.21-.66-8.42-1.25-12.63-1.88-.78-.12-1.11.16-1.39.89-.65,1.7-1.33,3.41-2.17,5.02-4.75,9.1-11.41,15.56-22.1,16.3-.89.06-.88.47-.67,1.22.61,2.12,1.16,4.25,1.65,6.4.14.62.32.63.87.6.84-.05,1.76-.05,2.53.24,3.26,1.23,6.52,2.47,9.69,3.91,3.73,1.7,7.22,3.84,10.16,6.81,1.4,1.42,2.42,3.05,2.49,5.09.04,1.19.43,1.05,1.25.72,17.85-7.33,35.92-14.04,54.24-20.07.23-.07.42-.24.63-.36-.18-.19-.36-.36-.53-.56-.87-1.03-2.06-1.93-2.53-3.13-1.9-4.81-3.61-9.71-5.31-14.6-.23-.67-.47-.87-1.1-.98-7.12-1.14-14.23-2.29-21.34-3.5-.87-.15-1.21-.02-1.3.92-.48,5.2-.95,10.4-1.55,15.58-.43,3.7-1,7.39-1.65,11.06-.42,2.4-2.04,3.85-4.28,4.53-1.03.31-2.1.45-3.16.67ZM436.04,415.57c-.03-.17-.02-.34-.09-.47-.85-1.5-1.71-3-2.6-4.49-.05-.08-.43-.07-.56.04-2.56,2.09-5.1,4.21-7.66,6.31-.94.77-2.11.7-3.09.32-2.19-.85-4.32-1.88-6.45-2.9-.94-.45-1.74-.84-2.25.52-.09.23-.34.4-.52.59-3.12,3.28-6.32,6.5-9.35,9.86-4.96,5.49-10.32,10.6-14.78,16.56-.29.38-.92.66-1.4.68-.85.04-1.18.17-1,1.18.63,3.48,1.15,6.99,1.73,10.48.35,2.08.37,2.08,2.39,2.09.34,0,.67,0,1.01.04,2.59.32,5.18.7,7.78.95,4.58.45,9.14,1.11,13.47,2.75,1.94.73,3.98,1.6,5.51,2.95,4.16,3.67,7.91,7.77,10.64,12.73.17.31.44.57.66.85.16-.29.34-.57.47-.87,2.78-6.37,5.09-12.95,8.62-18.97.51-.87-.1-1.97-1.06-2.26-2.14-.66-4.29-1.29-6.37-2.11-1.25-.49-2.02-1.59-2.07-3.02-.04-1.02-.11-2.09.1-3.07,1.96-9.04,3.98-18.06,6-27.08.27-1.23.58-2.44.87-3.65ZM471.04,434.25c-13.47,0-23.63.01-33.79-.02-1.02,0-1.4.3-1.61,1.33-.76,3.73-1.59,7.44-2.5,11.13-.28,1.14.05,1.8,1.02,2.15,1.65.59,3.3,1.3,5.01,1.59,5.41.9,10.84,1.74,16.28,2.37,6.34.73,12.7,1.21,19.06,1.81,4.35.41,8.69.81,13.03,1.28,4.86.53,9.71,1.18,14.57,1.69,4.04.42,8.1.69,12.15,1.09.87.09.88-.33.88-.97-.01-6.9-.02-13.8,0-20.69,0-.76-.17-1.05-.96-1.1-5.55-.32-11.1-.81-16.66-1-9.93-.34-19.86-.5-26.49-.66ZM372.69,395.25c-.23.2-.47.37-.67.59-6.69,7.14-13.37,14.28-20.07,21.41-.56.6-.35.77.29.91,1.46.32,2.93.59,4.37.99,7.39,2.03,14.77,4.08,22.15,6.16,1.84.52,3.31,1.56,4.14,3.4.09.2.24.47.4.51,1.26.28,1.32,1.37,1.45,2.31.3,2.07.49,4.16.75,6.24.07.59.22,1.17.33,1.76.41-.41.81-.82,1.21-1.24.21-.22.39-.46.6-.68,7.51-8.12,15.02-16.25,22.56-24.35.66-.71.55-.93-.28-1.28-6.7-2.82-13.39-5.65-20.07-8.52-5.64-2.42-11.45-4.48-16.64-7.89-.15-.1-.32-.18-.53-.3ZM413.38,603.49c2.04.69,3.97,1.47,5.97,2.01,10.06,2.72,20.14,5.38,30.22,8.03.31.08.82.03,1.02-.18,1.4-1.46,3.01-2.8,4.08-4.5,5.17-8.26,7.33-17.33,6.54-27.13-.07-.89-.47-.75-1.02-.59-13.1,3.78-26.21,7.56-39.3,11.38-.38.11-.8.64-.89,1.05-.35,1.48-.53,3-.87,4.48-.89,3.86-1.74,4.65-5.56,5.28-.03,0-.05.04-.19.17ZM368.23,591.88c.14-2.87-.74-5.52-2.99-7.6-1.93-1.78-4.02-3.4-6.19-4.86-3.44-2.32-7.18-4.01-11.24-4.97-1.11-.26-1.78-.12-2.48.7-.79.92-1.76,1.68-2.46,2.65-1.6,2.21-3.73,3.45-6.31,4-.85.18-2.08.04-2.48.57-.48.63-.24,1.82-.34,2.76-.43,4.43-.49,8.8,1.24,13.04.58,1.41,1.13,2.2,2.81,2.39,2.95.34,5.54,1.85,8.21,3.16,4.57,2.24,9.29,4.17,13.98,6.15,2.31.98,2.79.73,3.97-1.55.23-.44.45-.88.64-1.33,2.05-4.83,3.34-9.85,3.64-15.11ZM431.5,403.55c0-.33.02-.45,0-.55-1.54-7.21-2.02-14.47-1.13-21.81.11-.87-.27-1.3-.88-1.76-7.67-5.82-15.34-11.65-22.98-17.51-.74-.57-1.13-.49-1.74.16-3.68,3.9-7.4,7.76-11.13,11.61-.57.59-.55.86.11,1.36,12.25,9.24,24.49,18.52,36.73,27.78.29.22.6.42,1.02.72ZM408.52,462.88c-.42-.13-.77-.3-1.13-.35-5.87-.86-11.74-1.71-17.6-2.58-.93-.14-.75.42-.66.96.57,3.22,1.11,6.45,1.72,9.67,1.1,5.79,2.24,11.58,3.4,17.36.09.44.33,1.07.66,1.21,2.47,1.04,3.68,3.27,4.71,5.47,2.21,4.74,5.3,8.71,9.2,12.07.41.35,1.01.47,1.52.7.16-.63.46-1.27.45-1.9-.01-.66-.29-1.33-.51-1.98-.85-2.48-2.28-4.59-3.88-6.64-1.95-2.5-3.87-5.04-5.53-7.74-1.38-2.25-2.4-4.74-3.51-7.15-.53-1.15-1.13-2.09-2.36-2.59-.94-.39-1.44-1.89-.85-2.56.64-.73,1.49-.5,2.23-.03.94.6,1.83,1.29,2.79,1.86,1.6.94,3.26,1.77,4.86,2.72,1.86,1.12,3.7,2.29,5.51,3.49.95.63,2.09,1.19,2.68,2.1,1.86,2.84,3.39,5.92,5.29,8.73,1.02,1.5,2.53,2.66,3.85,3.93.24.23.68.27,1.02.39,0-.36.05-.73,0-1.09-.11-.68-.28-1.34-.41-2.01-1.15-5.9-3.96-10.68-8.9-14.13-1.71-1.2-3.24-2.69-4.75-4.16-2.21-2.15-4.34-4.4-6.49-6.62-.9-.93-1.83-1.57-3.16-.87-.28.14-.68.15-.99.08-.48-.11-1.34-.36-1.33-.54.01-.78.03-1.84.5-2.28,1.52-1.41,5.05-1.31,6.6.09,1.31,1.19,2.65,2.4,3.69,3.82,3.07,4.16,6.95,7.42,10.78,10.77,1.12.98,2.09,2.19,2.92,3.43,2.35,3.49,3.38,7.52,4.27,11.59.11.5.2.87.84.76.54-.09,1.09-.12,1.06-.87-.02-.53-.02-1.08-.14-1.59-.81-3.21-1.75-6.39-2.48-9.61-.92-4.08-3.23-7.11-6.43-9.6-1.33-1.03-2.59-2.19-3.74-3.44-1.99-2.16-3.82-4.49-5.84-6.63-.68-.72-1.69-1.17-2.62-1.57-.54-.23-.93-.37-.93-1.05,0-.68.02-1.37.87-1.47.88-.1,1.77-.1,2.82-.15ZM359.66,557.15s0-.08,0-.12c-1.16,0-2.32-.07-3.47.01-1.88.13-3.47.62-4.42,2.64-1.46,3.12-3.39,6.01-3.98,9.51-.13.8-.01,1.1.84,1.1,1.04,0,2.1.05,3.11.28,3.17.72,6.05,2.18,8.8,3.89,3.71,2.31,7.04,5.05,9.07,9.09.41.82.76.98,1.6.65,4.81-1.89,9.76-3.1,14.95-3.12.35,0,.7-.17,1.05-.26-.18-.32-.33-.67-.55-.95-3.95-4.88-7.93-9.72-11.85-14.63-1.56-1.96-3.2-3.8-5.25-5.26-1.07-.76-1.95-1.78-2.99-2.58-.42-.33-1.03-.58-1.55-.57-1.79.03-3.57.2-5.36.31ZM442.31,358.79c-.23-.27-.38-.48-.56-.66-4.93-4.93-9.87-9.85-14.79-14.79-.5-.5-.87-.6-1.49-.11-5.44,4.23-10.66,8.71-15.53,13.63-.66.67-.54.96.13,1.45,1.82,1.34,3.59,2.73,5.39,4.09,5.07,3.84,10.14,7.66,15.19,11.52.74.57,1.11.69,1.44-.37.26-.86.69-1.69,1.12-2.48,2.29-4.18,5.11-7.96,8.35-11.41.25-.27.48-.55.75-.86ZM578.75,395.07c.05,0,.11,0,.16,0-.12-3.35-.26-6.7-.34-10.05-.02-1.01-.39-1.35-1.38-1.41-7.94-.49-15.88-1.01-23.81-1.57-.88-.06-1.17.14-1.14,1.08.2,5.25.35,10.51.49,15.77.02.73.29.97.99,1.04,7.98.8,15.97,1.62,23.95,2.47.77.08,1.1-.08,1.09-.91-.03-2.13,0-4.27,0-6.4ZM568.41,377.99s0-.02,0-.02c2.8.18,5.59.32,8.39.56.95.08,1.28-.15,1.14-1.14-.7-4.94-1.37-9.88-2.02-14.83-.09-.66-.41-.86-1.03-.93-7.5-.84-14.99-1.7-22.48-2.6-.87-.1-.99.15-.96.95.23,5.14.47,10.28.58,15.42.03,1.21.44,1.54,1.52,1.6,4.96.3,9.91.65,14.87.98ZM377.16,534.68c.01-.11.03-.22.04-.33-.6-.2-1.2-.44-1.82-.6-2.21-.55-4.48-.91-6.62-1.65-7.26-2.5-14.69-4.25-22.17-5.92-7.14-1.6-14.16-3.72-21.23-5.6-1.74-.46-3.48-.88-5.22-1.32-.03.11-.07.22-.1.32,1.23.53,2.44,1.09,3.68,1.59,4.07,1.66,8,3.58,11.57,6.22,3.75,2.78,7.49,5.55,11.24,8.33,1.84,1.36,2.23,2.95,1.29,5.11-.05.11.07.41.18.45,2.35.88,4.72,1.83,7.29,1.21,1.33-.32,2.6-.9,3.9-1.33.89-.29,1.7-.61,2.31-1.46.37-.51,1.05-.89,1.67-1.08,3.79-1.15,7.61-2.22,11.41-3.31.85-.24,1.72-.43,2.58-.65ZM428.98,408.77c0-.13.02-.25.03-.38-.28-.24-.56-.48-.85-.71-6.46-4.93-12.9-9.88-19.37-14.78-6.2-4.7-12.43-9.36-18.66-14.04-.43-.33-.8-.78-1.41-.14-2.19,2.29-4.43,4.53-6.67,6.77-.57.57-.31.73.27.97,1.55.66,3.12,1.29,4.59,2.09,6.59,3.58,13.05,7.42,19.75,10.76,5.59,2.78,11.45,4.99,17.17,7.49,1.33.58,2.58,1.38,3.9,1.99.34.16.83,0,1.26-.02ZM573.24,356.44c1.25.14,1.26.13.84-1.02-1.41-3.88-3.52-7.31-6.52-10.12-4.81-4.51-10.57-7.21-16.73-9.16-.85-.27-.86.14-.82.77.35,5.36.7,10.72,1.02,16.08.04.75.33,1.05,1.05,1.13,7.05.76,14.1,1.55,21.14,2.33ZM477.5,329.34c.19,7.11,4.08,11.94,9.2,16.04.12.09.53.04.58-.06.38-.76.83-1.53,1.02-2.35.38-1.62,1.18-2.87,2.55-3.74,1.33-.84,2.7-1.62,4.03-2.47.23-.15.5-.54.46-.75-.31-1.47-.87-2.91-.99-4.39-.09-1.15-.48-1.33-1.47-1.37-2.8-.12-5.52-.59-7.6-2.79-.71-.74-1.31-1.7-2.6-1.1-.22.1-.57-.1-.86-.17-.9-.24-1.81-.47-2.7-.76-.57-.18-.9-.13-1.01.56-.18,1.12-.41,2.23-.62,3.35ZM473.23,492.71c2.91.05,4.06-.87,4.69-3.78.26-1.19.52-2.39.65-3.59.79-7.42,1.53-14.85,2.32-22.27.08-.75-.18-.92-.81-1-1.52-.21-3.04-.4-4.53-.73-.97-.22-1.27.13-1.37,1.02-.33,2.84-.8,5.66-1.03,8.51-.54,6.69-.96,13.38-1.45,20.07-.11,1.5.09,1.76,1.53,1.78ZM433.75,477.61c3.33-.27,6.22-1.03,8.76-3.01,5.21-4.06,8.61-9.43,11.19-15.45.28-.65.16-.91-.53-.94-3.13-.16-6.26-.36-9.4-.45-.42-.01-1.03.41-1.26.81-1.08,1.83-2.16,3.67-3.06,5.59-1.99,4.27-3.87,8.58-5.77,12.89-.07.16.05.42.07.57ZM331.49,581.36c-.15-.89-.35-2.58-.77-4.22-.23-.9-.82-.95-1.34-.16-.54.81-1.03,1.69-1.37,2.6-2.17,5.71-2.66,11.69-2.6,17.73.03,2.81,1.49,4.81,4.11,5.82.96.37,1.89.87,3.01.44.65-.25.75-.47.52-1.14-.6-1.79-1.24-3.6-1.59-5.45-.92-4.91-.59-9.86.03-15.63ZM334.69,470.22c-.03-2.58-.46-3.75-2.08-4.89-1.3-.91-2.75-1.74-4.25-2.17-3.2-.93-6.4,1.78-5.86,4.87.67,3.83,2.82,6.54,6.32,8.14.92.42,1.74.3,2.53-.26,2.11-1.53,3.26-3.6,3.34-5.68ZM306.29,608.34c.68-.05,1.16-.1,1.64-.12.6-.02.58-.24.3-.69-.49-.76-.97-1.54-1.38-2.35-1.9-3.73-2.74-7.79-3.44-11.88-.08-.47-.26-.95-.51-1.35-.5-.8-1.05-1.57-1.62-2.32-.59-.78-1.21-1.54-1.87-2.25-.67-.73-1.29-.53-1.61.34-.32.88-.7,1.81-.7,2.71-.04,7.04,3.42,12.42,8.03,17.22.2.21.48.36.74.51.19.11.41.16.43.16ZM305.74,588.28c.6,5.59,1.6,10.69,4.31,15.25.59.99,1.45,1.83,2.25,2.67.52.55,1.15.85,1.87.21.95-.84,1.47-2.06,1.09-2.79-1.8-3.52-2.91-7.25-3.37-11.18-.07-.62-.17-1.15-.86-1.44-.99-.42-1.44-1.33-1.8-2.34-.44-1.25-.97-2.46-1.54-3.65-.37-.77-.9-.83-1.18.08-.34,1.15-.57,2.34-.78,3.2ZM409.98,463.2c.55.69,1.33,1.82,2.26,2.8,3.13,3.31,6.29,6.59,9.47,9.85,2.09,2.15,3.99,4.43,4.92,7.39.85,2.72,1.7,5.44,2.56,8.16.13.42.33.82.49,1.23.43-.27.94-.47,1.26-.85.25-.29.37-.81.34-1.22-.28-3.59-1.56-6.85-3.29-9.95-1.6-2.88-3.04-5.86-5.43-8.2-1.7-1.66-3.39-3.33-4.96-5.12-2.22-2.53-5.17-3.47-7.63-4.1ZM576.99,407.5c0-.13.01-.26.02-.4-.3-.06-.61-.14-.92-.18-4.81-.59-9.62-1.2-14.44-1.75-2.59-.3-5.2-.5-7.8-.74-.51-.05-.96-.09-.94.69.04,1.94,0,3.88.06,5.82,0,.19.43.55.63.52,1.77-.21,3.55-.43,5.31-.76,3.25-.61,6.49-1.34,9.74-1.93,2.77-.5,5.56-.86,8.34-1.29ZM314.36,586.57c.35,4.42.98,8.7,2.76,12.71.64,1.44,1.54,2.76,2.37,4.11.27.44.59.59,1.05.04.42-.5,1.04-.83,1.54-1.28.13-.11.23-.36.21-.53-.21-1.47-.31-2.97-.7-4.38-1.12-4.02-2.32-8.02-3.59-12-.35-1.1-1.01-2.11-1.59-3.13-.42-.73-.9-.67-1.11.15-.36,1.42-.63,2.87-.94,4.31ZM520.38,483.11c-.36-.52-.7-1.06-1.09-1.55-1.77-2.22-2.75-4.77-3.05-7.6-.19-1.74-.38-3.48-.63-5.21-.22-1.55-.95-2.08-2.43-1.93-.56.06-1.13.12-1.67.05-1.04-.13-1.14.4-.86,1.17,1.4,3.79,2.69,7.63,4.27,11.35.96,2.27,3.16,3.15,5.47,3.72ZM388.58,591.1c-.05,2.95,1.14,4.4,3.6,5.11,1.3.37,2.03.03,2.34-1.29.27-1.14.39-2.32.54-3.48.03-.21-.04-.47-.16-.64-1.24-1.71-2.48-3.42-3.76-5.09-.4-.52-1.35-.43-1.46.09-.43,2-.82,4-1.09,5.32ZM371.14,588.83c.02,1.22.14,1.27,1.02,1.26,2.72-.05,5.44-.08,8.16-.07,1.75,0,3.42.34,4.85,1.46.43.34.53.18.59-.3.21-1.55.39-3.1.71-4.62.2-.93-.21-.99-.86-.86-2.63.5-5.26,1.02-7.89,1.54-2,.39-4,.78-6,1.2-.26.06-.48.32-.59.4ZM411.75,599.88c2.32.02,3.26-.65,3.95-2.88.24-.79.37-1.63.55-2.44.13-.55-.02-.8-.61-.65-2.49.62-4.99,1.22-7.48,1.87-.2.05-.47.47-.44.67.36,2.02,2.03,3.42,4.03,3.43ZM294.25,595.09c-.21.26-.36.38-.42.53-.27.7-.59,1.4-.76,2.13-.53,2.26.46,4.26,1.12,6.3.74,2.29,1.34,2.39,2.89.52.2-.24.29-.81.15-1.07-1.34-2.45-2.26-5.05-2.78-7.8-.03-.17-.11-.32-.21-.62ZM400.16,599.89c1.1-.4,2.48-.78,3.31-2.1.19-.3.25-.69.36-1.03-.4-.03-.79-.1-1.19-.09-.16,0-.31.24-.48.26-1.01.14-2.06.52-2.95-.36-.41-.4-.79-.84-1.19-1.25-.09.66-.19,1.33-.25,1.99-.03.26,0,.54.06.79.21.99,1.15,1.8,2.32,1.79ZM404.69,601.87c.81.09,1.48.16,2.22.24q-.96-1.69-2.22-.24ZM498.75,334.4c-.03-.06-.06-.12-.09-.17-.21.1-.42.2-.62.29.04.09.09.17.13.26.19-.13.39-.25.58-.38ZM483.84,266.05h-.06s.02.06.02.06l.04-.06Z"/>
    <path class="cls-1" d="M500.44,310.55c-2.65-.13-5.16-.67-7.35-2.2-1.53-1.07-2.68-2.47-2.57-4.52.02-.4.39-1.07.64-1.09.52-.05,1.35.09,1.55.45,2.31,4.01,5.97,4.55,10.01,4.22.41-.03.81-.12,1.22-.12.59,0,1.27-.06,1.35.82.08.83.09,1.66-.99,1.84-1.28.22-2.57.41-3.86.61Z"/>
    <path class="cls-1" d="M516.85,284.57c2.68.12,5.15.85,7.47,2.01.56.28.89,1.13,1.22,1.78.06.11-.41.72-.63.71-.69,0-1.4-.13-2.07-.34-.96-.29-1.9-.68-2.84-1.05-.68-.27-1.07-.28-1.14.69-.09,1.28-1.26,2.18-2.53,2-.49-.07-1.26-.44-1.34-.79-.29-1.38-.39-2.81-.45-4.22,0-.21.5-.54.82-.63.49-.14,1.03-.11,1.49-.15Z"/>
    <path class="cls-1" d="M537.28,305.33c.27-.43.44-.97.81-1.26,2.19-1.7,4.42-3.36,6.67-4.98.43-.31,1.02-.46,1.56-.52.91-.1,1.26.43.85,1.26-.19.39-.54.72-.88,1-.58.47-1.2.9-1.83,1.31-1.22.81-2.27,1.68-1.97,3.43.07.37-.1.84-.29,1.19-.4.72-1.47.71-1.67-.05-.25-.96-.55-.65-1.19-.39-1.3.52-2.09.29-2.07-.99Z"/>
    <path class="cls-1" d="M499.2,297.73c-.53.54-.83,1.11-1.23,1.19-1.18.23-2.15-.4-2.26-1.43-.07-.64-.07-1.5.29-1.91.29-.33,1.35-.37,1.73-.08.6.46.9,1.31,1.47,2.22Z"/>
    <path class="cls-1" d="M515.67,283.44c-.61.08-1.05-.13-1.03-1.04.02-.97.51-1.23,1.34-1.22.77,0,1.3.22,1.28,1.15-.02,1.03-.7,1.1-1.59,1.11Z"/>
  </g>
  <path class="cls-1" d="M451.23,196.36l-146.97-13.49c.16-.99.35-1.97.55-2.94.62-3.13,2.58-5.05,5.7-5.49,2.03-.29,4.09-.51,6.13-.45,6.12.2,12.23.52,18.35.87,6.08.35,12.15.79,18.22,1.19,7.56.51,15.13,1.03,22.69,1.53,4.99.33,9.99.63,14.98.99,7.71.56,15.41,1.17,23.12,1.73,3.02.22,6.05.26,9.06.56,6.05.61,12.13,1.11,18.12,2.09,6.43,1.05,9.01,7.37,10.07,13.41Z"/>
  <g>
    <path class="cls-3" d="M337.73,359.75c-3.53-1.99-7.05-4.01-10.59-5.97-.84-.47-1.77-.77-2.66-1.14-.78.04-1.5-.1-1.82.86-.44,1.36-.3,2.13.64,2.67,3.58,2.06,7.17,4.09,10.76,6.13.25.14.47.33.7.5-.22.19-.42.42-.67.56-4.37,2.41-8.74,4.82-13.11,7.21-.75.41-1.44,2.28-1.09,3,.27.53,2.26.72,3.05.27.68-.39,1.35-.82,2.03-1.21,4.27-2.43,8.54-4.86,12.82-7.28.84-.47,1.56-.95,1.69-2.08.26-2.2.19-2.42-1.76-3.52Z"/>
    <path class="cls-3" d="M299.92,351.48c-2.73,1.14-5.47,2.25-8.17,3.47-2.76,1.25-5.46,2.65-8.22,3.92-1.05.48-1.01,1.39-1.16,2.28-.14.84.31,1.29.94,1.63,2.77,1.49,5.54,2.99,8.32,4.46,1.56.83,3.12,1.63,4.7,2.41.46.23.96.37,1.71.65.34-.2,1.09-.38,1.18-.73.21-.83.74-1.85-.5-2.48-3.41-1.74-6.79-3.52-10.18-5.28-.27-.14-.54-.27-.79-.44-.21-.14-.39-.32-.58-.48.2-.15.37-.35.59-.45,2.64-1.17,5.28-2.34,7.92-3.48,1.82-.79,3.67-1.51,5.49-2.3.94-.41,1.48-1.66,1.23-2.63-.16-.62-1.55-.95-2.49-.56Z"/>
    <path class="cls-3" d="M319.94,344.73c-.61-.28-1.43-.46-1.89.37-.49.89-.95,1.81-1.35,2.75-3.64,8.64-7.26,17.28-10.88,25.92-.22.52-.35,1.08-.52,1.62-.07.06-.13.11-.2.17.26.49.4,1.21.81,1.44.91.5,1.87.14,2.26-.77,1.17-2.76,2.25-5.56,3.41-8.32,2.74-6.55,5.5-13.08,8.23-19.63.3-.73.54-1.51.63-2.29.05-.41-.2-1.12-.5-1.25Z"/>
  </g>
</svg>