<?xml version="1.0" encoding="UTF-8"?>
<svg id="_Layer_" data-name="&amp;lt;Layer&amp;gt;" xmlns="http://www.w3.org/2000/svg" viewBox="0 0 794.88 794.88">
  <defs>
    <style>
      .cls-1 {
        fill: #000;
      }

      .cls-1, .cls-2, .cls-3 {
        stroke-width: 0px;
      }

      .cls-2 {
        fill: #cf0;
      }

      .cls-3 {
        fill: #fff;
      }
    </style>
  </defs>
  <path class="cls-2" d="M370.67,242.55c-.15.99-.91.75-1.47.71-.77-.06-1.52-.28-2.27-.44-4.39-.94-8.78-1.91-13.18-2.81-7.06-1.44-14.1-3.04-21.21-4.18-6.7-1.08-13.47-1.91-20.3-1.77-.22,0-.45.02-.67.04-2.41.18-2.63.44-2.62,2.81.02,5.07.18,10.2-.29,15.26-.54-.11-1.07-.21-1.61-.32-.23-.05-.48-.1-.63-.29-.15-.19-.15-.46-.13-.7.26-5.07.32-10.16.17-15.24-.03-.94-.06-1.91.31-2.77,1.06-2.48,6.79-2.11,8.96-1.98,5.11.31,10.22.78,15.3,1.47,4.63.63,9.22,1.6,13.81,2.49,6.71,1.3,13.41,2.64,20.11,4.01,1.6.33,3.16.85,4.72,1.33.95.29,1.21,1.04,1.01,2.38Z"/>
  <path class="cls-2" d="M325.38,251.92c2.31,0,4.27,1.05,5.65,3.11.64.95,1.17,1.98,1.75,2.98.37.64.71,1.31,1.11,1.93.84,1.31,1.03,1.32,1.89.1,2.18-3.09,4.9-5.58,8.21-7.4,1-.55,2.08-.99,3.17-1.33,2.98-.91,5.53-.11,7.47,2.31,1.02,1.27,1.89,2.67,2.78,4.04,1.72,2.65,2.1,2.68,3.86.15,2.03-2.92,4.31-5.6,7.42-7.44.4-.24.87-.53,1.3-.53.51,0,1.03.29,1.54.45-.26.69-.32,1.75-.8,2.01-3.34,1.79-5.56,4.63-7.65,7.65-.89,1.28-1.71,2.62-3.64,2.51-1.22-.07-2.18-.52-2.88-1.44-.9-1.18-1.73-2.42-2.54-3.66-2.86-4.37-4.86-4.85-9.3-2.18-2.58,1.55-4.76,3.54-6.53,5.98-.44.6-.87,1.21-1.34,1.78-1.17,1.44-2.99,1.38-4.01-.19-.99-1.53-1.9-3.11-2.82-4.67-2.6-4.41-6.32-5-10.13-1.57-.82.74-1.48,1.66-2.23,2.49-.25.28-.46.62-.77.78-.3.15-.79.25-1.03.1-.21-.12-.35-.67-.26-.95.21-.7.52-1.39.88-2.03,1.66-2.93,5.41-5.06,8.89-4.98Z"/>
  <path class="cls-2" d="M372.45,280.82c-.7-.1-1.4-.15-2.09-.3-5.7-1.23-11.52-1.21-17.29-1.77-6.32-.61-12.64-1.27-18.96-1.94-2.22-.23-4.43-.49-6.63-.86-.6-.1-1.43-.53-1.63-1.03-.52-1.3.05-2.04,1.47-1.93,3.29.26,6.58.63,9.86.97,4.58.48,9.15,1.04,13.73,1.45,6.51.59,13.02,1.06,19.54,1.61.89.07,1.76.28,2.64.42,1.29.21,1.48.59,1.39,2.27-.06,1.15-.85,1.02-1.59,1.05-.15,0-.3,0-.45,0,0,.02,0,.04,0,.06Z"/>
  <path class="cls-2" d="M371.22,306.37c-2.49-.2-5.36-.44-8.24-.67-5.38-.44-10.76-.88-16.14-1.31-.26-.02-.52-.04-.77-.07-2.67-.34-2.93-.59-2.66-2.48.09-.61.52-.97,1.44-.93,2.07.09,4.15.17,6.21.33,6.75.53,13.5,1.09,20.25,1.64.48.04.96.1,1.43.17,1.07.17,1.64.59,1.64,1.41,0,1.8-.12,1.91-3.15,1.91Z"/>
  <path class="cls-2" d="M365.57,289.3c-2.63-.44-5.27-.85-7.89-1.33-4.92-.89-9.85-1.78-14.76-2.73-.71-.14-1.59-.22-1.7-1.29-.18-1.77.16-2.29,1.97-2.14,2.43.2,4.86.55,7.27.93,5.39.84,10.77,1.72,16.15,2.6,1.56.26,2.29,1.46,1.7,2.94-.14.36-.65.69-1.06.8-.52.14-1.1.03-1.66.03,0,.06-.02.12-.02.19Z"/>
  <path class="cls-2" d="M370.56,299c-3.94-.67-7.88-1.29-11.81-2.02-1.26-.23-1.47-.94-1.22-2.97.13-1.07.86-1.22,1.7-1.12,2.09.27,4.17.61,6.26.89,2.02.26,4.05.48,6.08.71,1.27.14,1.54.41,1.57,1.66.05,2.5.03,2.53-2.53,2.53-.02.11-.04.22-.06.33Z"/>
  <path class="cls-2" d="M346.83,291.63c1.07.1,2.14.2,3.21.32.83.09,1.21.57,1.25,1.42.12,2.48.04,2.62-2.44,2.56-1.37-.03-2.74-.14-4.1-.33-1.32-.18-1.54-.72-1.41-2.62.08-1.13.82-1.28,1.71-1.27.59,0,1.19,0,1.78,0v-.08Z"/>
  <g>
    <path class="cls-2" d="M584.1,316.51c-.1,0-.19,0-.29,0-.17,9.7-.36,19.41-.48,29.11-.04,3.01.2,6.02.25,9.03.04,2.1-.98,3.28-2.85,4.16-3.55,1.66-7.17,1.22-10.82.69-4.34-.63-8.66-1.34-13-1.92-8.43-1.13-16.88-2.18-25.32-3.31-9.28-1.25-18.57-2.45-27.83-3.86-13.26-2.03-26.51-4.15-39.74-6.39-8.5-1.44-16.96-3.12-25.41-4.79-6.85-1.35-13.67-2.87-20.52-4.22-11.59-2.28-23.21-4.45-34.8-6.75-2.44-.48-4.81-1.29-7.21-1.93-4.17-1.11-6.39-3.84-6.79-8.1-.05-.48-.23-.96-.22-1.43.03-1.21-.52-1.45-1.68-1.52-2.7-.15-5.4-.49-8.08-.87-7.5-1.06-15-2.14-22.48-3.32-2.31-.36-4.57-1.01-6.83-1.58-1.19-.3-1.39-.92-1.16-2.93.12-1.09.85-1.37,1.74-1.26,2.5.3,4.99.67,7.49,1.03,7.69,1.1,15.37,2.2,23.06,3.3,1.99.28,3.98.53,5.96.84.81.13,1.01-.05.91-.91-.99-8.6-2.04-17.2-2.87-25.82-.57-5.88-.83-11.79-1.22-17.68-.43-6.53-.87-13.05-1.29-19.58-.31-4.82-.58-9.65-.89-14.47-3.41-.56-6.82-1.15-10.24-1.72-6.57-1.09-13.17-1.87-19.75-2.91-6.85-1.08-13.68-2.37-20.55-3.38-3.44-.51-6.89-.94-10.35-1.25-1.9-.17-3.81-.25-5.72-.35,0,1.98.06,3.95.13,5.93.27,7.13.65,14.26.94,21.39.05,1.22-.07,2.45-.14,3.68-.05.88-.52,1.3-1.44,1.34-2.96.1-3.09-.06-3.21-3.01-.36-9.05-.9-18.1-1.02-27.15-.07-5.85-.69-15.37,7.57-15.55,6.24-.13,12.48-.17,18.72.01,6.99.19,13.87,1.46,20.75,2.66,5.74,1,11.52,1.77,17.28,2.64,1.61.24,3.23.47,4.84.77.68.13.9.07.88-.72-.16-6.46-.25-12.92-.4-19.38l219.47,40.91c.32,1.83.56,3.69.79,5.54,1.42,11.52,2.28,23.09,2.74,34.69.45,11.33.72,22.67,1.05,34,.06,2.12,0,4.24,0,6.35Z"/>
    <path class="cls-1" d="M599.35,391.64l-110.37-9.61c.1-.11.19-.23.29-.35,2.69-3.25,6.01-4.78,10.11-4.69,6.39.14,12.77.36,19.15.61,5.31.21,10.61.61,15.93.75,8.81.23,17.62.19,26.43.51,5,.19,9.99.87,14.98,1.35,4.25.41,8.5.86,12.75,1.27,3.66.35,6.71,2.16,9.33,4.5,1.62,1.45,2.03,3.58,1.41,5.67Z"/>
    <path class="cls-2" d="M599.35,391.64c-.06.22-.14.43-.23.64-.85,2.12-1.85,4.21-2.98,6.2-3.85,6.78-7.7,13.57-11.72,20.25-5.65,9.41-11.74,18.53-18.3,27.33-1.1,1.48-2.13,3.05-3.41,4.38-3.64,3.79-8.17,5.46-13.4,4.93-3.29-.33-6.54-.99-9.82-1.38-2.36-.28-4.74-.29-7.11-.53-5.28-.54-10.55-1.16-15.83-1.72-1.09-.11-1.38-.63-1.37-1.69,0-1.12.45-1.73,1.51-1.8,1.26-.08,2.53-.12,3.79-.04.89.06,1.14-.31,1.08-1.06-.09-1.11-.17-2.23-.36-3.32-.05-.3-.48-.69-.79-.75-1.7-.33-3.41-.68-5.13-.81-2.33-.17-4.67-.09-7.01-.22-.58-.03-1.13-.46-1.7-.68-.22-.09-.49-.2-.7-.15-3.11.66-6.22,1.32-9.32,2.04-1.41.33-2.79.8-4.18,1.18-.46.13-.96.3-1.42.24-.72-.09-1.63-.16-2.08-.61-.59-.59-.13-2.28.67-2.89,3.16-2.47,6.35-4.9,9.54-7.33,5.08-3.88,10.99-6.35,16.37-9.73,1.09-.69,2.2-1.41,3.1-2.31,1.14-1.12.36-3.76-1.17-4.11-.56-.13-1.21.24-1.82.27-1.18.06-2.13-.84-2.22-2.02-.03-.37-.12-.81.02-1.1.68-1.37-.22-2.52-.52-3.72-.08-.32-.78-.66-1.22-.7-2.16-.19-4.31-.05-6.37.74-8.77,3.37-16.97,7.73-24.21,13.79-.37.31-.79.7-1.22.74-.73.06-2.05.02-2.12-.25-.22-.82-.3-2.02.16-2.63,2.13-2.84,4.62-5.36,7.88-6.93,4.39-2.11,8.8-4.17,13.21-6.23,2.05-.96,2.8-2.31,2.41-4.58-.04-.25-.27-.47-.45-.69-.06-.07-.23-.05-.3-.12-1.82-1.94-3.73-1.22-5.68-.25-4.32,2.15-8.71,4.19-12.96,6.47-2.21,1.19-4.2,2.81-6.28,4.24-2.46,1.69-3.89,4.29-5.61,6.59-4.24,5.71-9.1,10.78-14.67,15.2-.2.15-.37.34-.56.51.59.28,1.11.52,1.63.77-.38.45-.82.87-1.14,1.36-1.01,1.59-2.27,2.34-4.26,1.86-1.32-.31-2.73-.21-4.11-.3-1.96-.14-2.4-.69-2.52-2.62-.12-1.87.43-3.45,1.63-4.82,2.24-2.53,4.59-4.98,6.76-7.56,1.98-2.35,3.76-4.88,5.69-7.28,3.34-4.14,6.68-8.27,10.1-12.34,6.76-8.05,13.64-16.01,20.35-24.11l110.37,9.61Z"/>
    <path class="cls-2" d="M457.28,365.65c-1.47-2.44-3.35-4.51-6.21-5.28-4.66-1.25-9.45-1.48-14.24-1.69-4.15-.18-8.29-.61-12.43-.93-4.51-.35-9.03-.71-13.54-1.05-1.74-.13-3.49-.19-5.22-.35-5.47-.51-10.94-1.05-16.41-1.58-2.89.15-3.64.43-5.74,2.35-.47.42-.93.86-1.33,1.34-5.68,6.71-11.8,12.99-18.24,18.96-4.05,3.75-7.22,8.19-10.37,12.65-1.61,2.28-2.18,4.76-1.31,7.5.07.23-.05.55-.16.79-.62,1.41-.25,2.52,1.21,2.98,1.63.51,3.3.86,4.97,1.23.26.06.68-.08.84-.28.51-.63.92-1.35,1.39-2.02.47-.67.2-.88-.49-.95-.63-.06-1.28-.1-1.86-.32-.31-.11-.48-.59-.71-.9.27-.2.56-.59.81-.57,1.01.08,1.65-.36,2.29-1.09,2.61-3,5.3-5.92,8.5-8.33.94-.71,1.74-1.21,3.02-.77.97.32,2.23.54,3.04-.42,1.19-1.4,2.66-2.18,4.4-2.64,1.43-.38,2.88-.86,3.7-2.28.88-1.54,2.2-2.35,3.89-2.91,3.81-1.25,7.54-2.72,11.31-4.06,1.85-.66,3.73-1.25,5.61-1.85,1.16-.37,2.13-.12,3.04.78.45.44,1.26.8,1.85.73,1.65-.19,3.27-.62,4.89-.96,1.29-.27,1.5-.03,1.4,1.27-.22,2.8-1.62,4.83-3.74,6.56-3.38,2.77-7.03,5.12-10.85,7.21-2.06,1.13-2.84,2.78-2.64,5.07.06.64-.14,1.38-.45,1.96-1.41,2.66-2.98,5.24-4.33,7.92-.41.82-.8,1.03-1.63,1-.36-.02-.81.33-1.09.63-.35.37-.56.87-.83,1.32-.77,1.29-.71,1.39.8,1.52,7.92.68,15.86,1.21,23.76,2.12,3.8.44,6.72-.4,9.2-3.35,3.6-4.3,7.34-8.49,11.07-12.69,7.14-8.03,14.34-16.01,21.44-24.07.74-.84,1.07-2.06,1.48-3.14.15-.41.14-1.04-.08-1.41ZM356.69,397.23c-.5-.57-1.01-1.08-1.41-1.67-.13-.2.02-.59.05-.9.23.14.6.23.68.44.27.67.44,1.39.65,2.09.03.02.05,0,.07,0-.01.01-.02.02-.03.04Z"/>
  </g>
  <g>
    <path class="cls-1" d="M569.75,415.28c-2.51-.27-5.01-.56-7.53-.8-8.65-.8-17.29-1.61-25.95-2.36-6.51-.56-13.03-1.01-19.55-1.54-.88-.07-1.76-.29-2.6-.56-.71-.23-1.5-.46-1.57-1.49-.14-2.13.16-2.5,2.36-2.32,3.33.28,6.64.7,9.97.96,5.07.39,10.16.62,15.23,1.04,5.51.46,11.01,1.09,16.51,1.61,2.55.24,5.11.36,7.66.59,2.03.18,4.06.41,6.09.68,1.66.22,1.9.69,1.76,2.91-.09,1.45-1.16,1.17-2.04,1.23-.11,0-.22,0-.33,0,0,.01,0,.03,0,.04Z"/>
    <path class="cls-1" d="M546.04,403.81c-5.22-.15-10.41-.64-15.62-1.11-2.55-.23-5.11-.38-7.66-.58-3.81-.3-7.62-.6-11.43-.91-.88-.07-1.29-.5-1.3-1.44-.02-2.74.19-3.07,2.97-2.86,9,.66,17.98,1.45,26.98,2.09,3.26.23,6.53.21,9.8.3.48.01.97,0,1.45.02,1.27.05,2.3.19,2.57,1.56.24,1.21-.12,2.38-1.39,2.79-.54.18-1.12.19-1.69.2-1.56.03-3.13.01-4.69-.03Z"/>
    <path class="cls-1" d="M512.39,388.26c8.96.64,17.93,1.26,26.89,1.94,2.74.21,5.47.56,8.2.92,1.71.22,2.21.92,2.14,2.63-.04.96-.46,1.62-1.45,1.63-1.85,0-3.72.07-5.55-.16-8.49-1.07-16.99-1.81-25.55-1.94-2.26-.04-4.51-.42-6.76-.64-.68-.06-.94-.43-.98-1.1-.19-2.87.03-3.11,3.07-3.28Z"/>
    <path class="cls-1" d="M535.36,428.72c6.26.79,12.52,1.6,18.78,2.34,1.44.17,2.73.57,3.91,1.43.62.45.84.87.4,1.56-1.7,2.66-1.19,2.34-3.97,2-6.59-.82-13.21-1.48-19.8-2.34-1.02-.13-1.97-.94-2.92-1.5-.16-.09-.23-.55-.16-.78.57-1.88,1.69-2.61,3.76-2.72Z"/>
    <path class="cls-1" d="M415.06,369.91c-3.53-.46-7.06-.9-10.58-1.39-2.75-.38-5.5-.84-8.25-1.24-1.63-.24-1.72-.32-1.73-1.94,0-.33,0-.67,0-1,.03-1.21.41-1.71,1.61-1.6,2.66.23,5.3.56,7.95.92,4.01.54,8.01,1.14,12.01,1.69,1.49.2,1.79.49,1.81,1.96,0,.33-.02.67,0,1,.07,1.06-.46,1.49-1.47,1.46-.44-.02-.89,0-1.34,0,0,.05-.01.1-.02.14Z"/>
    <path class="cls-1" d="M577.6,405.88c-4.23-.47-8.47-.95-12.7-1.42-1.18-.13-2.36-.25-3.54-.35-.89-.08-1.28-.48-1.29-1.43-.02-2.94-.02-3.09,2.95-2.93,3.4.18,6.79.63,10.18.95,1.92.18,3.84.34,5.76.48,1.15.09,1.59.65,1.58,1.81-.03,2.69,0,2.69-2.94,2.89Z"/>
    <path class="cls-1" d="M538.91,423.54c-2.43-.05-4.86-.74-7.24-1.13-3.26-.53-6.52-1.03-9.78-1.55-.29-.05-.58-.13-.86-.21-1.74-.47-2.26-1.28-1.69-2.99.14-.42.84-.87,1.31-.91,1.02-.09,2.08-.01,3.1.14,5.33.78,10.64,1.62,15.97,2.4,1.11.16,1.56.72,1.48,1.79-.05.69.25,1.82-.47,2.26-.19.12-.42.14-.64.16-.39.03-.79.04-1.18.03Z"/>
    <path class="cls-1" d="M563.1,425.04c-5.21-.5-10.42-.95-15.62-1.51-1.53-.16-1.6-.47-1.46-2.73.07-1.15.8-1.46,1.74-1.42,2.41.1,4.82.26,7.22.41,3.26.2,6.52.44,9.78.62,1.08.06,1.49.54,1.5,1.6.02,2.85.05,2.85-3.16,3.03Z"/>
    <path class="cls-1" d="M418.22,377.4c1.98.23,5.18.6,8.39,1,1.33.16,2.65.37,3.97.56.92.13,1.33.65,1.35,1.59.07,2.87.08,3-2.75,2.82-2.96-.19-5.89-.67-8.84-.99-1.58-.17-3.18-.26-4.77-.4-1.5-.14-1.62-.28-1.63-1.76-.01-2.74.06-2.81,4.28-2.81Z"/>
    <path class="cls-1" d="M420.34,391.83c-4.71-.62-9.41-1.24-14.12-1.87-.48-.06-.95-.15-1.43-.23-1.77-.32-2.13-.88-1.76-2.67.18-.88.88-1.12,1.59-1.11,1.52.01,3.04.08,4.55.25,3.98.45,7.95,1,11.93,1.46,1.76.2,2.75,1.96,1.86,3.5-.14.23-.53.41-.82.45-.59.07-1.19.02-1.78.02,0,.07-.02.14-.02.21Z"/>
    <path class="cls-1" d="M426.03,367.06c4.13.67,8.27,1.3,12.39,2.03,1.37.24,1.73,1.19,1.48,3.22-.15,1.24-1.07,1.34-1.99,1.23-2.82-.36-5.64-.79-8.46-1.2-1.8-.26-3.59-.55-5.39-.79-.9-.12-1.34-.54-1.23-1.47.03-.29,0-.59,0-.89.02-1.33.36-1.71,1.69-1.8.48-.03.96,0,1.45,0,.02-.11.03-.21.05-.32Z"/>
    <path class="cls-1" d="M524.89,431.08c-2.51-.42-4.81-.83-7.12-1.2-1.72-.28-3.47-.43-5.16-.81-1.05-.23-2.06-.73-3.03-1.23-.22-.11-.37-.77-.26-1.06.57-1.41,1.56-2.18,3.2-1.93,3.44.54,6.89,1.07,10.34,1.51,1.3.16,2.4.62,3.46,1.35.54.38.67.75.32,1.3-.34.53-.64,1.09-1.03,1.58-.21.26-.58.4-.72.49Z"/>
    <path class="cls-1" d="M395.36,376.33c-2.12-.34-4.24-.64-6.34-1.08-.37-.08-.72-.7-.9-1.15-.15-.35-.04-.8-.03-1.21.01-.79.4-1.23,1.2-1.33,2.63-.32,5.18.17,7.69.83,1.02.27,1.29,1.09,1.15,2.47-.1,1.03-.82,1.22-1.63,1.31-.37.04-.74,0-1.11,0,0,.05-.01.1-.02.15Z"/>
    <path class="cls-3" d="M495.62,399.25c-1.25-.12-2.51-.22-3.76-.36-.81-.09-1.2-.5-1.21-1.4-.05-3.21.14-3.44,3.35-3.31,1,.04,2,.12,3,.2,1.22.1,1.65.56,1.68,1.76.08,2.89-.07,3.04-3.05,3.11Z"/>
    <path class="cls-3" d="M488.12,401.52c.78,0,1.56-.02,2.33,0,.79.03,1.21.48,1.24,1.28,0,.07,0,.15,0,.22.1,2.92-.03,3.08-2.96,3.07-1.11,0-2.21-.12-3.32-.2-.66-.05-1.01-.41-1-1.08,0-.04,0-.07,0-.11-.19-3.1-.05-3.22,3.71-3.18Z"/>
    <path class="cls-3" d="M500.14,391.53c-.95-.14-1.89-.27-2.84-.41-.15-.02-.3-.05-.43-.11-1.73-.81-.72-2.34-.86-3.53-.1-.87.61-1.29,1.49-1.21,1.32.12,2.64.26,3.96.41.18.02.38.08.51.19,1.22,1.03.65,2.42.6,3.64-.04.91-.99.93-1.75.93-.22,0-.44,0-.67,0,0,.03,0,.06-.01.1Z"/>
    <path class="cls-1" d="M560.26,396.93c-.26,0-.52,0-.78,0-2.33-.1-3.28-1.45-2.5-3.64.12-.33.62-.75.94-.75,1.22,0,2.45.09,3.63.33.39.08.67.75.95,1.18.09.13.02.36.02.55.03,2.28-.02,2.33-2.27,2.32Z"/>
    <path class="cls-3" d="M385.68,367.06c-.41,0-.83.06-1.22-.01-.81-.14-1.38-.54-1.32-1.49.02-.26,0-.52,0-.78q0-2.54,2.55-2.52c1.77,0,2.28.51,2.28,2.23,0,.11,0,.22,0,.33q0,2.26-2.3,2.24Z"/>
    <path class="cls-3" d="M377.78,379.53c0,2-1.08,2.59-3.53,1.93-1.42-.38-2.24-2.96-1.27-4.09.17-.2.49-.35.76-.37.63-.05,1.27-.07,1.89,0,1.82.22,2.15.63,2.15,2.53Z"/>
    <path class="cls-3" d="M380.52,373.59c-.07,0-.15,0-.22,0-2.98-.02-2.59-.59-2.48-3.12.02-.36.67-.93,1.08-.98.9-.1,1.84.02,2.75.13.84.1,1.32.68,1.38,1.51.16,2.07-.08,2.58-2.51,2.46Z"/>
    <path class="cls-3" d="M591.4,388.61c-2.19,0-3.04-1.27-2.24-3.37.09-.23.29-.57.46-.59,1.16-.1,2.33-.16,3.49-.13.19,0,.43.55.54.88.09.27.03.59.03.88,0,2.26-.06,2.32-2.28,2.32Z"/>
  </g>
  <path class="cls-1" d="M579.51,235.93l-219.47-40.91c-.02-.75-.04-1.5-.05-2.24-.08-2.97.72-5.53,3.46-6.95,1.44-.75,3.17-1.29,4.77-1.31,3.63-.05,7.32-.07,10.88.52,9.82,1.6,19.59,3.54,29.38,5.31,15.17,2.73,30.35,5.48,45.53,8.14,15.08,2.64,30.18,5.14,45.25,7.81,9.8,1.74,19.57,3.7,29.36,5.51,11.51,2.13,23.03,4.19,34.54,6.29,1.68.31,3.36.64,5.03,1.01,4.31.94,7.06,3.64,8.75,7.63,1.26,2.98,2.02,6.06,2.56,9.2Z"/>
  <g>
    <path class="cls-3" d="M535.94,329.99c-.22-3.67-.21-7.36-.53-11.02-.47-5.55-1.11-11.09-1.75-16.62-.21-1.8-.95-2.29-2.7-2.54-2.61-.37-5.24-.68-7.79-1.29-9.18-2.2-18.43-4.04-27.77-5.41-11.21-1.64-22.4-3.41-33.61-5.02-5.14-.74-10.32-1.24-15.48-1.85,0,.05-.01.11-.02.16-.15,0-.31-.03-.44,0-.64.17-1.59.18-1.83.6-.39.68-.46,1.63.28,2.36.15.15.19.47.2.71.16,4.68.19,9.37.48,14.04.34,5.35-.23,10.8,1.72,16.01.3.81.61,1,1.34,1.09,3.83.45,7.69.77,11.49,1.45,11.01,1.96,21.97,4.14,32.98,6.11,10.75,1.92,21.52,3.71,32.29,5.51,3.29.55,6.61,1.02,9.93,1.34,1.87.18,2.31-.51,1.9-2.36-.24-1.08-.61-2.16-.68-3.26ZM447.89,311.52c-.05-.25-.13-.49-.14-.74-.15-4.27-.3-8.54-.45-12.82-.08-2.38-.15-4.76-.29-7.13-.05-.78.16-.92.92-.85,13.37,1.21,26.53,3.87,39.81,5.63,11.87,1.57,23.6,3.85,35.28,6.41,2.17.48,4.4.73,6.6,1.03.63.08.89.31.98.94.4,2.66.41,2.68-2.25,2.22-2.12-.37-4.23-.83-6.35-1.17-1.93-.31-2.64.56-2.08,2.45.05.17.21.36.17.49-.47,1.55-.98,3.08-1.58,4.98-.48-1.78-.92-3.3-1.3-4.83-.53-2.11-1.56-2.97-3.7-3.22-4.35-.52-8.68-1.16-13.04-1.64-3.84-.42-7.68-.74-11.53-1.03-3.66-.27-7.33-.54-11-.63-2.14-.05-4.29.24-6.44.39-1.2.08-1.89.8-2.46,1.83-1.7,3.09-3.47,6.14-5.21,9.21-.48.84-.82.49-1.12-.13-.89-1.88-1.76-3.77-2.68-5.64-.33-.66-.72-1.31-1.16-1.9-1.17-1.55-3.19-1.79-4.58-.42-1.98,1.96-3.83,4.05-5.74,6.07-.18.2-.43.33-.65.49ZM531.84,332c-4.35-.75-8.72-1.46-13.08-2.2-11.9-2.04-23.8-4.03-35.68-6.15-7.46-1.33-14.86-2.97-22.32-4.28-3.68-.65-7.44-.86-11.16-1.29-.41-.05-1.14-.13-1.16-.27-.1-.7-.3-1.66.06-2.11,2.22-2.79,4.59-5.46,6.88-8.2.64-.77,1.12-.57,1.51.17.94,1.77,1.86,3.55,2.78,5.34.36.69.74,1.38,1.03,2.1.88,2.14,4,2.17,5.07.07,1.41-2.78,3.01-5.47,4.47-8.22.83-1.57,2-2.23,3.82-2.31,5.56-.26,11.08.25,16.58.8,7.65.76,15.28,1.72,22.92,2.56.76.08.76.58.9,1.05.85,2.92,1.68,5.85,2.53,8.78.2.67.49,1.2,1.36,1.23,1.44.04,1.62-.1,1.91-1.53.45-2.26.96-4.5,1.42-6.76.11-.54.22-1.1.19-1.65-.05-.79.27-.84.92-.7,1.96.41,3.93.77,5.9,1.13.32.06.67.04,1,0,.5-.06,1.38-.31,1.42-.22.24.61.34,1.28.39,1.94.4,5.19.78,10.37,1.16,15.57,0,1.48-.03,2.97.01,4.46.02.69-.19.8-.83.69Z"/>
    <path class="cls-3" d="M428.94,225.38c5.63,1,11.26,2.02,16.91,2.93,8.99,1.44,17.99,2.8,26.98,4.19,2.49.39,4.98.92,7.49,1.11,2.88.22,2.89.07,2.79-2.87-.03-.97-.44-1.54-1.4-1.71-6.92-1.2-13.83-2.47-20.77-3.58-5.98-.96-11.99-1.74-17.98-2.63-4.04-.6-8.07-1.23-12.11-1.85-.01.08-.02.16-.03.24-.52,0-1.04-.01-1.56,0-.95.03-1.66.32-1.72,1.46-.11,2.18-.02,2.45,1.4,2.7Z"/>
    <path class="cls-3" d="M479.08,244.41c-.37,2.01,0,2.61,1.99,3.12.29.07.58.14.87.2,7.73,1.76,15.62,2.55,23.46,3.6,7.62,1.03,15.22,2.18,22.83,3.32,2.49.38,4.95,1,7.45,1.34,1.91.26,2.12-.04,2.14-1.96.01-2.07-.12-2.3-2.13-2.68-3.69-.7-7.37-1.42-11.08-1.99-5.47-.84-10.96-1.56-16.45-2.31-7.03-.96-14.06-1.91-21.09-2.86-2.17-.29-4.34-.59-6.51-.83-.72-.08-1.31.22-1.47,1.05Z"/>
    <path class="cls-3" d="M477.51,262.69c1.02.1,1.48-.34,1.5-1.41.04-2.9.05-2.93-2.82-3.38-.15-.02-.3-.03-.44-.05-5.49-.71-11-1.26-16.46-2.16-6.3-1.03-12.56-2.37-18.84-3.56-3.06-.58-6.13-1.13-9.19-1.69-.01.08-.03.15-.04.23-.41,0-.82-.01-1.23,0-1.27.04-1.57.34-1.58,1.6,0,.3.04.6.01.89-.08.91.34,1.37,1.22,1.53,1.61.3,3.2.66,4.8.98,7.43,1.49,14.84,3.1,22.3,4.42,4.82.85,9.72,1.3,14.58,1.9,2.06.26,4.13.48,6.19.69Z"/>
    <path class="cls-3" d="M543.19,281.24c-3.65-.46-7.3-.88-10.94-1.38-5.41-.75-10.81-1.58-16.22-2.31-3.09-.42-6.2-.7-9.3-1.04,0,.03,0,.05,0,.08-.56,0-1.14-.09-1.66.03-.38.09-.85.39-1,.73-.75,1.66,0,3.09,1.76,3.54.25.06.51.12.76.16,5.04.72,10.07,1.46,15.11,2.15,6.92.95,13.83,1.89,20.76,2.77,2.76.35,2.77.28,2.77-2.46,0-1.71-.3-2.05-2.03-2.27Z"/>
    <path class="cls-3" d="M445.78,243.23c4.12.75,8.31,1.06,12.47,1.63,2.53.35,5.05.83,6.8,1.13,3.08.07,3.13.03,3.1-2.23,0-.22-.01-.45,0-.67,0-.88-.41-1.4-1.28-1.55-3.11-.53-6.2-1.22-9.34-1.56-6.14-.67-12.22-1.56-18.22-3.06-2.87-.71-5.83-1.14-8.77-1.53-2.67-.36-2.98.05-2.96,2.68,0,.97.42,1.41,1.31,1.6,5.63,1.19,11.24,2.52,16.9,3.55Z"/>
    <path class="cls-3" d="M518.7,263.45c-2.39-.33-4.77-.7-6.35-.93-3.28-.14-3.34-.09-3.34,2.37,0,.04,0,.07,0,.11,0,1.61.11,1.71,1.72,1.98,6.26,1.02,12.52,2.04,18.78,3.09,2.49.42,4.96.92,7.44,1.34,3.24.55,2.85-.3,2.88-2.79.01-1.1-.52-1.76-1.58-1.97-2.8-.57-5.59-1.2-8.41-1.65-3.7-.59-7.43-1.02-11.14-1.54Z"/>
    <path class="cls-3" d="M437.49,266.51c-2-.39-4.04-.56-6.06-.79-.68-.08-1.25.17-1.42.95-.43,1.94-.01,2.66,1.86,3.2.25.07.5.14.75.2,6.35,1.39,12.69,2.79,19.04,4.15,2.64.57,5.31,1.05,7.96,1.57,0-.06.02-.11.03-.17.48,0,1.01.12,1.43-.03.43-.16.98-.54,1.09-.93.56-1.97-.26-3.23-2.3-3.65-7.46-1.51-14.92-3.04-22.39-4.49Z"/>
    <path class="cls-1" d="M410.5,222.73c1.28.17,2.56.4,3.26.51,3.28-.14,3.3-.15,3.26-2.72-.02-1.52-.22-1.81-1.76-2.02-5.37-.75-10.76-1.44-16.13-2.17-2.1-.28-4.19-.75-6.29-.87-3.73-.21-3.63.16-3.46,3.07.03.45.53,1.08.97,1.25.96.36,2.01.55,3.03.69,5.71.78,11.42,1.51,17.14,2.27Z"/>
    <path class="cls-3" d="M469.1,276.5c3.36.37,6.72.74,10.07,1.16,3.97.51,7.94,1.09,11.91,1.6.88.11,1.78.17,2.67.13.33-.02.81-.32.94-.61.85-1.91-.06-3.87-2.08-4.2-3.67-.6-7.35-1.07-11.04-1.51-3.36-.4-6.72-.69-10.09-1.03-.23.04-.45.04-.67.04-2.66,0-3,.38-2.94,3.04.02.88.37,1.28,1.23,1.38Z"/>
    <path class="cls-1" d="M401.62,251.16c4.44.25,8.88.6,13.33.82,2.51.12,2.52.04,2.45-2.48-.04-1.47-.24-1.83-1.71-1.94-6.33-.48-12.66-.87-18.99-1.3,0,.07,0,.14-.01.2-1.45,0-2.9-.07-4.34.04-.48.04-1.18.48-1.32.89-.79,2.33.03,3.4,2.46,3.47,2.71.08,5.42.14,8.13.29Z"/>
    <path class="cls-1" d="M414.47,233.92c-4.69-.53-9.37-1.07-14.06-1.57-2.51-.27-5.02-.47-7.54-.65-.39-.03-1.12.2-1.15.4-.17,1.07-.31,2.2-.14,3.25.07.39,1,.81,1.59.91,2.09.35,4.19.58,6.29.82,4.83.55,9.66,1.08,13.41,1.5q3.68.03,3.59-2.48c-.05-1.67-.33-1.99-2-2.18Z"/>
    <path class="cls-1" d="M434.39,300.65c-1.3-.09-2.59-.22-3.88-.33-5.55-.46-11.1-.92-16.65-1.38,0,.05,0,.1,0,.15-.67,0-1.34-.05-2,.02-.34.03-.92.23-.94.41-.14,1.12-.31,2.28-.1,3.36.07.37,1.18.71,1.85.77,3.88.35,7.77.62,11.66.92,2.81.22,5.62.56,8.43.68,3.09.13,3.23-.11,3.02-3.17-.06-.89-.46-1.36-1.37-1.42Z"/>
    <path class="cls-1" d="M417.09,267.93c.35-.13.8-.49.88-.82.55-2.49-.14-3.42-2.67-3.74-.15-.02-.29-.04-.44-.05-4.96-.36-9.92-.72-14.88-1.1-1.81-.14-3.62-.35-5.43-.4-.43-.01-1.13.37-1.28.75-.86,2.16.13,3.86,2.41,4.03,6.69.5,13.39.92,19.9,1.36.64,0,1.12.11,1.51-.03Z"/>
    <path class="cls-1" d="M428.58,288.74c.88.23,1.84.16,2.77.14.29,0,.68-.21.84-.44.85-1.25-.1-3.6-1.57-3.99-6.11-1.63-12.38-2.01-18.66-2.22-.74,0-1.52-.14-2.22.05-.47.12-1.14.68-1.17,1.08-.05.95.21,1.91.39,2.86.01.08.33.12.51.14.81.08,1.63.17,2.44.22,5.6.34,11.2.71,16.66,2.17Z"/>
    <path class="cls-3" d="M492.95,235.46c3.14.53,6.29,1.05,9.44,1.57,1.72.29,3.43.58,5.15.87,0-.06.02-.12.02-.18.56,0,1.13.08,1.66-.03.36-.07.81-.32.97-.62.94-1.83-.08-3.87-2.09-4.24-1.83-.34-3.64-.77-5.48-1-3.31-.41-6.63-.73-9.96-.99-.53-.04-1.35.27-1.6.68-1.01,1.65-.02,3.6,1.88,3.93Z"/>
    <path class="cls-3" d="M497.27,259.45c-2.47-.5-4.94-1.05-7.43-1.34-2.76-.33-3.21.21-2.87,2.99.05.39.43.97.76,1.05,2.8.67,5.61,1.39,8.46,1.79,2.12.3,2.21.04,2.21-2.06-.03-.97.26-2.15-1.13-2.43Z"/>
    <path class="cls-3" d="M376.15,217.8c1.08.23,2.16.43,3.25.64,0-.05.02-.11.03-.16.48,0,.99.09,1.44-.03.38-.1.96-.43.98-.69.09-1.06.06-2.14-.06-3.2-.03-.3-.49-.68-.83-.78-.84-.26-1.72-.49-2.6-.55-3.34-.23-3.55.03-3.35,3.38.05.81.41,1.24,1.15,1.39Z"/>
    <path class="cls-3" d="M382.07,249.17c.66-.01,1.01-.48,1.04-1.2.14-3.25-.09-3.5-3.32-3.52-.07,0-.15,0-.22,0,0,.02,0,.05,0,.07-.7,0-1.41-.03-2.11,0-.79.05-1.29.55-1.2,1.31.14,1.09-.54,2.43.84,3.2.03.02.07.02.11.02,1.62.04,3.25.13,4.87.1Z"/>
    <path class="cls-3" d="M570.68,225.73c-.05-.24-.32-.47-.55-.63-1.39-1.02-2.94-1.55-4.68-1.48-1.69-.33-1.96,1.11-2.59,2.11-.38.59-.18,1,.39,1.38,1.37.9,2.86,1.37,4.47,1.58,1.2.16,3.19-1.77,2.95-2.95Z"/>
    <path class="cls-3" d="M380.77,234.13c.37-.02,1.03-.65,1.03-1-.01-3.04.38-3.49-3.13-3.66-.15,0-.3,0-.45,0-.07,0-.15,0-.22,0-2.44.01-3.55,1.73-2.53,3.98.11.25.49.51.76.53,1.52.1,3.04.21,4.55.14Z"/>
    <path class="cls-3" d="M384,263.38c-.12-.85-.59-1.41-1.4-1.5-1.18-.13-2.37-.16-3.55-.17-.82,0-1.25.54-1.2,1.3.22,3.5-.46,3.46,3.25,3.51,3.17,0,3.34-.18,2.91-3.15Z"/>
    <path class="cls-3" d="M387.13,299c-.11-1.81-.53-2.3-2.31-2.48-.77-.08-1.59-.12-2.33.06-.43.1-.98.62-1.07,1.04-.61,2.93.25,3.95,3.2,3.93.07,0,.15,0,.22,0q2.43-.03,2.29-2.44s0-.07,0-.11Z"/>
    <path class="cls-3" d="M382.84,284.75c.5-.02,1.18.04,1.82-.12.39-.09.96-.49,1-.8.11-.87.11-1.81-.11-2.65-.12-.44-.76-.96-1.23-1.03-1.05-.15-2.15-.07-3.22,0-.92.06-1.43.63-1.38,1.56.16,3.46-.08,3,3.12,3.04Z"/>
  </g>
  <g>
    <path class="cls-1" d="M491.06,442.82c1.9-.31,3.8-.61,5.7-.92,2.4-.4,4.88-.41,7.13-1.61.65-.35,1.6-.2,2.41-.16,4.82.22,9.64.48,14.46.7,1.76.08,2.55.71,2.63,2.47.05,1.14-.02,2.32-.29,3.42-.42,1.72-1.49,3.07-3.31,3.42-3.13.6-6.28,1.13-9.44,1.55-3.87.51-7.75.9-11.63,1.31-2.34.25-4.47,1.09-6.48,2.25-3.93,2.26-7.88,4.5-11.73,6.89-1.6.99-3.11,2.19-4.43,3.52-3.63,3.66-7.93,6.26-12.58,8.3-1.44.63-3.06.85-4.62,1.17-1.07.22-1.93.48-1.81,1.86.04.47-.13.95-.23,1.43-.42,1.91-.63,2.03-2.6,2.13-.54.03-1.15.27-1.59.59-7.74,5.57-15.46,11.17-23.18,16.78-7.33,5.33-14.64,10.68-21.96,16.02-4.44,3.24-9.31,5.47-14.89,5.34-6.98-.17-13.26-2.55-18.16-7.6-7.95-8.19-15.66-16.61-23.48-24.93-1.15-1.22-2.32-2.42-3.39-3.7-.68-.81-1.01-.67-1.47.18-2.3,4.27-5.09,8.21-8.2,11.93-4.31,5.16-8.97,9.94-14.9,13.29-4.09,2.31-8.44,3.47-13.16,2.88-.76-.1-.97.2-1.2.89-1.28,3.79-1.33,7.74-1.68,11.65-.56,6.29-2.1,12.37-3.75,18.44-.17.63-.3,1.13.28,1.7,6.66,6.57,12.11,14.1,17.14,21.92,5.03,7.83,9.06,16.22,13.08,24.59.59,1.22,1.5,2.29,2.35,3.36,1.71,2.14,3.31,4.35,3.72,7.13.2,1.38.23,2.82.11,4.21-.14,1.63-1.24,2.66-2.8,2.92-2.74.46-5.51.82-8.27,1.1-3.73.39-7.47.66-11.2,1-.22.02-.43.11-.64.17h-10.71c-.44-.07-.87-.18-1.31-.2-5.65-.18-11.3-.34-16.94-.51-9.73-.3-19.47-.58-29.2-.93-6.95-.24-13.89-.5-20.83-.89-7.08-.4-14.15-.99-21.23-1.48-5-.34-10.01-.74-15.02-.93-6.65-.25-13.31-.25-19.95-.49-3.56-.13-7.13-.41-10.65-.88-4.13-.56-5.56-3.04-4.56-7.59.42-1.91.5-3.9.94-5.81,2.58-11.3,5.81-22.38,11.53-32.57,2.33-4.16,5.04-8.08,8.28-11.6.44-.48.44-.72-.23-.86-.25-.05-.5-.13-.75-.21-2.96-.89-4.29-2.71-4.36-5.82-.13-5.73.19-11.45,1.2-17.08,1.79-9.98,3.7-19.95,5.76-29.87,1.85-8.87,3.89-17.71,6.03-26.51,1.25-5.12,2.83-10.17,4.33-15.22.3-1.01,0-1.26-.87-1.64-4.06-1.74-8.16-3.4-12.08-5.43-3.2-1.66-5.81-4.16-7.63-7.34-1.48-2.57-2.28-5.35-2.49-8.34-.43-6.2.44-12.17,3.06-17.83,1.59-3.42,3.84-6.35,6.83-8.69,1.65-1.29,1.68-1.44.92-3.38-1.25-3.22-2.74-6.36-3.75-9.64-1.64-5.35-2.46-10.89-2.39-16.5.14-11.46,4.81-20.77,13.66-27.98,5.66-4.61,12.12-7.93,18.53-11.32.82-.43,1.58-.99,2.43-1.37,2.2-.99,3.21-2.77,3.75-5.04,1.34-5.6,2.56-11.24,4.27-16.73,2.46-7.91,5.21-15.73,8.03-23.52,1.02-2.81,2.61-5.41,3.94-8.11.18-.36.32-.74.48-1.11l-.04.04c.09-.16.17-.33.26-.49.05-.01.14-.06.22-.11,0,0,.01-.07.01-.07l-.02.1c-.08-.05-.16-.1-.24-.15,1.29-1.99,2.56-3.99,3.8-6,2.69-4.35,6.09-8.18,10.12-11.18,7.3-5.45,15.15-10.11,23.69-13.41,2.29-.89,4.82-1.15,7.23-1.75,5.08-1.26,10.22-1.25,15.4-.95,7.93.45,13.61,4.89,18.51,10.56,2.11,2.44,3.84,5.22,5.74,7.84,1.57,2.16,2.49,4.63,3.2,7.17.45,1.61,1.31,2.87,2.51,3.99,1.99,1.84,3.87,3.81,5.92,5.59,2.03,1.76,2.32,3.93,1.69,6.28-.54,2-1.39,3.92-2.02,5.9-.25.79-.36,1.65-.37,2.48-.07,6.13.09,12.27-.21,18.39-.28,5.75-3.54,9.96-8,13.33-3.86,2.91-8.24,4.71-12.86,5.98-.7.19-1.3.36-.95,1.29.06.16.05.37.02.55-.55,3.06.97,5.2,2.97,7.28,5.13,5.32,11.07,9.58,17.31,13.45,5.55,3.44,10.24,7.78,13.83,13.24,3.59,5.46,4.93,11.42,3.36,17.87-.23.94-.1,1.27.91,1.71,4.5,1.98,8.42,4.77,10.93,9.14.56.97.79.73,1.42.09,2.52-2.52,5.05-5.03,7.7-7.41,1.54-1.39,3.4-2.26,5.6-2.07.34.03.83-.17,1.05-.43,1.21-1.41,2.81-2.16,4.46-2.86,1.16-.49,2.34-.96,3.48-1.49.31-.14.65-.41.77-.71.49-1.18,1.44-1.74,2.58-2.11,3.49-1.14,7.01-2.23,10.46-3.48,1.59-.58,3.01-1.66,4.6-2.24,1.58-.57,3.27-.92,4.95-1.11,1.58-.18,2.83.75,3.57,2.07.44.79.75.59,1.35.37.97-.36,1.96-.76,2.97-.86,2.2-.23,3.31.98,3.26,3.19-.06,2.18-.97,3.92-2.47,5.44-2.17,2.19-4.72,3.84-7.36,5.39-1.8,1.05-3.56,2.16-5.32,3.26-1.43.89-2.32,2.19-3.05,3.72-2.6,5.47-5.35,10.87-7.98,16.33-.49,1.01-.71,2.17-.94,3.28-.07.34.11.87.37,1.1.74.65,1.49,1.48,2.38,1.72,2.68.72,5.43,1.18,8.15,1.77,2.25.49,4.5.98,6.73,1.53,1.87.46,3.21,1.48,3.5,3.56.32,2.29-.58,3.99-2.44,5.23-1.6,1.06-3.42,1.49-5.3,1.46-2.75-.05-5.51-.06-8.23-.39-3.82-.45-7.33.56-10.72,1.97-3.39,1.41-6.84,2.21-10.51,2.12-.28,0-.56.06-.85.1.13.24.24.5.39.72,5.42,7.68,11.24,15.05,17.31,22.23.96,1.13,1.9,2.28,2.81,3.45.47.6.9.69,1.69.44,7.92-2.48,15.08-6.67,22.61-10.02,6.41-2.85,13.02-5.25,19.54-7.85.95-.38,1.86-.97,2.85-1.16,2.07-.42,3.79.45,5.2,1.93.55.58.9.53,1.44-.01,4.58-4.63,9.29-9.12,13.73-13.88,2.82-3.03,5.21-6.46,7.85-9.67,1.72-2.1,3.54-4.11,5.29-6.18,1.85-2.2,4.5-3.26,6.81-4.79,4.97-3.3,10.32-5.74,16.21-6.89.69-.13,1.41-.28,2.09-.22.46.04.88.45,1.31.71.12.07.17.24.28.32,2.78,2.12,2.9,5.36.12,7.46-1.41,1.06-3,1.96-4.63,2.63-4.39,1.79-8.32,4.3-11.98,7.25-.96.78-1.62,1.94-2.42,2.93.1.1.2.2.3.3.56-.39,1.11-.79,1.68-1.17,4.71-3.11,9.38-6.3,14.17-9.28,1.97-1.23,4.19-2.09,6.35-2.97,2.65-1.08,5.42-1.12,8.23-.71,1.9.28,4,3.43,2.47,5.85-.19.3-.37.61-.63,1.05.69-.07,1.25-.23,1.78-.15,1.2.17,2.47.26,3.54.75,1.79.82,2.13,3.33.73,4.74-.81.82-1.68,1.6-2.64,2.22-3.54,2.33-7.13,4.57-10.68,6.88-3.8,2.46-7.69,4.82-11.34,7.5-1.75,1.28-3.03,3.19-4.53,4.82,0,0-.04.06-.04.06l.06-.04ZM185.15,435.79v.06s.03-.03.04-.05c-.11-.04-.22-.08-.32-.13-1-1.96-1.99-3.91-3.01-5.91-.53,1.33,1.16,4.54,3.03,5.89.09.05.18.09.27.14ZM319.65,352l.22.23c.5.54.96,1.13,1.52,1.61,4.15,3.61,8.35,7.16,12.46,10.8,4,3.55,7.04,7.76,8.48,13,.34,1.24.68,2.49,1.02,3.73.1,0,.21-.02.31-.03,0-1.34.22-2.73-.04-4.02-1-5.01-3.82-9.03-7.15-12.77-4.67-5.25-10.82-8.52-16.5-12.43-.12-.03-.23-.07-.35-.1-.05-.12-.1-.24-.15-.36-.02-.02-.03-.03-.05-.05l.05-.04s.01.04.02.06c.05.12.11.23.16.35ZM371.75,389.36c-.68.39-1.51.63-2.03,1.18-2.75,2.92-5.42,5.92-8.15,8.86-.53.57-.68,1.12-.54,1.9.72,4.14-.25,8.06-1.8,11.84-.33.81-.35,1.26.13,1.91,3.09,4.18,6.18,8.35,9.21,12.58.94,1.31,1.86,2.08,3.69,2.19,3.48.21,6.69-.37,9.89-1.65,2.86-1.15,5.84-2.12,8.96-2.02,3.07.1,6.14.51,9.21.78,2.03.18,4.06.12,5.86-.91.74-.42,1.21-1.31,1.8-1.98-.69-.46-1.33-1.14-2.09-1.32-2.81-.69-5.66-1.19-8.49-1.81-2.32-.51-4.67-.93-6.91-1.7-2.68-.93-3.81-2.87-3.68-5.7.09-2.03.64-3.91,1.58-5.74,2.62-5.13,5.17-10.3,7.6-15.52.8-1.72,1.9-2.95,3.51-3.86,2.81-1.6,5.64-3.17,8.36-4.93,1.83-1.18,3.52-2.6,5.16-4.05.66-.58,1.06-1.5,1.44-2.33.14-.3-.03-.95-.29-1.16-.29-.23-.92-.32-1.27-.17-1.47.63-2.9,1.35-4.33,2.07-4.08,2.05-8.19,4.06-12.22,6.22-.92.49-1.72,1.4-2.3,2.3-1.11,1.71-1.95,3.6-3.05,5.31-1.96,3.04-4.06,5.96-7.48,7.61-.74.35-1.2,1.26-1.8,1.9-.26.28-.53.67-.86.75-1.18.3-1.61-.06-1.49-1.29.19-1.92,1.55-3.02,2.94-4.13,1.3-1.03,2.74-1.99,3.74-3.28,2.01-2.62,3.84-5.38,5.57-8.19,1.01-1.64,2.2-2.95,3.93-3.8,3.41-1.66,6.79-3.36,10.18-5.07.43-.22.8-.56,1.19-.85-.41-.36-.78-.81-1.26-1.05-.36-.18-.89-.22-1.28-.09-1.02.33-2.02.74-2.99,1.2-2.58,1.22-5.1,2.6-7.73,3.69-1.95.81-4.06,1.21-6.05,1.92-.62.22-1.4.77-1.59,1.34-2.01,5.93-5.26,10.94-10.34,14.69-.24.17-.38.52-.63.61-.66.22-1.35.43-2.03.44-.14,0-.39-.82-.45-1.29-.15-1.23.59-1.97,1.48-2.68.98-.78,1.99-1.58,2.77-2.54,1.43-1.75,2.71-3.63,4.04-5.47.15-.21.24-.48.48-.98-.77.33-1.27.54-1.77.76-1.85.84-2.85,2.52-4.07,4.02-1.99,2.45-4.11,4.78-6.21,7.13-.39.44-.88.96-1.4,1.07-.83.17-1.73.02-2.6,0,.12-.81-.03-1.87.42-2.39,1.92-2.21,4.03-4.26,6.06-6.36,0,0-.02.01-.03.02ZM256.99,541.93c0,.15,0,.31.01.46,5.34-.31,10.69-.51,16.02-.95,4.62-.38,9.23-1,13.84-1.59,4.2-.54,8.38-1.16,12.56-1.8.32-.05.74-.46.83-.78.57-2.08,1.16-4.16,1.57-6.27.82-4.22,1.73-8.4,1.73-12.77,0-2.51.8-5.05,1.42-7.53,1.87-7.53,3.85-15.04,5.74-22.57.67-2.68,1.95-4.93,3.97-6.82,1.33-1.24,2.53-2.62,3.77-3.96,3.29-3.57,6.21-7.41,8.36-11.79.7-1.42.71-1.45-.58-2.31-2.95-1.96-5.91-3.91-8.2-6.65-1.22-1.45-2.6-2.13-4.53-2.07-1.77.05-3.59-.08-5.12-1.19-.29-.21-.5-.56-.74-.84.27-.22.5-.57.8-.64,1.19-.25,2.39-.51,3.59-.59,1.33-.09,2.67.05,4.01.04,1.81,0,3.41.49,4.83,1.67,2.17,1.8,4.33,3.63,6.65,5.23,3.62,2.51,7,5.27,9.98,8.53,3.61,3.95,7.27,7.86,10.9,11.79,8.05,8.71,16.11,17.41,24.14,26.13,3.83,4.16,7.9,7.89,13.49,9.7,6.33,2.04,12.29,1.74,17.94-1.9,1.49-.96,2.89-2.06,4.32-3.11,12.96-9.42,25.91-18.86,38.88-28.26,1.67-1.21,3.45-2.27,5.26-3.26.54-.29.89-.51,1.04-1.11.69-2.86.86-5.75.22-8.62-1.68-7.55-5.21-14.2-10.16-20.1-.64-.76-1.44-1.4-2.2-2.05-.65-.56-1.35-.63-2.17-.26-7.43,3.4-14.93,6.66-22.31,10.18-6.24,2.97-12.28,6.39-19.06,8.06-.67.17-.54.38-.24.8.67.92,1.59,1.77,1.27,3.05-.09.36-.74.92-.96.85-.77-.24-1.68-.55-2.17-1.13-10.84-12.88-21.43-25.97-31.34-39.59-3.61-4.96-7.36-9.82-11.21-14.58-4.47-5.52-9.23-10.8-14.87-15.2-9.16-7.13-19.5-12.4-29.2-18.69-.18-.11-.4-.15-.61-.22-.04.24-.11.48-.11.72.03,1.93.14,3.87.1,5.8-.14,6.1-1.65,11.75-5.56,16.61-.93,1.15-1.71,2.43-2.51,3.68-.61.95-.73,1.99-.4,3.1.45,1.49.83,3.01,1.28,4.51,1.06,3.55,1.67,7.15,1.64,10.87-.07,8.35-3.8,14.72-10.37,19.62-3.07,2.29-6.62,3.28-10.31,3.95-4.44.81-8.84,1.32-13.1-.81-.23-.12-.79.07-.99.3-2.76,3.15-6.12,5.56-9.5,7.98-5.87,4.21-12.15,7.48-19.26,9-3.18.68-6.37,1.23-9.62.68-4.04-.68-7.05-3.12-9.54-6.16-2.16-2.64-4.05-5.5-6.1-8.23-.21-.29-.73-.62-1-.55-3.04.86-6.1.69-9.19.42-.26-.02-.73.31-.79.56-1.84,6.78-3.86,13.52-5.41,20.36-3.04,13.44-5.88,26.94-8.69,40.43-1.75,8.41-3.15,16.87-2.88,25.53.07,2.29.55,3.27,2.71,4.02.94.33,1.92.67,2.9.76,4.4.42,8.8,1.04,13.2,1.05,7.17,0,14.34-.37,21.5-.65,5.87-.23,11.72-.63,17.59-.81,4.31-.13,8.62-.03,12.94-.03ZM485.8,447.01c-.49-.29-1.24-.47-1.4-.88-.46-1.16.04-1.82,1.26-2.22.37-.12.73-.47.96-.81.44-.65.67-1.47,1.19-2.02.89-.94,2.05-1.64,2.88-2.62,1.42-1.68,3.12-2.94,4.98-4.07,2.92-1.78,5.78-3.65,8.66-5.48,1.82-1.15,3.63-2.33,5.47-3.45,2.7-1.64,5.43-3.22,8.12-4.88.39-.24.87-.85.8-1.17-.1-.43-.65-.83-1.1-1.09-.36-.21-.86-.23-1.3-.24-2.35-.02-4.59.45-6.63,1.63-1.38.8-2.77,1.61-4.06,2.54-6.99,5-14.19,9.66-21.66,13.92-1.23.7-2.37,1.58-3.64,2.15-.68.3-1.6.25-2.35.08-.19-.04-.31-1.17-.17-1.73.12-.47.61-.9,1.04-1.21.96-.7,2.01-1.28,2.97-1.98,3.52-2.55,6.9-5.29,10.55-7.64,3.74-2.41,7.75-4.4,11.59-6.64,2.66-1.55,5.26-3.2,7.85-4.88.4-.26.89-1.08.77-1.28-.35-.54-.95-1.14-1.54-1.25-1.69-.33-3.42-.26-5.02.51-5.1,2.45-10,5.23-14.65,8.49-5.05,3.54-10.21,6.94-15.39,10.28-.93.6-2.21.69-3.35.93-.24.05-.69-.16-.82-.38-.48-.79.02-2.1.86-2.54.85-.45,1.7-.92,2.51-1.44.27-.18.6-.58.58-.85-.13-1.29.58-2.16,1.27-3.1.9-1.23,1.65-2.57,2.59-3.76.89-1.12,1.79-2.37,2.97-3.09,3.26-1.99,6.66-3.75,10.03-5.56,1.96-1.05,4.04-1.89,5.92-3.07,1.72-1.08,1.68-1.69.28-3.15-.18-.19-.56-.34-.82-.3-1.14.18-2.27.39-3.38.68-10.21,2.68-17.89,8.9-23.74,17.43-2.9,4.22-6.16,8.08-9.76,11.68-3.99,3.99-8.03,7.95-12.02,11.95-.17.17-.15.74,0,.98,4.6,7.11,7.66,14.76,8.23,23.29.04.68.36.72.86.61.98-.23,1.97-.41,2.92-.72,5.09-1.69,9.28-4.75,13.12-8.41,1.25-1.19,2.68-2.26,4.19-3.1,3.95-2.23,7.99-4.29,11.97-6.46,2.32-1.26,4.73-2.13,7.38-2.33,2.96-.22,5.92-.48,8.87-.8,2.4-.26,4.79-.59,7.17-.95,1.58-.24,3.15-.54,4.69-.92,1.3-.32,2.28-1.12,2.52-2.53.18-1.09-.14-1.36-1.23-1.4-4.27-.14-8.54-.35-12.81-.46-1-.02-2.02.22-3.02.41-.91.17-1.79.49-2.7.66-2.04.38-4.1.7-6.15,1.05-3.03.52-6.07,1.05-9.26,1.6ZM310.23,320.75l-.4.03c0,1.6.02,3.2,0,4.79-.01.63.09.9.81.65,4.14-1.43,8.09-3.23,11.43-6.13,2.96-2.57,5.35-5.6,5.7-9.65.3-3.47.23-6.98.26-10.47,0-.28-.45-.7-.79-.84-1.86-.75-3.76-1.4-5.62-2.16-.34-.14-.72-.55-.8-.9-.09-.42.03-1.23.24-1.3.55-.18,1.25-.19,1.8,0,.9.31,1.71.9,2.6,1.27,3.24,1.37,2.6,1.23,2.72-1.76.07-1.89-.05-3.77.75-5.59.74-1.66,1.27-3.41,1.93-5.11.36-.93.16-1.63-.57-2.29-1.54-1.4-2.95-2.96-4.58-4.24-3.03-2.36-4.96-5.4-5.99-9.02-.77-2.68-2.17-4.94-3.99-7-.96-1.08-1.91-2.18-2.83-3.3-2.76-3.39-6.09-6.09-9.98-8.08-.52-.27-1.09-.46-1.63-.68.06.61.07,1.22.18,1.82.91,5.19,2.04,10.35,2.73,15.57,1.43,10.82,2.7,21.67,3.92,32.52.81,7.27,1.42,14.56,2.12,21.85ZM312.18,507.66c.03.09.05.18.08.28,1.98-.58,4.05-.95,5.94-1.77,6.2-2.67,11.11-7.1,15.64-11.98,3.89-4.19,7.09-8.87,9.94-13.82.41-.72.35-1.07-.14-1.7-3.48-4.42-8.08-7.6-12.27-11.24-.49-.42-.63-.21-.84.27-1.5,3.43-3.49,6.58-5.95,9.38-2.97,3.37-6.09,6.62-9.12,9.93-.29.32-.58.71-.69,1.11-1.51,5.75-3.03,11.49-4.47,17.26-.57,2.26-.46,2.32,1.9,2.27ZM296.17,301.57c-1.18-.25-2.23-.4-3.24-.71-.5-.16-.92-.6-1.37-.91.46-.3.91-.64,1.4-.89.21-.11.52-.06.77-.02,1.05.2,2.1.42,3.15.64.24.05.47.09.71.13-.01-.21,0-.44-.04-.64-.38-1.55-.76-3.1-1.16-4.64-.07-.27-.19-.63-.4-.75-1.99-1.07-3.93-2.32-6.27-2.47-2.25-.15-3.58.73-4.01,2.68-1.89,8.58,2.14,15.57,9.91,18.91,1.49.64,2.97.49,4.37-.38.5-.31.74-.6.59-1.24-.35-1.4-.64-2.82-.89-4.25-.17-.93-.24-1.56-1.52-.92-1.24.63-2.64-.1-3.38-1.39-.57-1-.4-1.47.98-2.68.11-.09.19-.21.43-.46ZM195.02,349.6c.08-.07-.1.06-.25.22-.83.9-1.7,1.77-2.47,2.72-4.71,5.76-7.59,12.3-7.59,19.79,0,5.82,1.22,11.51,3.1,17.04.18.54.45,1.05.68,1.57.24-.42.28-.78.24-1.13-.26-2.14-.37-4.31-.85-6.4-1.96-8.51-1.35-16.79,2.23-24.74,1.44-3.2,3.33-6.19,4.91-9.07ZM297.78,304.36c.35-.37.67-.63.85-.96.05-.1-.39-.61-.43-.59-.48.24-.92.55-1.37.83.26.2.52.39.95.71Z"/>
    <path class="cls-1" d="M236.01,276.99c-.07.04-.14.07-.21.11.08-.2.14-.36.19-.53-.02.13-.02.29-.02.46l.04-.04Z"/>
    <path class="cls-1" d="M235.99,276.57c.08-.08.16-.15.23-.23-.03.06-.03.15-.03.23-.05-.03-.14-.04-.23-.04l.02.03Z"/>
    <path class="cls-1" d="M315.2,267.8c-1.13-.32-2.27.23-3.39.84-1.69.92-3.38,1.85-5.09,2.74-.29.15-.69.11-1.04.16-.02-.38-.16-.8-.04-1.13,1.48-4.33,5.5-6.83,10.06-6.28,1.8.21,2.52,1.31,1.94,3.05-.09.27-.49.53-.8.6-.46.1-.96.03-1.65.03Z"/>
    <path class="cls-1" d="M317.75,273.8c.09,1.54-.19,2.55-1.33,3.27-.79.5-1.39.4-1.74-.37-.32-.71-.54-1.52-.55-2.29,0-.74-.18-.89-.79-.59-1.11.56-2.19,1.17-3.31,1.72-.31.15-.69.15-1.05.22-.01-.38-.15-.82,0-1.12.22-.45.56-.95.98-1.17,1.51-.75,3.02-1.6,4.64-2.03,2.32-.62,3.18.23,3.14,2.37Z"/>
    <path class="cls-1" d="M325.13,290.33s-.56-.11-.62-.33c-.12-.42-.11-.98.07-1.37.35-.72.87-1.35,1.32-2.02.12-.18.25-.37.39-.54.63-.74,1.88-1.09,2.22-.55.47.74.25,1.44-.35,2.1-.41.45-.7,1.04-.97,1.6-.36.75-.89,1.17-2.06,1.11Z"/>
  </g>
  <path class="cls-1" d="M628.42,324.02c-.02,1.74-.07,3.48-.52,5.18-.41,1.56-1.31,2.72-2.7,3.5-.6.33-1.24.59-1.86.88-.57.27-1.15.14-1.72.04-1.21-.2-2.42-.33-3.65-.32-1.31.01-2.62,0-3.92-.07-1.65-.08-3.29-.25-4.93-.35-.98-.07-1.96-.1-2.94.07-.22.04-.46-.01-.69-.03-1.23-.09-2.46-.18-3.69-.27-1.27-.09-2.53-.18-3.8-.29-1.2-.11-2.4-.25-3.6-.37-1.1-.12-2.19-.23-3.29-.35-2.12-.25-4.25-.51-6.37-.77-1.64-.2-3.29-.4-4.93-.62-1.72-.24-3.43-.5-5.14-.76-1.08-.16-2.16-.33-3.24-.51-.38-.06-.66.09-.94.31-1.34,1.07-2.69,2.13-4.03,3.2-2.17,1.73-4.39,3.38-6.66,4.97-1.02.71-2.09.75-3.23.63-.29-.03-.49-.24-.53-.56-.09-.81-.15-1.63.09-2.43.71-2.34,1.43-4.67,2.15-7,.11-.37.2-.75.33-1.12.08-.25-.01-.3-.23-.35-1.81-.4-3.62-.78-5.41-1.23-1.99-.49-3.92-1.16-5.76-2.09-1.11-.57-2.1-1.29-2.79-2.36-.57-.88-.91-1.86-1.19-2.86-.56-2.04-.9-4.12-1.16-6.22-.26-2.13-.5-4.27-.71-6.4-.24-2.36-.46-4.72-.66-7.08-.19-2.29-.36-4.58-.52-6.87-.14-2-.26-3.99-.37-5.99-.02-.41.03-.82.01-1.22-.05-1.64-.14-3.28-.16-4.92-.02-1.21-.12-2.46.1-3.63.29-1.47.86-2.88,1.92-4.04,1.82-1.98,4.01-3.25,6.67-3.71,1.51-.26,3.02-.43,4.55-.5,2-.09,4-.03,6,.11,1.18.08,2.37.12,3.55.23,1.54.14,3.08.32,4.61.52,1.97.25,3.93.52,5.89.83,2.49.4,4.96.85,7.45,1.29,2.56.45,5.12.93,7.68,1.36,2.97.5,5.94.98,8.91,1.43,1.58.24,3.18.41,4.77.58,1.73.19,3.47.34,5.2.49,1.34.11,2.68.17,4.02.3,1.95.19,3.89.38,5.83.65,1.42.19,2.83.46,4.24.75.74.16,1.46.41,2.17.67,1.52.54,2.39,1.68,2.79,3.19.29,1.11.51,2.24.67,3.37.27,1.98.53,3.97.67,5.96.24,3.38.4,6.77.55,10.16.12,2.75.16,5.5.24,8.25.03.9.08,1.8.12,2.69.05,2.85.07,5.71.1,8.56.01,1.71.05,3.41.04,5.11Z"/>
  <g>
    <path class="cls-3" d="M615.9,302.63c.51-1.95-.56-2.92-2.13-3.77-2.32-1.26-4.55-2.67-6.79-4.06-2.52-1.57-5.02-3.18-7.51-4.8-1.17-.76-2.44-.47-3.68-.42-.23,0-.51.3-.65.53-.74,1.23-.14,3.87,1.05,4.64,3.86,2.51,7.72,5.02,11.61,7.5.69.44.52.64-.06.92-1.57.76-3.14,1.53-4.71,2.29-3.08,1.48-6.2,2.88-9.23,4.45-2,1.03-2.55,2.5-1.97,4.63.08.3.59.65.94.69,1.65.17,3.19-.01,4.65-1.03,1.24-.86,2.69-1.41,4.06-2.07,4.15-2,8.3-3.98,12.45-5.98,1.45-.7,2.49-1.69,1.97-3.5Z"/>
    <path class="cls-3" d="M574.47,304.62c-4.03-2.07-8.09-4.07-12.15-6.07-.89-.44-1.83-.77-2.96-1.24.56-.29.91-.47,1.27-.66,3.7-1.99,7.4-3.96,11.09-5.96.95-.52,1.43-3.36.71-4.17-.15-.17-.45-.35-.66-.33-1.24.14-2.6.05-3.67.56-4.92,2.37-9.76,4.91-14.63,7.39-.99.5-1.47,1.32-1.44,2.44.02.52.03,1.04,0,1.56-.07,1,.35,1.75,1.19,2.23,1.09.63,2.17,1.34,3.34,1.77,4.94,1.81,9.58,4.23,14.14,6.82.46.26,1.05.41,1.58.42,3.52.05,3.14.3,3.04-3.44-.01-.46-.44-1.1-.85-1.32Z"/>
    <path class="cls-3" d="M592.62,284.46c-.11-1.53-.61-2-1.99-1.54-.48.16-.92.82-1.14,1.35-2.78,6.85-5.45,13.74-8.29,20.56-1.04,2.49-2.52,4.79-3.68,7.23-.36.76-.4,1.69-.46,2.56-.02.21.46.65.7.64.85-.04,1.72-.16,2.03-1.2.15-.5.39-.96.6-1.44,3.91-8.79,7.83-17.58,11.73-26.37.25-.56.34-1.2.5-1.8Z"/>
  </g>
</svg>