<?xml version="1.0" encoding="UTF-8"?>
<svg id="_Layer_" data-name="&amp;lt;Layer&amp;gt;" xmlns="http://www.w3.org/2000/svg" viewBox="0 0 794.88 794.88">
  <defs>
    <style>
      .cls-1 {
        fill: #000;
      }

      .cls-1, .cls-2, .cls-3 {
        stroke-width: 0px;
      }

      .cls-2 {
        fill: #cf0;
      }

      .cls-3 {
        fill: #fff;
      }
    </style>
  </defs>
  <g>
    <path class="cls-1" d="M247.35,576.7c-1.65,1.77-2.56,3.76-3.44,5.93-.67,1.63-.48,2.03,1.22,2.64,2.82,1.01,3.57.05,3.21-2.54-.28-1.99,1.71-2.27,2.51-3.44.89-1.29,1.72-2.6,2.48-3.94l-3.42-2.15c-.77,1.24-1.58,2.45-2.55,3.49Z"/>
    <path class="cls-1" d="M322.73,585.26c.14-2.26.25-4.51.31-6.78l-4.23,1.68c-.32,3.52-1.02,7.03.31,10.51h6.43c-.61-1.95-2.99-2.72-2.82-5.41Z"/>
    <path class="cls-1" d="M340.92,581.52c-2.76,2.9-6.2,5.28-7.86,9.15h6.97c.11-.23.17-.52.34-.68,3.34-3.17,6.5-6.51,9.61-9.89l-6.57-1.24c-.83.89-1.66,1.78-2.5,2.66Z"/>
    <path class="cls-1" d="M392.75,576.36l-5.76.76c.85,2.43,1.69,4.86,2.27,7.36,1.21,5.18-.19,4.62,5.88,4.55.16,0,.33-.13.62-.24-.7-1.3-.3-2.79-.65-4.16-.72-2.78-1.52-5.53-2.36-8.27Z"/>
    <path class="cls-1" d="M545.54,577.78c-1.81.43-3.48.82-4.89,1.15.22.8.47,1.59.78,2.36,2.1,5.36,1.85,5.73,7.7,4.88-.14-.43-.23-.86-.42-1.23-1.2-2.33-2.26-4.72-3.16-7.16Z"/>
    <path class="cls-1" d="M610.45,474.39c.98.26,2.35.92,2.85-.21.43-.97.4-2.26-.62-3.44-2.1-2.44-4.74-4.16-7.18-6.16-.17-.14-.34-.28-.52-.42.17,2.51.36,5.26.57,8.16,1.53.87,3.14,1.6,4.9,2.06Z"/>
    <path class="cls-1" d="M616.23,547.35c-.5-1.79-2-2.65-2.93-3.97-1.71-2.42-3.76-4.67-6.33-6.4-1.1,1.1-2.43,2.44-3.92,3.93,3.23,2.08,5.39,5.43,7.74,8.48,2.02,2.61,3.8,5.41,6.33,7.71-.62-3.25.01-6.53-.89-9.75Z"/>
  </g>
  <g>
    <path class="cls-2" d="M609.96,583.64c-3.48,1.93-7.27,3.31-11.21,4.43-10.19,2.89-20.59,3.63-31.02,3.72-17.83.16-35.64-1.2-53.48-1.19-36.81.02-73.61.47-110.4,1.31-1.98.04-3.98-.05-5.93.49h-72.78c-1.19-.16-2.38-.43-3.58-.47-19.26-.74-38.54-.73-57.78-2.14-13.51-.99-27.01-2-40.5-3.19-3.63-.32-7.47-1.08-10.37-3.29-4.24-3.23-6.05-8.08-6.88-13.32-.46-2.94-.55-5.96-1.51-8.82v-32.27c.77-1.19.46-2.53.47-3.79.04-7.97.02-15.94.02-24.53,2.15,1.16,3.5,2.01,4.95,2.64.99.43.89,1.16.87,1.91-.27,13.96-.48,27.92-.86,41.88-.24,8.77.02,17.5,3.03,25.83,1.91,5.29,6.6,7.43,11.73,8,8.84.99,17.76,1.33,26.61,2.27,10.69,1.13,21.44,1.01,32.15,1.67,31.38,1.93,62.81,2.39,94.24,2.05,22.16-.24,44.33-.58,66.49-1.24,25.72-.76,51.43-1.25,77.15-.92,12.45.16,24.9.97,37.35,1.59,9.56.47,18.98-.53,28.44-1.74,5.19-.67,10.03-2.31,14.96-3.72,7.05-2.02,12.9-9.96,13.11-17.36.27-9.2-.43-18.34-1.4-27.48-.82-7.74-1.43-15.53-1.65-23.31-.37-13.51-1.56-26.97-2.06-40.47-.46-12.47-.52-24.95-.15-37.44.73-24.96,1.97-49.9,1.6-74.88-.17-11.44-.2-22.9-.68-34.33-.72-16.89-1.64-33.77-1.29-50.68.29-14.13-1.12-28.22-.73-42.35.06-2.04-.41-4.12-.85-6.14-.83-3.82-1.01-3.89-4.88-3.47-5.68.62-11.38.91-17.1,1-15.58.24-31.14,1.19-46.71,1.84-15.57.65-31.15,1.12-46.74,1.4-21.2.39-42.39,1.59-63.59,2.27-12.47.4-24.93.63-37.41.79-19.74.25-39.47,1-59.21,1.49-2.21.06-2.99.77-3.21,3.18-.95,10.51-1.24,21.06-2.33,31.56-.8,7.73-1.61,15.48-1.82,23.28-.19,7.26-1.06,14.5-1.63,21.75-.77,9.85-1.39,19.71-1.05,29.61.14,4.16.16,8.3-.3,12.45-.34,3.03-1.73,4.91-4.64,5.66-3.14.81-6.79,1.61-9.46.38-5.39-2.47-10.77-1.19-16.1-1.27-5.51-.09-11.03.83-16.54,1.27-7.5.6-15,1.48-22.51,1.66-11.69.28-23.39.16-35.09,0-2.42-.03-2.78.72-2.84,2.9-.44,14.38-1.04,28.76-1.59,43.13-.02.43-.06.86-.1,1.3-.22,2.21-2.64,3.73-4.76,3.04-1.09-.36-.79-1.23-.77-1.94.21-5.46.46-10.91.68-16.37.34-8.22.66-16.45.99-24.68.13-3.2.24-6.41.39-9.61.06-1.24,2.87-3.11,4.79-3.15,3.2-.06,6.4.08,9.6.21,16.37.63,32.72-.36,49.01-1.66,11.33-.9,22.64-1.06,33.97-1.28,2.16-.04,4.05,1.32,6.33.63,2.13-.64,3.15-1.88,3.41-3.95.4-3.2.1-6.4.04-9.61-.22-10.67.71-21.31,1.18-31.96.4-9,.77-18,1.9-26.94,1.53-12.03,1.41-24.18,2.92-36.21.6-4.79,1.12-9.61,1.21-14.48.12-6.12.72-12.23,1.03-18.35.06-1.24.64-1.36,1.63-1.37,12.18-.18,24.45-1.33,36.56-2.64,11.72-1.27,23.91-.68,35.75-.86,24.91-.38,49.82-.91,74.73-1.6,6.29-.17,12.52-1.03,18.82-1.03,20.54-.89,41.11-1.21,61.66-1.54,9.03-.15,18.05-.46,27.07-.67,7.54-.17,15.92.04,22.3,4.62,1.46,1.05,2.3,2.49,3.61,3.58,2.2,1.8,3.82,4.1,4.8,6.76,2.19,5.92,2.48,12.11,2.69,18.34.16,4.59-.5,9.19-.3,13.7.43,9.61.84,19.21.7,28.84-.4,28.53,1.27,57.03,1.46,85.55.13,19.34-1.01,38.65-1.28,57.98-.29,21.15-.66,42.31.41,63.46.32,6.23.62,12.46,1.1,18.68,1.19,15.34,2.52,31.16,3.27,46.72.55,11.44,1.54,26.41-10.16,32.9Z"/>
    <path class="cls-2" d="M590.26,337.69c.64,6.81,1.66,13.61,1.01,20.47-.41,4.34-1.9,8.29-6.46,9.72-3.93,1.23-8,2.11-12.08,2.7-5.72.84-11.48,1.57-17.25,1.8-7.87.32-15.62,1.96-23.51,1.92-1.21,0-2.66.46-2.63-1.69,0-.73-1.02-.84-1.61-1.13-4.2-2.02-8.68-3.19-13.12-4.53-6.02-1.81-11.76.04-17.66.52-8.26.68-16.04,4.3-24.46,3.69-.94-.07-1.5.2-1.48,1.25.02,1.86-1.19,1.95-2.62,1.9-1.98-.06-1.27-1.53-1.29-2.46-.08-3.12.09-6.25-.07-9.37-.12-2.19.7-2.95,2.67-2.22.95.36,1.15.34,1.59-.67,1.74-4.03,4.7-7.31,6.97-11.03,2.16-3.54,3.99-7.01,3.12-11.35-.37-1.82.13-3.56.76-5.31,1.69-4.71,3.09-9.46,1.66-14.57-.52-1.87.37-3.45,1.99-4.42,4.44-2.64,9.08-3.44,14.14-1.79,5.3,1.73,9.51,5.13,13.73,8.54,1.39,1.12,2.48,2.16,3.9-.28,1.93-3.32,3.98-6.57,5.8-9.97,2.99-5.58,5.98-11.23,10.62-15.64,6-5.71,13.98-5.54,21.65-1.96,6.53,3.05,12.66,6.75,18.36,11.09,3.2,2.43,6.27,5.13,8.81,8.34.73.92,1.77,1.58,3.07,2.71.27-3.87.58-7.3.73-10.72.4-9.27.77-18.53,1.09-27.8.23-6.62-.99-13.09-2.23-19.54-.91-4.77-4-7.17-9.16-7.5-2.16-.13-4.34-.18-6.49-.06-21.14,1.14-42.26-.04-63.39-.22-8.75-.07-17.43.42-26.07,1.78-3.62.57-6.06,3.6-6.52,8.19-.94,9.31-1.25,18.63-.54,27.97.06.75.55,1.96-.61,2.23-1.07.25-2.17.53-2.54-1.45-1.72-9.07-.9-18.1-.06-27.15.18-1.98-.14-4.05.3-5.95,1.59-6.81,3.36-8.14,11.67-9.4,11.48-1.74,23.13-1.12,34.72-.92,11.34.2,22.68.49,34.02.8,9.87.26,19.74-.34,29.62.18,4.34.23,8.09,4.73,8.99,8.56,3.52,14.94,2.17,29.96,1.53,44.98-.56,13.24-1.87,26.47-.63,39.75Z"/>
    <path class="cls-2" d="M356.61,256.15c19.21.58,38.41.79,57.63.11,11.49-.4,23.01-.97,34.5.36,2.05.24,4.16.12,6.23.03,2.22-.1,2.24,1.36,2.28,2.91.04,1.63-.18,2.82-2.32,2.88-4.52.13-8.99-.37-13.48-.64-11.35-.69-22.67-.05-33.99.46-15.85.71-31.67.2-47.51-.25-3.37-.1-6.74-.38-10.11-.42-2.5-.03-2.31-1.62-2.39-3.35-.09-2.13,1.17-2.14,2.68-2.11,2.16.04,4.33.01,6.49.01Z"/>
    <path class="cls-2" d="M247.34,381.05c-6.23,0-12.46.04-18.7-.03-1.3-.01-2.92.16-3.32-1.73-.5-2.31.38-3.39,2.75-3.39,7.36-.01,14.72.18,22.06-.07,15.46-.53,30.91-1.32,46.37-1.95,9.16-.37,18.29-1.3,27.47-1.16,1.85.03,3.05.56,3.17,2.53.1,1.76-.6,2.74-2.57,2.71-8.74-.11-17.46.51-26.19,1-12,.67-23.99,1.41-36,1.95-5.01.23-10.04.04-15.05.04,0,.03,0,.06,0,.1Z"/>
    <path class="cls-2" d="M314.19,390.84c15.06.4,26.16-.93,37.28-1.81,4.13-.33,8.27-.77,12.43-.69,2.16.04,2.82,1.04,2.86,3.06.05,2.11-.92,2.72-2.83,2.69-12.14-.16-24.13,1.98-36.24,2.3-6.49.17-12.97.42-19.45.73-10.8.51-21.62.63-32.44.84-1.27.02-3.16.76-3.35-1.67-.17-2.27.77-3.12,3.12-3.36,5.7-.59,11.41-.28,17.11-.73,8.44-.66,16.89-1.57,21.51-1.36Z"/>
    <path class="cls-2" d="M519.8,275.3c-.37,2.65-.69,5.13-2.32,7.49-2.28,3.31-5.56,4.71-9.09,5.74-7.26,2.12-13.57.11-17.54-5.81-1.68-2.51-1.95-5.61-2.01-9.2.44-3.05.95-6.05,4.19-9,4.36-3.98,8.77-6.44,14.48-6.17,5.27.25,9.91,2.17,11.61,7.73.89,2.92,1.12,6.05.68,9.21Z"/>
    <path class="cls-2" d="M366.11,277.75c-6.05,0-12.11,0-18.16,0-2.19,0-3.02-.99-2.87-3.23.11-1.74.87-2.26,2.42-2.24,3.98.03,7.98-.21,11.95.06,8.13.56,16.27.44,24.41.45,2.06,0,3.51.45,3.63,2.97.13,2.63-1.57,3.13-3.46,3.16-5.97.1-11.94.04-17.92.04,0-.4,0-.8,0-1.2Z"/>
    <path class="cls-2" d="M369.96,318.61c-7.99-.48-16.13-.37-24.16-1.64-1.4-.22-3.32.12-3.97-1.74-.86-2.47.34-4.14,3.06-3.83,9.21,1.05,18.44.99,27.67,1,2.16,0,4.32.02,6.48-.05,1.44-.04,2.44.35,2.2,2.01-.21,1.49,1.03,3.62-1.86,3.98-3.11.39-6.21.14-9.42.26Z"/>
    <path class="cls-2" d="M251.2,398.15c-7.59.23-14.57.83-21.58.6-1.57-.05-3.34.42-3.54-2.21-.2-2.68,1.33-3.34,3.4-3.44,5.35-.25,10.7-.46,16.05-.55,3.62-.06,7.23-.52,10.87-.11,1.88.21,2.7.84,2.74,2.88.05,2.21-1.22,2.69-2.86,2.8-1.89.12-3.8.03-5.1.03Z"/>
    <path class="cls-2" d="M349.06,377.42c-3.89.28-7.77.37-11.66.04-1.48-.13-2.43-.23-2.45-2.1-.02-1.9.54-3.03,2.53-3.08,2.07-.05,4.16-.16,6.22-.01,7,.52,13.98-.19,20.98-.14,1.83.01,3.17.23,3.12,2.66-.05,2.18-1.17,2.64-2.94,2.64-5.27,0-10.54,0-15.81,0Z"/>
    <path class="cls-2" d="M359.75,296.73c-4.57.02-9.04-1.23-13.63-1.14-2.15.04-2.3-1.5-2.25-3.23.05-1.81.69-2.82,2.59-2.71,5.59.33,11.1,1.39,16.63,2.16,2.13.29,1.44,1.94,1.53,3.2.12,1.5-.98,1.64-2.04,1.71-.95.07-1.9.01-2.85.01Z"/>
    <path class="cls-2" d="M385.13,291.55c2.59,0,5.18.06,7.77-.02,1.9-.06,2.62.77,2.61,2.64,0,1.73-.68,2.58-2.44,2.56-5.52-.06-11.04-.12-16.56-.13-1.68,0-2.23-.72-2.18-2.37.05-1.61.32-2.65,2.26-2.59,2.84.09,5.69.02,8.54.02,0-.04,0-.07,0-.11Z"/>
    <path class="cls-2" d="M585.63,384.02c.01,3.68-2.85,6.12-7.17,6.11-3.47,0-5.55-1.91-5.57-5.08-.01-3.23,2.99-6.03,6.46-6.01,3.92.02,6.27,1.89,6.28,4.98ZM581.89,384.32c-.6-.65-1.41-1.06-2.21-1.07-1.2-.01-2.12.75-2.38,1.92-.2.9.62,1.22,1.32,1.15,1.31-.14,2.44-.72,3.27-2Z"/>
    <path class="cls-2" d="M564.85,384.28c.55,3.82-3.39,6.32-6.55,6.16-2.77-.14-4.9-2.19-4.88-4.93.02-3.26,6.46-7.17,9.28-5.6,1.8,1,2.42,2.6,2.15,4.38Z"/>
  </g>
  <g>
    <path class="cls-1" d="M314.57,299.58c-.45,4.48-1.05,8.93-2.52,13.19-.96,2.78-3.08,4.32-5.92,4.96-5.54,1.26-11.18,1.76-16.81,2.35-9.97,1.05-19.99,1.31-29.98,2.21-18.44,1.67-36.92,2.19-55.44,1.14-5.83-.33-11.57-.85-17.17-2.66-11.26-3.65-10.5-15.19-10.98-24.99-.37-7.59-.59-15.18-.65-22.78-.04-5.01-.81-10.04-.61-15.05.03-.8.12-1.62.27-2.42l138.24-4.58c.26.89.45,1.82.6,2.76.95,5.93.52,11.93.84,17.9.5,9.31,1.06,18.64.12,27.96Z"/>
    <path class="cls-1" d="M527.68,474.31v2.15c-1.41,4.54-4.18,8.31-6.8,12.18-3.63,5.37-7.97,10.19-11.63,15.56-4.41,6.48-9.74,12.33-14.64,18.48-2.46,3.09-5.18,5.99-7.93,8.76-2.69,2.72-5.94,5.17-9.88,6.18h-5.14c-12.69-5.47-25.31-11.08-38.09-16.33-4.5-1.85-8.92-3.84-13.28-5.95-3.98-1.93-7.66-4.38-11.27-6.92-1.84-1.29-2.73-3.43-3.08-5.6-2.09-13.02,8.47-24.3,15.37-34.08,5.94-8.42,12.47-16.43,19.52-23.94,3.02-3.23,5.8-5.97,8.85-7.95l35.8,17.2c-1.36,2-1.63,3.69.33,5.69.96.98,1.01,2.54,1.27,3.91.28,1.46.37,2.96,2.7,1.79,1.05-.53,2.62-.91,3.39,1.42.46,1.38.97,2.88,1.59,4.23.85,1.85,2.81,2.53,4.88,2.59,4.82.13,9.52-.07,14.12-2.06,1.61-.7,3.42-1.04,5.21-1.47l8.71,4.18Z"/>
    <g>
      <path class="cls-3" d="M502.85,480.95c0-.22,0-.45,0-.67.02-.96-.43-1.65-1.27-2.07-1.97-.98-3.94-1.97-5.94-2.91-8.16-3.81-16.34-7.55-24.47-11.42-1.28-.61-2.51-.6-3.8-.55-.24.01-.54.25-.7.47-.78,1.1-.29,3.92.88,4.58,3.05,1.73,6.08,3.54,9.25,5.03,6.69,3.14,13.46,6.12,20.22,9.13,1.06.47,2.22.73,3.33,1.09q2.51-.26,2.51-2.67Z"/>
      <path class="cls-3" d="M492.87,500.24c-2.55-1.06-5.1-2.19-7.74-2.97-7.24-2.14-14.16-5.02-20.77-8.64-1.33-.73-2.69-.51-4.04-.45-.31.01-.77.6-.87,1-.56,2.33-.07,3.46,1.95,4.79.47.31.93.63,1.42.9,5.35,2.96,10.95,5.32,16.78,7.15,2.92.92,5.77,2.06,8.66,3.05,1.11.38,2.27.62,3.41.92.02-.08.04-.15.06-.23.49,0,.99.09,1.45-.03.44-.11.98-.32,1.2-.67.88-1.41.02-4.18-1.52-4.82Z"/>
      <path class="cls-2" d="M456.46,500.68c-1.01-.38-2.06-.7-3.04-1.15-7.72-3.6-15.45-7.19-23.14-10.87-1.38-.66-2.72-.92-4.21-.85-.86.04-1.14.51-1.26,1.27-.33,2.07.23,3.66,2.26,4.54.48.21.89.55,1.37.77,7.86,3.65,15.72,7.31,23.61,10.91,1.02.47,2.21.57,3.33.85,2.79-.18,2.82-.21,2.8-2.9,0-.04,0-.07,0-.11.09-1.28-.6-2.02-1.72-2.45Z"/>
      <path class="cls-2" d="M462.72,480.03c.02.09.04.18.07.27.77-.27,1.77-.32,2.26-.84.85-.91,0-4.13-1.12-4.82-6.05-3.67-12.36-6.82-18.9-9.48-1.11-.45-2.49-.3-3.74-.29-.31,0-.86.53-.89.85-.11,1.14-.25,2.36.05,3.43.15.55,1.17.92,1.85,1.27,5.64,2.91,11.31,5.76,16.93,8.71,1.13.59,2.18,1.13,3.49.9Z"/>
      <path class="cls-3" d="M496.86,490.15c-6.47-2.94-13.09-5.46-19.97-7.28-.94-.25-2.01-.18-3-.05-.36.05-.83.67-.91,1.09-.56,2.74-.08,3.53,2.53,4.47.28.1.56.2.84.3,5.55,2.09,11.09,4.2,16.65,6.27,1.06.39,2.18.64,3.27.96.02-.08.05-.16.07-.23.3,0,.6,0,.9,0,.73.02,1.48.03,1.75-.84.64-2.06-.15-3.79-2.13-4.69Z"/>
      <path class="cls-3" d="M479.64,511.4c-3.33-1.79-6.65-3.58-10.03-5.26-2.52-1.24-4.09-.19-4.06,2.55,0,.11-.04.25.01.33.28.52.45,1.23.89,1.5,2.74,1.74,5.51,3.45,8.35,5.02,1.13.63,2.46.89,3.7,1.32.04-.11.07-.21.11-.32.49,0,.99.08,1.45-.02.36-.08.83-.29.98-.59.7-1.38-.05-3.81-1.41-4.54Z"/>
      <path class="cls-2" d="M446.08,458.58c2.32,1.27,4.7,2.46,7.01,3.75,1.31.73,2.65,1.19,4.1,1.03.55,0,1.08.12,1.5-.03.42-.16.97-.54,1.07-.93.44-1.71-.26-3.37-1.81-4.19-2.81-1.47-5.63-2.94-8.54-4.2-1.03-.45-2.33-.3-3.51-.35-.23-.01-.54.25-.7.47-.82,1.11-.31,3.8.88,4.45Z"/>
      <path class="cls-2" d="M439.28,481.25c0,.07,0,.15,0,.22-.06.79.27,1.36.97,1.73,1.78.94,3.51,1.97,5.33,2.82,1.08.51,2.29.74,3.45,1.1.03-.09.05-.18.08-.27.45,0,.92.09,1.33-.03.39-.12.88-.38,1.02-.72.71-1.63-.13-3.75-1.72-4.55-1.96-.99-3.87-2.12-5.92-2.88-1.18-.44-2.7-.62-3.87-.26-1.12.34-.56,1.83-.66,2.83Z"/>
    </g>
    <path class="cls-2" d="M302.96,445.73c-.27,10.11-.23,20.22-.19,30.33.02,5.62-1.08,11.09-1.66,16.63-.39,3.75-1.88,6.79-3.86,9.77-2.11,3.19-5.24,4.59-8.88,4.77-3.65.18-6.34-2.72-9.98-2.95-2.83-.18-6.06.8-8.59-.31-2.9-1.27-5.63-2.92-8.75-3.7-3.31-.83-7.23-5.99-7.07-9.85.09-2.26.85-4.4,1.15-6.56.5-3.57.16-7.29-.47-10.91-.16-.91-.3-1.83-.49-2.73-.22-1.09-.83-2-1.49-2.86-1.18-1.51-2.66-3-4.6-2.71-1.74.26-2.21,2.24-2.74,3.78-1.69,4.94-2.62,10-2.88,15.24-.2,4.09-1.06,8.12-1.98,12.12-.37,1.59-1.39,2.19-3.08,2.16-1.62-.04-2.17-.85-2.45-2.22-.9-4.43-.06-8.82.32-13.22.4-4.7,1.94-9.26,1.68-14.03-.05-1.01-.11-2-.36-2.99-.83-3.34-.89-3.52-4.31-3.46-1.9.03-3.07-.69-3.84-2.38-.84-1.86-2.02-2.26-3.84-.97-3.03,2.15-5.4,4.76-6.9,8.2-2.08,4.76-4.22,9.5-6.46,14.19-.7,1.47.2,2.71.12,4.05-.06,1.18.56,2.77-.88,3.31-1.19.44-2.32-.08-3.66-.88-3.83-2.28-4.31-6.24-5.84-9.66-1.33-2.98-2.52-6-4.75-8.47-.47-.52-.87-1.15-1.7-.97-.86.19-.53.98-.73,1.51-1,2.58-2.86,4.87-2.89,7.77-.05,5.51.24,10.85,3.83,15.62,3.47,4.61,8,9.03,12.91,10.94,1.32.51,2.61-1.96,2.73-.47.1,1.2.5,2.4,1.49,3.66-9.45-.5-16.76-4.37-22.3-11.24-3.32-4.11-4.91-9.26-5.32-14.46-.54-6.81-1.72-13.54-2.17-20.35-.83-12.33-1.86-24.67-.62-37.02.1-1,.13-2.04.2-3.07l120.98-2.94c.29.97.47,2,.57,3.1.71,8.09-.05,16.15-.26,24.23Z"/>
  </g>
  <g>
    <path class="cls-3" d="M289.66,285.23c0-2.94-.55-3.73-3.11-4.6-1.02-.35-2.09-.59-3.11-.95-6.56-2.29-12.56-5.75-18.57-9.16-1.63-.92-3.13-1.8-5.09-1.55-.71.09-1.11.36-1.31.98-.64,2.02-.03,4,1.79,5.11,5.99,3.69,12.21,6.94,18.93,9.14.85.28,1.72.5,2.58.76.2.06.38.2.58.31-.16.18-.3.41-.49.54-.91.59-1.81,1.2-2.76,1.72-6.92,3.79-13.83,7.59-20.77,11.32-2.65,1.42-2.68,1.89-2.58,4.83.01.33.46.91.71.92,1.55.05,3.09.26,4.59-.56,3.96-2.17,8.04-4.14,11.99-6.35,4.76-2.67,9.44-5.47,14.12-8.27,1.64-.98,2.98-2.24,2.52-4.19Z"/>
    <path class="cls-3" d="M250.74,260.8c-1.2-.03-1.91.42-2.31,1.49-.2.52-.43,1.04-.63,1.56-1.93,4.98-3.78,10-5.79,14.94-3.56,8.75-7.26,17.45-10.77,26.22-.57,1.43-.51,3.13-.65,4.71-.03.32.25.84.54,1,1.56.83,3.8-.06,4.43-1.69.8-2.06,1.51-4.15,2.39-6.16,5.24-12.02,10.66-23.97,15.09-36.32.33-.93.44-1.94.65-2.91-.17-2.83-.17-2.77-2.95-2.84Z"/>
    <path class="cls-3" d="M227.1,297.54c-.29-.06-.59-.11-.87-.2-3.47-1.17-7-2.18-10.38-3.56-3.84-1.56-7.54-3.43-11.3-5.18-.32-.15-.57-.45-.86-.68.3-.21.58-.45.89-.63,7.05-4.01,14.1-8.01,21.14-12.02.84-.48,1.17-3.09.49-3.75-.15-.14-.4-.27-.59-.25-1.1.11-2.26.08-3.28.44-1.29.45-2.5,1.18-3.7,1.86-5.09,2.91-10.17,5.85-15.26,8.77-1.23.7-2.58,1.23-3.71,2.07-.69.51-1.43,1.42-1.5,2.21-.33,3.58-.27,4.04,2.8,5.68.26.14.53.29.8.4,6.26,2.64,12.5,5.33,18.81,7.86,1.98.8,4.15,1.15,6.23,1.7.02-.09.05-.19.07-.28.26,0,.52,0,.78,0,1.37-.02,1.61-.27,1.63-1.67.02-2.11-.19-2.37-2.2-2.78Z"/>
  </g>
  <path class="cls-2" d="M485.78,453.61c-.11.14-.2.28-.3.42l-35.8-17.2c4.01-2.6,8.48-3.88,14.6-3.15,5.36.64,9.83,2.91,13.61,6.8,1.88,1.93,4.12,3.55,6.34,5.12,3.12,2.2,3.84,4.91,1.54,8.01Z"/>
  <path class="cls-2" d="M527.68,470.85v3.46l-8.71-4.18c.63-.15,1.26-.31,1.87-.5,1.21-.37,1.08-1.67,2.35-1.82,2.54-.3,3.64,1.08,4.48,3.05Z"/>
  <g>
    <path class="cls-1" d="M604.99,464.17c-3.09-2.46-6.5-4.46-9.56-6.98-3.96-3.25-8.47-5.84-12.44-9.08-5.6-4.57-11.68-8.44-17.43-12.8-4.03-3.06-8.51-5.53-12.84-8.19-.71-.44-1.06-.73-.84-1.61,1.7-7.1,1.77-14.1-1.44-20.87-.18-.38-.17-.86-.24-1.3-.67-4.4-2.43-8.48-3.97-12.59-1.16-3.09-2.93-6.02-4.86-8.73-2.55-3.57-5.04-7.43-8.4-10.1-5.34-4.25-11.75-6.37-18.79-6.22-5.98.12-11.97.46-17.93.44-8.21-.03-16.01,2.24-24.03,3.24-4.98.62-9.87,2.09-14.87,2.83-2.39.35-2.59-1.14-3.04-2.71-.56-1.93,1-1.43,1.87-1.7,7.84-2.36,15.64-4.88,20.31-12.35,2.29-3.66,4.76-7.39,4.51-12.01-.13-2.47.54-4.69,1.27-7,1.63-5.13,3.84-10.18,3.52-15.73-.34-5.87-.73-11.73-1.53-17.57-1.14-8.44-5.27-14.95-11.93-20-2.86-2.17-5.71-4.35-8.67-6.36-5.12-3.48-10.82-5.62-16.93-6.58-3.06-.48-6.41-.02-8.53-3.16-1.2-1.78-3.8-1.87-4.9-3.84h-4.29c-1.36,1.72-3.57,2.54-4.76,4.43-1.91,3.05-4.38,2.13-6.89,1.04-.41-.18-.81-.4-1.23-.53-3.06-.92-5.43-.52-6.79,2.05-1.61,3.02-3.96,5.91-3.42,9.78.12.86.48,1.99-.71,2.62-2.11,1.12-4,2.55-5.88,4.06-2.74,2.2-5.23,4.61-7.26,7.45-3.37,4.73-6.53,9.58-9.1,14.82-1.64,3.34-3.29,6.75-4.15,10.27-1.41,5.84-2.91,11.65-3.77,17.67-1.37,9.63-2.81,19.17-2.38,28.95.44,9.88,6.6,14.64,14.28,16.97,4.56,1.39,9.35,2.24,14.2,2.25.75,0,1.37.15,1.68,1.01.63,1.76.61,3.66,1.37,5.4.34.78-.62.88-1.23.96-6.18.79-12.35,1.56-18.07,4.28-.24.11-.51.16-.77.19-2.76.28-4.8,1.78-6.42,3.91-2.84,3.72-4.53,7.91-5.39,12.54-1,5.41-1.54,10.78.08,16.11.44,1.45-.13,1.75-1.16,2.04-3.16.89-6.2,2.25-8.73,4.21-8.37,6.47-15.48,14.33-22.88,21.83-6.88,6.98-14.21,13.53-20.63,20.99-3.23,3.76-6.48,7.49-9.42,11.47-3.65,4.94-7.16,9.99-10.95,14.83-.69.88-1.18.81-1.98.49-3.39-1.36-6.99-1.96-10.53-2.66-4.1-.8-8.43-.66-12.38-1.85-6.12-1.83-12.16-4.11-17.46-7.9-.9-.64-1.67-1.26-1.54-2.57.35-3.56.4-7.16.99-10.67.97-5.82-.34-10.7-4.36-15.13-2.18-2.4-4.65-1.8-6.87-1.39-2.1.39-2.51,2.93-2.53,4.81-.03,4.31-.41,8.57-1.17,12.77-.87,4.76-1.03,9.73-3.49,14.21-2.09-.98-3.34-2.37-2.92-4.78.29-1.66.55-3.32.87-4.98,1.36-7.1,2.68-14.23,1.28-21.48-.76-3.95-2.24-4.92-6.16-4.37-.47.07-.84.55-1.34-.13-2.35-3.2-6.06-3.38-9.02-.74-4.51,4.01-5.63,9.68-7.58,14.93-1.56,4.19-2.85,8.49-4.37,13.04-.41-.58-.68-.82-.78-1.12-1.64-4.87-3.53-9.61-5.9-14.19-1.29-2.5-3.23-3.95-5.59-4.94-2.66-1.11-4.97.09-5.92,2.77-.26.73-.15,1.64-1.07,2.02v13.42c.81,1.23.77,2.71,1.05,4.07,1.15,5.55,4.15,9.78,8.72,13.05,4.12,2.95,7.96,6.2,11.15,10.22.76.95,2.46,1.22,3.79,1.64,6.2,1.96,12.82,1.76,19.06,3.63,1.77.53,3.57.96,5.28,1.66,4.09,1.68,8.55,2.11,12.63,4,4.26,1.97,7.86,4.75,11.38,7.72,1.59,1.35,2.95,2.97,4.78,4.02.69.4,1.01.93.99,1.73-.13,4.53.4,9.08-.96,13.55-.37,1.22-.77,1.59-1.93,1.57-4.9-.1-7.85,2.27-9.39,6.95-1.42,4.35-1.79,9.02-4.27,13.06-.4.65-.79,1.3-1.19,1.95l3.42,2.15c1.88-3.3,3.34-6.78,4.15-10.6.46-2.16,1.41-4.21,2.13-6.31.33-.97.87-1.78,1.87-2.11,1.14-.38,2.28-1.47,3.49-.65,1.17.8.09,1.97.02,2.95-.12,1.58.04,2.93,1.32,4.09,2.43,2.21,4.78,4.51,7.13,6.8.88.86,2.09,1.08,2.97.61,1.1-.59.26-1.73.04-2.61-.7-2.75-3.37-3.75-5.11-5.56-.79-.81-2.16-1.3-1.7-2.63.46-1.35,1.83-.45,2.55-.29,10.41,2.25,20.51.52,30.5-2.31,1.83-.52,1.87,0,2.17,1.55.82,4.12-1.63,6.4-4.2,8.88-4.1,3.95-9.45,5.69-14.28,8.29-1.51.81-2.17,1.8-3.18,3.55,4.46-.51,8.41-.7,12.21-2.51,3.59-1.72,7.08-3.63,9.74-6.48,2.19-2.35,4.74-4.88,4.32-8.67-.24-2.13.68-1.89,2.09-1.17,7.96,4.09,7.9,8.12,7.37,18.6-.02.46-.06.92-.1,1.38l4.23-1.68c.11-3.9.08-7.81-.14-11.72-.12-2.13-.69-3.88-2.03-5.6-1.87-2.4-4.41-3.63-7.01-4.85-1.49-.7-3.54-.97-3.78-2.9-.27-2.09-.62-4.18-.69-6.32-.27-8.67.92-17.31.17-26.01-.42-4.83-1.71-8.87-5.42-12.03-.86-.73-.66-1.39.04-2.25,2.51-3.08,5.11-6.12,7.29-9.43,5.19-7.92,11.49-14.87,18.05-21.61,7.02-7.21,14.38-14.09,21.49-21.22,6.52-6.53,12.6-13.65,21.37-17.58,3.28-1.47,6.19-2.97,9.75-1.08.76.4,2.12.55,2.69-.45.62-1.1.21-2.27-.7-3.16-1.06-1.04-2.46-1.39-3.83-1.81-4.37-1.34-4.62-2.08-4.95-6.74-.42-5.84,1.45-11.08,3.64-16.23.83-1.95,1.84-4.12,4.06-4.96,5.64-2.12,11.48-3.62,17.34-5.02,4.98-1.19,4.99-1.13,6.38,3.88.14.52.21,1.07.43,1.55.77,1.68-.06,2-1.54,2.03-3.58.06-5.67,2.66-5.63,5.99.07,5.08,2.24,9.28,5,13.23,2.92,4.18,6.44,7.97,8.71,12.59.59,1.19,1.33,1.28,2.45,1.52,2.81.59,3.52-1.92,5.12-3.1,4-2.97,8.16-5.74,12.09-8.77,5.1-3.93,10.25-7.81,15.38-11.71,2.5-1.9,5.06-3.7,7.43-5.8,3.42-3.03,6.64-6.31,10.15-9.21,5.65-4.67,12.91-6.02,19.53-8.61,6.8-2.66,13.62-5.1,18.81-10.58,1.4-1.48,2.27-5.08,1.11-5.75-2.07-1.19-3.69.12-5.21,1.43-1.52,1.31-2.92,2.84-4.62,3.84-5.18,3.05-10.81,5.12-16.44,7.16-4.46,1.62-9.11,2.8-13.21,5.32-3.98,2.46-3.89,2.42-5.73-1.85-.79-1.85-.37-2.27,1.52-2.41,4.21-.32,8.12-1.75,11.91-3.57.49-.24,1.04-.46.98-1.12-.08-.79-.78-.59-1.25-.6-4.53-.13-9.09-.57-13.53.83-.83.26-1.8.64-2.25-.6-.64-1.74-1.79-3.34-1.58-5.29.05-.43.76-.27,1.18-.35,5.94-1.06,11.95-1.85,17.8-3.26,11.63-2.81,23.48-3.21,35.32-3.62,7.32-.25,14.05,2.36,19.36,7.3,4.42,4.1,7.85,9.24,10.54,14.7,2.15,4.36,2.9,9.27,4.64,13.74,2.03,5.23.97,9.9-.57,14.77-.33,1.03-.63,1.43-2.02,1.03-3.91-1.1-7.63-2.7-11.63-3.63-8.05-1.87-16.05-3.06-24.33-2.92-7.04.11-14.1-.07-21.15-.2-8.75-.17-16.7,3.47-24.51,7.08-3.02,1.4-5.93,3.06-8.98,4.4-1.78.78-3.64,2.19-2.98,3.69.65,1.49,2.84.58,4.41-.17,6-2.84,11.99-5.74,18.14-8.26,2.05-.84,4.14-1.99,6.59-1.83,9.54.61,19.1.65,28.65.77,10.33.13,20.5,1.45,30.19,5.5,3.76,1.57,7.28,3.48,10.87,5.36,6.96,3.63,13.13,8.41,19.56,12.8,5.54,3.78,10.92,7.78,16.14,12.02,4.35,3.53,8.97,6.75,13.63,9.86,2.78,1.85,5.39,4.03,8.3,5.69-.21-2.9-.4-5.65-.57-8.16ZM193.14,471.85c0-.39.16-.77.56-.7.27.04.59.37.71.65.98,2.41.88,4.69-1.02,7.06-.65-2.53-.25-4.77-.24-7ZM209.02,497.95c-.35,1.43-.09,3.01-.94,4.61-2.59-2.69-5.85-4.07-8.36-6.46-3.3-3.15-5.54-6.91-6.56-11.37-.13-.57-.12-1.65.15-1.78,4.15-1.85,3.34-5.85,4.36-9.25.94,3.16,2.66,5.98,3.42,9.09,1.09,4.47,2.49,8.7,6.46,11.37,1.58,1.06,1.86,2.23,1.48,3.78ZM245.69,468.1c1.86,1.86,1.78,3.99-.35,6.87-.45-2.57.51-4.6.35-6.87ZM231.51,463.95c1.05,3.34-2.06,4.48-3.05,6.97-.24-2.68.84-5.12,3.05-6.97ZM223.44,462.42c.35,2.99-1.28,5.43-4.7,6.46,1.41-2.65,1.68-5.51,4.7-6.46ZM220.22,507.81c.48,1.63-.19,1.8-1.52,1.83-4.5.09-6.18-1.6-6.3-6.11-.15-5.9-.11-11.83.66-17.64.51-3.87,2.4-7.56,3.64-11.35.77-2.37,1.72-4.37,4.86-3.63.53.13,1.23-.41,2.06-.73-.44,3.83-2.08,6.92-3.22,10.16-1.95,5.52-1.6,11.24-1.69,16.91-.06,3.56.5,7.12,1.5,10.56ZM304.96,522.17c.49,9.1-.17,18.18-.29,27.27-.01,1.19-.43,1.73-1.54,2.09-7.04,2.28-14.33,3.33-21.63,4.18-3.58.42-6.97-1.15-10.4-2.05-1.09-.29-.84-1.12-.75-1.71.74-4.88.56-9.86,2.35-14.65.86-2.29,1.09-5.16-1.58-7.23-5.05-3.9-9.31-8.86-15.13-11.71-2.76-1.35-5.77-2.66-8.77-2.94-3.26-.3-5.01-2.59-7.4-4-1.47-.87-2.83-1.69-4.59-1.85-3.57-.33-6.86-1.76-10.21-2.9-.89-.3-1.25-1.06-1.39-2.08-1.07-7.57-.66-15.12.04-22.68.26-2.82,2.29-4.99,2.77-7.73.08-.44.48-.57.81-.51,2.57.43,3.78-1.46,5.41-3.53.56,4.2-.21,7.82-.64,11.46-.45,3.89-.99,7.76-1.34,11.66-.22,2.42.72,4.32,2.76,5.87,5.47,4.16,10.52,8.8,15.04,14,1.09,1.25,2.46,2.22,4.09,2.3,3.08.16,6.17.05,9.98.05-2.77-1.95-4.87-3.37-7.54-3.74-1.61-.22-2.95-1.53-3.81-2.58-2.76-3.4-5.91-6.37-9.14-9.26-.98-.88-1.11-1.51-.68-2.7,1.94-5.4,2.54-11.08,3.27-16.72.11-.86-.14-1.91.99-2.26,3.87-1.2,3.23-4.59,3.66-7.46.04-.24-.15-.51-.18-.77-.02-.25.02-.51.05-.97,1.24.49,1.57,1.67,1.73,2.48.88,4.54,1.64,9.08.48,13.74-.51,2.04-.91,4.14-.9,6.29.01,3.45,1.99,5.31,4.81,6.85,3.09,1.69,6.02,3.74,9.5,4.54,6.8,1.57,13.43,3.66,20.52,4.27,5.22.44,10.63,2.25,15.13,5.26,3.18,2.12,4.33,5.81,4.53,9.73ZM410.94,421.26c-2.72-2.81-4.83-6.03-5.61-9.8-.39-1.87,2.17-.79,3.01-1.85.59,4.21,3.11,7.56,2.59,11.65ZM458.21,397.7c.46.59.39,1.2-.35,1.82-5.76,4.88-11.61,9.62-17.91,13.83-3.25,2.18-6.07,5-9.19,7.39-2.87,2.19-5.88,4.19-8.83,6.28-.36.26-.72.52-1.06.81-1.12.93-1.87,2.96-3.54,2.34-1.89-.7-3.05-4.82-2.3-6.9,1.47-4.07-.06-7.92-.89-11.78-1.37-6.32-3.04-12.57-4.52-18.87-.5-2.13,1.78-2.78,2.64-4.18,1.04-1.69,2.75-2.99,4.24-4.38,1.12-1.05.86-2.36.64-3.51-.26-1.37-1.62-.81-2.48-.79-5.08.1-10.16.38-15.24.43-2.86.03-5.61-.78-8.36-1.56-3.32-.95-6.72-2.1-9.19-4.35-2.87-2.61-4.5-6.29-4.89-10.32-.53-5.39.85-10.64,1.24-15.96.5-6.74,2.1-13.29,3.15-19.92.73-4.63,2.51-9.04,4.34-13.37,1.72-4.06,3.81-7.9,6.15-11.64,1.32-2.11,2.9-3.99,4.38-5.94,2.16-2.86,4.84-3.03,9.16-1.14,4.49,1.97,4.67,2.51,2.91,7.12-.71,1.85-1.35,3.16-3.66,1.66-1.15-.75-2.68-.82-4.14-.79-3.25.06-5.96,2.96-5.7,6.21.05.68.2,1.13,1,1.33,2.33.58,4.47-.55,4.74-2.95.2-1.86,1.2-1.52,2.17-1.12,2.8,1.16,2.69,1.64,1.25,4.18-1.85,3.25-4.62,5.68-6.84,8.6-2.96,3.89-2.93,7.96-1.87,12.33.28,1.16,1.28,1.33,2.03,1.34.99.02.63-1.06.77-1.7.06-.26.08-.55.02-.8-1.1-4.21.87-7.44,3.44-10.39,4.5-5.17,7.84-10.98,9.95-17.51.31-.97,1.21-1.73,1.8-2.62,3.03-4.57.97-7.52-2.7-8.69-2.35-.75-4.66-1.59-7.35-2.51,6.57-4.46,12.94-8.36,21.03-8.9,5.5-.37,10.82-.31,16.06,1.39.63.21,1.49.18,1.83.97,1.79,4.19,5.81,5.08,9.5,6.53,2.13.84,4.17,1.88,6.39,2.89-1.95,2.3-3.17,5.02-3.98,7.91-1.23,4.38.35,8.52,4.08,11.1,3.2,2.21,3.23,2.32.61,5.3-2.33,2.65-5.02,5.02-6.83,8.07-2.44,4.12-4.68,8.33-4.64,13.38.02,2.55,1.81,3.46,3.48,4.53,1.38.88,2.35-.09,3.53-.83,4.75-2.94,9.69-5.61,15.45-5.77,4.85-.13,8.48,5.47,6.81,9.98-2.3,6.21-5.97,11.18-12.16,13.88-2.99,1.31-6.06,2.53-9.2,3.39-3.04.83-4.78-.33-6.22-3.5-.44-.97-.86-1.96-1.1-2.98-.18-.77-.31-1.4-1.24-1.42-1.07-.03-1.64.64-1.93,1.54-1.1,3.42.06,7.51,3.2,9.43,2.23,1.36,2.49,3.39,2.55,5.38.16,4.89,1.83,9.42,3.34,13.9,1.34,3.98,1.75,8.38,4.46,11.86Z"/>
    <path class="cls-1" d="M392.75,576.36l-5.76.76c-.66-1.91-1.33-3.82-1.87-5.77-1.74-6.22-3.5-12.42-5.47-18.58-.63-1.96-1.23-2.16-2.8-.77-6.56,5.81-12.3,12.41-18.28,18.78-2.89,3.08-5.72,6.22-8.58,9.32l-6.57-1.24c3.32-3.58,6.57-7.23,9.85-10.85,4.39-4.84,8.89-9.59,13.4-14.32,3.07-3.22,6.11-6.49,10.01-8.79.76-.45.21-1.28,0-1.95-2.15-7.21-4.63-14.35-6.31-21.66-1.53-6.67-3.89-13.04-5.88-19.54-.69-2.26-2.11-4.64-4.48-5.78-1.59-.77-1.37-2.01-1.14-3.13.31-1.52,1.77-1.02,2.69-.89,2.33.33,4.09,1.96,5.33,3.7,2.62,3.66,4.18,7.97,5.72,12.15,2.13,5.8,3.75,11.79,5.31,17.78,1.89,7.27,4.25,14.4,6.22,21.64,1.29,4.76,3.03,9.45,4.25,14.24,1.27,5.03,2.86,9.96,4.36,14.91Z"/>
    <path class="cls-1" d="M606.73,536.82c-5.34-3.48-11.72-3.16-17.49-5.08-4.21-1.4-8.27-2.4-10.11-7.12-1.21-3.11-2.48-6.35-4.46-8.99-3.03-4.03-7.22-6.97-12.01-8.54-1.7-.56-4.59-2.21-5.8,1.66-.49-.84-.8-1.28-1.01-1.76-2.33-5.21-4.51-10.5-7.03-15.61-1.36-2.77-3.21-5.45-4.17-8.27-1.69-4.94-3.54-9.78-5.45-14.64-1.03-2.62-2.51-4.99-3.34-7.76-.92-3.08-2.32-6.22-5.31-8.29-.87-.6-2.08-.41-2.67-1.49-1.91-3.52-3.49-7.34-7.62-8.99-.21-.09-.4-.38-.48-.61-.91-2.87-3.45-4.26-5.64-5.79-2.38-1.67-5.21-2.24-8.12-.94-1.19.53-2.76,1.56-3.64,1.18-4.5-1.96-9.32-2.73-13.93-4.24-4.11-1.35-8.14-2.69-12.49-1.35-4.01,1.24-5.78,4.26-4.5,7.72.98,2.66,2.97,4.31,5.36,5.8,3.01,1.88,6.49,2.67,9.74,4.54-3.29,1.97-4.07,4.94-3.99,8.28.04,2,.49,3.82,2.89,4.14,1.1.15.89.87.94,1.56.27,3.73,1.13,4.74,4.78,4.88,1.67.07,2.18.62,2.11,2.2-.07,1.6.74,3.15,1.97,3.87,3.17,1.85,6.62,3.06,10.41,2.37,5.81-1.06,11.12-3.4,16.11-6.5,1.28-.79,2.38-1.35,3.22.5.49,1.08,1.5.87,2.34.72,1.02-.18.99-1.1,1.02-1.92.12-4.03-2.6-5.63-6.3-3.76-3.62,1.82-6.91,4.25-10.71,5.73-2.4.93-4.88,1.38-8.1,1.62,2.48-1.83,4.63-3.35,3.92-5.89-.6-2.14.69-2.49,1.85-3.07.7-.35,1.42-.65,2.11-1.06,3.65-2.16,6.98-4.82,10.86-6.62,3.44-1.59,6.3-.82,8.54,2.31,3.02,4.22,3.97,9.26,5.68,13.97,1.83,5.06,2.9,10.41,4.93,15.39,2.59,6.35,5.95,12.38,8.7,18.67,2.77,6.32,6.38,12.25,8.73,18.76.56,1.55,1.93,1.36,3.17,1.29,1.44-.08,1.33-1.17,1.32-2.17v-1.86c.77,0,.81.69,1.18,1.02q3.11,2.81.15,5.65c-.32.31-.67.59-1.01.88-5.67,4.81-11.87,8.84-18.26,12.57-1.91,1.11-3.99,1.92-5.97,2.91-.77.38-1.56.56-2.3.12-2.21-1.31-4.32-3.19-4.71-5.56-.88-5.31-3.95-9.39-6.48-13.83-.78-1.36-1.82-2.06-3.06-2.91-6.41-4.39-13.63-7.4-19.91-12.02-1.13-.84-3.15-1.09-4.13.33-.74,1.07-1.01,3.03.34,3.9,3.02,1.95,5.89,4.13,9.14,5.76,4.31,2.17,8.49,4.59,12.7,6.95,1.74.97,2.36,1.83,1.13,4.15-2.65,5.01-3.23,10.68-1.65,16.11,1.42,4.88,4.5,8.95,8.48,12.28,3,2.51,5.84,5.18,8.18,8.42,2.3,3.18,2.76,6.95,3.76,10.55,1.41-.33,3.08-.73,4.89-1.15-.87-2.35-1.58-4.75-2.12-7.23-.32-1.5-.95-2.74,1.78-2.08,6.57,1.56,12.46-.67,17.94-4.16.75-.48,1.91-1.25,1.31-2.28-.42-.71-1.64-.36-2.5-.16-.43.1-.81.36-1.23.54-6,2.53-12.16,3.12-18.48,1.4-1.62-.44-3.01-1.13-4.18-2.54-1.51-1.83-3.27-3.53-5.19-4.91-4.28-3.08-7.48-6.97-9.16-11.94-1-2.97-.05-5.94.97-8.8.53,3.1,2.45,5.57,3.39,8.44.51,1.57,1.85,3.12,3.22,4.09,3.51,2.49,7.42,2.63,11.4,1.02,4.21-1.7,8.05-4.04,11.72-6.7,5.65-4.09,11.59-7.82,15.99-13.41,2.25-2.86,1.96-6.22-.7-8.77-1.1-1.04-2.1-2.19-3.11-3.32-1.1-1.23-2.48-2.47-4.05-2.31-3.87.39-4.08-2.27-4.84-5.28,4.58,1.7,8.61,3.57,11.75,6.89,3.72,3.93,5.23,8.99,6.41,14.06.99,4.23,1.37,8.6,2.07,12.9.1.62-.24,1.61.81,1.73,1.31.14.98-1.07,1.16-1.72.77-2.87-.03-5.85.51-9.04,3.53,1.45,7.02,2.62,10.71,3.19,3.32.51,6.71,1.18,9.8,2.42.76.3,1.46.67,2.12,1.1,1.49-1.49,2.82-2.83,3.92-3.93-.08-.05-.16-.11-.24-.16ZM507.51,439.02c1.45-1.01,2.51-1.02,3.74.22,1.05,1.07,3.05,1.94,3.16,3.04.18,1.91-2.26,1.25-3.47,1.89-5.12,2.7-10.41,5.06-15.63,7.58-.53.26-.96.71-1.44,1.07.11-1.48.55-2.69.41-4.05-.09-.9.59-1.43,1.29-1.89,3.99-2.6,8.03-5.14,11.94-7.86ZM482.75,434.98c.77.16,1.05.65.92,1.36-.14.84-.85.9-1.46.77-1.63-.36-3.28-.72-5-1.98,2.12-1.16,3.82-.49,5.53-.14ZM486.05,443.55c-2.89-1.38-5.87-2.56-8.39-4.54.11-.25.22-.5.33-.75,1.49.16,2.98.36,4.47.48,1.27.11,3.2-.13,3.44-.9.9-2.88,2.44-1.2,3.82-.88,1.89.44,3.65,1.43,5.69,1.31.68-.04,1.53.18,1.69,1,.17.84-.53,1.23-1.2,1.55-.47.22-1,.42-1.35.78-2.43,2.46-5.12,3.57-8.51,1.95ZM487.18,456.75c-.48-.26-.99-.87-.66-1.3,1.13-1.49,2.06-3.23,4.41-4.66-1.24,2.19-2.26,3.55-2.67,5.23-.12.5-.35,1.12-1.08.73ZM490.86,461.61c-.11.07-.61-.17-.61-.25.02-.32.07-.75.28-.94,1.9-1.62,3.76-3.31,6.71-3.99-.98,3.65-4.17,3.77-6.38,5.17ZM504.38,467.73c-1.79.96-3.64,1.8-5.38,2.17-.97,0-1.73.12-1.89-.9-.14-.9.27-1.13,1.12-1.36,1.7-.44,3.33-1.13,4.97-1.76.7-.27,1.4-.57,1.83.28.34.66-.12,1.28-.65,1.57ZM510.27,457.04c-2.46,1.35-4.84,2.85-7.23,4.34-2.12,1.33-4.21,2.63-7.35,1.59,2.43-2.49,4.93-4.44,4.89-8.19-.01-.87,2.55-1.89,4.03-2.62,3.39-1.69,6.85-3.23,10.27-4.86,4.87-2.33,5.5-2.07,8.45,3.91-5.3-.01-8.88,3.55-13.06,5.84Z"/>
    <path class="cls-1" d="M430.62,298.02c6.14-.4,11.47,1.85,16.25,5.36,1.97,1.45,3.77,3.33,4.5,5.93.33,1.17.18,1.58-1.09,1.7-3.15.3-5.53-1.5-7.69-3.18-4.35-3.38-9.14-4.9-14.54-4.89-2.56,0-3.79-1.94-2.75-4.26.35-.79.99-.62,1.57-.64,1.25-.04,2.49-.01,3.74-.01Z"/>
    <path class="cls-1" d="M403.74,345.46c-3.7.32-7.23.66-10.78.93-1.37.1-2.75.07-3-1.81-.25-1.9,1.16-1.93,2.36-2.1,2.37-.34,4.74-.7,7.13-.87,5.31-.39,10.61,1.11,15.94.01.74-.15,1.84-.41,1.85,1.12.01,1.18-.57,1.32-1.52,1.67-3.97,1.43-8.05,1.22-11.99,1.04Z"/>
    <path class="cls-1" d="M469.79,344.93c-.21-1.14-1.33-.43-2.52-.87-4.33,1.97-9.87,2.01-13.76,6.02-1.86,1.91-.84,5.72,1.66,6.29,3.57.82,9.47-2.55,8.61-6.9-.35-1.77.67-2.18,1.94-2.51.77-.2,1.55-.35,2.32-.51.88-.18,1.97-.3,1.75-1.52ZM460.38,351.19c-1.05,1.47-2.5,2.11-4.61,1.56,1.24-.93,2.47-1.87,3.73-2.77.35-.25.85-.47,1.17,0,.29.43-.04.85-.29,1.2Z"/>
    <path class="cls-1" d="M425.3,314.37c0-2.29,2.17-4.74,4.6-5.33,2.07-.5,5.38.97,6.14,2.8.31.74.5,1.7-.27,2.19-.65.42-1.54.36-2.21-.28-1.14-1.09-2.03-2.27-2.56.61-.32,1.74-2.32,2.32-4.12,2.2-1.38-.1-1.69-1.1-1.58-2.18Z"/>
    <path class="cls-1" d="M405.77,333.48c-1.46.02-2.27-.11-2.57-1.23-.16-.6-.62-1.2-1.24-1.29-1.37-.2-1.7-1.05-1.08-2.01.59-.91,1.83-1.01,2.58-.25,1.2,1.22,2.44,1.84,4.16,1.53.54-.1,1,.28,1.01.96.01.72.05,1.49-.81,1.77-.83.27-1.7.44-2.06.53Z"/>
  </g>
  <path class="cls-2" d="M313.02,250.96l-138.24,4.58c.39-2,1.2-3.89,2.68-5.25,2.26-2.08,5.54-2.49,8.59-2.81,14.21-1.47,28.07-2.4,42.35-2.68,15.2-.29,26.24-.91,37.56-1.35,20.67-.8,36.69-1.79,43.7-.15,3.06.72,2.57,4.91,3.36,7.65Z"/>
  <path class="cls-3" d="M307.82,245.31c1.38-.13,2.26.11,2.28,1.92.03,2.44-1.57,2.16-3.09,2.31-1.7.17-1.81-.85-1.87-2.14-.1-2.03,1.13-2.22,2.68-2.09Z"/>
  <path class="cls-1" d="M302.65,418.4l-120.98,2.94c.15-2.48.48-4.97,2.34-7.1.76-.87,1.51-1.47,2.51-1.87,5.56-2.23,11.44-2.71,17.32-3.11,16.91-1.15,33.84-1.87,50.78-2.24,11.02-.24,22.07-.77,33,1.28,3.37.63,6.59,1.72,9.6,3.39,2.87,1.59,4.59,3.87,5.43,6.71Z"/>
  <path class="cls-3" d="M293.17,411.94c1.38-.13,2.26.11,2.28,1.92.03,2.44-1.57,2.16-3.09,2.31-1.7.17-1.81-.85-1.87-2.14-.1-2.03,1.13-2.22,2.68-2.09Z"/>
  <g>
    <path class="cls-3" d="M275.6,438.81c-7.29.15-14.58.33-21.87.33-7.18.07-14.35.28-21.52.42-.19,0-.37,0-.56,0-3.57-.03-2.97-.5-2.91-3.58.02-1.06.93-1.31,1.88-1.32,4.11-.06,8.22-.11,12.33-.2,8.96-.21,17.93-.49,26.89-.67,6.76-.13,13.51-.14,20.27-.23.41,0,.84,0,1.21.18,1.29.65,1.47,3.77.2,4.51-.6.36-1.34.37-2.05.37-4.63.01-9.25.1-13.88.19Z"/>
    <path class="cls-3" d="M263.44,466.27c-2.24,0-4.48-.02-6.72.01-.97.02-1.31-.37-1.32-1.33-.04-3.13.25-3.5,3.36-3.57,6.46-.16,12.92-.29,19.38-.44,2.69-.06,5.37-.18,8.06-.22,1.36-.02,1.87.54,1.92,1.9.01.37.01.75-.02,1.12-.11,1.26-.66,1.79-1.93,1.85-3.51.15-7.01.36-10.52.42-4.07.07-8.14.02-12.21.02,0,.08,0,.17,0,.25Z"/>
    <path class="cls-3" d="M284.39,446.34c1.49,0,2.99-.07,4.47.02,1.56.1,2.28.92,2.29,2.35,0,1.44-.8,2.35-2.32,2.49-1.38.12-2.76.13-4.14.22-4.92.3-9.83.63-14.75.89-1.98.1-3.96.04-5.94.06-.69,0-1.05-.3-1.04-1.01,0-.11,0-.22,0-.34-.08-3.17.14-3.34,3.35-3.55,4.73-.31,9.45-.73,14.17-1.06,1.3-.09,2.61-.01,3.92-.01v-.06Z"/>
    <path class="cls-1" d="M223.86,453.53c-5.56.45-11.03-.42-16.5-1.15-1.6-.22-1.73-.43-1.73-2.01-.01-2.99,0-3.09,2.98-2.93,3.05.16,6.09.6,9.14.78,2.97.17,5.96.17,8.94.22,1.23.02,2.47-.02,3.7-.01.22,0,.47.03.65.14,1.48.88.85,2.32.89,3.56.03.87-.59,1.39-1.45,1.4-2.2.04-4.4.01-6.61.01Z"/>
    <path class="cls-1" d="M208.76,440.22c-2.8,0-5.6.02-8.4,0-1.76-.02-1.93-.23-1.94-1.93,0-3.31.04-3.37,3.39-3.37,5.16,0,10.31,0,15.46,0,2.4,0,3.64,2.16,2.45,4.25-.47.83-1.31,1.05-2.22,1.06-2.91,0-5.83,0-8.74,0h0Z"/>
    <path class="cls-3" d="M265.08,475.47c2.72-.24,5.69-.54,8.67-.75,1.53-.11,3.06-.11,4.59-.07,1.39.03,2.05.6,2.14,1.65.18,2.1-.14,2.78-1.74,3.03-1.58.25-3.19.27-4.79.36-3.58.18-7.16.35-10.74.49-.78.03-1.56-.16-2.34-.16-1.2,0-1.58-.61-1.46-1.71.04-.41.01-.82,0-1.23-.01-1,.49-1.56,1.48-1.59,1.31-.04,2.61,0,4.19,0Z"/>
    <path class="cls-3" d="M245.35,448.09c1.71.1,3.43.14,5.13.34.45.05.94.49,1.25.89.68.88.79,1.79.16,2.86-.39.65-.73,1.11-1.49,1.09-2.83-.07-5.66-.16-8.5-.25-.7-.02-1.12-.36-1.1-1.11,0-.04,0-.07,0-.11-.18-3.42,0-3.61,3.44-3.63.37,0,.75,0,1.12,0,0-.02,0-.04,0-.06Z"/>
    <path class="cls-3" d="M595.93,216.49c-.49,0-1.02.13-1.44-.03-.54-.22-1.36-.63-1.41-1.04-.16-1.31-.18-2.68.05-3.97.16-.91.99-1.46,2.03-1.43.3,0,.6,0,.9,0,2.31,0,2.86.56,2.87,2.92,0,.19,0,.37,0,.56,0,2.77-.25,3.02-3,2.99Z"/>
  </g>
</svg>