<?xml version="1.0" encoding="UTF-8"?>
<svg id="_Layer_" data-name="&amp;lt;Layer&amp;gt;" xmlns="http://www.w3.org/2000/svg" viewBox="0 0 794.88 794.88">
  <defs>
    <style>
      .cls-1 {
        fill: #000;
      }

      .cls-1, .cls-2, .cls-3 {
        stroke-width: 0px;
      }

      .cls-2 {
        fill: #cf0;
      }

      .cls-3 {
        fill: #fff;
      }
    </style>
  </defs>
  <path class="cls-2" d="M501.46,211.68c-2.77.96-5.67,1.06-8.57,1.32-3.21.28-6.36,1.07-9.51,1.72-11.51,2.41-23,4.91-34.49,7.42-5.27,1.15-10.52,2.43-15.8,3.51-1.93.39-4,.76-6,1.3-.19.18-.46.32-.86.41-.13.03-.29.02-.44-.03-1.81.58-3.53,1.35-4.97,2.48-.55.43-1-.33-.52-.74,1.4-1.2,3.05-2.05,4.8-2.7-.96-2.13-1.65-4.76-.03-6.73,1.62-1.98,4.8-2.67,7.21-3.34,6.11-1.7,12.12-3.63,18.32-5.06,6.45-1.49,12.98-2.69,19.56-3.55,6.27-.82,12.51-.86,18.83-1,4.85-.1,9.75-.19,12.89,3.89.27.35,0,.95-.41,1.1Z"/>
  <g>
    <path class="cls-2" d="M572.77,355.65c-.1-2.41-.12-4.82-.28-7.22-.21-3.32-.48-6.64-1.83-9.77-1.54-3.57-4.33-5.48-8.44-5.68-3.21-.16-6.36.15-9.36,1.25-5.55,2.04-11.07,4.15-16.59,6.26-1.2.46-1.19.49-1.2-.69-.04-13,.3-26.01-1.15-38.97-.46-4.1-.72-8.23-1.43-12.29-.95-5.46-4.73-8.92-10.24-9.37-2.86-.24-5.81-.07-8.67.25-4.28.48-8.36,1.81-12.37,3.29-.36.14-1.04.2-1.2.01-.57-.65-1.05-1.33-.99-2.33.66-10.5,1.11-21.01,1.9-31.49.74-9.76,1.88-19.49,2.74-29.24.28-3.19.5-6.42.28-9.61-.25-3.63-3.03-5.89-6.86-5.71-4.9.22-9.82.47-14.66,1.19-9.58,1.42-19.15,3.02-28.66,4.83-8.68,1.65-17.27,3.66-25.89,5.57-1.07.24-1.4.08-1.45-.97-.39-7.55-.82-15.1-1.25-22.65-.2-3.5-.34-7-1.01-10.45l-133.42,54.64c-.32,1.89-.61,3.78-.94,5.67-.08.45-.2.94-.47,1.3-.86,1.16-1.76,2.3-2.72,3.4-.36.42-.86.87-1.38,1.01-3.15.87-6.31,1.75-9.51,2.45-3.8.84-7.62,1.52-11.23,3.05-6.38,2.7-10.56,6.99-11.38,13.69-.61,4.96-.97,9.95-1.36,14.93-.08,1.03-.27,1.78-1.16,2.54-.76.65-1.36,1.72-1.53,2.68-.18,1.02-.6,2.32.77,3.11-4.28,2.12-8.48,4.15-12.63,6.26-5.35,2.73-10.66,5.49-15.4,9.15-2.64,2.03-3.78,4.59-3.78,7.76,0,1.22-.32,2.44-.49,3.66v5.48c.08.53.21,1.07.24,1.61.34,6.64.72,13.27.99,19.92.35,8.72.63,17.45.9,26.17.26,8.61.42,17.23.73,25.85.1,2.73.42,5.48,1.73,7.99.74,1.43,1.91,2.48,3.57,2.71,1.67.24,3.39.33,5.07.21,4.13-.28,7.94-1.74,11.53-3.51,7.95-3.93,15.76-8.1,23.63-12.18.61-.32,1.26-.97,1.46.36.03.22.57.45.91.53.44.1.92.09,1.39.07.66-.04.86.21.87.83.05,3.62.22,7.23.2,10.85-.11,15.42-.21,30.83-.43,46.25-.22,14.5-.59,29-.91,43.5-.04,1.71-.17,3.43-.27,5.14-.04.61.13.73.68.38.67-.43,1.32-.91,2.05-1.24,1.17-.55,1.56-1.35,1.6-2.59.25-8.33.67-16.65.88-24.97.31-12.78.62-25.57.69-38.36.08-13.77-.13-27.55-.18-41.32,0-.44.12-1.02.42-1.28.97-.82,1.26-1.81,1.09-2.96-.13-.93.32-1.42,1.13-1.92,4.71-2.89,9.43-5.79,14.14-8.7-.61-.52-1.23-1.04-1.85-1.55-.26-.22-.54-.44-.82-.66-11.08,6.83-22.35,13.38-33.98,19.38-6.15,3.17-12.25,6.43-18.83,8.74-1.91.67-3.91,1.16-5.91,1.55-2.77.55-4.54-.46-5.24-3.05-.48-1.79-.77-3.66-.92-5.5-.22-2.51-.28-5.03-.32-7.55-.18-10.48-.2-20.97-.54-31.44-.32-9.67-.97-19.33-1.48-29-.13-2.44-.27-4.89-.33-7.33,0-.39.31-1,.66-1.17,8.34-4.01,16.65-8.1,25.09-11.91,14.03-6.34,28.15-12.48,42.22-18.73,6.09-2.71,12.14-5.49,18.24-8.19,2.17-.96,4.42-1.76,6.62-2.66.79-.32,1.14-.16,1.12.69-.03,1.21,0,2.41,0,3.62.09,0,.17.01.26.02-.5,5.27-1.01,10.54-1.5,15.81-.44,4.73-.84,9.46-1.28,14.18-.5,5.42-1.1,10.83-1.52,16.25-.62,8.04-2.57,16.01-1.88,24.09.29,3.41-.99,6.3-1.98,9.31.96.79,1.88,1.62,2.81,2.4.26.21.55.44.83.69.4-.25.8-.49,1.19-.74.38-.24.76-.65.89-1.05.26-.8.42-1.64.47-2.47.06-.9-.07-1.8-.07-2.7,0-1.17.04-2.34.06-3.5.04-3.24.13-6.49.1-9.73-.02-1.7.59-2.81,2.41-3.21.15-.03.28-.13.41-.2,8.32-4.18,17.08-7.42,25.81-10.72.31-.12.81.05,1.15.21.81.38,1.59.8,2.35,1.27.28.17.64.5.64.76-.02,1.46-.1,2.92-.22,4.37-.48,6.12-.99,12.23-1.47,18.35-.54,6.74-1.12,13.47-1.57,20.21-.21,3.23-.86,6.22-3.41,8.6-.11.1.02.68.2.77.93.52,1.97.88,2.85,1.44.7.45,1,.2,1.38-.31,1.45-1.91,2.39-4.04,2.62-6.37.41-4.11.67-8.23,1.01-12.34.96-11.76,1.93-23.53,2.91-35.29.03-.32.19-.76.45-.91,1.54-.9,2.09-2.2,1.89-3.83-.09-.76.26-1.11.99-1.36,1.64-.56,3.24-1.2,4.86-1.82.67-.26,1.35-.7,1.72.36.06.15.39.31.59.3,1.51-.04,1.57.75,1.24,1.82-.1.35-.13.72-.17,1.08-.35,2.72-.78,5.44-.14,8.17.48,2.05,1.58,2.89,3.79,3.04,2.52.17,4.93-.24,7.29-1.03,5.77-1.93,10.99-4.84,16.05-8.04,2.5-1.59,5.07-3.1,7.63-4.59,1.22-.71,1.79-.39,1.77.91-.02,1.06-.11,2.12-.11,3.17,0,1.61.01,3.21.13,4.82.03.44.34,1.07.71,1.24,1.62.72,2.76-.03,2.77-1.73.04-4.9.16-9.79.1-14.68-.04-3.36-.29-6.71-.53-10.06-.05-.7.27-.88.79-1.12,3.33-1.59,6.43-3.47,9.32-5.72,1.09-.85,1.24-1.72,1.2-2.84-.02-.72-.3-1.12-1.1-1.06-.65.05-.9-.2-.89-.82.04-1.49.03-2.99.05-4.48.02-1.64.13-3.29.03-4.93-.08-1.36-.16-2.84-1.9-3.45-.15-.05-.26-.36-.28-.55-.09-1.14-.77-1.62-1.92-1.58-.64.02-.88-.24-.67-.8.43-1.13.75-2.32,1.38-3.34.98-1.61,2.25-3.07,3.23-4.68.5-.81.87-1.8.91-2.73.19-4.2.54-8.38,1.56-12.48,1.09-4.42,3.27-8.03,7.98-9.83.39-.15.7-.47,1.09-.62.69-.26,1.4-.6,2.12-.64,1.68-.11,2.21-.53,2.21-2.14,0-1.13-.12-2.26-.13-3.39-.05-7.01-.08-14.02-.13-21.04,0-.57.15-.79.76-.8.65,0,1.32-.05,1.95-.19,5.91-1.32,11.77-2.84,17.72-3.97,11.34-2.15,22.7-4.18,34.09-6.07,4.68-.78,9.44-1.12,14.17-1.53,3.16-.28,5.33,1.59,5.57,4.59.07.94.02,1.9-.08,2.84-.33,3.34-.72,6.68-1.04,10.03-.51,5.27-1.03,10.54-1.48,15.82-.47,5.49-.9,10.99-1.28,16.5-.38,5.54-.68,11.08-1.01,16.63-.44,7.4-.9,14.8-1.32,22.2-.27,4.78-.38,9.57-.81,14.33-.22,2.41-.9,4.8-1.55,7.15-.5,1.81-1.82,3.14-3.62,3.94-1.75.77-3.54,1.46-5.33,2.16-1.71.67-3.47,1.23-5.14,1.98-1.04.46-1.52,2.53-1,3.51.26.48,2.42.62,3.27.19.17-.09.31-.22.49-.3.65-.31,1.29-.66,1.97-.91,2.15-.82,4.32-1.6,6.49-2.39,3.29-1.22,5.63-3.29,6.59-6.59.21-.74.6-1.45.68-2.2.42-3.62.86-7.25,1.11-10.89.29-4.34.37-8.69.57-13.03.02-.53.12-1.09.34-1.58.46-1.05,1-2.08,1.56-3.09.19-.35.47-.76.82-.9,5-2.02,10.18-3.48,15.59-4.12,4.14-.49,7.78.43,10.11,3.93.88,1.32,1.56,2.93,1.72,4.47.83,7.92,1.76,15.84,2.08,23.78.35,8.83.07,17.68.09,26.52,0,.72-.23,1.1-.93,1.42-3.77,1.71-7.51,3.47-11.25,5.22-2.43,1.14-2.61,1.49-2.45,3.99.04.68.33.98,1.05,1,.53.02,1.05.01,1.56-.03.23,1.05.54,2.09.94,3.08.17.41.65,1.66,1.27,2.19-.18.48-.2,1.02-.12,1.59.04.3.56.78.81.75,1.05-.11,2.13-.25,3.1-.62,1.21-.46,2.31-1.18,3.48-1.76,11.87-5.85,23.92-11.35,36.39-16,1.94-.72,2.12-.8,2.36,1.16.52,4.27,1.12,8.57,1.13,12.85.01,12.49-.19,24.99-.45,37.48-.09,4.34-.43,8.68-.93,13-.53,4.59-2.52,8.61-6.47,11.5-6.12,4.49-12.61,8.47-19.56,11.76-1.71.81-2.57,2.54-1.92,4.21.09.24.48.54.74.55,1.69.06,3.42.31,4.86-.91.4-.34.92-.53,1.38-.8,5.31-3.07,10.7-6.02,15.92-9.23,5.98-3.67,9.12-9.09,9.66-15.73.54-6.59.85-13.2,1.15-19.8.26-5.76.36-11.53.53-17.3v-12.72c-.08-1.05-.2-2.1-.24-3.16ZM257.18,267.82c.74-4.65,3.75-7.72,7.96-9.92,3.9-2.03,8.07-3.31,12.43-4.12,2.35-.44,4.67-1.02,6.99-1.59.79-.2,1.29-.29,1.42.72.11.89.7,1.47,1.75,1.36.9-.09,1,.38.95,1.06-.27,3.35-.55,6.7-.76,10.05-.18,2.73-.32,5.47-.39,8.2-.02.74-.25,1.08-.97,1.37-8.84,3.62-17.66,7.27-26.48,10.93-.65.27-.92.29-1.02-.5-.15-1.15-1.09-1.66-2.18-1.82-1-.15-1.21-.59-1.12-1.48.11-1.12.03-2.26.03-3.39-.04,0-.09-.02-.13-.03.5-3.62.96-7.24,1.53-10.84ZM398.73,314.83c-1.18,1.3-1.62,2.87-1.98,4.49-.08.35-.32.77-.63.95-6.4,3.76-12.75,7.62-19.28,11.18-2.51,1.37-5.4,2.17-8.2,2.99-2.14.62-3.09-.21-3.15-2.36,0-.18,0-.36,0-.55-.03,0-.07,0-.1-.02.4-2.38.77-4.76,1.23-7.13.07-.34.5-.73.86-.9,1.42-.65,2.33-1.53,2-3.16-.14-.69.23-1.03.92-1.28,9.02-3.3,18.03-6.61,27.04-9.94.79-.29,1.11-.19,1.15.66.07,1.42.25,2.84.34,4.26.02.27-.03.62-.2.81Z"/>
    <path class="cls-2" d="M289.2,487.61c-.06-2.84,1.67-4.61,3.84-6.1.57-.39.73-.81.76-1.45.41-7.29.86-14.58,1.29-21.86.26-4.41.55-8.82.77-13.23.49-9.63.9-19.26,1.46-28.88.18-3.01.54-6.05,1.16-9.01.92-4.42,3.93-7.57,7.82-9.93,2.24-1.35,4.72-2.34,7.08-3.51.64-.32,1.08-.27,1.56.33.6.75,1.32,1.44,2.09,2.05.73.58.49.7-.23,1-2.02.83-4,1.73-5.97,2.66-6.19,2.93-9.2,7.71-9.47,14.22-.3,7.41-.74,14.81-1.2,22.21-.63,10.21-1.35,20.41-1.97,30.62-.26,4.34-.37,8.68-.56,13.03-.02.53,0,.95.66,1.21.3.12.47.63.59.99.1.3.04.65.04.98,0,2.44,0,2.43-2.43,3.25-1.36.46-2.22,1.4-2.82,2.61-.47.93-3.21,1.6-3.89.82-.43-.49-.42-1.33-.6-2.01Z"/>
  </g>
  <g>
    <path class="cls-2" d="M252.44,544.5c-.31-1.64.56-3.12,1.83-4.51,4.24-4.61,8.51-9.18,12.62-13.89,1.39-1.6,3-1.92,4.91-1.64.4.06.98.65,1.02,1.04.18,1.82.09,3.48-1.45,5.03-4.04,4.08-7.85,8.36-11.76,12.56-.89.95-.93,1.05.42,1.27,5.33.88,10.67,1.68,16,2.52.11.02.23.01.35.03,3.25.41,3.13.6,2.99,3.81-.03.79-.71.99-1.43.94-1.96-.13-3.93-.27-5.89-.44-3.92-.35-7.85-.67-11.76-1.1-1.45-.16-2.88-.54-4.3-.9-3.12-.79-3.56-1.37-3.56-4.7Z"/>
    <path class="cls-3" d="M413.11,229.98c.85.24,1.85-.1,2.12,1.06.38,1.61-.04,2.81-1.15,3.22-13.07,4.85-26.14,9.7-39.22,14.51-2.88,1.06-5.8,2.05-8.74,2.94-1.15.35-2.42.39-3.64.42-.3,0-.84-.51-.89-.84-.36-2.43-.06-2.91,2.43-3.73,14.6-4.86,29.1-9.97,43.38-15.6,1.04-.41,2.04-.89,3.09-1.26.85-.3,1.75-.49,2.62-.72Z"/>
    <path class="cls-2" d="M322.66,519.09c-.45,1.09-.74,2.28-1.4,3.24-1.46,2.15-3.17,4.15-4.67,6.27-2.36,3.34-4.62,6.74-6.93,10.11-1.03,1.5-2.6,2.08-4.39,1.55-.28-.08-.6-.49-.63-.77-.12-1.5-.06-2.93.94-4.28,3.44-4.63,6.8-9.32,10.18-13.99.27-.38.49-.8.73-1.2-.52-.09-1.04-.27-1.56-.26-4.48.09-8.73-.95-12.94-2.25-.29-.09-.58-.2-.87-.3-2.89-1.06-3.09-1.37-2.83-4.29.08-.85.48-1.26,1.46-1.35,1.74-.16,3.26.42,4.83.94,4.77,1.58,9.72,2.36,14.7,3.03,2.78.37,3.06.81,3.06,3.43.1.04.21.08.31.12Z"/>
    <path class="cls-1" d="M302.3,243.92c-.38-1.46.62-2.27,2.13-2.79,3.5-1.18,7.07-2.19,10.46-3.6,6.87-2.85,13.63-5.92,20.44-8.9,1.47-.65,2.9-1.44,4.43-1.9,1.1-.33,2.35-.21,3.53-.26.12,0,.28.12.38.22.81.76.32,3.75-.68,4.21-5.57,2.54-11.17,5.03-16.71,7.63-5.52,2.59-11.26,4.66-17.08,6.53-1.7.55-3.27,1.46-5.21,1.29-1.61-.14-1.69-.09-1.7-1.63,0-.18,0-.37,0-.79Z"/>
    <path class="cls-2" d="M293.83,514.09c-.45,5.48-.94,10.71-1.29,15.96-.5,7.43-.91,14.87-1.35,22.31-.02.29,0,.58-.03.88-.18,2.28-.93,2.45-3.26,2.12-.41-.06-.92-1.04-.96-1.62-.12-1.63-.08-3.28,0-4.92.17-3.79.35-7.58.62-11.37.39-5.46.9-10.91,1.3-16.37.3-4.04.51-8.09.77-12.13.02-.29,0-.59.05-.88.11-.85.15-1.69,1.45-1.7,1.84-.01,2.2.09,2.34,1.51.22,2.14.27,4.29.38,6.22Z"/>
    <path class="cls-3" d="M378.86,215.74c-.64-.28-1.72-.51-1.75-.82-.11-1.2-.65-2.59.67-3.57.36-.27.78-.48,1.21-.65,10.41-4.13,20.81-8.28,31.25-12.34,1.05-.41,2.34-.3,3.53-.36.25-.01.6.18.78.38.85.99.18,3.44-1.09,3.92-2.97,1.13-5.99,2.17-8.94,3.37-7.46,3.02-14.89,6.12-22.34,9.15-1.01.41-2.11.59-3.31.92Z"/>
    <path class="cls-2" d="M442.61,243.92c-.39,0-.78.04-1.16-.01-.25-.03-.56-.13-.7-.3-.77-.97-.02-3.55,1.24-3.92,2.51-.72,5.06-1.36,7.61-1.92,9-1.98,18.01-3.94,27.02-5.86,1.08-.23,2.22-.18,3.34-.19.3,0,.69.18.9.39,1.04,1.06.27,3.53-1.2,3.85-8.43,1.86-16.87,3.7-25.3,5.55-3.24.71-6.47,1.46-9.7,2.17-.67.15-1.36.22-2.04.32,0-.03-.01-.06-.01-.09Z"/>
    <path class="cls-3" d="M354.77,240.48c-.39,0-.78.05-1.16-.02-.27-.05-.62-.2-.73-.4-.72-1.35.05-3.35,1.57-3.91,4.04-1.48,8.1-2.9,12.16-4.33,6.23-2.19,12.46-4.4,18.71-6.54.96-.33,2.03-.43,3.06-.52.74-.06,1.62-.18,2.02.69.41.88.03,2.5-.75,3.01-.59.39-1.25.74-1.93.98-10.18,3.58-20.37,7.15-30.56,10.69-.75.26-1.57.32-2.36.47,0-.04-.02-.08-.02-.13Z"/>
    <path class="cls-1" d="M322.75,279.67c-.38-1.45.57-2.4,2-2.99,4.6-1.92,9.2-3.82,13.83-5.69,3.77-1.52,7.54-3.05,11.38-4.41,1.1-.39,2.42-.24,3.64-.29.18,0,.42.19.56.35.99,1.12.18,3.9-1.26,4.47-7.38,2.94-14.75,5.89-22.11,8.85-.89.36-1.8.72-2.58,1.24-1.38.92-2.91.94-4.45.79-.36-.03-.78-.55-.96-.93-.16-.33-.03-.79-.03-1.39Z"/>
    <path class="cls-2" d="M278.6,305.95c-.65-.27-1.68-.44-1.74-.76-.2-1.14-.59-2.43.5-3.4.53-.47,1.17-.84,1.82-1.16,8.12-4,16.24-8.01,24.41-11.93.96-.46,2.23-.38,3.37-.48.24-.02.59.2.74.41.69.95.1,3.09-.97,3.62-6.12,3.04-12.26,6.07-18.37,9.13-2.42,1.21-4.79,2.53-7.22,3.74-.76.38-1.63.55-2.54.84Z"/>
    <path class="cls-1" d="M362.56,279.13c.01,1.88-.03,1.86-1.96,2.55-7.52,2.69-15,5.46-22.54,8.1-1.45.51-3.07.59-4.61.81-.9.13-1.21-.34-1.24-1.16-.08-2.55,0-2.87,2.51-3.79,7.78-2.87,15.57-5.71,23.39-8.46,1.04-.36,2.29-.28,3.43-.22.35.02.78.58.98.98.16.33.03.79.03,1.19Z"/>
    <path class="cls-2" d="M528.21,383.11c-.36-1.49.8-2.2,2.13-2.78,5.92-2.62,11.83-5.24,17.75-7.84,3.08-1.36,6.16-2.73,9.3-3.97.95-.37,2.1-.32,3.16-.43.2-.02.47.09.62.22.79.67.3,3.21-.68,3.64-7.52,3.33-15.05,6.65-22.57,9.99-1.85.82-3.66,1.75-5.52,2.55-.71.3-1.53.5-2.32.53-1.87.08-1.87.03-1.87-1.9Z"/>
    <path class="cls-1" d="M273.1,367.86c.27,1.19-.4,1.68-1.46,2.13-9.6,4.14-19.18,8.31-28.73,12.53-1.22.54-2.34,1.05-3.72.93-.67-.06-.92-.29-.99-.92-.2-1.65.37-2.81,2.02-3.53,4.35-1.9,8.66-3.87,13.02-5.77,5.34-2.32,10.68-4.63,16.06-6.86.87-.36,1.96-.38,2.93-.32,1.23.08.78,1.12.88,1.8Z"/>
    <path class="cls-1" d="M230.23,326.8c-2.59,0-2.51,0-2.62-2.44-.07-1.52.45-2.34,2-2.98,5.96-2.44,11.86-5.01,17.74-7.61,1.51-.67,3.02-.48,4.55-.44.31,0,.63.53.91.85.08.09.03.28.04.43.19,3.34.18,3.31-3.08,4.7-5.07,2.17-10.11,4.41-15.2,6.55-1.34.56-2.82.84-4.23,1.25-.03-.1-.07-.2-.1-.3Z"/>
    <path class="cls-1" d="M345.79,242.1c.02,2.02.03,2.03-2,2.76-7.57,2.76-15.13,5.55-22.74,8.22-1.14.4-2.5.25-3.77.31-.21,0-.52-.19-.64-.38-.8-1.31.06-3.77,1.55-4.32,7.78-2.86,15.57-5.72,23.39-8.48,1-.35,2.21-.22,3.32-.17.31.01.7.51.85.86.15.35.03.79.03,1.19Z"/>
    <path class="cls-1" d="M351.03,295.62q-2.23-.15-2.22-2.26c0-1.52.27-1.89,1.82-2.38,8.14-2.57,16.28-5.16,24.44-7.67.92-.28,1.99-.16,2.99-.19.21,0,.46.11.62.25.89.74.4,3.55-.7,3.91-7.89,2.58-15.78,5.17-23.68,7.71-1.04.34-2.18.43-3.27.64Z"/>
    <path class="cls-3" d="M392.41,258.55c-.44-.19-1.38-.31-1.58-.74-.63-1.32-.05-3.08,1.06-3.57,2.1-.93,4.24-1.77,6.37-2.63,5.18-2.11,10.34-4.28,15.58-6.26,1.46-.55,3.15-.58,4.74-.79.77-.1,1.08.32,1.11,1.05.07,1.67-.56,2.71-2.35,3.44-7.53,3.05-15.07,6.07-22.62,9.07-.62.25-1.34.26-2.31.43Z"/>
    <path class="cls-1" d="M346.45,307.96c.84.15,1.82-.11,2.07,1.04.41,1.83-.02,2.99-1.22,3.51-7.46,3.22-14.9,6.48-22.39,9.62-.95.4-2.18.23-3.29.28-.17,0-.41-.21-.5-.38-.55-1.01-.01-3.25,1.04-3.86,1.38-.81,2.8-1.57,4.27-2.21,5.95-2.56,11.93-5.08,17.91-7.57.65-.27,1.41-.3,2.12-.44Z"/>
    <path class="cls-2" d="M534.87,407.92c-.59-.29-1.45-.44-1.64-.85-.56-1.24-.07-2.86.87-3.34,1.46-.75,2.97-1.42,4.45-2.13,5.84-2.78,11.68-5.55,17.5-8.36,1.24-.6,2.47-.99,3.88-.88.77.06,1.1.38,1.17,1.07.2,2.06.05,2.34-1.88,3.26-7.21,3.45-14.41,6.92-21.63,10.35-.8.38-1.71.56-2.72.88Z"/>
    <path class="cls-3" d="M361.06,266.52c-.01-2.19.14-2.46,2.32-3.18,6.01-2,12.03-3.99,18.07-5.9.98-.31,2.13-.17,3.21-.2.2,0,.45.13.6.27.95.89.29,3.87-.95,4.3-6.23,2.18-12.43,4.41-18.69,6.5-1.15.38-2.5.27-3.76.28-.26,0-.66-.45-.76-.77-.13-.4-.03-.87-.03-1.3Z"/>
    <path class="cls-3" d="M397.15,267.78c0,1.79-.1,1.83-1.79,2.39-6.71,2.24-13.39,4.55-20.11,6.74-1.17.38-2.49.39-3.75.52-.66.07-.95-.28-.99-.92-.16-2.15.04-2.52,2.18-3.26,6.9-2.39,13.8-4.78,20.72-7.1.87-.29,1.92-.27,2.86-.16,1.15.14.82,1.13.88,1.78Z"/>
    <path class="cls-2" d="M432.8,235.83c-.43,0-.86.04-1.27-.02-.24-.03-.54-.17-.67-.35-.87-1.27.07-3.7,1.59-4.11,6.29-1.69,12.57-3.39,18.88-5.01,1.02-.26,2.15-.21,3.22-.2.88,0,1.28.52,1.32,1.35.1,2.04-.35,2.54-2.41,3.09-6.03,1.6-12.04,3.28-18.06,4.9-.84.23-1.73.32-2.59.48,0-.05-.02-.09-.03-.14Z"/>
    <path class="cls-2" d="M485.51,243.47c.63.25,1.69.38,1.82.78.27.85.15,1.86.01,2.77-.04.25-.72.52-1.14.59-7.37,1.25-14.75,2.49-22.13,3.68-1.17.19-2.38.18-3.58.24-1,.05-1.45-.35-1.44-1.36.03-1.95.12-2.19,2.18-2.55,7.48-1.31,14.97-2.58,22.46-3.85.57-.1,1.15-.1,1.73-.15.03-.05.06-.11.09-.16Z"/>
    <path class="cls-2" d="M304.38,304.72c.17.98-.41,1.62-1.49,2.13-7.01,3.33-13.99,6.69-20.96,10.09-.84.41-1.23.28-1.58-.47-.34-.73-.68-1.47-1.11-2.16-.38-.61-.2-.84.42-1.14,5.11-2.43,10.2-4.89,15.29-7.35,1.68-.82,3.31-1.75,5.02-2.51.77-.34,1.68-.51,2.54-.55,1.76-.08,1.91.12,1.87,1.97Z"/>
    <path class="cls-2" d="M431.69,312.58c1.27.1,2.41-.27,2.55,1.16.25,2.41,0,2.81-1.83,3.21-1.43.32-2.84.72-4.24,1.12-4.62,1.34-9.22,2.7-13.84,4.05-.37.11-.75.18-1.14.21-2.64.21-3.19-.31-2.68-2.78.1-.48.72-1.06,1.24-1.24,1.85-.64,3.76-1.11,5.64-1.67,4.2-1.25,8.4-2.52,12.6-3.76.65-.19,1.35-.25,1.69-.3Z"/>
    <path class="cls-1" d="M248.42,342.09c-.52-.26-1.44-.41-1.63-.85-.6-1.38-.07-2.92,1.01-3.35,1.75-.69,3.53-1.3,5.31-1.93,4.35-1.54,8.7-3.05,13.03-4.63.78-.28,1.04-.15,1.29.57.34,1,.76,2,1.28,2.93.38.67.13.91-.49,1.1-2.28.7-4.57,1.37-6.83,2.11-3.33,1.08-6.63,2.23-9.96,3.31-.9.29-1.85.45-3.01.72Z"/>
    <path class="cls-1" d="M263.33,360.73c.31,1.13-.48,1.68-1.6,2.23-5.36,2.67-10.66,5.47-16.04,8.11-.93.46-2.13.43-3.22.55-.22.02-.59-.22-.7-.43-.58-1.16.02-2.96,1.23-3.61,3.8-2.02,7.63-4.01,11.45-6.01,1.52-.8,3.02-1.64,4.58-2.35.7-.32,1.52-.51,2.3-.55,1.97-.08,2,0,1.99,2.06Z"/>
    <path class="cls-2" d="M483.36,304.13c.82.19,1.95-.16,2.02,1.04.14,2.31.22,2.67-1.45,3.19-6.49,2.04-12.97,4.09-19.47,6.1-.27.08-.85-.08-.96-.28-.47-.91-.75-1.91-1.24-2.8-.41-.74.05-.88.59-1.06,3.36-1.11,6.7-2.24,10.07-3.31,2.64-.84,5.3-1.6,7.96-2.37.8-.23,1.64-.34,2.47-.51Z"/>
    <path class="cls-2" d="M461.91,292.21c-.78-.24-1.89.35-1.94-.84-.09-1.97-.33-2.77,1.42-3.25,2.82-.77,5.67-1.43,8.54-2.01,3.13-.64,6.29-1.15,9.44-1.69.56-.1,1.15-.08,1.73-.08,1.57,0,1.95.25,2.06,1.33.18,1.88-.22,2.45-1.76,2.76-5.82,1.14-11.63,2.31-17.44,3.46-.71.14-1.44.22-2.05.32Z"/>
    <path class="cls-1" d="M236.26,360.83c-.27,0-.54-.02-.81,0-1.01.1-1.43-.34-1.33-1.28.04-.36.04-.73,0-1.09-.15-1.21.48-1.91,1.61-2.34,3.15-1.21,6.29-2.43,9.43-3.65,1.11-.43,2.17-1,3.31-1.31,1.23-.33,2.53-.48,3.81-.62.29-.03.76.25.92.5.73,1.19-.01,3.19-1.38,3.77-4.15,1.78-8.29,3.56-12.46,5.3-.96.4-2.01.63-3.02.94-.03-.07-.05-.15-.08-.22Z"/>
    <path class="cls-1" d="M259.61,326.01c.28,1.08-.45,1.69-1.57,2.16-5.8,2.41-11.58,4.87-17.4,7.24-.81.33-1.81.27-2.72.31-.23.01-.6-.22-.7-.43-.57-1.18.03-2.76,1.32-3.32,2.07-.9,4.19-1.7,6.26-2.59,3.37-1.46,6.71-2.98,10.1-4.42.93-.39,1.95-.7,2.96-.77,1.65-.13,1.75.05,1.75,1.83Z"/>
    <path class="cls-3" d="M353.42,226.87c-1.95-.05-1.84-.06-1.98-1.95-.11-1.58.6-2.42,2.07-3,3.82-1.5,7.59-3.13,11.43-4.58,1.03-.39,2.26-.33,3.4-.43.23-.02.55.11.73.27.81.7.42,3.48-.58,3.9-4.44,1.89-8.9,3.77-13.37,5.6-.5.21-1.14.14-1.71.19Z"/>
    <path class="cls-2" d="M527.92,373.75c-.55-.3-1.52-.52-1.66-.96-.56-1.78-.08-3.01,1.19-3.61,3.59-1.7,7.16-3.45,10.81-5.03,1.14-.49,2.5-.56,3.78-.74.81-.11,1.17.36,1.22,1.11.19,2.46.11,2.49-2.23,3.56-3.44,1.57-6.83,3.25-10.27,4.83-.81.37-1.72.52-2.85.85Z"/>
    <path class="cls-3" d="M356.01,306.8c0-1.81.21-2.12,1.95-2.75,3.87-1.38,7.72-2.79,11.62-4.09.87-.29,1.9-.17,2.86-.2.19,0,.44.15.58.3.72.77.23,3.39-.78,3.75-4.29,1.56-8.59,3.09-12.92,4.54-.76.26-1.69.17-2.53.09-1.24-.12-.6-1.13-.79-1.65Z"/>
    <path class="cls-3" d="M394.3,290.05c.95.27,1.97.02,2.13,1.28.26,1.98-.15,2.56-1.6,3.1-3.77,1.4-7.47,2.96-11.24,4.36-1.08.4-2.29.47-3.45.64-.62.09-.87-.25-.93-.83-.21-2.05-.07-2.51,1.92-3.37,3.33-1.44,6.73-2.75,10.11-4.09,1.01-.4,2.05-.72,3.07-1.08Z"/>
    <path class="cls-1" d="M334.72,261.2c-.43-.25-1.38-.47-1.53-.93-.55-1.65-.08-2.96,1.15-3.39,3-1.06,6.02-2.08,9.07-3,1.22-.37,2.55-.47,3.83-.62.97-.11,1.39.45,1.48,1.3.25,2.32-.13,2.74-2.5,3.39-2.96.82-5.88,1.79-8.82,2.67-.76.23-1.56.34-2.69.58Z"/>
    <path class="cls-2" d="M469.76,280.11c-.51-.31-1.31-.53-1.47-.96-.47-1.28-.07-2.54.84-2.91,1.39-.55,2.81-1.04,4.27-1.39,2.58-.62,5.18-1.15,7.79-1.64.73-.14,1.6-.13,1.76.93.28,1.87.04,2.51-1.25,2.86-3.34.91-6.69,1.8-10.04,2.68-.55.14-1.14.16-1.71.23-.06.06-.12.13-.18.19Z"/>
    <path class="cls-2" d="M479.31,226.16c-.42,0-.91.12-1.26-.03-.37-.16-.78-.53-.88-.88-.15-.51-.16-1.12,0-1.62.15-.47.52-1.15.91-1.23,3.87-.82,7.75-1.55,11.64-2.28.98-.18,1.2.31,1.03,1.14-.17.78-.25,1.58-.43,2.36-.05.23-.28.55-.48.59-3.48.77-6.97,1.51-10.46,2.25-.02-.1-.04-.2-.07-.3Z"/>
    <path class="cls-2" d="M548.2,389.37c-.61-.26-1.34-.35-1.6-.72-.49-.71-.07-2.71.53-3.18.44-.35.94-.65,1.45-.89,2.1-1,4.19-2.04,6.36-2.9.99-.39,2.15-.42,3.25-.53.7-.07,1.02.36,1.09,1.01.23,2.16.07,2.4-2.03,3.35-2.16.97-4.28,2.03-6.44,2.99-.81.36-1.7.57-2.61.87Z"/>
    <path class="cls-2" d="M482.84,293.98c.35,0,.7-.02,1.04,0,.18.01.51.08.52.15.14.91.32,1.83.3,2.74,0,.28-.56.7-.94.79-3.32.86-6.65,1.66-9.98,2.47-.18.04-.38.04-.58.05-2.2.08-2.96-.86-2.21-2.87.14-.36.55-.79.93-.89,3.6-.95,7.22-1.83,10.84-2.74.02.09.05.18.07.28Z"/>
    <path class="cls-2" d="M422.5,306c.39,0,.78-.03,1.16,0,.26.02.71.1.73.21.17.9.39,1.83.32,2.73-.03.33-.75.81-1.22.89-1.86.32-3.74.5-5.61.74-1.95.25-3.89.51-5.83.74-1.1.13-1.48-.35-1.46-1.39.04-2.09.02-2.22,2.2-2.61,3.22-.57,6.46-1.01,9.7-1.51,0,.06.02.12.03.18Z"/>
    <path class="cls-2" d="M531.27,396.33c-.48-.17-1.2-.23-1.51-.6-.51-.59-.09-2.7.54-3.16.7-.5,1.48-.94,2.27-1.3,1.85-.83,3.69-1.7,5.61-2.36.9-.31,1.97-.2,2.96-.22.21,0,.48.24.63.42.67.82.03,3.06-.98,3.49-2.5,1.07-4.98,2.17-7.49,3.21-.58.24-1.25.31-2.03.5Z"/>
    <path class="cls-2" d="M550.89,364c-.64-.21-1.59-.36-1.6-.55-.06-1.02-.29-2.57.29-2.98,2.76-1.93,5.55-3.99,9.25-4.07,1.19-.02,1.52.41,1.52,1.54,0,1.33-.45,2.22-1.86,2.79-1.77.71-3.41,1.7-5.15,2.49-.78.35-1.65.52-2.46.77Z"/>
    <path class="cls-2" d="M470.77,263.5c-.39,0-.78.04-1.16-.01-.24-.03-.55-.14-.69-.31-.54-.69-.09-3.06.72-3.38,2.31-.89,4.56-2.02,7.17-1.94,1.56.04,1.83.27,1.84,1.72.02,2.34-.02,2.32-2.48,2.82-1.8.37-3.57.89-5.35,1.34-.02-.08-.04-.16-.06-.24Z"/>
    <path class="cls-2" d="M260.03,311.03c-.25-1.19.52-1.94,1.76-2.41,1.67-.64,3.23-1.57,5.16-1.36.86.09,1.24.39,1.28,1.2.11,2.12.04,2.35-2.01,3.14-1.41.54-2.87,1.11-4.35,1.3-1.83.23-1.85.06-1.85-1.86Z"/>
    <path class="cls-2" d="M302.66,315.33c.7.35,1.47.5,1.77.93.5.73.16,2.77-.42,3.05-1.92.97-3.74,2.21-6.12,1.98-.75-.07-1.05-.28-1.14-1.03-.21-1.71.35-2.88,2.15-3.48,1.25-.42,2.45-.94,3.77-1.45Z"/>
    <path class="cls-2" d="M463.32,228.38c-.47-.16-1.41.42-1.64-.67-.34-1.59,0-2.56,1.26-2.88,1.89-.48,3.82-.85,5.74-1.16,1.01-.17,1.45.37,1.46,1.35.03,2.19.03,2.22-2.23,2.65-1.17.23-2.34.48-3.52.7-.3.06-.62,0-1.08,0Z"/>
    <path class="cls-2" d="M260.89,351.73c-.65-.27-1.37-.35-1.64-.73-.48-.66-.12-2.72.51-3.03,1.18-.59,2.44-1.03,3.67-1.52.13-.05.4-.05.44.02.7,1.1,1.37,2.22,2.03,3.34.03.05-.14.28-.25.32-1.57.54-3.15,1.07-4.76,1.61Z"/>
    <path class="cls-3" d="M388.65,283.93c-.56-.29-1.48-.48-1.63-.9-.54-1.54-.1-2.83,1.03-3.17,1.26-.38,2.59-.57,3.9-.74.87-.11,1.21.4,1.24,1.2.1,2.34-.48,2.96-3.25,3.34-.38.05-.77.04-1.15.06-.05.08-.09.15-.14.23Z"/>
    <path class="cls-3" d="M398.37,225.75c-.57-.19-1.77.47-1.84-.74-.14-2.44-.35-3.16,1.47-3.58.95-.22,1.98-.15,2.98-.15.22,0,.5.21.64.4,1.14,1.6-.08,3.95-2.1,4.07-.35.02-.69,0-1.15,0Z"/>
    <path class="cls-3" d="M559.48,341.13c-.57-.19-1.77.47-1.84-.74-.14-2.44-.35-3.16,1.47-3.58.95-.22,1.98-.15,2.98-.15.22,0,.5.21.64.4,1.14,1.6-.08,3.95-2.1,4.07-.35.02-.69,0-1.15,0Z"/>
    <path class="cls-2" d="M486.29,233.91c-.12,0-.24.02-.35,0-.67-.13-1.64.34-1.77-.85-.18-1.69.04-2.19,1.45-2.49,1-.22,2.05-.29,3.08-.38.71-.06,1.07.33,1.09.99.01.4,0,.8,0,1.2.03.73-.27,1.18-1.09,1.28-.8.09-1.6.21-2.4.32,0-.02,0-.04,0-.06Z"/>
    <path class="cls-2" d="M270.16,321.76c-.55-.23-1.31-.32-1.59-.71-.49-.69-.03-2.71.5-3.17.06-.05.12-.09.18-.13,2.02-1.45,2.46-1.34,3.48.83.02.03.03.07.05.1,1.04,2.13.52,2.87-2.07,2.9-.15,0-.31,0-.46,0-.03.07-.06.13-.09.2Z"/>
    <path class="cls-2" d="M463.54,298.48c.9,0,1.82-.12,1.87,1.18.08,2.11-.14,2.52-1.71,2.71-.15.02-.31.02-.46.03-2.36.09-2.41.04-2.36-2.16.02-1.15.42-1.57,1.62-1.71.34-.04.69-.03,1.04-.05Z"/>
    <path class="cls-2" d="M293.2,323.13c.07.79.03,1.5-.87,1.95-1.24.63-1.73.56-2.54-.54-.24-.33-.48-.66-.69-1-.68-1.1-.49-1.76.81-2.12.82-.23,1.82-.35,2.59-.09.48.16.67,1.1.99,1.69-.09.04-.18.08-.28.12Z"/>
    <path class="cls-1" d="M275.14,328.55c.81.15,1.91-.35,2.16.92.39,1.96-.05,3.05-1.44,3.48-.22.07-.69-.07-.77-.23-.59-1.14-1.13-2.31-1.64-3.48-.06-.14.16-.53.32-.57.44-.1.92-.08,1.37-.11Z"/>
  </g>
  <g>
    <path class="cls-1" d="M577.34,525.38c-.62,1.83-1.04,3.75-1.91,5.47-1.54,3.05-4.19,5.25-7.23,6.94-1.05.58-2.41.71-3.65.92-.69.12-.64.22-.31.7,2.58,3.77,5.2,7.51,7.69,11.33,2.22,3.42,2.76,7.16,1.85,11.07-.61,2.64-1.23,5.27-1.94,7.89-1.1,4.05-3.86,6.78-7.81,8.54-1.57.7-1.6.74-.92,2.23,2.84,6.28,5.68,12.55,8.56,18.81,1.93,4.2,3.37,8.55,4.45,13,.37,1.52.76,3.05.92,4.6.19,1.77-1.11,3.47-2.97,3.78-2.2.37-4.45.66-6.68.67-5.84.02-11.69-.08-17.53-.22-8.82-.22-17.66-.32-26.46-.85-8.41-.51-16.82-1.3-25.17-2.34-6.89-.86-13.71-2.28-20.55-3.45-.23-.04-.46-.08-.68-.14-2.58-.73-3.29-2.16-1.69-4.16,2.69-3.33,5.58-6.53,8.48-9.7,4.57-4.99,10.12-8.9,15.95-12.47.06-.04.09-.11.22-.29-.46-.18-.89-.36-1.33-.52-3.53-1.27-6.29-3.33-8.01-6.59-1.96-3.73-3.93-7.45-6.08-11.09-1.96-3.34-4.46-6.32-7.54-8.84-.41-.33-.78-.71-1.13-1.1-.95-1.03-.93-1.03-1.88-.07-7.63,7.72-15.24,15.46-22.92,23.13-2.1,2.09-4.41,4-6.68,5.93-2.99,2.56-6.49,4.19-10.46,4.93-6.45,1.2-12.86,2.63-19.35,3.56-7.02,1.01-14.13,1.05-21.17-.11-3.74-.62-7.4-.11-11.1.19-2.35.19-4.7.37-7.05.51-1.4.08-2.69-.27-3.78-1.13-1.69-1.33-3.41-2.61-5.04-4.01-.69-.59-1.04-.62-1.75,0-4.77,4.2-9.91,7.93-15.5,11.11-4.2,2.39-8.78,3.58-13.63,3.94-8.75.65-17.5,1.29-26.25,1.94-6.21.46-12.41,1.02-18.62,1.34-5.6.29-11.21.43-16.82.4-3.7-.02-7.44-.22-10.98-1.47-1.08-.38-2.15-.85-3.12-1.43-1.99-1.2-3.16-2.91-3.01-5.21.06-.9-.24-1.26-1.21-1.41-.73-.12-1.44-.53-2.07-.93-2.25-1.47-3.83-3.46-5.1-5.73-3.67-6.59-6.16-13.62-8.84-20.59-4.55-11.84-9.2-23.65-13.93-35.43-1.33-3.31-3.04-6.47-4.62-9.69-.66-1.34-1-2.78-.63-4.16.93-3.41,2.28-6.68,5.45-8.88,2.24-1.55,4.47-3.18,6.91-4.42,5.73-2.9,11.53-5.68,17.39-8.34,18.1-8.21,36.25-16.36,54.39-24.5,2.63-1.18,5.36-2.01,8.35-2.11,5.87-.21,9.96,2.38,12.27,7.22,1.75,3.67,3.08,7.56,4.25,11.45,3.24,10.72,5.2,21.71,7.74,32.59.9,3.85,2.2,7.61,3.2,11.43.42,1.62.6,3.3.76,4.96.07.66.17.92.94,1.01,9.67,1.11,19.35,2.25,29.01,3.4,2.3.27,4.6.61,6.89.95,3.47.52,5.77,2.53,7.35,5.34.36.64.49,1.48.46,2.22-.05,1.09.38,1.22,1.36.99,2.51-.6,5.01-1.33,7.56-1.69,3.7-.52,7.45-.78,11.18-1.12.65-.06,1.03-.11,1.1-.89.48-5.2,1.05-10.39,1.56-15.58.62-6.29,1.2-12.59,1.81-18.88,1.62-16.69,2.75-33.43,5.21-50.05.96-6.43,1.52-12.92,2.2-19.39.57-5.44,2.63-10.41,5.16-15.25.36-.69.3-.93-.46-1.23-2.55-1.01-4.38-2.74-5.81-4.98-2.26-3.55-3.19-7.49-4.19-11.43-2.35-9.25-3.73-18.65-4.88-28.09-.03-.22-.02-.44-.08-.65-.07-.22-.2-.43-.31-.65-.18.13-.39.23-.54.38-2.47,2.42-5,4.79-7.39,7.28-5.88,6.15-11.7,12.37-17.54,18.56-3.89,4.12-8.18,7.8-13.43,10.31-4.38,2.08-9.05,2.87-13.86,1.68-1.8-.44-3.55-1.3-5.11-2.29-7.73-4.88-15.25-10.04-22.05-16.04-4.87-4.28-9.46-8.84-14.28-13.17-2.6-2.34-5.45-4.43-8.14-6.69-2.31-1.93-4.48-4.01-6.82-5.9-3.21-2.59-6.51-5.07-9.8-7.56-.5-.38-1.11-.69-1.72-.91-5.8-2.12-10.14-5.91-13.8-10.54-1.01-1.28-2.2-2.45-3.37-3.61-2.4-2.38-3.96-5.11-4.2-8.45-.03-.41-.28-.82-.45-1.22-.96-2.23-1.92-4.45-2.88-6.67-.07-.17-.09-.36-.1-.54-.05-1.23-.08-2.46,1.24-3.2,1.21-.67,3.04-.46,4.21.52,1.15.97,2.24,2.01,3.37,3.01.18.16.44.25.66.37.03-.27.16-.57.06-.79-.82-1.93-1.55-3.9-2.55-5.75-2.2-4.09-4.14-8.26-5.28-12.72-.4-1.54-.62-3.17-.6-4.76.03-1.93,1.3-2.44,2.92-1.28,2.44,1.76,4.12,4.11,5.56,6.62,1.52,2.66,3.04,5.32,4.58,7.97.16.27.41.49.83.97-.09-1.97-.64-3.47-1.33-4.97-1.65-3.58-3.27-7.18-4.78-10.81-.43-1.03-.57-2.2-.62-3.31-.05-1.1.41-2.12,1.58-2.6,1.14-.47,2.16-.02,2.96.72.69.64,1.18.99,2.17.33.94-.63,2.44-.27,3.25.67.97,1.13,1.74,2.41,2.68,3.56.3.37.86.56,1.32.8.36.19.82.25,1.1.51,2.2,2,4.35,4.05,6.55,6.06,1.35,1.24,2.21,2.71,2.48,4.48.79,5.17,2.53,10.07,4.65,14.87,1.14,2.59,2.33,5.17,3.54,7.73.97,2.06,2.72,3.52,4.44,5,2.54,2.18,4.96,4.5,7.6,6.57,2.6,2.04,5.38,3.87,8.12,5.74,7.72,5.26,15.44,10.52,23.19,15.74,1.84,1.24,3.8,2.31,5.7,3.46.45.27.76.33,1.1-.22,4.86-7.72,11.12-14.48,16.68-21.73,5.75-7.48,11.47-14.98,17.23-22.45,5.12-6.64,11.93-11.15,19.95-14.16,5.67-2.12,11.56-3.46,17.54-4.55,2.85-.52,5.62-1.35,7.86-3.29,1.16-1.01,1.61-2.11,1.33-3.61-.82-4.42-1.51-8.86-2.33-13.28-.27-1.47-.37-1.4-1.91-1.23-3.91.45-7.81,1.22-11.77.54-.72-.12-1.44-.28-2.15-.46-2.01-.54-3.5-1.7-3.94-3.65-.61-2.63-.97-5.32-1.5-7.97-.27-1.36.06-2.85-1.06-4.07-.25-.28-.13-1.02.05-1.46.57-1.41.37-2.15-.96-2.86-2.74-1.46-3.36-3.55-1.67-6.05,1.73-2.55,3.58-5.02,5.34-7.55.2-.29.19-.72.23-1.09.1-1.07.06-2.17.27-3.22.35-1.79.85-3.56,1.24-5.34.03-.15-.18-.42-.35-.54-.9-.62-1.89-1.15-2.73-1.83-1.61-1.29-1.46-3.14.31-4.22.88-.53,1.81-.99,2.76-1.39.7-.29.96-.67,1-1.4.06-1.12.22-2.26.48-3.35.45-1.85,1.22-2.42,3.26-2.45,1.24-.02,2.48.04,3.71.13,1.5.11,1.8-.05,2.33-1.36.79-1.93,1.91-3.65,3.64-4.97h1.39c1.24.67,2.51,1.31,3.73,2.01,2.43,1.39,5.05,2.22,7.87,2.42,4.01.29,8.02.36,11.96,1.28,2.74.64,5.35,1.46,7.63,3.06,1.58,1.11,3.17,2.23,4.73,3.36,2.41,1.74,4.14,3.98,4.96,6.72.79,2.63,1.51,5.29,1.95,7.99.78,4.79.63,9.56-1.58,14.06-2.19,4.48-4.5,8.9-6.63,13.39-.63,1.34-1.06,2.83-1.2,4.29-.62,6.23.91,12.21,2.78,18.1.51,1.6,1.69,3.15,2.96,4.35,1.53,1.46,3.35,2.74,5.26,3.74,5.82,3.05,11.72,5.95,17.62,8.85,5.55,2.73,11.24,5.23,16.67,8.16,2.87,1.55,5.53,3.6,7.91,5.78,5.59,5.11,9,11.61,11.04,18.51,2.73,9.23,4.66,18.67,6.87,28.03,1.74,7.36,2.79,14.85,4.98,22.15,1.94,6.44,3.17,13.08,4.46,19.68.74,3.79,1.17,7.66,1.37,11.51.14,2.64-.34,5.31-.55,7.96-.04.55-.03,1.11-.18,1.63-1.26,4.32-2.56,8.62-3.8,12.94-.12.43-.09,1.03.14,1.39,4.9,7.4,9.9,14.75,14.76,22.17,3.77,5.76,8.17,10.91,13.89,15.15,3.87,2.87,6.96,6.57,8.27,11.26.32,1.16.55,2.34.82,3.51v2.19ZM565.26,510.48c-.08-.09-.16-.19-.25-.28-.05-.09-.11-.18-.16-.27-.02,0,0,.02.01.03.06.07.11.14.17.21.08.1.16.2.24.29.06.09.11.17.17.26,1.4,1.92,2.86,3.8,4.17,5.77,1.78,2.67,3.19,5.5,3.66,8.68.08.52.14,1.04.21,1.56.15,0,.31,0,.46,0,.04-1.23.31-2.5.09-3.69-.98-5.24-4.4-9.03-8.53-12.37-.08-.06-.17-.12-.25-.18ZM315.79,368.69s-.02.04-.03.05c.02-.01.04-.03.06-.04-.05.36-.13.71-.14,1.07-.16,6.43-2.2,12.17-6.95,16.91-.52.52-.46.75.1,1.16,1.61,1.2,3.26,2.36,4.73,3.7,4.91,4.45,9.66,9.06,14.63,13.45,7.13,6.31,15,11.75,23.12,16.87,1,.63,2.2,1.09,3.38,1.36,5.15,1.17,9.88-.08,14.36-2.48,5.33-2.85,9.6-6.85,13.67-11.09,7.15-7.45,14.32-14.87,21.66-22.14,1.88-1.86,2.7-3.54,1.98-6.05-.64-2.2-.62-4.61-2.11-6.54-1.11-1.44-2.4-2.77-3.61-4.15-.27-.31-.68-.61-.74-.96-.09-.52.08-1.07.14-1.61.55.14,1.26.13,1.63.46.84.74,1.52,1.66,2.27,2.49.58.64,1.08,1.41,1.8,1.85,1.43.87,2.11,2.11,2.42,3.59.58,2.79,1.2,5.58,1.61,8.4,1.48,10.2,2.51,20.46,4.9,30.53.98,4.13,1.69,8.31,4.12,12.02,1.82,2.77,4.17,4.87,7.67,5.18,4.96.44,9.95.6,14.93.84,1.61.08,1.62.01,1.7-1.53.32-6.13,2.93-11.06,8.29-14.72,4.28-2.92,8.9-5.15,13.88-6.73,6.83-2.16,13.8-2.18,20.88-1.25,4.74.62,9.1,1.98,12.98,4.65.11.08.26.11.62.25-.48-1.49-.89-2.8-1.33-4.11-3.31-9.92-6.59-19.85-9.96-29.76-.49-1.43-1.33-2.77-2.09-4.1-.42-.73-1.16-1.31-1.51-2.06-.19-.41.06-1.09.33-1.53.1-.16.97-.12,1.26.09.62.46,1.12,1.09,1.63,1.67.68.78,1.34,1.58,2.14,2.53.12-1.39.14-2.49.34-3.56.07-.36.6-.64.92-.96.28.39.79.76.8,1.16.07,2.22,0,4.45.02,6.67,0,.39.06.8.18,1.18,1.48,4.68,2.92,9.38,4.49,14.04,2.09,6.22,4.31,12.41,6.43,18.62.28.82.49,1.72.43,2.56-.06.71.12,1.12.64,1.58,6.08,5.4,11.25,11.47,15.14,18.46,2.64,4.75,5.18,9.56,7.79,14.32.79,1.45,1.69,2.85,2.54,4.27,2.09,3.5,4.17,7,6.26,10.5.1.17.3.29.45.43.1-.15.24-.29.29-.45.84-2.69,1.84-5.35,2.43-8.09.43-1.98.1-4.1.45-6.1.7-3.98.22-7.9-.5-11.77-1.23-6.58-2.65-13.12-4.16-19.65-.87-3.78-2.22-7.45-3.06-11.23-2.64-11.9-5.13-23.82-7.71-35.73-1.59-7.34-4.45-14.22-8.75-20.51-2.85-4.17-6.55-7.47-11.38-9.71-9.03-4.19-17.97-8.55-26.87-12.98-3.41-1.7-6.7-3.65-9.89-5.71-3.24-2.1-5.09-5.13-5.69-8.83-.24-1.51-.51-3.04-.93-4.51-.87-3.04-.18-2.24-3.32-2.29-.61,0-.83.15-.63.77.31.94.55,1.9.74,2.86.94,4.71,2.66,9.14,5.32,13.23.57.87,1.26,1.68,1.71,2.6.19.39-.11.99-.18,1.49-.43-.11-.94-.12-1.28-.34-.39-.26-.67-.7-.96-1.08-3.77-5.14-6.06-10.82-7.05-16.99-.13-.81-.07-2.01-.58-2.32-.65-.39-1.79-.03-2.72-.04-.77,0-.93.3-.73.95.39,1.34.71,2.69,1.11,4.03,1.38,4.7,2.52,9.49,4.85,13.9.35.67.13,1.27-.43,1.48-.31.12-1.13-.31-1.33-.68-.65-1.2-1.23-2.45-1.65-3.73-1.37-4.19-2.65-8.4-3.99-12.59-.34-1.07-.45-2.54-1.24-3.06-.81-.53-2.31-.09-3.51-.15-.92-.05-.84.29-.67.96,1.23,4.71,2.44,9.42,3.58,14.15.19.78,0,1.65-.09,2.47-.03.28-.34.54-.52.8-.3-.21-.74-.36-.86-.64-.41-.94-.78-1.9-1.03-2.88-1.07-4.3-2.04-8.62-3.15-12.91-.54-2.07-.64-2.02-2.87-1.97-.69.02-.86.21-.74.84.27,1.48.62,2.96.65,4.44.07,3.35,0,6.7-.12,10.06-.02.47-.56.93-.85,1.4-.08-.54-.32-1.11-.22-1.62.5-2.57.78-5.16.28-7.74-.43-2.22-1.21-4.38-1.69-6.59-.23-1.06-.93-.75-1.56-.73-.9.02-.5.67-.46,1.06.32,3.09.67,6.17,1.01,9.26.41,3.69-2.09,5.97-4.57,7.09-1.66.75-3.48,1.22-5.28,1.66-5.61,1.37-11.27,2.56-16.72,4.51-8.7,3.12-15.89,7.98-21.43,15.11-8.4,10.81-17.01,21.48-25.47,32.25-2.32,2.96-4.5,6.03-6.63,9.12-1.04,1.51-.91,1.59.65,2.58,1.23.78,2.42,1.6,2.75,3.08.08.35-.05.74-.08,1.11-.38-.05-.82-.01-1.14-.17-2.52-1.26-5.03-2.56-7.53-3.86-.54-.28-1.11-.54-1.61-.87-5.43-3.6-10.88-7.18-16.27-10.84-5.55-3.76-11.05-7.6-16.57-11.4ZM486.84,548.01c.7,0,1.15-.06,1.58.01,1.48.22,2.96.47,4.43.76.28.06.51.34.76.53-.29.12-.57.31-.88.34-1.85.18-3.7.3-5.55.5-1.73.19-3.54.28-4.91,1.43-1.59,1.33-3.06,2.79-4.6,4.18-.45.41-.37.65.06,1.05,1.21,1.12,2.28,2.39,3.55,3.45,3.51,2.93,6.05,6.53,8.21,10.38,1.68,3,3.24,6.06,4.84,9.09,1.15,2.18,2.8,3.75,5.36,4.5,2.39.7,4.68,1.69,7.05,2.49.57.19,1.28.23,1.88.12,4.73-.94,9.4-2.14,14.17-2.86,10.01-1.5,20.04-2.86,29.9-5.08,4.28-.97,8.54-2.07,12.4-4.2,2.34-1.29,3.69-3.14,4.13-5.64.39-2.2.79-4.39,1.24-6.58.76-3.63.19-7.1-1.76-10.26-2.48-4.04-5.18-7.97-7.77-11.94-.18-.27-.27-.6-.47-.86-.18-.23-.42-.54-.67-.57-1.07-.13-2.18-.06-3.23-.26-2.84-.57-5.66-1.21-8.47-1.88-1.11-.27-2.12-.24-3.14.26-2.34,1.15-4.75,2.04-6.88,3.69-4.23,3.27-9.18,3.26-14.06,1.39-7.71-2.95-15.2-11.45-14.62-22.02.26-4.77.85-9.52.15-14.32-.38-2.59-1.17-4.79-3.09-6.75-3.27-3.34-6.68-6.51-10.57-9.19-2.75-1.9-5.13-4.13-6.72-7-1.78-3.2-3.52-6.42-5.23-9.66-.37-.71-.74-.78-1.43-.44-2.6,1.3-5.24,2.51-7.8,3.88-1.37.74-2.6,1.71-3.85,2.63-.21.16-.37.73-.24.91,1.89,2.49,3.08,5.22,3.42,8.27.06.52.23.62.72.45.8-.27,1.6-.56,2.43-.75,2.37-.56,4.75-1.02,7.22-.63.71.11,1.06.41,1.1,1.14.05.93-.29,1.3-1.3,1.34-4,.19-7.84.96-11.12,3.3-3.01,2.15-5.7,4.61-7.95,7.49-5.27,6.74-11,13.12-16.95,19.33-7.53,7.86-15.13,15.65-22.09,23.98-3.68,4.41-7.91,8.4-11.77,12.68-1.42,1.57-3.08,2.2-5.16,2.18-.5,0-1.01.03-1.51.06-3.82.26-7.66.37-11.46.82-4.68.55-9.3,1.48-13.98,2.07-3.04.38-6.11,1.08-9.21.32-1.46-.36-2.8-.03-3.94.81-.97.72-1.83,1.56-2.68,2.41-.13.14-.03.77.14.84,1.75.78,1.61,2.14,1.28,3.56-.91,3.97-1.5,7.96-1.69,12.03-.18,3.88-.39,7.61,3.63,10.17.92.59,1.74,1.13,2.86,1.23,1.08.1,2.23.09,3.19.49,2.45,1.01,4.92.61,7.41.45,2.39-.15,4.79-.52,7.16-.38,5.77.34,11.49,1.57,17.32.97,2.92-.3,5.88-.36,8.76-.83,4.42-.72,8.76-1.83,13.18-2.56,5.98-.98,10.97-3.53,15.22-7.59,7.94-7.59,16.04-15.03,23.45-23.09,5.42-5.9,11.36-11.28,17.92-16.03,1.04-.75,2.38-1.45,3.63-1.55,2.87-.22,5.78-.09,8.67-.03.97.02,1.56.48,1.45,1.55-.1,1.09-.95.91-1.63.91-1.86,0-3.72-.07-5.57-.1-2.34-.05-4.23.83-5.99,2.64ZM296.76,568.93c-1.91-1.16-3.25-2.37-4.01-4.1-.5-1.15-.39-2.93.3-3.29.83-.43,1.71-.85,2.63-1.07,1.95-.47,3.94-.75,5.89-1.21,2.96-.69,5.98-.95,8.96-.65,1.84.19,3.33-.29,4.88-.96.32-.14.63-.28.94-.44,5.98-3.05,11.96-6.11,17.95-9.17.03-.02.09-.03.1-.05.17-.34.51-.72.46-1.03-.18-1.15-.51-2.28-.74-3.43-2.24-11.16-4.79-22.25-7.88-33.22-2.06-7.3-4.04-14.62-6.06-21.92-.06-.2-.13-.45-.29-.58-1.33-1.07-2.86-1.97-4.62-1.63-6.42,1.23-12.73,2.94-18.61,5.66-6.38,2.95-12.59,6.25-18.84,9.45-9.42,4.82-18.82,9.67-28.22,14.53-3.73,1.93-7.44,3.88-11.15,5.85-3.3,1.75-3.62,4.59-2.55,7.54.89,2.45,1.94,4.85,3.05,7.22,2.11,4.54,4.52,8.98,6.42,13.59,2.28,5.54,4.11,11.24,6.23,16.83,1.34,3.54,2.76,7.06,4.36,10.49,1.06,2.29,2.43,4.47,3.81,6.61.91,1.4,2.76,1.46,4.03.43.68-.54,1.5-.95,2.31-1.31.76-.34,1.63-.48,2.4-.82,5.91-2.62,11.85-5.2,17.71-7.94,3.59-1.67,7.05-3.59,10.57-5.4ZM454.79,475.26c-.01-.11-.03-.22-.04-.32-.97,0-1.93.01-2.9,0-1.95-.03-3.49-.8-4.34-2.45-.74-1.43-1.39-2.93-1.85-4.46-.75-2.49-1.32-5.03-1.93-7.56-.18-.76-.56-1.16-1.42-1.33-1.58-.32-2.02-1.29-1.33-2.69.16-.33.38-.64.57-.96.58-.98.41-1.8-.52-2.48-.79-.59-1.6-1.15-2.36-1.77-1.73-1.43-1.99-3.02-.77-4.86,1.33-2.01,2.65-4.03,4.07-5.99.64-.89.9-1.78.9-2.85,0-.96-.29-1.19-1.31-1.23-4.98-.18-9.96-.47-14.95-.68-.34-.01-.88.26-1.01.53-1.93,3.86-3.77,7.77-4.42,12.03-.91,6.03-1.7,12.09-2.52,18.13-.8,5.9-1.68,11.79-2.35,17.7-.78,6.97-1.42,13.96-2.03,20.94-.56,6.44-.97,12.89-1.5,19.32-.38,4.66-.77,9.32-1.31,13.96-.62,5.29-1.57,10.56-1.43,15.91,0,.39.19.78.29,1.17.51-.13,1.04-.21,1.52-.42.3-.13.52-.43.75-.68,5.18-5.62,10.29-11.29,15.53-16.87,5.93-6.31,11.93-12.57,17.97-18.79,5.84-6.01,11.5-12.16,16.33-18.93,2.4-3.37,5.26-6.3,8.61-8.83.44-.33.85-1.03.82-1.53-.16-3.04-1.41-5.65-3.82-7.7-1.08-.92-1.26-2.05-.57-3.22.17-.29.17-.81,0-1.1-.49-.83-1.18-1.55-1.64-2.39-.51-.94-1.12-1.12-2.23-.91-2.91.53-5.86.89-8.8,1.32ZM446.2,306.39s0-.07,0-.11c4.06,0,8.13.03,12.19-.02,1.51-.02,1.48-.11,1.41-1.6-.04-.86-.27-1.35-1.35-1.29-.48.03-1.11-.22-1.45-.55-1.68-1.65-3.28-3.37-4.92-5.06-.19-.2-.45-.52-.64-.5-2.38.31-3.77-1.24-5.31-2.47-.97-.78-1.4-1.87-1.29-3.05.08-.82-.24-1.04-1-1.23-1.61-.4-2.94-1.24-3.45-2.8-.16-.51,0-1.46.37-1.7.64-.41,1.21.09,1.6.78.91,1.61,2.9,2.32,4.66,1.56.92-.4,1.77-1.04,2.51-1.71,1.97-1.79,2.89-4.21,4.04-6.47.17-.34.23-.8.16-1.18-.32-1.68-.63-3.37-1.09-5.03-.28-1-.92-1.92-2.16-2.02-2.08-.16-4.04.18-5.4,1.89-1.41,1.77-2.8,3.56-4.15,5.37-.67.91-1.62.57-2.43.5-.33-.03-.75-.63-.86-1.04-.87-3.11-1.06-6.27-.34-9.43.34-1.48-.23-2.61-1.31-3.63-.23-.22-.42-.66-.35-.94.19-.73,0-.92-.8-.92-2.15,0-2.88-1.03-2.03-2.91.56-1.23,1.3-2.4,2.01-3.57.59-.97.61-1.03-.61-1.12-1.61-.12-3.24-.1-4.85-.26-1.63-.16-2.19-.87-2.06-2.34.12-1.31.11-1.33-1.26-.98-5.13,1.31-8.43,4.66-10.71,8.94-1.36,2.56-2.56,5.26-1.72,8.31.14.51-.15,1.23-.48,1.72-1.91,2.83-3.87,5.63-5.84,8.42-.46.65-.39,1.14.34,1.54.3.17.55.45.87.55,2.25.69,3.06,2.23,3.03,4.33,0,.32.2.88.41.93,1.9.44,3.44,1.99,5.62,1.59.28-.05.86.22.89.4.05.33-.14.75-.36,1.04-.16.2-.54.35-.82.35-1.49.01-2.97-.01-4.46-.06-.38-.01-.93-.39-.79.4.46,2.7.91,5.4,1.43,8.09.23,1.21,1.09,2.1,2.29,2.42,1.58.42,3.26.89,4.87.79,3.35-.2,6.67-.73,10-1.17,1.14-.15,1.89.15,2.2,1.24.29,1.02.66,2.03.87,3.06.15.73.49.92,1.25.92,3.76-.03,7.51-.02,11.27-.02ZM285.69,322.48c-.09.06-.19.13-.28.19.77,1.32,1.39,2.76,2.35,3.95,1.63,2.03,2.85,4.13,2.94,6.74.03.82.35,1.65.61,2.45.57,1.73,1.24,3.43,1.77,5.18.13.43.02,1.26-.26,1.41-.58.3-1.29.1-1.63-.6-.07-.13-.15-.26-.19-.4-.88-3.02-1.74-6.05-2.64-9.06-.23-.76-.48-1.53-.89-2.21-1.09-1.81-2.31-3.54-3.4-5.34-1.48-2.44-2.86-4.93-4.34-7.37-.44-.72-1.04-1.36-1.63-1.98-.15-.16-.66-.24-.78-.13-.2.18-.37.61-.27.81,1.59,3.21,3.11,6.45,4.89,9.56,1.04,1.81,1.88,3.64,2.47,5.61.99,3.32,1.28,6.86,3.52,9.78.11.14.2.35.17.51-.09.46-.25.91-.38,1.36-.54-.18-1.35-.21-1.57-.56-.7-1.12-1.34-2.31-1.71-3.56-.76-2.57-1.26-5.2-1.99-7.77-.31-1.1-.89-2.15-1.44-3.18-.81-1.49-1.78-2.91-2.55-4.42-.87-1.71-1.53-3.52-2.43-5.21-.68-1.29-1.56-2.51-2.45-3.68-.23-.31-1.01-.59-1.27-.45-.37.2-.65.8-.68,1.24-.04.6.09,1.26.34,1.81,1.52,3.43,3.13,6.83,4.63,10.26.57,1.3,1.04,2.64,1.38,4.01.87,3.46.86,7.11,2.77,10.33.26.43.4.96.45,1.46.03.31-.2.64-.32.96-.3-.11-.67-.16-.88-.35-.35-.33-.65-.73-.88-1.14-1.68-2.94-3.18-5.97-5.19-8.77-1.78-2.49-2.87-5.41-4.41-8.06-.96-1.65-2.17-3.18-3.33-4.72-.23-.31-.75-.43-1.14-.63-.02.38-.13.77-.06,1.14.87,4.87,2.82,9.37,5.07,13.79,1.11,2.19,2.17,4.44,2.91,6.76,1.16,3.65,1.55,7.53,3.77,10.86.08.12-.15.62-.27.63-.54.06-1.24.2-1.61-.05-2-1.34-3.83-2.84-4.86-5.04-.75-1.6-1.49-3.22-2.44-4.71-.46-.73-1.31-1.35-2.12-1.77-.94-.49-1.55,0-1.32.99.17.74.53,1.44.84,2.15,1.13,2.51,2.62,4.92,2.86,7.7.17,1.94,1.09,3.48,2.35,4.88,1.87,2.08,3.76,4.15,5.73,6.14,2.69,2.72,5.67,5.08,9.5,6.29,2.08.66,3.98,1.58,5.63,2.97,2.48,2.08,5.02,4.1,7.48,6.21,1.71,1.47,3.24,3.13,5,4.53,2.53,2.01,2.9,2,4.85-.64,3.21-4.35,4.48-9.25,3.97-14.52-.1-1.06-.21-2.35-.87-3.1-1.44-1.64-3.11-3.16-4.91-4.45-2.89-2.08-5.52-4.35-7.31-7.38-.4-.69-.71-1.44-.93-2.2-.82-2.81-1.36-5.71-2.43-8.42-1.54-3.87-3.13-7.68-3.66-11.83-.16-1.22-.7-2.47-1.37-3.54-.69-1.12-1.71-2.07-2.65-3.04-.8-.82-1.68-1.56-2.53-2.34ZM489.34,444.45c.08-3.85-2.25-5.66-5.45-4.89-3.49.84-6.38,2.56-8.46,5.4-.22.3-.56.62-.91.73-.31.09-1.02-.05-1.04-.17-.1-.58-.18-1.24.01-1.78.22-.64.72-1.18,1.1-1.77-.69-.3-1.43-.52-2.05-.91-4.52-2.9-8.9-5.96-12.73-9.67-3.06-2.96-5.53-6.3-7.04-10.2-.33-.86-.54-.73-1.09-.27-2.62,2.18-4.73,4.72-5.37,8-.6,3.07-.8,6.21-1.22,9.32-.14.99-.21,2.07-.7,2.92-1.2,2.08-2.61,4.05-3.95,6.05-.96,1.43-1.07,1.56.42,2.49,2.03,1.26,3.24,2.91,3.71,5.13.08.37.52.8.91.97,2.22,1.03,4.44,2.1,7.04,1.89.23-.02.68.26.68.4,0,.26-.19.66-.42.76-1.79.79-3.65,1.46-5.66,1.36-.82-.04-.8.17-.61.75.66,2.14,1.24,4.29,1.92,6.42.29.9.73,1.76,1.15,2.62.84,1.73,2.31,2.52,4.29,2.33,3.72-.36,7.44-.73,11.15-1.2,1.37-.17,2.31.15,3.03,1.26.56.87,1.28,1.66,1.83,2.53.48.76.83.8,1.69.33,3.18-1.72,6.41-3.37,9.7-4.89.94-.44.99-.72.54-1.49-1.2-2.08-2.38-4.18-3.46-6.32-.43-.86-.77-1.65-1.79-2.09-.81-.35-1.03-1.2-.52-1.86.49-.62,1.22-.64,2.05-.17.62.35,1.66.61,2.24.36,1.44-.64,3.09-1.34,3.98-2.49,2.91-3.73,4.58-7.99,5.03-11.87ZM296.61,582.22c.09.05.17.1.26.15,3.27-2.25,6.7-4.32,9.38-7.27,1.43-1.57,3.06-2.62,5.35-1.46.1.05.23.05.34.05,5.38.23,10.71.14,15.45-2.78,1.47-.9,2.74-.66,4.02.3.46.35.68.63.3,1.17-.36.52-.81.58-1.27.24-.89-.67-1.66-.42-2.53.08-2.19,1.26-4.49,2.4-7.08,2.58-3.08.22-6.17.16-9.26.33-1.19.07-2.6.15-3.5.76-3.09,2.12-6.03,4.44-8.97,6.76-.86.68-1.56,1.57-2.21,2.44-.57.76-.03,1.45.46,2.08.5.64,1.05.24,1.54,0,2.18-1.1,4.34-2.23,6.1-3.94.83-.81,1.87-1.42,2.74-2.2,1.72-1.54,3.78-2.01,6.07-1.97,1.93.03,3.9.15,5.79-.14,2.54-.39,5.02-1.12,7.5-1.75,1.2-.31,2.36-.54,3.42.25.26.19.52.81.43.89-.3.27-.74.48-1.15.53-.97.12-2.12-.16-2.9.24-4.48,2.31-9.28,2.63-14.21,2.35-1.18-.07-2.23.14-3.14.87-3.81,3.04-7.62,6.07-11.41,9.12-.32.25-.48.68-.71,1.03.45.1.9.3,1.35.29,2.19-.06,3.93-1.27,5.75-2.19,1.76-.9,3.32-2.18,5.15-2.92,1.89-.76,3.96-1.38,6-1.51,3.81-.25,7.65-.19,11.48-.11,1.51.03,3.06.35,4.5.78,4.09,1.21,8.11,2.59,12.19,3.83,2.53.77,5.13,1.01,7.79.49,3.99-.78,7.6-2.43,11.14-4.26.27-.14.43-.65.44-1,.11-5.29-.02-10.6,1.29-15.8.15-.61-.08-.84-.74-.91-3.73-.35-7.46-.82-11.2-1.1-7.56-.57-15.13-1-22.69-1.58-2.29-.18-4.36.12-6.32,1.29-2.04,1.21-4.31,1.77-6.72,1.85-2.67.08-5.34.13-8,.27-.74.04-1.66.12-2.16.54-1.42,1.17-2.72,2.48-3.97,3.82-1.89,2.04-3.71,4.15-5.52,6.25-.29.34-.39.83-.58,1.24ZM323.58,563.96c.02.14.04.29.05.43,1.67.07,3.33.18,5,.18,1.74,0,3.48-.23,5.21-.12,7.37.45,14.73.99,22.09,1.48.33.02.73-.11,1-.3.64-.46,1.18-1.03,1.82-1.49,2.75-1.96,5.51-3.88,8.27-5.83.18-.12.3-.31.45-.47-.15-.07-.3-.2-.47-.22-3.57-.39-7.13-.83-10.71-1.14-5.2-.45-10.4-.81-15.61-1.18-.32-.02-.7.13-.97.31-.55.37-.99.91-1.58,1.2-3.71,1.82-7.44,3.57-11.16,5.37-1.15.56-2.27,1.18-3.41,1.78ZM513.09,508.56c-.11.26-.18.35-.19.44-.15,3.24-.21,6.49-.44,9.73-.38,5.46,1.35,10.21,5.07,14.36,2.91,3.24,6.28,5.84,10.77,6.86,1.85.42,3.8.19,4.89-.59-.36-.07-.65-.14-.94-.18-2.92-.35-5.51-1.42-7.69-3.29-3.12-2.67-5.13-5.97-5.72-9.89-.83-5.54-2.29-10.87-4.92-15.9-.25-.47-.51-.94-.83-1.53ZM322.77,566.68c-.01-.11-.02-.22-.03-.32-.24-.08-.49-.16-.73-.25-3.68-1.32-7.41-2.53-11.01-4.01-1.64-.67-3.18-1.06-4.91-.74-.65.12-1.3.22-1.95.3-2.35.31-4.66,1.2-7.09.42-.14-.04-.31-.01-.46.01-.78.14-1.11.45-.58,1.19,1.09,1.52,2.53,2.49,4.52,2.45,1.35-.03,2.7-.18,4.04-.35,2.24-.28,4.59-.65,6.41.92,2.6,2.24,5.56,1.88,8.56,1.42,1.11-.17,2.17-.69,3.25-1.05ZM307.31,591.82c.42.09.71.2,1,.21,6.14.31,12.28.59,18.42.91.79.04,1.57.27,2.36.36.24.03.54-.09.75-.22,1.22-.75,2.43-1.53,3.84-2.42-2.07-.59-4.02-1.5-6.03-1.65-4.11-.31-8.25-.18-12.38-.3-3.11-.09-5.49,1.38-7.96,3.1ZM280.06,590.94c.01.09.02.17.03.26.45.06.9.18,1.35.18,4.44,0,8.89-.01,13.33-.02.19,0,.44.06.57-.03.59-.38,1.15-.81,1.72-1.21-.28-.31-.6-.59-.82-.93-.56-.88-1.45-1.76-1.52-2.7-.08-1.01.23-1.94-.57-2.92-.41-.5-.42-.66-.99-.3-1.64,1.03-3.31,2.04-4.99,3.01-2.69,1.57-5.41,3.1-8.11,4.65ZM275.97,607.63c.01.06.03.12.04.18,2.83-.35,5.65-.68,8.47-1.07,1.1-.15,1.69-.9,1.69-1.92,0-.93-.54-1.6-1.51-1.84-.4-.1-.84-.06-1.27-.04-3.55.15-7.1.31-10.64.47-.42.02-.85.07-1.26.15-1.39.25-2.2.95-2.21,1.88,0,.95.91,1.78,2.29,1.93,1.46.15,2.93.19,4.39.28ZM303.85,604.43c-.03,1.25.99,2.46,2.11,2.5,1.06.03,2.75-1.7,2.78-2.85.03-1.35-.96-2.41-2.28-2.43-1.52-.01-2.57,1.1-2.61,2.78ZM293.21,602.46c-1.04-.02-1.86.71-1.9,1.67-.04,1.05.95,2.15,1.99,2.18,1.04.04,2.12-.84,2.16-1.75.04-.97-1.16-2.09-2.26-2.1Z"/>
    <path class="cls-1" d="M421.22,261.41c2.33.09,4.31.9,6.09,2.23.8.59.78,1.4.63,2.19-.04.2-.53.5-.76.46-.81-.15-1.67-.3-2.37-.67-1.43-.75-2.81-1.58-4.55-1.25-.45.08-.87.34-1.31.36-.73.02-1.76.18-2.14-.2-.65-.64-.04-2.16.92-2.45,1.13-.34,2.33-.46,3.5-.67Z"/>
    <path class="cls-1" d="M443.89,284.15c-1.83,0-2.77-1.2-2.09-2.74.39-.88.98-1.81,1.75-2.4,1.54-1.2,3.24-2.23,4.94-3.21.38-.22,1.43-.13,1.55.1.34.67-.42.83-.93,1.09-.92.47-1.8.99-2.69,1.5-.62.35-.74.7-.21,1.29.79.88.96,1.91.37,2.96-.59,1.06-1.66,1.35-2.7,1.43ZM443.54,282.51c1.16.02,2.13-.63,2.04-1.34-.05-.35-.54-.64-.84-.96-.55.6-1.12,1.19-1.64,1.82-.03.04.35.39.43.48Z"/>
    <path class="cls-1" d="M420.19,268.02c1.31.25,2.34.57,2.94,1.62.12.21.15.46.23.69-.25.01-.5.04-.74.03-.15,0-.3-.07-.44-.12-.8-.3-1.33-.37-1.33.76,0,.4-.61.97-1.07,1.15-.66.25-1.07-.17-1.06-.88,0-.43.06-.76-.67-.86-.95-.13-.58-.94-.2-1.22.69-.51,1.56-.8,2.35-1.18Z"/>
    <path class="cls-1" d="M411.02,281.12c.81.53,1.64,1.02,2.37,1.6.16.13.02.59.02.9-.29-.01-.61.05-.86-.06-.73-.32-1.46-.66-2.12-1.08-.22-.14-.43-.57-.36-.79.06-.21.49-.32.95-.58Z"/>
    <path class="cls-1" d="M482.11,451.41c-.02,1.64-.73,2.61-2.02,2.98-1.32.38-2.61-.06-3.34-1.31-.48-.82-.83-1.73-1.05-2.64-.25-1.04,0-2.12.95-2.78,1.82-1.28,3.73-2.46,5.63-3.64.27-.17.71-.09,1.07-.13-.11.36-.1.83-.34,1.06-.81.77-1.69,1.49-2.59,2.17-.48.36-.55.53-.02.95,1.17.91,1.63,2.18,1.72,3.35ZM478.41,449.03c-.37.39-1.03.75-1.06,1.16-.1,1.18,1.16,2.83,1.92,2.61.49-.14,1.07-.74,1.17-1.21.2-.97-.97-2.34-2.02-2.56Z"/>
    <path class="cls-1" d="M454.56,432.46c-1.47.51-2.94,1.01-4.39,1.53-.25.09-.45.4-.67.4-.76.02-1.62.13-2.25-.16-.49-.23-.08-1.92.46-2.38,2.08-1.79,6.81-2.26,9.32-.97.7.36.99.91.7,1.52-.13.28-.79.44-1.22.47-.61.04-1.23-.1-1.84-.16-.03-.09-.07-.17-.1-.26Z"/>
    <path class="cls-1" d="M452.57,435.6c.86.38,1.77.68,2.54,1.17.3.19.29.81.42,1.23-.42.03-.86.15-1.25.06-.63-.13-1.22-.49-1.85-.57-.68-.08-1.11.16-.77.98.25.6.4,1.25.44,1.89.02.31-.3.86-.54.89-.37.06-.92-.12-1.19-.38-.56-.53-.49-1.69-1.77-1.45-.04-.4-.23-.85-.1-1.2.46-1.25,2.51-2.46,4.07-2.62Z"/>
    <path class="cls-1" d="M445.04,450.77c-1.07-.27-2.17.1-2.17-1.2,0-.85.61-.89,1.27-.88,1.23.02,2.06.55,1.85,1.3-.1.36-.71.6-.95.78Z"/>
  </g>
  <path class="cls-1" d="M424.17,181.84l-133.42,54.64c.16-.96.33-1.91.51-2.87.83-4.39,3.62-7.67,6.96-10.61,3.59-3.17,7.71-5.61,11.92-7.95,12.58-6.98,25.89-12.48,39.47-17.46,10.31-3.77,20.56-7.72,30.75-11.79,8.51-3.41,16.87-7.14,25.33-10.66,1.65-.69,3.43-1.08,5.15-1.61h6.04c.14.06.27.16.42.18,3.59.47,5.46,2.6,6.32,5.75.22.78.4,1.57.55,2.37Z"/>
  <path class="cls-3" d="M412.59,181.83c-.57-.19-1.77.47-1.84-.74-.14-2.44-.35-3.16,1.47-3.58.95-.22,1.98-.15,2.98-.15.22,0,.5.21.64.4,1.14,1.6-.08,3.95-2.1,4.07-.35.02-.69,0-1.15,0Z"/>
  <path class="cls-3" d="M495.93,211.15c-.57-.19-1.77.47-1.84-.74-.14-2.44-.35-3.16,1.47-3.58.95-.22,1.98-.15,2.98-.15.22,0,.5.21.64.4,1.14,1.6-.08,3.95-2.1,4.07-.35.02-.69,0-1.15,0Z"/>
  <path class="cls-3" d="M307.49,276.41c-.57-.19-1.77.47-1.84-.74-.14-2.44-.35-3.16,1.47-3.58.95-.22,1.98-.15,2.98-.15.22,0,.5.21.64.4,1.14,1.6-.08,3.95-2.1,4.07-.35.02-.69,0-1.15,0Z"/>
</svg>