<?xml version="1.0" encoding="UTF-8"?>
<svg id="_Layer_" data-name="&amp;lt;Layer&amp;gt;" xmlns="http://www.w3.org/2000/svg" viewBox="0 0 794.88 794.88">
  <defs>
    <style>
      .cls-1 {
        fill: #000;
      }

      .cls-1, .cls-2, .cls-3 {
        stroke-width: 0px;
      }

      .cls-2 {
        fill: #fff;
      }

      .cls-3 {
        fill: #fff;
      }
    </style>
  </defs>
  <g>
    <path class="cls-2" d="M360.33,225.81v3.39c-.72.83-1.92.95-2.76.33-.3-.22-.73-.37-1.1-.36-2.31.05-4.47-.4-6.48-1.61-1.38-.83-2.9-1.22-4.54-1.14-1.34.07-2.51-.38-3.44-1.4-1.07-1.18-2.43-1.85-3.94-2.31-2.01-.61-3.93-1.39-6.12-1.41-.8,0-1.91-1-2.3-1.82-1-2.06-4.2-3.27-6.09-2.01-.21.14-.36.74-.24.98,1.55,3.13,3.17,6.23,4.73,9.36,2.39,4.81,5.46,9.28,7.42,14.32.47,1.21,1.21,2.33,1.95,3.41,1.57,2.31,2.37,4.77,1.83,7.58-.51,2.66-2.17,4.03-4.81,3.54-1.43-.26-2.94-.82-4.12-1.65-1.93-1.36-3.59-3.1-5.44-4.58-1.02-.82-2.12-1.58-3.3-2.12-1.42-.65-2.31.14-2,1.66.45,2.21,1.77,3.96,3.17,5.65.11.13.31.24.48.26,2.65.23,4.2,2.13,5.83,3.88.79.85,1.35,1.91,2.13,2.77,1.05,1.17,2.23,2.22,3.32,3.35.54.56.96,1.25,1.52,1.78,2.46,2.32,4.95,4.62,7.46,6.9.37.33.9.58,1.39.68,1.29.27,1.61.57,1.31,1.79-.16.65-.2,1.04.31,1.63.81.93.11,2.63-1.12,2.91-3.71.83-7.47,1.45-11.13,2.45-6.42,1.76-12.77,3.79-19.18,5.6-8.6,2.44-17.33,4.25-26.26,4.9-1.67.12-3.38-.1-5.07-.24-2.27-.19-4.06-1.29-5.07-3.32-1.22-2.45-2.37-4.96-3.33-7.53-3.17-8.48-5.5-17.21-7.84-25.94-2.63-9.78-5.61-19.46-8.32-29.23-1.42-5.12-2.58-10.31-2.66-15.66,0-.14,0-.27,0-.4,24.48-2.85,76.84-8.37,99.55-10.75.25.74.46,1.55.64,2.43.94,4.76,1.66,9.56,2.44,14.34.42,2.52.77,5.04,1.16,7.56Z"/>
    <path class="cls-2" d="M294.78,378.29c-2.69,1.97-5.42,3.97-8.36,5.52-8.28,4.37-17.1,7.51-25.91,10.61-12.54,4.41-25.18,8.54-37.71,12.95-6.82,2.4-13.51,5.15-20.28,7.69-5.51,2.07-7.69,1.69-11.81-3.51-4.13-5.21-7.15-11.09-9.03-17.47-4.56-15.45-9.61-30.77-13.36-46.46-.38-1.59-.69-3.2-.99-4.82l101.73-36.83s.04.07.05.11c6.79,13.5,12.95,27.28,18.63,41.29,2.11,5.2,4.49,10.28,6.6,15.48,1.1,2.71,1.98,5.53,2.74,8.36.74,2.77.08,5.33-2.3,7.08Z"/>
    <path class="cls-3" d="M197.08,392.2c-1.93-.13-2.89-1.13-3.44-2.64-1.29-3.58-2.55-7.16-3.82-10.75-1.33-3.76-2.59-7.55-4-11.28-.59-1.56-.62-3.08-.29-4.65.16-.76.55-1.05,1.42-1.06,1.69,0,2.53.7,3.04,2.31,1.02,3.19,2.26,6.3,3.34,9.46.28.83.57.98,1.34.56,1.81-1,3.65-1.96,5.5-2.88.77-.38,1.59-.76,2.42-.87.85-.11.76-.4.55-1.01-1.09-3.2-2.28-6.39-3.17-9.65-.36-1.31-.14-2.81-.06-4.22.04-.78.61-1.18,1.44-1.05.48.07.97.17,1.46.18.78,0,1.07.43,1.33,1.11,2.67,7.15,5.37,14.29,8.07,21.43.11.28.23.57.4.81,1.26,1.79,1.11,3.75.64,5.72-.07.3-.51.71-.8.72-2.44.12-3.28-.41-4.29-2.72-.94-2.14-1.83-4.29-2.72-6.45-.23-.55-.34-.72-1.01-.35-2.66,1.48-5.37,2.88-8.1,4.23-.77.38-.97.73-.64,1.54.71,1.78,1.28,3.62,2.02,5.38.73,1.74.83,3.5.39,5.29-.08.34-.66.56-1.01.84Z"/>
    <path class="cls-3" d="M219.03,347.96c.98.1,1.72.09,2.39.28.34.09.6.53.84.86.08.11-.06.36-.04.55.24,2.72-1.52,3.68-3.74,4.16-1.06.23-1.22.69-.76,1.63.46.94.8,1.95,1.18,2.93.33.85.75,1.59.17,2.63-.54.98.35,1.69,1.12,2.31.49.4,1,.9,1.24,1.47,1.11,2.67,2.09,5.4,3.2,8.07.77,1.86.25,3.7.09,5.55-.02.24-.49.6-.78.64-1.68.23-3.34-.65-3.94-2.19-2.56-6.67-5.09-13.36-7.57-20.07-.3-.81-.6-1.01-1.34-.71-1.5.61-3.03.33-4.56.15-.66-.08-.93-.42-.85-1.06.1-.78.06-1.62.33-2.34.19-.51.71-1.1,1.21-1.27,3.57-1.18,7.17-2.26,10.76-3.37.43-.13.87-.19,1.05-.23Z"/>
    <path class="cls-3" d="M230.73,349.93c.16.76.24,1.55.49,2.28.21.62.08.84-.55,1.02-.93.27-1.83.63-2.71,1.03-.45.21-.67.24-.81-.29-.59-2.37-1.28-4.73-1.73-7.13-.18-.95.09-2.02.27-3.01.13-.74.63-1.13,1.47-1.09,1.5.06,2.89.34,4,1.47,1.03,1.04,2.11,2.04,3.18,3.04.49.46,1,.92,1.54,1.32,1.26.91,1.63.88,2.1-.59.79-2.46,1.37-4.98,2.02-7.49.12-.47.17-.97.32-1.43.3-.92.88-1.38,1.95-1.3,1.71.12,3.15.61,4.01,2.21,1.06,1.99,2.14,3.97,3.13,5.99.13.27-.04.95-.27,1.08-1.17.65-2.39,1.21-3.63,1.71-.17.07-.67-.32-.82-.6-.68-1.25-1.29-2.53-2.21-3.79-.47,1.67-.96,3.33-1.38,5-.2.79-.51,1.32-1.34,1.6-.92.31-1.81.75-2.66,1.23-1.15.64-2.07.43-3.1-.35-1-.76-2.18-1.29-3.28-1.91-.02.01,0-.03,0-.03Z"/>
    <path class="cls-3" d="M249.24,335.8c.03-.35.05-.5.06-.65.26-2.71.28-2.76,2.99-2.37.5.07,1.15.47,1.37.9.69,1.33,1.22,2.74,1.78,4.14.1.25.11.64-.02.85-.94,1.57-1.91,3.13-2.91,4.66-.06.09-.62.02-.66-.08-.87-2.24-1.71-4.5-2.54-6.76-.1-.27-.06-.59-.07-.7Z"/>
    <path class="cls-3" d="M230.5,364.07c-.07-.08-.17-.16-.24-.27-.06-.09-.1-.2-.13-.31-.3-1.04-.61-2.08-.91-3.12,1.16-.6,2.31-1.21,3.48-1.78.12-.06.41.12.55.26.12.12.13.34.18.52.24.85.94,2.16.63,2.47-.92.93-2.23,1.47-3.39,2.16-.03.02-.07.03-.18.07Z"/>
    <path class="cls-3" d="M237.19,377.36c-1.17-.42-2.62.15-2.87-1.49-.04-.23.21-.7.4-.75,1.05-.25,2.13-.41,3.19-.59.1-.02.29.04.29.05-.05.74-.03,1.49-.21,2.2-.07.27-.58.43-.8.59Z"/>
    <path class="cls-2" d="M350.57,528.42c-1.48,14.06-3.44,28.06-5.37,42.07-.4,2.95-1.11,5.9-1.1,8.84,0,2.92-.76,5.63-1.27,8.42-.55,2.97-2.49,4.8-5.52,5.25-1.22.18-2.45.31-3.67.46h-5.65c-1.68-.12-3.37-.25-5.06-.35-7.02-.43-13.83-2.12-20.72-3.35-10.56-1.89-21.13-3.71-31.72-5.37-9.86-1.54-19.74-2.86-29.63-4.21-8.24-1.13-16.51-2.09-24.74-3.29-7.59-1.11-15.16-2.41-22.73-3.67-3.52-.59-7.04-1.21-10.53-1.99-1.49-.33-2.93-.98-4.3-1.66-2.11-1.06-3.44-2.86-3.37-5.23.09-3.33.36-6.68.79-9.98,2.07-16.16,6.3-31.9,9.45-47.85,1.92-9.75,3.54-19.56,5.34-29.33.69-3.74,1.46-7.46,2.3-11.17.04-.18.09-.37.14-.55,25.03,4.96,94.08,17.82,135.17,25.44-.12.24-.24.48-.36.73-.5,1.03-.81,2.09-1.02,3.22-.22,1.22-.57,2.48-.68,3.72-.23,2.46.94,4.87,1.93,7.06,1.02,2.25,2.39,3.96,4.09,5.73,1.92,2,3.73,4.01,5.44,6.19,1.58,2.01,3.55,3.65,5.52,5.26,2.35,1.92,4.78,3.73,7.19,5.57.03.02.05.04.08.06Z"/>
    <path class="cls-3" d="M334.68,521.73c-3.04-.42-5.65-.77-8.26-1.14-6.74-.95-13.49-1.84-20.22-2.9-7.36-1.16-14.68-2.52-22.03-3.72-8.84-1.44-17.68-2.8-26.53-4.2-.59-.09-1.19-.23-1.79-.26-1.8-.08-2.58-1.37-3.25-2.74-.11-.22.06-.76.27-.93,1.34-1.05,2.8-1.69,4.59-1.42,7.77,1.18,15.56,2.26,23.33,3.48,13.49,2.12,26.96,4.33,40.45,6.47,4.65.74,9.31,1.35,13.96,2.02.76.11,2.63,2.26,2.59,2.99,0,.11-.04.26-.12.31-1.1.75-2.2,1.48-3.01,2.03Z"/>
  </g>
  <path class="cls-1" d="M338.71,250.79s-.03-.03-.03-.05c0-.08-.02-.17-.02-.25-.02-.88-.11-1.75-.33-2.61-.4-1.53-1.14-2.91-1.85-4.3-.8-1.56-1.65-3.11-2.47-4.67-1.26-2.4-2.48-4.83-3.77-7.22-.79-1.46-1.68-2.86-2.52-4.29-.51-.87-1.1-1.67-1.78-2.42-.6-.66-1.13-1.38-1.73-2.04-.36-.41-.63-.81-.55-1.39.03-.23-.12-.39-.35-.44-.25-.06-.5-.12-.75-.13-1.38-.05-2.75.05-4.1.37-1.99.47-3.96,1-5.95,1.42-4,.84-8.02,1.63-12.03,2.42-1.99.39-3.97.79-5.82,1.65-1.24.57-2.5,1.1-3.72,1.73-1.4.72-2.12,1.93-2.23,3.51-.07,1.16.08,2.28.4,3.39,1.3,4.55,2.81,9.03,4.5,13.44,1.58,4.12,3.22,8.23,4.87,12.33.66,1.65,1.37,3.29,2.3,4.81.69,1.13,1.65,1.96,2.94,2.29.82.21,1.67.43,2.51.44,1.73,0,3.47-.08,5.19-.23,2.5-.22,4.98-.65,7.44-1.14,2.08-.41,4.16-.87,6.24-1.28,1.34-.26,2.65-.59,3.89-1.15.08-.04.15-.08.22-.12.46-.1.92-.23,1.36-.42.2-.09.34-.27.41-.47.47-.4.52-1.34-.25-1.41-.1,0-.19-.03-.29-.06-.07-.18-.22-.32-.43-.3-.01-.24-.12-.42-.3-.59-.33-.32-.67-.63-.98-.97-.33-.36-.69-.69-1.08-.99,0-.21-.08-.41-.26-.58-.93-.91-1.89-1.82-2.81-2.76-1.06-1.24-2.06-2.56-3.17-3.76-.21-.31-.41-.62-.59-.94-.37-.64-.83-1.34-1.2-2.05.1-.32.23-.64.39-.95.39-.3.78-.56,1.2-.78,1,1.21,2.25,1.94,3.81,2.1.62.77,1.27,1.49,2.07,2.07.84.61,1.65,1.27,2.46,1.91.22.17.44.36.66.52.97.74,2.13,1.09,3.24,1.53.71.28,1.45.33,2.21.31.9-.02,1.59-.43,2.05-1.18.26-.44.53-.9.65-1.39.17-.66.25-1.36.35-2.04.02.29.04.57.07.86v-2.48c-.03.24-.07.48-.1.72Z"/>
  <path class="cls-3" d="M339.35,207.85c-.3,1.19-.5,2.41-.9,3.56-5.14,14.65-10.3,29.28-15.46,43.92-.11.31-.25.61-.32.92-1.03,4.52-4.94,4.65-8.01,2.97-4.5-2.47-8.7-5.51-12.99-8.36-1.11-.73-1.52-4.11-.76-5.23.58-.86,3.19-1.03,4.57-.19,3.39,2.08,6.8,4.14,10.1,6.36,1.46.98,1.92.78,2.51-.86,5.06-14.12,10.19-28.21,15.35-42.29.59-1.62,1.18-3.31,3.32-3.75,1.85-.38,2.23-.24,2.39,1.72.03.39,0,.78,0,1.17l.22.05Z"/>
  <g>
    <path class="cls-1" d="M251.83,370.65c-.36.06-.73.06-1.06.19-2.71,1.03-5.37,2.22-8.12,3.11-3.65,1.17-7.37,2.13-11.07,3.14-.56.15-1.2.12-1.79.04-1.44-.19-2.21-1-2.33-2.46-.05-.57-.18-.85-.8-.97-3.27-.63-4.11-2.88-1.79-5.31,1.73-1.81,3.74-3.38,5.77-4.85,2.06-1.5,4.3-2.76,6.46-4.12-.04-.1-.08-.21-.12-.31-1.97.75-3.96,1.43-5.9,2.25-2.87,1.21-5.61,2.77-8.88,2.69-1.3-.03-2.71.11-3.49-1.1-.77-1.22-.56-2.66.11-3.89.4-.73,1.04-1.37,1.69-1.92,4.26-3.6,9.24-5.59,14.62-7,4.79-1.26,9.39-3.22,14.07-4.87,1.4-.49,2.31-1.46,2.94-2.78,1.58-3.29,3.15-6.59,4.84-9.83,1.17-2.25.85-4.28-.72-6.06-1.59-1.79-2.62-3.85-3.59-5.97-.32-.71-.6-1.47-.74-2.24-.46-2.54.63-4.33,3.07-5.18,1.42-.49,2.23-.23,3.12,1,1.41,1.95,2.82,3.91,4.23,5.86.2.27.37.6.64.79,3.07,2.23,6.04,4.62,9.28,6.58,1.39.84,3.34,1.03,5.03,1.02,3.32-.02,6.02,1.35,8.43,3.32,2.27,1.86,4.85,3.04,7.53,4.02,1.16.42,2.53.21,3.79.39,1.79.25,3.56.59,5.34.88.4.07.86.24,1.21.12,2.31-.82,4.54-.05,6.79.25,6.44.86,12.89,1.21,19.36.4,5.86-.73,11.72-1.47,17.57-2.32,1.93-.28,3.8-.93,5.71-1.37.63-.15.86-.44.82-1.09-.06-.98-.13-1.98.04-2.93.13-.7.53-1.77,1.01-1.9.8-.21,1.81.08,2.64.41.53.21.89.85,1.33,1.3.12-.04.25-.08.37-.11-.14-1.12-.15-2.28-.44-3.36-1.15-4.24-3.06-8.17-5.15-12.02-.64-1.19-1.25-2.43-1.62-3.72-.28-.97-.43-2.15-.13-3.07.37-1.17.29-2.2-.02-3.3-1.5-5.37-3-10.73-4.48-16.1-.53-1.92-.98-3.87-1.44-5.81-.11-.47-.2-.97-.16-1.45.27-3.35-1.71-6.16-4.81-7.59-1.87-.87-3.6-2.22-5.13-3.63-2.88-2.65-5.63-5.41-7.76-8.78-.96-1.51-2.61-2.56-3.92-3.86-1.43-1.43-2.98-2.79-4.18-4.4-.65-.89-.9-2.24-.92-3.38-.03-1.87,1.3-2.62,2.9-1.67,2.13,1.27,4.15,2.71,6.21,4.1,1.71,1.15,3.31,2.49,5.11,3.46,1.84,1,3.6-.18,3.81-2.32.22-2.25-.11-4.43-.75-6.58-.99-3.32-2.01-6.6-4.44-9.27-.83-.91-1.25-2.22-1.84-3.34-.95-1.79-1.83-3.63-2.85-5.38-1.12-1.92-2.36-3.76-3.55-5.64-.96-1.51-1.23-3.12-.89-4.87.31-1.59,1.13-2.14,2.67-1.61.7.25,1.38.62,1.99,1.04.83.58,1.63,1.23,2.37,1.92.87.81,1.61,1.76,3.05,1.11.37-.17.97.06,1.42.22,2.32.88,4.64,1.79,6.95,2.71.35.14.74.28.98.55,1.54,1.65,3.64,1.71,5.64,2.14,1.15.25,2.22.84,3.34,1.24.45.16.93.23,1.4.33,2.39.51,4.81.91,7.18,1.54,4.01,1.07,5.66,3.25,5.82,7.39.1,2.63.27,5.27.31,7.9.06,3.59,1.4,6.83,2.67,10.09.77,1.96,1.63,3.91,2.13,5.95.51,2.07.61,4.23.9,6.35.81,6.03,2.21,11.9,4.43,17.58.49,1.26,1.11,1.83,2.34,2.11,1.79.41,3.56.94,5.31,1.48.34.11.65.47.87.79.16.23.2.57.23.86.18,2.31,1.45,4.12,2.86,5.78,1.29,1.51,2.86,2.77,4.27,4.19.66.66,1.07.62,1.7-.1,4.08-4.64,8.1-9.33,12.34-13.83,3.71-3.95,7.68-7.66,11.51-11.49.27-.27.57-.65.6-1.01.21-2.31.42-4.63.47-6.94.03-1.35.48-2.38,1.36-3.34.4-.43.7-1.05.82-1.63.32-1.57,1.02-2.92,2.16-4.01.56-.54.65-.91.2-1.61-.88-1.36-1.57-2.83-2.41-4.21-.19-.31-.64-.63-.99-.64-1.81-.04-3.61.02-5.42.03-3.54,0-7.08.06-10.62-.02-4.14-.1-6.7-1.97-7.68-6.01-.67-2.76-.99-5.64-1.13-8.48-.14-2.92.16-5.87.2-8.8,0-.49-.21-1.07-.52-1.47-1.02-1.35-2.17-2.6-3.2-3.95-1.04-1.35-.98-4.14.13-5.79.54-.8,1.26-1.5,1.94-2.19.77-.78,1.58-1.51,2.39-2.24.59-.53.94-.93,0-1.56-.46-.31-.72-1.06-.88-1.66-.72-2.71-1.09-5.5-.68-8.28,1.03-6.99,5.31-11.81,10.95-15.56,4.5-2.98,9.59-4.28,14.93-4.7,2.32-.18,4.64-.45,6.97-.45,1.41,0,2.81.46,4.23.65,5.76.74,11.48,1.79,16.81,4.13,4.54,1.99,9.07,4.14,13.25,6.78,4.69,2.97,8.05,7.4,10.43,12.4,1.6,3.36,3.95,4.97,7.57,4.49,3.35-.44,6.68-1.08,10.01-1.68,3.72-.67,7.44-1.11,11.22-.59,2.33.32,3.73,1.65,4.27,3.91.23.95.43,1.91.65,2.86.1.43.21.82.82.45,3.54-2.11,7.51-2.86,11.48-3.56,4.88-.86,9.82-.9,14.75-.69.23,0,.45.03.68.06,4.87.52,6.43,3.48,5.59,8.51-.28,1.72-1.13,3.34-1.75,5-.45,1.21-.38,1.43.89,1.69,3.04.63,6.06.6,9.03-.39,1.72-.58,3.22-1.53,4.09-3.19.49-.94.93-1.89-.32-2.77-.28-.2-.13-1.34.14-1.89.27-.55,1.9-.38,2.34.21.31.41.54.92.64,1.42.57,2.74-.26,5.06-2.28,6.96-.55.51-.5.66.2.87,3.16.94,4.14,2.32,3.96,5.61-.16,2.88-1.26,5.41-2.98,7.68-.42.55-.48.93-.15,1.58,1.96,3.78,1.71,7.72.17,11.48-1.57,3.81-4.97,5.34-8.85,5.69-2.35.21-4.74.07-7.1-.07-1.17-.07-1.91.26-2.49,1.28-1.16,2.04-1.16,1.99.21,3.84,1.9,2.57,4.02,4.93,6.73,6.63,4.46,2.81,6.19,6.8,5.52,11.94-.26,2.01-.4,4.07-.9,6.02-.73,2.85-2.29,5.12-4.97,6.68-6.16,3.58-12.28,7.22-18.88,9.94-1.05.43-.62.69-.03,1.11,5.39,3.8,10.75,7.64,16.16,11.4,10.2,7.11,20.42,14.18,30.65,21.24,1.52,1.05,3.16,1.9,4.69,2.94,7.87,5.31,16.95,7.21,26,9.13,7.91,1.69,15.87,3.18,23.8,4.78.81.16,1.6.43,2.37.74,2.68,1.08,3.23,3.81.94,5.57-3.05,2.32-6.31,4.37-9.49,6.52-5.09,3.43-10.25,6.76-15.27,10.29-6.57,4.62-11.97,10.44-16.72,16.87-4.27,5.79-8.48,11.62-12.64,17.49-1.24,1.75-2.73,3.22-4.52,4.31-.74.45-1.89.58-2.76.4-4.68-.96-9-2.98-13.29-4.96-4.81-2.22-9.51-4.69-14.26-7.06-.4-.2-.79-.42-1.36-.51.21.31.41.63.62.94,4.37,6.41,8.99,12.67,13.06,19.27,4.91,7.96,7.53,16.84,8.7,26.07.67,5.33-.47,10.4-4.18,14.56-4.78,5.38-9.65,10.67-14.46,16.03-9.96,11.11-19.9,22.23-29.83,33.36-.33.37-.53.85-.79,1.28,0,0-.07.02-.07.02l.04-.03c3.11-1.7,6.2-3.42,9.32-5.08,3.36-1.79,6.74-3.52,10.12-5.27.17-.09.36-.21.52-.19,1.59.22,2.57-.8,3.44-1.81,2.27-2.65,4.7-5.23,6.58-8.15,3.46-5.35,7.55-10.05,12.71-13.79.76-.55,1.47-1.18,2.21-1.76,1.86-1.45,3.94-1.67,5.92-.52,1.57.91,3.15,2.03,4.31,3.4,5.27,6.19,10.43,12.49,15.58,18.78,8.92,10.9,17.19,22.32,26.84,32.63,3.81,4.07,7.1,8.6,9.55,13.67.61,1.26.98,2.52.53,3.91-1.21.08-2.45.36-3.63.19-4.4-.61-8.58-2.08-12.53-4.04-4.48-2.23-9.15-3.51-14.07-4.31-4.93-.8-9.76-2.25-14.69-3.09-6.71-1.14-13.46-2.07-20.22-2.91-3.54-.44-6.85.76-10.04,2.17-.2.09-.34.77-.23,1.07,1.82,5.14,3.67,10.28,5.54,15.4.28.78.64,1.53,1.01,2.27.27.52.14.8-.37,1.06-.7.36-1.54,1.27-1.99,1.1-.8-.32-1.17.1-1.65.36-10.79,5.78-21.57,11.58-32.37,17.35-.69.37-.77.72-.51,1.43,1.47,4.02,3.29,7.85,5.77,11.35,3.83,5.39,6.11,11.5,7.89,17.78.51,1.79.06,3.88-.08,5.82-.08,1.12-1.23,1.03-1.99,1.37h-1.81c-3.02-1.13-6.14-2.08-9.05-3.46-2.29-1.08-4.48-2.51-6.46-4.11-5.01-4.05-9.87-8.27-14.79-12.43-1.3-1.09-2.62-2.15-3.88-3.28-.62-.56-1.14-.61-1.9-.24-10.87,5.41-22.2,9.76-33.52,14.09-9.18,3.51-18.68,3.83-28.24,1.68-3.76-.84-7.1-2.68-10.16-5.02-4.3-3.28-5.98-7.88-6.62-13.02-1.24-9.84.04-19.39,3.4-28.68.36-1,.24-1.46-.76-2-13.41-7.39-27.27-13.82-41.16-20.23-9.66-4.46-19.06-9.4-27.55-15.89-4.45-3.39-8.72-7.03-11.76-11.79-4.06-6.33-4.96-13.06-1.79-20.11,1.33-2.94,3.03-5.62,5.12-8.08,11.12-13.12,24.56-23.16,39.79-31.12,18.53-9.69,37.73-17.8,57.05-25.68,8.64-3.53,17.39-6.82,26.1-10.17.89-.34.95-.83.75-1.55-.68-2.46-1.41-4.85-2.58-7.17-2.04-4.07-3.65-8.35-5.53-12.5-.73-1.6-1.75-3.07-2.56-4.63-1.41-2.7-2.88-5.37-4.1-8.15-1.8-4.09-3.41-8.28-5.12-12.41-.11-.26-.41-.43-.62-.65-.13.24-.24.5-.39.73-.32.48-.55,1.12-1,1.38-3.27,1.93-6.55,3.87-9.91,5.64-4.39,2.31-9.05,3.98-13.91,4.91-7.37,1.4-13.97-.39-19.66-5.33-1.62-1.41-3.17-2.9-4.8-4.3-.31-.26-.89-.45-1.27-.35-7.63,1.9-15.43,2.63-23.23,3.32-6.04.53-12.08,1.28-18.13,1.47-6.92.21-13.86,0-20.79-.19-4.96-.14-9.75.54-14.45,2.12-1.13.38-2.34.51-3.52.73-.65.12-1.02-.13-1.28-.78-.34-.83-.99-1.55-1.23-2.39-.35-1.25-.5-2.56-.64-3.85-.15-1.38-.23-2.78-.27-4.17-.02-.74-.31-1.02-1.05-1.15-4.39-.78-8.7-.28-13.01.6-1.43.29-2.92.33-4.35.62-1.39.28-2.79.62-4.11,1.14-3.78,1.49-7.45,3.31-11.29,4.6-6.91,2.32-13.26,5.72-19.49,9.41-.91.54-1.82,1.08-2.78,1.51-1.94.86-3.41-.02-3.5-2.14-.09-2.02.62-3.82,2.05-5.21,1.15-1.13,2.46-2.1,3.76-3.05,1.61-1.18,3.27-2.28,4.91-3.42.01-.02.03-.03.04-.04-.02.02-.04.04-.07.06ZM428.45,185.18c-.03.16-.07.33-.1.49-.02-.01-.03-.03-.05-.04.01.02.02.04.03.06.05-.18.09-.36.13-.54,0,.01-.01.02-.02.03ZM468.32,224.19s0,0,.03.02l.46.15c.29.29.58.58.88.86.25,0,.5,0,.75,0,.07.12.14.25.22.37.02,0,.03.01.05.02-.03,0-.06-.02-.09-.03-.06-.12-.13-.23-.2-.34-.25,0-.51,0-.76,0-.29-.29-.59-.57-.89-.85-.15-.07-.29-.13-.45-.19ZM517.62,266.98c-.38.09-.76.18-1.14.28.04.1.08.21.12.31.35-.21.7-.41,1.04-.61,0-.01-.02-.03-.03-.04,0,.02,0,.05,0,.07ZM479.17,232.91l-.05.06.07-.06c.19,1.04,1.02,1.07,1.85,1.1-.62-.37-1.24-.74-1.87-1.1ZM437.07,240.85s0,.02.01.03c.19,1.26.84,2.19,2,2.75v.06c-.69-.98-1.35-1.92-2.01-2.85ZM493.45,227.23c1.12-.29,2.24-.57,3.35-.88.17-.05.31-.24.46-.36-.19-.06-.43-.24-.58-.18-1.08.45-2.14.94-3.22,1.42,0,0,0,0,0,0ZM388.95,484.61s.04-.02.06-.03c-.03,0-.05,0-.08,0-.33-1.32-2.1-2.55-3.37-2.2,1.19.78,2.29,1.5,3.39,2.22ZM501.55,229.56c-1.24.39-2.47.78-3.88,1.23,1.41.77,2.77.27,3.88-1.22,0,0,0,0,0,0ZM303.3,353.94c-.17,0-.33.01-.5.02.48,7.06.98,14.12,1.44,21.19.05.84.39.87,1.09.7,2.82-.67,5.62-1.6,8.48-1.84,3.96-.34,7.97-.19,11.96-.17,4.41.02,8.82.34,13.22.14,5.45-.25,10.88-.8,16.3-1.39,6.58-.73,13.15-1.56,19.7-2.51,6.28-.91,12.22-2.9,17.67-6.23.38-.23.94-.51.99-.84.26-1.59,1.51-2.28,2.6-3.11,1.86-1.41,3.86-2.66,5.63-4.16,8.18-6.95,16.3-13.97,24.44-20.97,3.89-3.34,7.87-6.57,11.61-10.07,4.01-3.76,8.8-5.35,14.09-5.87.22-.02.54.19.68.38.06.09-.14.49-.31.61-.94.62-1.89,1.24-2.89,1.76-1.7.89-3.46,1.67-5.16,2.56-2.28,1.18-4.47,2.46-5.94,4.72-.41.64-1.18,1.19-1.9,1.45-2.04.73-2.8,2.32-3.09,4.23-.26,1.78.53,3.14,2.04,4.1,1.08.69,2.16,1.37,3.21,2.1,1.23.86,2.41,1.8,3.65,2.65,2.38,1.64,4.86,3.14,7.15,4.91,3.82,2.95,7.83,5.59,12.05,7.92,2.96,1.63,5.92,3.27,8.74,5.13,1.83,1.21,3.69,2.1,5.86,2.45,6.76,1.09,13.51,2.28,20.27,3.37,4.31.69,8.62,1.34,12.96,1.84,2.69.31,5.41.25,8.11.44,2.02.15,4.04.64,6.06.62,6.19-.07,12.39.57,18.55-.66,3.46-.69,7.01-.9,10.52-1.37,2.65-.35,5.15-1.46,7.96-1.16,3.17.33,4.24,1.21,4.19,4.41,0,.34.02.69-.07,1.01-1.24,4.41-.66,8.84,0,13.23,1.16,7.78,2.41,15.56,3.63,23.33.08.5.21.99.32,1.48.35-.37.76-.7,1.05-1.11,2.95-4.19,5.72-8.51,8.84-12.56,4.34-5.63,8.6-11.34,13.93-16.15,5.14-4.65,10.95-8.36,16.68-12.2,4.79-3.21,9.6-6.37,14.4-9.57.3-.2.52-.52.78-.78-.31-.19-.61-.48-.95-.55-2.69-.56-5.38-1.09-8.07-1.61-8.61-1.67-17.26-3.15-25.81-5.06-6.26-1.4-12.3-3.59-17.69-7.23-5.18-3.5-10.37-6.99-15.5-10.56-12.92-9-25.8-18.05-38.72-27.06-.36-.25-1-.34-1.42-.21-2.05.63-4.08,1.34-6.1,2.06-3.1,1.11-6.27,1.25-9.47.65-4.26-.8-8.27-2.4-12.01-4.52-7.76-4.4-15.51-8.85-23.09-13.56-9.94-6.18-20.07-11.93-31.04-16.11-.42-.16-.79-.44-1.21-.61-.47-.19-.97-.4-1.47-.46-2.28-.28-4.37.54-6.51,1.12-2.35.64-4.42,1.75-6.11,3.49-5.36,5.55-10.95,10.92-15.98,16.76-10.3,11.96-21.6,22.91-32.87,33.91-1.06,1.03-1.23,1.95-.85,3.29.49,1.73.76,3.52,1.08,5.29.05.29-.14.61-.22.92-.33-.11-.81-.12-.96-.35-.95-1.47-2.17-2.88-2.66-4.5-.73-2.39-2.37-3.86-4.12-5.35-.55-.47-.74-.34-.78.35-.08,1.5-.18,3-.31,4.5-.11,1.28-.45,1.54-1.73,1.51-1.4-.03-2.04-1.14-2.86-1.99-.13-.14-.34-.21-.52-.31-.04.18-.11.35-.11.53,0,.68.04,1.36.05,2.03.02,1.68-.14,1.83-1.77,1.76-.33-.01-.68-.03-1,.04-5.38,1.09-10.76,2.2-16.15,3.29-10.38,2.09-20.78,2.32-31.2.24-.31-.06-.93.22-1.02.48-.67,1.91-1.53,3.83-1.76,5.81-.3,2.64-.07,5.34-.07,8.01ZM463.56,418.56c-3.13.21-5.89-.14-8.54.92-10.67,4.26-21.38,8.42-32.01,12.74-16.86,6.86-33.48,14.2-49.61,22.7-13.75,7.25-26.14,16.1-36.48,27.76-3.14,3.54-6.08,7.17-7.85,11.64-.86,2.18-1.1,4.38-.78,6.65.39,2.68,1.32,5.17,2.84,7.43,2.23,3.31,4.99,6.13,7.98,8.74,7.85,6.82,16.68,12.16,25.98,16.69,16.87,8.22,33.96,15.97,50.43,24.99,11.18,6.12,23.07,10.73,34.61,16.1.69.32,1.05.11,1.35-.48,1.74-3.37,3.8-6.62,5.17-10.14,2.73-7.01,4.09-14.4,5.06-21.84.6-4.57.65-4.68-3.15-7.28-9.8-6.7-19.84-13-30.43-18.43-7.1-3.64-14.22-7.32-20.95-11.58-6.9-4.36-13.46-9.27-20.46-13.51-1.99-1.2-3.83-2.68-5.68-4.1-1.24-.96-2.05-2.18-1.91-3.88.03-.35-.18-.91-.46-1.06-1.83-.99-3.49-2.43-5.77-2.3-.33.02-.95-.16-.97-.31-.09-.73-.2-1.54.04-2.19.15-.4.92-.78,1.42-.79.92-.02,1.92.07,2.75.43,1.9.82,3.71,1.83,5.55,2.77.34.17.66.54.98.53.6-.03,1.19-.28,1.79-.43-.24-.31-.45-.66-.72-.93-.96-.96-1.95-1.88-2.9-2.86-.28-.29-.53-.66-.63-1.04-.08-.32-.05-.85.16-1.03.21-.19.73-.17,1.05-.07.34.11.62.41.9.66,1.44,1.33,2.9,2.63,4.29,4.02.64.64,1.2.64,2.01.36,5.44-1.88,9.8-5.2,13.3-9.74,2.24-2.9,5.08-5.03,8.51-6.32,5.01-1.88,10.04-3.69,15.04-5.57,14.59-5.5,29.17-11.03,43.76-16.52.75-.28,1.04-.47.5-1.3-1.03-1.58-1.4-3.4-1.46-5.27-.17-5.15,1.16-9.92,3.72-14.36.54-.93.29-1.1-.61-1.16-2.74-.2-5.47-.44-7.81-.63ZM556.24,452.02c-.04-.53-.03-1.06-.12-1.57-1.01-5.89-2.87-11.54-5.12-17.06-.12-.29-.46-.62-.75-.69-1.28-.29-2.58-.5-3.88-.71-6.31-1.03-12.63-2.03-18.94-3.09-7.98-1.34-15.95-2.75-23.93-4.08-.44-.07-1.17.18-1.4.53-3.92,5.76-9.4,9.5-15.75,12.03-6.5,2.59-13.03,5.14-19.59,7.58-18.07,6.72-36.14,13.43-54.26,20.02-3.72,1.35-6.93,3.26-9.48,6.27-3.6,4.23-7.84,7.59-13.01,9.69-.78.32-.67.6-.13,1.06,2.25,1.94,4.56,3.82,6.71,5.87,2.13,2.03,4.71,2.96,7.49,3.39,3.7.57,7.15,1.74,10.35,3.7,1.32.81,2.72,1.48,3.99,2.35,1.28.89,2.48.97,4,.55,5.84-1.6,11.81-2.78,17.59-4.57,14.1-4.35,28.13-8.93,42.18-13.45,6.41-2.06,12.86-4.04,19.2-6.33,5.41-1.96,10.67-4.35,16.03-6.46,1.09-.43,2.34-.59,3.52-.65.81-.04,1.64.36,2.47.46,2.88.35,5.76.62,8.63,1.01.75.1,1.94.21,1.82,1.26-.11.98-1.27.79-1.98.77-2.71-.09-5.43-.14-8.12-.5-2.26-.3-4.2,0-6.33.96-10.01,4.48-20.2,8.5-30.73,11.62-.55.16-1.24.39-1.53.82-1.23,1.8-2.36,3.67-3.48,5.54-2.05,3.42-3.94,6.95-6.12,10.28-5.62,8.57-11.35,17.06-17.06,25.56-.47.7-.51,1.12.24,1.64,2.23,1.53,4.4,3.16,6.65,4.68,1.3.88,2.51,1.81,3.16,3.29.27.62.52.59.95.14,3.93-4.07,8.75-6.73,13.96-8.76,1.79-.7,3.56-1.45,5.38-2.07,1.29-.44,2.72-.77,3.82.36.56.58.9.43,1.42.14,1.91-1.06,3.85-2.08,5.74-3.17.64-.37,1.25-.85,1.73-1.41,3.32-3.85,6.51-7.83,9.92-11.59,10.02-11.05,20.14-22.01,30.2-33.03,3.73-4.09,7.42-8.22,11.06-12.39,2.48-2.85,3.57-6.24,3.53-10.01ZM443.85,274.41c-.01.07-.02.14-.03.22.36.18.72.38,1.09.54,6.64,2.84,12.83,6.49,18.86,10.43,4.7,3.07,9.29,6.29,14.07,9.24,6.39,3.95,13.06,7.35,20.3,9.51,3.02.9,6.03,1.49,9.2.54,11.85-3.55,22.89-8.81,33.26-15.52.33-.22.78-.25,1.13-.46.37-.22.84-.47,1-.83,1.07-2.35,1.52-4.84,1.83-7.41.45-3.71-.69-6.63-3.75-8.71-3.31-2.25-6.21-4.89-8.54-8.14-.47-.65-.74-.62-1.21.03-3.04,4.2-7.21,6.69-12.23,7.68-3.5.69-7.03.84-10.41-.75-.3-.14-.82-.02-1.14.15-3.94,2-8.1,3.23-12.47,3.82-5.33.73-9.93-.6-13.55-4.75-.77-.88-1.54-1.76-2.33-2.61-1.99-2.14-4.49-3.12-7.38-3.07-1.2.02-2.41.1-3.61.24-4.54.55-8.89-.03-12.91-2.28-2.66-1.49-5.28-3.06-7.85-4.7-.88-.56-1.7-.83-2.73-.74-4.51.38-8.8,1.63-13,3.23-2.74,1.04-5.44,2.21-8.13,3.37-1.26.55-1.82,1.56-1.78,2.99.04,1.43-.06,2.86-.14,4.29-.04.62-.03.88.76.67,3.45-.92,6.93-1.74,10.38-2.66.65-.17.88.08,1.3.48.65.63,1.43,1.4,2.24,1.53,3.3.53,6.66.71,9.95,1.27,2.96.51,5.86,1.33,8.78,2.06.28.07.47.48.7.73-.29.16-.58.44-.87.45-1.13.02-2.26,0-3.39-.1-2.47-.22-4.93-.5-7.4-.75ZM263.13,358.73c.59.36,1.11.69,1.63,1.01-.39.54-.68,1.39-1.19,1.57-1.43.5-2.96.78-4.46,1.03-.43.07-1.02-.09-1.38-.36-.82-.6-1.63-.52-2.45-.19-2.51,1.02-5.04,2.01-7.49,3.14-5.74,2.65-11.45,5.37-17.17,8.09-.49.23-1.37.25-1.13,1.12.25.92,1.08.82,1.79.69.74-.14,1.46-.37,2.18-.57,1.12-.31,2.26-.59,3.36-.96,4.8-1.63,9.59-3.33,14.4-4.94,2.24-.75,4.5-1.47,6.8-1.96.84-.18,1.83.4,2.76.62.36.08.75.21,1.08.12.91-.23,1.77-.62,2.68-.83.35-.08,1.02.04,1.1.25.13.34.06.99-.19,1.21-.91.82-1.85,1.65-2.92,2.23-1.38.74-2.61.4-3.73-.71-.72-.71-1.26-.61-1.81.28-.21.34-.52.65-.85.89-2.57,1.84-5.18,3.64-7.74,5.49-1.22.88-2.48,1.74-3.52,2.81-.75.78-1.2,1.87-1.71,2.86-.13.25.02.64.04.96.31-.05.65-.05.93-.17.58-.27,1.14-.59,1.68-.92,5.43-3.33,11.07-6.28,16.92-8.8,3.7-1.6,7.44-3.09,11.16-4.62.59-.24,1.21-.44,1.78-.72,2.53-1.26,5.21-1.83,8.03-2.06,3.22-.26,6.41-.89,9.62-1.27.84-.1,1.51.06.99-1.19-.22-.53.03-1.25.09-1.89.05-.56.22-1.12.19-1.67-.33-6.26.71-12.31,2.79-18.2.84-2.39.83-2.36-1.73-2.42-1.31-.03-2.76.13-3.89-.37-2.78-1.22-5.42-2.76-8.09-4.21-1.15-.63-2.17-1.62-3.39-1.99-2.29-.7-4.67-1.21-7.04-1.54-1.79-.24-3.14-1.01-4.19-2.37-1.37-1.76-3.1-3.04-4.98-4.2-1.17-.72-2.28-1.62-3.19-2.64-1.54-1.74-2.94-3.62-4.31-5.5-.53-.73-.98-.77-1.67-.31-1.13.75-1.37,1.61-.71,3.16.6,1.42,1.23,2.83,1.95,4.2.83,1.56,1.56,3.25,2.71,4.55,1.33,1.51,1.54,3.14.81,4.68-2.23,4.73-4.68,9.36-7.08,14-.2.39-.66.73-1.07.92-5.57,2.63-11.33,4.79-17.31,6.17-4.88,1.13-8.84,3.7-12.73,6.58-.3.22-.57.5-.78.81-.57.81-.41,1.25.55,1.4,1.91.29,3.78.37,5.61-.61,2.42-1.29,4.9-2.48,7.41-3.59,1.89-.83,3.87-1.48,5.82-2.17,2.23-.78,4.46-1.61,6.74-2.23,3.65-1,7.52-.9,11.11-2.22.1-.04.23-.08.33-.06.53.09,1.05.2,1.58.3-.14.6-.11,1.34-.46,1.76-1.03,1.24-2.41,1.73-4.05,1.44-.47-.08-.96-.04-1.43-.03-2.56.1-4.72,1.45-6.92,2.47-6.16,2.85-12.05,6.23-17.55,10.22-1.18.85-2.15,1.98-3.21,3-.55.53-.38,1.05.3,1.12.82.09,1.76.14,2.49-.17,2.99-1.25,5.93-2.59,8.86-3.98,4.56-2.16,9.05-4.45,13.63-6.55,1.48-.68,3.15-1.36,4.72-1.34,2.29.03,4.57.62,6.88-.63ZM434.6,605.69c5.28.17,10.5-.88,15.53-2.83,6.04-2.34,12.05-4.75,18.03-7.25,4.69-1.96,9.3-4.09,13.96-6.13.87-.38.92-.7.15-1.27-1.15-.85-2.22-1.8-3.38-2.65-5.45-4.01-11.44-7.12-17.38-10.31-.66-.36-.73-.17-.85.5-.27,1.5.01,3.39-2.17,3.84-.1.02-.13.27-.23.35-.42.3-.84.75-1.3.82-1.61.24-3.13-.23-4.59-.9-4.3-1.99-8.63-3.92-12.9-5.97-8.42-4.04-16.81-8.13-25.2-12.24-.75-.37-.99-.24-1.26.52-2.93,8.22-4.41,16.6-3.65,25.4.55,6.37,3.23,11.11,8.82,14.31,5.08,2.91,10.53,3.9,16.42,3.8ZM428.75,230.45c-.28-.26-.42-.34-.49-.45-.25-.42-.49-.86-.73-1.29.44-.13.89-.39,1.31-.36,1.46.13,2.91.37,4.36.55,2.27.29,4.46.16,6.33-1.35,1.59-1.28,1.78-2.41.68-4.13-1.29-2.02-3.12-3.46-5.21-4.56-3.09-1.63-5.01-1.35-7.57,1-.17.15-.33.32-.51.44-1.08.73-2.46.33-3.05-.81-.12-.23-.59-.48-.82-.42-2.91.68-6.2-1.3-7.17-4.66-.45-1.57-.61-3.25-.71-4.89-.13-2.06-1.4-3.02-3.37-2.39-.55.18-.69.45-.76,1.04-.11.9-.37,1.84-.8,2.63-.43.8-1.83.72-2.17,0-.55-1.18-.04-3.52,1.01-4.23,1.48-1.01,3.11-1.49,4.92-1.06,1.34.32,1.29.31,1.57-1.08.19-.93-.04-1.44-1.04-1.49-1.57-.08-3.15-.19-4.72-.23-1.46-.04-2.15-.89-1.42-2.11.33-.53,1.3-.89,2-.94,1.53-.1,3.08.07,4.62.06.3,0,.78-.24.85-.48.28-.89.45-1.81.64-2.73.47-2.36.92-4.72,1.4-7.08.12-.6.34-1.19.51-1.78-.82-.02-1.66-.14-2.45-.01-.65.1-1.3.43-1.85.8-1.66,1.16-3.41,2.25-4.88,3.63-3.66,3.43-5.65,7.75-6.03,12.76-.11,1.43-.55,2.67-1.48,3.7-2.32,2.56-4.7,5.07-7.05,7.61-.51.55-1.06,1.08-1.47,1.7-.53.8-.49,1.59.29,2.33.9.85,1.79,1.74,2.54,2.72.88,1.15,1.95,2.26,1.7,3.94-.04.28.25.74.51.9,1.57.89,3.15,1.76,4.78,2.54.46.23,1.07.56,1.55-.25.12-.2,1.07-.16,1.39.08.32.24.34.89.49,1.36-.39.11-.79.21-1.18.32-.21.06-.42.13-.63.22-.38.17-.75.49-1.13.5-1.83.06-3.6-.25-5.25-1.11-.65-.34-.87-.16-.85.55.04,1.43-.05,2.87.08,4.29.21,2.24.4,4.51.9,6.7.7,3.02,2.91,4.59,5.97,4.6,3.46,0,6.92.12,10.37-.05,2.99-.14,5.98-.54,8.96-.94,1.75-.23,2.54.36,2.36,2.12-.11,1.05-.36,2.08-.52,3.12-.23,1.52.8,2.41,2.19,1.88.45-.17.89-.42,1.31-.66,1.86-1.09,3.64-2.37,5.59-3.26,3.05-1.39,3.14-1.31.95-4-1.13-1.38-1.93-2.86-2.12-4.65-.03-.29-.13-.59-.26-.86-1.29-2.79-2.29-5.65-2.43-8.76-.01-.23-.35-.5-.6-.66-.15-.1-.42-.03-.63-.04.03,1.18-.87.73-1.44.77-.37.03-.76-.12-1.14-.19.36-.28.7-.58,1.08-.83.14-.09.36-.06.75-.1ZM496.15,533.75c.06.33.06.44.1.55,1.04,3.73,1.96,7.5,3.16,11.18,1.31,4.01,2.91,7.92,4.32,11.89,1.94,5.47,3.81,10.95,5.71,16.43.19.56.3,1.06,1.14.6,8.37-4.55,16.76-9.07,25.15-13.58.56-.3.58-.59.39-1.16-1.09-3.29-2.24-6.56-3.16-9.89-2.86-10.3-5.68-20.62-7.34-31.21-.2-1.28-.23-1.27-1.36-.69-3.84,2-7.73,3.91-11.51,6.02-5.29,2.96-10.5,6.06-15.74,9.12-.35.21-.63.54-.85.74ZM363.36,238.97c0-.98.02-1.96,0-2.94-.04-1.82-.86-3.37-2.49-3.99-2.34-.89-4.83-1.37-7.26-2-.06-.02-.34.38-.3.46.82,1.37,1.39,2.77,3.4,3.17,3.15.63,3.38,1.46,2.15,4.42-.27.66-.69,1.29-.13,2.11.29.42.12,1.16.15,1.76-.62-.13-1.45-.05-1.83-.43-.92-.92-1.79-1.96-2.39-3.11-1.5-2.91-2.78-5.93-4.28-8.83-.35-.68-1.18-1.2-1.9-1.58-.57-.3-1.31-.3-1.98-.4-.25-.04-.51.02-.77.03.06.24.06.52.18.73,1.79,3.18,3.55,6.38,5.4,9.52.72,1.23,1.74,2.29,2.43,3.53.29.51.37,1.61.06,1.88-.53.47-1.35.17-1.86-.48-.72-.92-1.47-1.81-2.18-2.74-2.69-3.5-4.36-7.56-6.27-11.48-.74-1.51-1.78-2.71-3.31-3.41-2.12-.97-4.26-1.89-6.41-2.82-.23-.1-.49-.1-.74-.14.09.25.13.54.28.76,1.42,1.99,2.85,3.98,4.29,5.96.11.15.21.38.35.42,1.65.51,1.96,2.07,2.65,3.32.47.84.83,1.83,1.51,2.45,2.19,1.99,3.8,4.37,5.23,6.91.19.34.3.78.3,1.18,0,.32-.21.9-.37.92-.44.04-.94-.08-1.35-.27-.23-.11-.34-.48-.49-.74-1.5-2.54-3.12-4.96-5.5-6.81-.77-.6-1.4-1.49-1.88-2.36-2.22-4.1-4.86-7.9-7.96-11.36-1.35-1.5-2.94-2.79-4.52-4.06-.87-.7-1.38-.41-1.15.69.24,1.13.84,2.22,1.43,3.24,1.74,2.99,3.73,5.85,5.29,8.93,1.08,2.13,2.22,4.15,3.59,6.1,3.42,4.87,5.52,10.19,4.8,16.29-.37,3.11-3.58,4.82-6.37,3.32-1.58-.85-3.01-1.98-4.53-2.96-2.2-1.43-4.41-2.85-6.63-4.25-.28-.18-.67-.2-1.01-.3.04.4,0,.82.14,1.18.16.41.42.82.74,1.12,1.39,1.31,2.8,2.61,4.24,3.87,1.24,1.09,2.64,2.02,3.75,3.23,2.04,2.21,3.89,4.58,5.86,6.85,2.74,3.17,6.31,5.09,10.14,6.56,1.09.42,1.67.92,1.44,2.11-.1.49,0,.78.61.77,1.43-.03,2.89.19,4.29-.02,4.57-.67,9.12-1.5,13.69-2.23.85-.14,1.72-.18,2.58-.13,1.35.09,1.34.14,1.08-1.14-.67-3.24-1.47-6.47-1.27-9.82.02-.29-.08-.6-.18-.88-.53-1.57-.98-3.18-1.64-4.69-2.44-5.57-3.18-11.43-3.13-17.43ZM493.13,375.54c-.02.06-.05.12-.07.18.14.11.26.23.41.31,3.71,2.08,7.33,4.33,11.14,6.2,6.45,3.15,12.99,6.1,19.54,9.04,4.05,1.81,8.33,3.16,12.25,5.2,8.92,4.64,17.67,9.59,26.51,14.38.76.41,1.66.59,2.49.87,0-.78.11-1.57,0-2.34-.97-6.55-2.04-13.09-2.97-19.65-.7-4.91-1.57-9.82-1.01-14.83.13-1.19.11-1.23-1.03-.79-6.52,2.49-13.33,3.4-20.25,3.57-5.45.13-10.91.04-16.36.27-7.76.32-15.41-.76-23.08-1.5-2.53-.24-5.04-.6-7.56-.9ZM353.85,308.84c.16.38.35.87.58,1.34,2.16,4.34,4.75,8.49,6.11,13.2.08.27.46.5.76.64.89.43,1.88.69,2.7,1.22.88.57,1.61,1.36,2.4,2.05.4.35.57.34.73-.24.17-.64.4-1.34.83-1.81,1.19-1.3,2.49-2.5,3.75-3.74,5.77-5.73,11.55-11.46,17.3-17.22,1.4-1.4,1.38-1.47-.15-2.78-.93-.8-1.83-1.7-2.91-2.23-2.74-1.34-5.56-2.49-8.35-3.73-.85-.38-1.48-1.04-1.02-1.94.45-.87,1.32-.42,2-.15,1.4.56,2.78,1.17,4.17,1.74.23.09.49.1.74.15-.02-.25,0-.5-.05-.74-.3-1.28-.59-2.56-.93-3.83-.06-.23-.32-.51-.54-.58-3.79-1.1-7.54-2.37-11.39-3.21-7.02-1.52-14.1-2.78-21.15-4.15-1.24-.24-.65.6-.55.98,1.58,6.12,3.2,12.23,4.78,18.35.52,2.03,1.24,4.07.27,6.18-.05.1-.04.22-.08.46ZM482.51,483.44c-.32.05-.5.06-.67.12-9.82,3.15-19.64,6.31-29.44,9.48-.44.14-.92.44-1.17.81-3.72,5.4-7.4,10.81-11.06,16.25-.15.22-.02.87.2,1.07.96.85,2.01,1.59,3.01,2.39,4.09,3.27,8.19,6.52,12.25,9.82.83.68,1.28.8,1.83-.27.55-1.07,1.26-2.05,1.95-3.04,8.29-11.75,16.02-23.86,23.11-36.62ZM406.53,378.65c1.69-.43,4.65-1.01,7.48-1.96,6.67-2.24,12.88-5.44,18.63-9.5.6-.43,1.73-.52,1.18-1.75-.35-.78-.5-1.67-1.58-1.88-.25-.05-.48-.45-.61-.74-1.1-2.46-2.8-4.41-4.89-6.11-3.17-2.59-5.85-5.65-8.14-9.03-.63-.92-.94-.87-1.73-.22-5.47,4.55-10.99,9.02-16.45,13.58-.62.52-.93,1.4-1.4,2.1-.38.57-.65,1.33-1.18,1.64-2.81,1.67-5.67,3.25-8.55,4.78-.79.42-.86.66-.19,1.21,1.28,1.05,2.49,2.19,3.8,3.2,3.63,2.8,7.66,4.61,13.63,4.66ZM507.71,591.42c-.34.58-.63,1.3-1.1,1.87-1.57,1.92-3.19,3.81-4.83,5.68-.56.64-.48,1.02.19,1.53,1.94,1.49,3.88,2.99,5.73,4.59,4,3.45,8.79,5.32,13.68,7.02.34.12.9.43.86-.35-.06-1.16,0-2.39-.35-3.47-1.69-5.24-3.61-10.4-6.75-14.99-2.81-4.1-4.98-8.51-6.63-13.18-2.58-7.32-5.16-14.63-7.71-21.95-2.17-6.22-4.35-12.44-6.42-18.69-1.09-3.28-1.95-6.64-2.95-9.96-.27-.9-.61-1.8-1.74-2.02-.18-.04-.34-.37-.44-.59-.47-1.08-.68-1.16-1.72-.55-.94.55-1.48,1.84-1.22,2.92.77,3.13,1.59,6.26,2.32,9.4,2.21,9.45,5.56,18.53,9.07,27.55,3.02,7.75,6.22,15.43,9.33,23.14.24.58.39,1.2.66,2.05ZM461.95,534.31c.08-.04.16-.07.23-.11-.44-1.03-.59-2.41-1.36-3.03-7.73-6.18-15.64-12.12-23.3-18.38-2.19-1.79-4.41-3.45-6.84-4.87-4.25-2.48-8.48-5.01-12.72-7.51-.45-.27-.94-.47-1.39-.75-4.5-2.77-9.04-5.26-14.48-5.94-4.67-.58-8.86-2.87-12.97-5.1-2.45-1.33-4.81-2.81-7.23-4.2-.26-.15-.59-.18-.89-.26.13.3.2.65.41.88.48.53.98,1.06,1.55,1.47,4.76,3.44,9.53,6.86,14.31,10.28,7.58,5.42,15.44,10.36,23.82,14.47,6.28,3.09,12.64,6.09,18.66,9.63,7.3,4.29,14.28,9.1,21.41,13.69.2.13.45.19.68.28.03-.18.07-.36.1-.54ZM557.8,480.99c-.34.08-.56.07-.7.17-1.25.9-2.49,1.81-3.71,2.75-.03.02.17.51.35.62,1.32.79,2.8,1.37,3.99,2.32,5.5,4.35,10.8,8.91,14.81,14.78,3.46,5.07,7.21,9.95,10.45,15.16,3.06,4.94,7,9.14,10.5,13.7.16.21.36.4.58.53,1.02.62,1.25,1.61,1.09,2.65-.14.92-.47,1.81-.8,2.69-.39,1.06-.86,2.09-1.28,3.14-.25.63-.19.92.62,1.15,2.16.61,4.3,1.35,6.4,2.16,3.9,1.49,7.76,3.07,11.65,4.59.26.1.58.07.87.09-.1-.3-.13-.64-.31-.89-2.17-3.03-4.2-6.17-6.58-9.03-3.74-4.48-7.83-8.67-11.55-13.16-5.11-6.18-10.01-12.54-14.99-18.83-4.77-6.02-9.49-12.09-14.33-18.06-1.61-1.98-3.5-3.73-5.32-5.52-.49-.48-1.21-.73-1.73-1.03ZM470.27,433.49c0,2.08.36,4.04,1.71,5.72.44.55.84.73,1.53.44,4.14-1.72,8.31-3.34,12.43-5.1,5.05-2.15,9.57-5.07,13.1-9.37.83-1.01.83-1.03-.5-1.27-3.92-.7-7.86-1.36-11.78-2.1-3.51-.67-7-1.44-10.5-2.16-.75-.15-1.41-.23-1.94.62-2.52,4.06-3.96,8.43-4.06,13.22ZM480.84,368.21c-.04.09-.07.17-.11.26.54.37,1.06.77,1.63,1.09,1.87,1.04,3.66,2.34,5.65,2.99,2.34.76,4.85,1.08,7.31,1.37,4.34.5,8.69.89,13.04,1.2,6.71.49,13.43.97,20.15,1.29,6.56.31,13.08-.41,19.6-1.12,4.67-.51,8.96-2.28,13.32-3.8.8-.28.86-.98.1-1.36-.5-.25-1.16-.37-1.73-.31-2.84.29-5.71.48-8.51,1.02-7.98,1.54-16.04,2.28-24.14,2.5-4.12.11-8.26-.44-12.4-.67-3.23-.18-6.5-.09-9.7-.53-6.33-.89-12.63-2.07-18.94-3.11-1.76-.29-3.53-.54-5.3-.81ZM527.36,516.54c.06.43.08.66.12.88,1.66,9.54,3.68,19,6.44,28.29,1.25,4.22,2.65,8.4,3.97,12.6.26.82.61,1.1,1.45.59,1.19-.73,2.42-1.39,3.67-2,.73-.35.9-.71.54-1.48-.59-1.26-1.14-2.55-1.55-3.88-2.53-8.32-5.03-16.65-7.52-24.98-1.11-3.72-2.2-7.44-3.25-11.17-.23-.81-.54-.94-1.25-.51-.67.41-1.42.71-2.1,1.11-.25.15-.41.44-.52.57ZM525,515.13c-.2-1.14-.39-1.98-.5-2.84-.11-.93-.49-1.04-1.23-.55-.4.27-.86.46-1.29.69-8.55,4.68-17.09,9.35-25.64,14.03q-1.85,1.01-1.28,3.11c.13.47.27.94.36,1.42.13.72.37.84,1.04.42,2.08-1.29,4.17-2.55,6.31-3.74,7.09-3.96,14.21-7.89,21.3-11.84.38-.21.7-.52.93-.71ZM467,547.27c0-.94.02-1.88-.01-2.82,0-.28-.08-.61-.25-.83-.55-.71-1.15-1.38-1.75-2.05-.14-.15-.34-.25-.51-.37-.06.17-.14.33-.17.51-.45,2.56-.82,5.13-1.35,7.67-1.9,9.18-3.62,18.43-8.93,26.47-.33.5-.29.81.3,1.01.39.14.76.35,1.15.45.14.04.44-.08.5-.21.44-.88.82-1.8,1.26-2.69,1.78-3.57,3.64-7.1,5.36-10.7,2.49-5.2,4.23-10.62,4.39-16.45ZM424.73,500.87c.21.16.32.26.44.34,3.6,2.26,7.22,4.51,10.8,6.81.62.4.87.24,1.23-.3,2.4-3.61,4.83-7.19,7.24-10.79.3-.45.59-.9.92-1.41-6.94,1.8-13.73,3.56-20.64,5.35ZM424.23,259.71c.05.07.09.14.14.2.17-.05.34-.08.5-.14,1.86-.7,3.68-1.56,5.59-2.06,3.96-1.03,7.97-1.87,11.96-2.8.27-.06.52-.21.78-.31-.16-.2-.3-.42-.48-.59-.82-.78-1.68-1.51-2.46-2.33-.52-.55-.98-.61-1.69-.37-4.73,1.59-8.98,4.02-12.89,7.09-.51.4-.97.87-1.46,1.31ZM478.2,565.37c-.16-.06-.32-.12-.48-.18-1.09.75-2.41,1.3-3.24,2.28-1.95,2.27-3.68,4.74-5.46,7.15-.1.14.1.74.25.79.82.22,1.34,1.37,2.4.79.03-.01.03-.07.05-.1,1.73-2.5,3.47-4.99,5.19-7.5.53-.77,1.03-1.57,1.47-2.39.1-.19-.12-.55-.19-.83ZM557.05,525.07s-.09-.01-.14-.02c.03-.34.09-.67.08-1.01,0-.29-.09-.57-.13-.85-.28.07-.57.09-.82.21-1.64.8-2.63,2.09-2.87,3.91-.24,1.86-.48,3.73-.71,5.59-.02.19.04.57.1.58.97.11,1.94.2,2.91.23.09,0,.25-.33.28-.52.44-2.71.87-5.41,1.3-8.12ZM568.5,535.53c1.02.18,1.97.41,2.94.5.28.03.74-.25.86-.51.8-1.66,1.57-3.33,2.25-5.04.46-1.14.79-2.34,1.07-3.54.09-.37-.17-.82-.28-1.23-.41.15-.96.17-1.19.46-.97,1.18-1.94,2.39-2.72,3.7-1.06,1.8-1.94,3.71-2.94,5.66ZM492.35,580.5c-.38.19-1.15.43-1.76.9-1.13.87-2.2,1.83-3.24,2.8-2.03,1.9-2.01,1.91.17,3.7,1.44,1.18,1.49,1.21,2.48-.31,1.23-1.89,2.41-3.81,3.52-5.78.49-.86.15-1.31-1.16-1.31ZM563.71,534.75c.12-.19.43-.48.52-.84.63-2.51,1.21-5.04,1.8-7.56.09-.4.15-.81.16-1.22.02-.88-.39-1.05-1.14-.67-1.1.55-1.64,1.52-1.95,2.64-.51,1.85-.99,3.7-1.43,5.56-.45,1.92-.34,2.02,2.05,2.1ZM536.23,216.75c.14-.45.25-.68.28-.93.3-2.55-1.26-4.3-4.16-4.52-5.09-.39-10.16-.16-15.17.82-2.52.5-5,1.22-7.5,1.84.02.1.04.21.05.31.36-.02.72,0,1.08-.06,1.66-.3,3.31-.69,4.99-.93,3.75-.53,7.51-1.34,11.28-1.37,3.62-.03,7.56.18,9.15,4.83ZM485.26,572.55c-1.11.63-1.99.95-2.64,1.53-1.54,1.38-3,2.86-4.43,4.35-1.32,1.37-1.26,1.36.23,2.44.74.53,1.15.39,1.67-.26,1.47-1.86,2.99-3.68,4.48-5.54.35-.44.69-.91.92-1.41.09-.2-.1-.55-.23-1.1ZM417.56,205.77c-.13,0-.25.02-.38.03-.16,3.03-.65,6.15,1.17,8.9.62.93,1.75,1.62,2.79,2.14.49.25,1.31-.15,1.98-.25-.4-.36-.74-.83-1.21-1.06-2.04-1.03-2.99-2.74-3.34-4.93-.26-1.62-.66-3.22-1-4.83ZM526.21,510.46c.18.91.3,1.54.43,2.17.34,1.67.34,1.68,1.85.92,2.25-1.14,1.92-.68,1.19-2.87-.66-2-.7-2-2.54-.92-.37.22-.69.52-.93.71ZM466.9,539.97c.04-2.19-.24-4.19-1.79-5.8-.12-.12-.3-.19-.46-.28-.06.12-.15.24-.16.37-.1,2.22.02,4.36,2.41,5.71ZM489.19,269.69l.24-.38c-.87-1.31-2.45-1.16-3.65-1.78-.06.11-.11.23-.17.34,1.2.61,2.39,1.21,3.59,1.82ZM525.79,231.52c.6-.2,1.13-.35,1.64-.58.14-.06.19-.32.29-.49-.19-.07-.39-.23-.55-.19-.51.11-1,.28-1.49.47-.19.07-.33.25-.49.38.2.14.41.28.6.41ZM463.91,252.07c-.2.32-.38.5-.34.56.28.44.6.86.91,1.29.17-.15.51-.41.49-.43-.29-.44-.63-.86-1.06-1.41ZM545.13,233.01c-.01-.1-.03-.19-.04-.28-.59.16-1.2.27-1.75.5-.16.07-.17.49-.25.75.23-.03.5.01.69-.09.47-.26.91-.58,1.36-.88ZM446.79,232.11c-.16.1-.32.2-.49.31.44.64.88,1.29,1.31,1.93.13-.08.26-.16.39-.25-.41-.66-.81-1.33-1.22-1.99ZM491.42,223.81c-.02-.18-.04-.36-.06-.53h-1.39c.01.26.02.51.04.76.47-.08.94-.15,1.41-.23ZM487.61,222.84c-.01-.08-.03-.16-.04-.24-.33,0-.67-.02-1,0-.25.02-.49.09-.73.14.08.15.13.39.26.45.24.1.54.19.78.13.27-.07.49-.31.73-.48ZM435.13,204.4c-.08.03-.16.06-.24.09.13.5.24,1.01.41,1.5.04.11.28.15.43.22.06-.15.22-.35.17-.45-.22-.47-.51-.91-.77-1.35ZM516.99,246.72c.03-.17.06-.34.09-.51-.78-.05-1.56-.11-2.34-.16-.01.1-.02.2-.03.31.76.12,1.52.24,2.28.36ZM527.31,248.03l.02.24c.51-.09,1.03-.18,1.54-.27,0,0-.01-.12-.02-.19-.51.07-1.02.15-1.54.22ZM507.94,257.33c-.81-.14-1.34-.23-1.87-.31,0,0-.04.18-.06.27.5.09,1,.18,1.5.27.03,0,.06-.03.43-.23ZM567.49,534.88c-.33-.22-.5-.42-.68-.43-.14,0-.3.22-.44.35.16.15.3.36.49.44.1.04.3-.16.63-.36ZM459.08,231.48c-.08.38-.2.59-.14.67.16.2.4.35.61.51.05-.11.16-.26.13-.33-.13-.24-.31-.45-.6-.86ZM427.64,210.2c.12-.02.25-.05.37-.07-.09-.39-.18-.77-.27-1.16-.11.02-.22.05-.32.07.07.39.15.77.22,1.16ZM480.87,214.96c.01.13.03.26.04.39.37-.05.74-.1,1.11-.16-.01-.1-.02-.2-.03-.3-.37.02-.74.04-1.11.06ZM433.12,184.74c-.21.23-.38.36-.46.53-.03.05.21.33.27.31.17-.05.37-.17.45-.32.04-.08-.13-.28-.26-.52ZM439.31,195.32c-.05.12-.1.24-.15.37.32.11.64.22.96.33.03-.08.07-.16.1-.24-.3-.15-.6-.3-.9-.45ZM453.86,219.13c-.14-.15-.28-.3-.42-.44,0,0-.18.15-.17.16.13.2.27.38.41.57.05-.08.1-.16.19-.3ZM510.39,217.87c.05-.08.1-.16.15-.24-.22-.13-.43-.25-.65-.38-.03.05-.07.11-.1.16.2.15.41.3.61.45ZM530.33,255.04c-.17-.08-.3-.16-.44-.18-.06,0-.14.11-.21.18.13.09.26.19.41.25.03.01.13-.13.24-.25ZM494.85,244.4c-.12-.02-.22-.06-.31-.05-.04,0-.07.11-.11.17.1,0,.2.02.3.01.04,0,.07-.07.12-.13ZM300.28,364.25l-.07.03.06.03v-.06Z"/>
    <path class="cls-1" d="M307.11,396.01s-.11-.11-.1-.14c.02-.06.09-.1.14-.15.04.05.11.11.1.15-.01.05-.09.09-.14.13Z"/>
    <path class="cls-1" d="M464.54,434.68c.36-5.09,1.63-9.92,4.4-14.28.23-.36.65-.61.98-.91-.04.48,0,.98-.14,1.42-1.06,3.09-2.25,6.13-3.22,9.25-.43,1.38-.47,2.89-.62,4.35-.17,1.63.24,3.13,1.07,4.54.23.39.48.79.56,1.22.07.38-.08.8-.14,1.2-.47-.23-1.14-.34-1.36-.72-.98-1.72-1.59-3.57-1.52-5.59,0-.15,0-.3,0-.48Z"/>
    <path class="cls-1" d="M431.84,227.09c-1.4-.01-3.97-2.1-4.28-3.47-.23-1.01.11-1.67,1.12-1.84,2.21-.38,4.41-.41,6.58.28.28.09.64.16.81.37.28.34.42.78.63,1.18-.4.06-.82.24-1.19.17-.95-.18-1.88-.49-2.83-.69-.29-.06-.63.07-.95.12.14.25.29.5.41.76.29.64.68,1.27.81,1.94.15.75-.28,1.21-1.11,1.18ZM431.05,225.23c.1-.09.2-.18.29-.26-.44-.53-.87-1.07-1.35-1.57-.1-.11-.39-.04-.59-.05.04.16.03.37.13.47.49.49,1.01.94,1.52,1.41Z"/>
    <path class="cls-1" d="M398.84,223.56c-.83-.66-1.69-1.28-2.48-1.99-.15-.14-.09-.68.07-.92.11-.17.62-.29.79-.19.81.51,1.66,1.02,2.29,1.72.49.53.11,1.18-.68,1.39Z"/>
  </g>
  <path class="cls-1" d="M336.1,480.58c-1.47,1.29-2.89,2.65-4.03,4.26-1.37,1.9-2.62,3.97-3.69,6.07-41.09-7.62-110.14-20.48-135.17-25.44.29-1,.74-1.98,1.24-2.9,1.03-1.92,2.65-3.23,4.82-3.58,2.87-.47,5.71-.32,8.61.22,6.06,1.14,12.14,2.28,18.27,2.87,24.45,2.33,48.7,5.92,72.71,11.16,12.36,2.7,24.81,4.94,37.24,7.34Z"/>
  <path class="cls-1" d="M269.05,305.98l-101.73,36.83c-.17-.94-.35-1.88-.53-2.81v-2.04c.73-2.94,2.49-4.95,5.3-6.14,4.68-1.98,9.26-4.2,13.99-6.05,11.04-4.33,22.05-8.77,33.25-12.66,10.98-3.82,22.16-7.08,33.29-10.45,2.46-.74,5.09-1,7.66-1.23,1.27-.12,2.62.21,3.89.53,2.25.56,3.82,1.97,4.88,4.03Z"/>
  <path class="cls-1" d="M356.09,201.47c-22.71,2.38-75.07,7.9-99.55,10.75,0-1.48.11-2.97.27-4.44.22-1.98,1.28-3.33,3.12-4.23,3.18-1.55,6.6-2.09,10.02-2.56,8.61-1.18,17.22-2.34,25.86-3.34,6.58-.76,13.18-1.27,19.77-1.9,5.21-.5,10.41-1,15.62-1.5,1.26-.12,2.53-.22,3.8-.33h10.4c.24.08.48.21.73.24,5.39.68,8.43,2.8,9.96,7.3Z"/>
  <path class="cls-1" d="M338.79,252.72s.02,0,.02-.02c0,0-.02.01-.02.02Z"/>
  <g>
    <path class="cls-1" d="M206.92,523.59c2.95.58,5.56,1.13,8.19,1.61,9.99,1.83,20.02,3.46,29.97,5.51,12.09,2.49,24.27,4.46,36.46,6.41.33.05.67.13,1.01.12,1.9-.07,2.62,1.36,3.36,2.7.12.21-.12.8-.36.99-1.4,1.1-2.84,1.58-4.78,1.22-6.29-1.17-12.64-1.95-18.93-3.1-8.32-1.53-16.6-3.33-24.91-4.9-7.5-1.42-15.04-2.66-22.55-4.03-2.74-.5-5.44-1.17-8.16-1.75-1.41-.3-1.68-1.6-2.3-2.59-.07-.1.02-.43.13-.5,1-.61,2.02-1.19,2.88-1.69Z"/>
    <path class="cls-3" d="M285.66,526.99c-3.72-.5-7.34-.96-10.96-1.47-7.31-1.02-14.62-1.96-21.91-3.1-8.25-1.29-16.47-2.77-24.71-4.16-2.04-.35-4.08-.69-6.12-1.04-.97-.17-2.77-2.16-2.79-3.09,0-.17.05-.44.17-.51,1.28-.78,2.33-1.98,4.13-1.67,10.35,1.79,20.69,3.58,31.06,5.23,6.62,1.06,13.27,1.9,19.9,2.81,4.1.57,8.21,1.09,12.31,1.64.91.12,2.62,1.96,2.69,2.9.01.17-.04.43-.15.52-1.15.81-2.21,1.81-3.62,1.95Z"/>
    <path class="cls-3" d="M265.15,549.35c3.02.41,6.04.83,9.06,1.24,6.08.82,12.17,1.54,18.23,2.48,12.01,1.88,23.99,3.92,35.99,5.82,1.82.29,2.93,1.2,3.6,2.78.14.33.03,1.04-.23,1.23-1.37,1.06-2.71,1.67-4.71,1.23-5.47-1.21-11.01-2.07-16.55-2.97-7.54-1.23-15.08-2.41-22.64-3.52-5.47-.8-10.97-1.43-16.45-2.17-2.68-.36-5.36-.79-8.03-1.22-.98-.16-2.41-1.64-2.53-2.6-.03-.21.1-.56.26-.67,1.21-.81,2.36-1.82,4-1.63Z"/>
    <path class="cls-3" d="M245.86,561.5c3.84.51,7.68,1.05,11.52,1.53,4.89.61,9.79,1.13,14.68,1.77,3.32.43,6.62.99,9.93,1.5.94.15,2.62,1.92,2.71,2.85.02.17-.03.43-.15.52-1.22.88-2.28,2.08-4.04,1.84-10.1-1.37-20.2-2.72-30.3-4.08-2.16-.29-4.32-.62-6.48-.94-.87-.13-2.54-1.93-2.51-2.75,0-.22.19-.51.38-.64,1.28-.85,2.52-1.87,4.26-1.61Z"/>
    <path class="cls-3" d="M244.06,489.32c3.79.61,7.57,1.24,11.36,1.83,6.72,1.05,13.45,2.07,20.17,3.09,1.2.18,3.23,2.09,3.18,3.2-.01.33-.39.69-.68.94-1.74,1.51-3.73,1.81-5.98,1.42-7.08-1.21-14.17-2.33-21.26-3.46-2.9-.46-5.8-.85-8.71-1.26-.98-.14-2.86-2.15-2.84-3.13,0-.2.12-.44.26-.59.87-.96,3.13-1.89,4.49-2.04Z"/>
    <path class="cls-3" d="M326.44,578.27c-5.91-.63-11.83-1.13-17.71-1.93-4.95-.67-9.84-1.79-14.78-2.52-1.87-.28-2.54-1.54-3.27-2.88-.11-.2.02-.71.21-.86,1.4-1.09,2.84-1.75,4.77-1.39,5.91,1.09,11.84,2.15,17.8,2.92,5.1.66,10.26.91,15.4,1.3,1.37.1,3.01,1.41,3.16,2.77.03.3-.29.74-.58.96-1.46,1.13-3.03,2.01-5.01,1.63Z"/>
    <path class="cls-3" d="M331.63,549.28c-3.29-.59-6.58-1.21-9.88-1.77-8.01-1.35-16.02-2.67-24.03-4-.59-.1-1.19-.24-1.78-.26-1.7-.08-2.3-1.39-2.94-2.62-.09-.18.04-.64.21-.77,1.1-.77,2.16-1.6,3.69-1.35,4.83.78,9.67,1.44,14.5,2.23,7.13,1.16,14.24,2.39,21.36,3.57,1.19.2,2.57,1.38,2.82,2.53.04.19-.02.46-.13.62-.48.7-2.83,1.73-3.81,1.82Z"/>
    <path class="cls-1" d="M200.3,538.63c3.45.57,6.9,1.13,10.34,1.72,4.22.73,8.43,1.56,12.66,2.18,1.79.26,2.37,1.54,3.07,2.8.1.18-.15.72-.39.9-1.42,1.09-2.86,1.76-4.85,1.38-7.31-1.38-14.66-2.55-21.99-3.8-.97-.17-2.63-1.9-2.7-2.85-.01-.17.04-.43.15-.51,1.15-.74,2.13-1.84,3.71-1.82Z"/>
    <path class="cls-1" d="M210.28,555.3c4.39.63,8.78,1.26,13.17,1.9,2.31.33,4.61.67,6.92,1.03.77.12,2.44,2.1,2.41,2.85,0,.14-.06.3-.14.42-.49.82-3.07,1.91-4.06,1.77-6.59-.9-13.18-1.79-19.78-2.68-.19-.03-.39-.08-.56-.04-1.79.43-2.66-.6-3.39-2.01-.36-.69-.28-1.06.34-1.49,1.53-1.06,3.12-1.84,5.07-1.44,0-.1,0-.2.01-.3Z"/>
    <path class="cls-1" d="M227.35,491.28c-2.96-.49-5.78-.95-8.6-1.44-2.82-.49-5.63-1.02-8.44-1.54-.91-.17-2.8-2.31-2.81-3.22,0-.2.1-.5.25-.59,1.44-.87,2.63-2.07,4.69-1.64,5.23,1.08,10.51,1.9,15.78,2.82,1.05.18,3.01,2.19,3.04,3.17,0,.17-.06.42-.19.51-1.2.81-2.27,1.88-3.72,1.93Z"/>
    <path class="cls-1" d="M223.15,498.81c5.85.71,11.19,1.36,16.53,2.02.7.09,2.39,2.28,2.34,2.97-.01.14-.06.35-.16.41-1.34.81-2.39,2.12-4.29,1.86-5.29-.71-10.6-1.33-15.91-1.91-1.1-.12-1.37-.94-1.82-1.64-.97-1.52-.99-1.58.58-2.47.97-.56,2.05-.93,2.73-1.23Z"/>
    <path class="cls-3" d="M326.85,533.61c-4.85-.61-9.7-1.21-14.55-1.84-.93-.12-2.6-1.97-2.67-2.89-.01-.17.03-.44.15-.51,1.21-.77,2.24-1.95,3.9-1.74,4.85.6,9.71,1.17,14.56,1.77,1.02.13,2.75,1.91,2.82,2.91.01.16-.09.36-.2.49-.64.77-3.04,1.8-4.02,1.81Z"/>
    <path class="cls-3" d="M239.14,544.52c3.34.64,6.41,1.21,9.47,1.8.74.14,1.46.42,2.2.45,1.79.07,2.72,1.16,3.46,2.61.31.6.2.97-.31,1.34-1.44,1.04-2.83,1.67-4.78,1.13-3.4-.94-6.9-1.52-10.35-2.25-1.02-.22-2.53-1.78-2.67-2.76-.02-.17,0-.45.1-.52.98-.65,1.99-1.26,2.87-1.81Z"/>
    <path class="cls-3" d="M289.54,497.24c1.05.19,2.85.41,4.59.84,1.34.34,1.59,1.76,2.24,2.77.05.08-.02.29-.09.41-.32.6-3.03,1.97-3.69,1.86-1.81-.3-3.62-.6-5.43-.92-.78-.14-2.37-2-2.35-2.76,0-.17.07-.42.2-.5,1.19-.76,2.23-1.83,4.54-1.71Z"/>
    <path class="cls-3" d="M299.59,529.38c-2.44.08-4.37-1.13-5.07-2.97-.1-.26.02-.77.22-.95,1.6-1.37,3.4-2,5.51-1.29.65.22,2.28,2.23,2.29,2.9,0,.14-.03.35-.13.41-1.03.71-2.08,1.4-2.83,1.9Z"/>
    <path class="cls-3" d="M262.86,209.41c-.47-.09-1.29.3-1.44-.77-.23-1.58.03-2.49,1.03-2.75,1.11-.29,2.27-.44,3.41-.58.78-.09,1.14.33,1.18,1.14.09,2.03-.58,2.69-3.14,2.95-.3.03-.6,0-1.04,0Z"/>
    <path class="cls-3" d="M172.41,337.99c-.46-.35-1.21-.64-1.32-1.08-.39-1.57,0-2.37,1.14-2.61.91-.19,1.86-.24,2.79-.31.65-.05.92.31.98.96.18,2.1-.62,2.77-3.59,3.03Z"/>
    <path class="cls-3" d="M203.2,465.11c-.22,0-.45.01-.67,0-1.83-.11-2.44-1-1.86-2.75.01-.04.02-.08.04-.11.88-1.15,2.05-.52,3.11-.49.69.02,1.38.16,1.42,1.09.01.34,0,.68.02,1.01.08.93-.38,1.3-1.27,1.25-.26-.01-.52,0-.79,0h0Z"/>
  </g>
</svg>