<?xml version="1.0" encoding="UTF-8"?>
<svg id="_Layer_" data-name="&amp;lt;Layer&amp;gt;" xmlns="http://www.w3.org/2000/svg" viewBox="0 0 794.88 794.88">
  <defs>
    <style>
      .cls-1 {
        fill: #000;
      }

      .cls-1, .cls-2, .cls-3 {
        stroke-width: 0px;
      }

      .cls-2 {
        fill: #cf0;
      }

      .cls-3 {
        fill: #fff;
      }
    </style>
  </defs>
  <path class="cls-1" d="M443.25,436.11c-.84.64-1.62,1.37-2.35,2.13-.46.49-.66.38-.9-.14-.37-.78-.72-1.58-1.16-2.32-1.71-2.93-3.43-5.87-5.17-8.79,1.24-1.06,2.55-2.19,3.91-3.36.29.48.59.96.89,1.43,1.92,3,3.43,6.26,5.16,9.38.42.75.25,1.17-.39,1.66Z"/>
  <path class="cls-1" d="M445.42,531.06l-4.91,5.22c-.75-1.03-1.45-2.12-2.05-3.27-.8-1.53-.45-3.14-.37-4.73.01-.27.27-.58.51-.76.7-.55,3.7-.2,4.31.51.86,1,1.67,2.03,2.51,3.04Z"/>
  <path class="cls-1" d="M466.19,415.73c0,.12-1.29.51-1.42.6-.92.75-1.58,1.88-2.08.82-1.42-2.98-2.96-5.91-4.13-8.99-.25-.65-.5-1.29-.77-1.93,1.51-1.31,2.94-2.55,4.26-3.7.4.97.8,1.96,1.18,2.95,1.04,2.68,2.62,5.16,4,7.7.8,1.46-1.02,1.05-1.05,2.55Z"/>
  <path class="cls-1" d="M482.93,493.97l-3.4,2.99c-.28-2.25-.52-4.5-.75-6.76-.08-.75-.09-1.62,1.09-1.72,1.74-.14,2.18.07,2.43,1.44.24,1.31.54,2.63.63,3.95,0,.03,0,.07,0,.1Z"/>
  <path class="cls-1" d="M509.89,468.61l-4.95,7.33c-1.49.31-3.07.3-4.54-.49-.34-.18-.86,0-1.27-.11-.47-.13-1.28-.4-1.28-.59.02-.73.11-1.91.53-2.09,1.75-.74,3.18-2.01,5.17-2.4,2.15-.41,4.27-.96,6.34-1.65Z"/>
  <g>
    <path class="cls-2" d="M609.35,325.38c-5.52,14.91-11,29.84-16.58,44.73-1.42,3.78-3.2,7.43-4.72,11.18-.54,1.32-.69,2.8-1.21,4.13-.34.87-.96,1.65-1.57,2.38-.72.87-1.45,1.53-2.86,1.35-2.07-.27-3.82.77-5.18,2.29-2.29,2.55-4.36,5.24-5.56,8.52-.51,1.39-1.44,2.51-3.07,2.82-.72.14-1.39.49-2.1.7-.19.05-.43-.09-.65-.14.1-.2.16-.43.3-.59,3.84-4.31,7.67-8.64,11.56-12.91.62-.68.83-1.33.76-2.21-.17-2.19-.3-4.39-.38-6.58-.03-.81-.24-.87-.86-.46-1.9,1.26-3.83,2.47-5.71,3.75-1.17.8-2.42,1.02-3.8.95-.93-.05-1.44-.51-1.44-1.36,0-1.17.01-2.38.32-3.49.65-2.38,1.49-4.7,2.33-7.26-.51.23-.9.43-1.3.6-5.16,2.21-10.28,4.5-15.49,6.59-1.45.58-3.14.75-4.72.78-2.31.05-3.25-1.04-3.33-3.33-.05-1.59.32-3.1,1.26-4.34,3.44-4.53,6.96-9,10.45-13.5.28-.36.6-.68.76-1.28-1.58.41-3.15.85-4.73,1.24-4.72,1.17-9.44,2.35-14.18,3.46-.9.21-1.88.17-2.81.13-1.7-.07-2.21-.63-2.31-2.31-.01-.27-.08-.53-.12-.79-.25.15-.54.26-.76.45-37.35,32.32-74.69,64.64-112.02,96.98-1.09.94-2.18,1.36-3.6,1.34-1.79-.02-3.59.16-5.64.27.49-.44.82-.75,1.16-1.04,18.96-16.17,37.95-32.29,56.86-48.51,12.05-10.33,23.99-20.79,35.96-31.22,9.69-8.44,19.36-16.89,29-25.38,5.2-4.58,11.14-7.89,17.5-10.46,15.04-6.08,30.1-12.09,45.16-18.13,2.3-.92,4.58-1.89,6.91-2.71,1.17-.41,2.43-.66,3.66-.73,2-.11,2.09.04,2.73,1.96v2.12ZM581.71,385.16l.17-.02c.17-1.02.18-2.1.54-3.04.86-2.19,1.97-4.29,2.84-6.47,3.08-7.73,6.08-15.5,9.17-23.23.37-.94.23-1.31-.68-1.77-5.84-2.99-9.91-7.5-11.61-13.95-.21-.78-.51-.78-1.15-.52-3.52,1.45-7.08,2.81-10.59,4.31-8.74,3.73-17.46,7.5-26.17,11.29-.89.39-1.83.85-2.49,1.52-1.67,1.71-3.21,3.55-4.76,5.38-.41.49-.67,1.11-1,1.67.65-.05,1.32-.02,1.94-.17,7.09-1.73,14.18-3.49,21.27-5.22.79-.19,1.62-.23,2.44-.31.93-.09,1.3.37,1.41,1.3.15,1.38-.5,2.3-1.4,3.19-4.58,4.56-8.58,9.61-12.4,14.81-.63.85-1.18,1.77-1.66,2.71-.42.8-.12,1.22.8,1.1.73-.09,1.46-.31,2.16-.55,6.55-2.25,12.86-5.07,18.94-8.38.81-.44,1.85-.53,2.8-.65.79-.1,1.33.39,1.29,1.18-.05,1.12-.09,2.29-.44,3.34-.84,2.49-1.88,4.91-2.82,7.37-.1.26-.12.56-.22,1.09.91-.56,1.62-.97,2.3-1.42,1.78-1.15,3.55-2.33,5.33-3.47,1.96-1.25,3.54-.48,3.66,1.8.07,1.33,0,2.67.06,4.01.04,1.04.17,2.07.26,3.11Z"/>
    <path class="cls-2" d="M541.32,431.9c.58,1.66-.4,2.91-1.73,4.2-12.91,12.48-25.66,25.13-38.69,37.48-21.5,20.4-43.67,40.05-65.97,59.56-28.81,25.2-57.51,50.51-86.23,75.81-11.84,10.44-23.58,20.99-35.4,31.45-2.32,2.05-4.79,3.94-7.24,5.85-1.56,1.21-3.18,1.83-5.33,1.22-1.81-.51-3.82-.36-5.74-.43-8-.27-15.16-3.02-21.9-7.17-8.59-5.29-14.96-12.64-19.82-21.36-2.43-4.36-3.63-9.1-3.77-14.1-.03-.9-.14-1.79-.29-2.68-.28-1.65.54-2.96,1.3-4.28.1-.18.39-.36.57-.35,1.4.1,2.23-.86,3.12-1.66,10.13-9.01,20.25-18.03,30.37-27.04,13.42-11.94,26.84-23.87,40.25-35.81.63-.56,1.2-.68,2.08-.63,1.55.09,3.11-.22,4.67-.33.4-.03.81.06,1.21.09-.24.29-.46.61-.74.86-14.29,12.61-28.58,25.22-42.87,37.83-2.08,1.84-2.05,1.82-.38,4.12,7.47,10.3,16.47,19.08,26.75,26.54,4.81,3.49,10.26,5.35,16.18,5.95,2.73.28,5.43.79,8.15,1.22,1.43.23,2.73,0,3.82-1,26.77-24.37,54.17-48.01,81.45-71.79,14.93-13.01,29.78-26.12,44.5-39.37,13.11-11.8,26.11-23.74,38.94-35.84,10.49-9.89,20.65-20.13,30.96-30.21.28-.27.54-.57.83-.83.23-.2.49-.36.74-.54.07.33.19.65.21.98.03.67,0,1.34,0,2.29ZM253.94,602.19c.24,3.89.97,7.39,2.58,10.63,5.55,11.14,13.73,19.75,24.97,25.25,5.05,2.47,10.36,4.05,16.08,4.11,1.9.02,3.79.47,5.69.69.23.03.54-.08.72-.24,3.49-2.99,6.97-5.99,10.45-9,.4-.35.58-.57-.16-.83-4.69-1.69-9.38-3.36-14.02-5.17-10.2-3.97-18.46-10.48-24.78-19.41-3.71-5.24-7.06-10.69-8.6-17.04-.27-1.11-.7-.31-1-.06-3.57,2.96-7.1,5.96-10.71,8.87-.85.69-1.37,1.37-1.21,2.19Z"/>
    <path class="cls-2" d="M553.35,416.48c-.36,1.34-.7,2.68-1.09,4.01-.05.17-.33.28-.51.41-.79.54-1.62,1.02-2.35,1.63-.41.35-.54.38-.68-.15-.19-.71-.25-1.31.38-1.93,1.37-1.32,2.65-2.74,3.96-4.11.1.05.2.09.3.14Z"/>
  </g>
  <path class="cls-2" d="M641.73,238.14v11.79c-.14,1.72-.32,3.43-.43,5.15-1.09,16.63-2.93,33.17-5.66,49.61-1.75,10.57-3.21,21.19-5.08,31.75-1.44,8.15-3.09,16.29-5.85,24.13-.51,1.45-1.13,2.85-1.68,4.28-2.07,5.42-6.04,8.38-11.74,9.06-3.12.37-6.25.64-9.37.93-2.77.26-5.54.54-8.31.71-1.57.1-1.76-.17-1.77-1.74-.03-3.71-.04-3.81,3.65-4.29,3.26-.43,6.56-.58,9.84-.93,1.67-.18,3.34-.49,4.99-.85,3.45-.75,5.72-2.9,7.16-6.08,2.08-4.6,3.56-9.4,4.71-14.3,2.95-12.51,5.12-25.16,6.88-37.89,1.12-8.13,2.49-16.23,3.56-24.36.88-6.7,1.58-13.42,2.21-20.14.73-7.94,1.53-15.89,1.23-23.88-.09-2.58-.6-5.14-.9-7.71-.08-.74-.46-.96-1.18-.93-6.24.23-12.48.42-18.72.63-2.9.1-5.81.16-8.71.33-5.72.33-11.44.74-17.15,1.1-3.17.2-6.35.4-9.53.52-8.95.35-17.9.63-26.84,1-6.47.26-12.95.54-19.41.95-8.18.53-16.36,1.15-24.54,1.83-6.61.54-13.2,1.25-19.81,1.82-1.24.11-2.52.06-3.75-.12-.88-.13-1.19.03-1.43.91-2.22,8.19-4.48,16.36-6.76,24.53-3.52,12.64-8.44,24.75-14.2,36.52-1.85,3.77-4.17,7.2-7.49,9.87-3.21,2.58-6.86,3.92-10.95,4.07-.54.02-1.14-.11-1.1.78.17,4.07-1.02,7.93-1.92,11.82-1.83,7.82-2.93,15.75-3.62,23.74-.37,4.23,1.32,7.51,5.12,9.57,3.61,1.96,7.58,2.78,11.57,3.44,7.12,1.18,14.31,1.3,21.49,1.16,8.83-.18,17.67-.35,26.49-.75,3.35-.15,6.66-1,10.01-1.38,1.9-.22,3.84-.16,5.76-.18.85,0,1.28.57,1.32,1.37.04.94.03,1.88,0,2.83-.02.86-.59,1.25-1.36,1.37-6.63,1.03-13.22,2.15-19.99,2.14-8.48-.02-16.96.48-25.45.55-9.71.08-19.42-.12-28.84-2.92-1.57-.46-3.12-1.08-4.61-1.78-4.24-2.01-6.41-5.49-6.97-10.08-.58-4.69.06-9.33.56-13.98.97-9,2.85-17.83,5.33-26.53.26-.91-.08-.95-.8-.95-6.33.01-12.65-.01-18.98.02-.97,0-1.27-.1-1-1.2,1.51-6.34,3.1-12.66,4.33-19.06.95-4.96,1.53-10.01,2.05-15.04.37-3.51.57-7.06.47-10.58-.21-7.45-1.41-14.68-5.28-21.27-1.64-2.8-3.59-5.29-6.37-6.98-6.6-4.01-13.4-7.65-21.13-8.97-5.71-.97-11.49-1.29-17.25-.49-17.16,2.39-33.18,8.35-48.46,16.26-12.07,6.25-19.85,16.38-23.85,29.29-3.9,12.6-9.95,23.98-18.28,34.17-.1.12-.21.24-.3.37-.16.25-.31.52-.46.78.29.06.58.17.87.17,4.99,0,9.98.01,14.97,0,.82,0,1.77-.38,2.42-.07.38.18.24,1.38.42,2.1.42,1.69,1.89,2.84,3.69,2.97,1.02.07,2.03.15,3.05.22,0,.12,0,.23,0,.35-2.32,0-4.63-.01-6.95,0-18.55.15-37.09.37-55.64.41-6.87.01-13.75-.26-20.6-.69-3.66-.23-7.35-.81-10.93-1.66-7.8-1.84-11.05-5.7-11.73-13.72-.29-3.4-.3-6.82-.27-10.24.01-1.25-.32-1.48-1.48-1.46-7.7.13-15.4.21-23.1.26-.78,0-1.05.34-1.16.99-.79,4.36-1.74,8.7-2.33,13.09-1.27,9.54-2.42,19.09-3.5,28.65-.9,8-1.65,16.02-2.45,24.03-.92,9.15-1.84,18.29-2.72,27.44-.62,6.41-1.12,12.83-1.75,19.24-1.26,12.74-1.85,25.55-4.28,38.15-1.13,5.86-1.88,11.71-1.36,17.67.26,3.02.42,6.05,1.85,8.81,2.39,4.6,6.49,6.65,11.32,7.56,5.81,1.09,11.66.73,17.51.38,2.47-.15,4.94-.28,7.41-.3,1.49-.02,1.87.47,1.9,1.93,0,.39,0,.79,0,1.18-.02,1.39-.44,1.83-1.79,1.94-7.01.6-14.03.94-21.06.68-2.85-.11-5.73-.42-8.51-1.05-7.74-1.77-12-6.6-13.05-14.51-.25-1.87-.34-3.75-.52-5.63-.04-.46-.16-.92-.24-1.38v-8.49c.21-1.63.37-3.26.62-4.88.92-5.98,1.97-11.93,2.77-17.92.67-5.02,1.07-10.07,1.56-15.11.52-5.27,1-10.55,1.5-15.83.52-5.39,1.03-10.79,1.58-16.18.56-5.47,1.2-10.93,1.75-16.4.47-4.69.84-9.39,1.32-14.07.71-6.99,1.43-13.98,2.23-20.97.86-7.57,1.78-15.13,2.74-22.69.82-6.42,1.43-12.89,3.31-19.13,1.91-6.33,5.66-11.12,11.94-13.54,1.91-.73,4.03-1.19,6.07-1.22,4.12-.07,8.24.2,12.36.42,1.13.06,1.5-.26,1.7-1.4,1.79-10.17,3.57-20.35,5.52-30.48,2.72-14.12,5.14-28.28,6.55-42.6.76-7.74,1.75-15.45,2.8-23.15.26-1.9,1.17-3.71,1.76-5.57.21-.67.31-1.38.54-2.04.18-.5.35-1,.52-1.51l277.81-4.2c-.26,2.19-.72,4.36-1.12,6.53-2.71,14.47-5.46,28.93-8.22,43.39-.42,2.2-.91,4.38-1.44,6.56-.19.77,0,.93.75.95,4.71.12,9.41.44,14.12.42,7.46-.04,14.93-.1,22.38-.49,9.2-.49,18.4-1.26,27.58-2.05,7.94-.68,15.85-1.62,23.78-2.31,5.39-.46,10.8-.85,16.21-.97,7.06-.16,14.14-.18,21.2.04,4.38.14,8.79.54,13.09,1.37,7.69,1.47,10.93,5.03,12.29,12.77.43,2.46.67,4.97,1,7.45Z"/>
  <g>
    <path class="cls-1" d="M608.19,302.68c-.46-.28-.7-.46-.97-.59-9.46-4.56-18.14-10.44-26.95-16.1-3.65-2.34-7.36-4.6-10.99-6.96-1.84-1.2-1.82-1.41-.6-3.25.28-.43.55-.86.85-1.27.61-.82,1.34-.98,2.24-.43,9.1,5.48,18.16,11.03,27.33,16.39,4.55,2.66,9.33,4.95,13.97,7.46,1.47.8,2.85,1.77,4.23,2.72,1.21.84,1.21,1.7.54,3.04-1.38,2.78-3.59,4.39-6.47,5.41-8.96,3.15-17.89,6.37-26.82,9.61-7.75,2.81-15.48,5.67-23.2,8.55-1.8.67-3.54,1.5-5.29,2.31-1.1.51-2.02.47-3.07-.26-3.05-2.12-3.04-1.52-.88-4.62.61-.88,1.56-1.74,2.54-2.12,11.7-4.46,23.42-8.86,35.17-13.21,5.52-2.05,11.09-3.97,16.63-5.95.54-.19,1.05-.43,1.75-.72Z"/>
    <path class="cls-1" d="M515.63,276.59c1.23.86,2.59,1.73,3.82,2.73.21.17.06,1.03-.18,1.43-1.27,2.15-2.81,3.89-5.11,5.23-11.88,6.9-23.62,14.01-35.42,21.05-.87.52-1.75,1.01-2.62,1.52-1.38.81-1.4.99.07,1.79,1.85,1,3.7,2,5.61,2.86,8.14,3.68,16.33,7.26,24.45,10.99,2.84,1.31,5.55,2.92,8.27,4.48,1.47.84,1.53,1.43.61,2.87-.35.55-.72,1.09-1.11,1.62-.94,1.28-1.59,1.5-3.03.85-11.46-5.14-22.94-10.21-34.33-15.49-2.91-1.35-5.6-3.23-8.24-5.09-2.68-1.89-2.76-3.32-1.06-6.09,1.47-2.39,3.35-4.29,5.69-5.88,11.29-7.69,23.18-14.42,35.06-21.16,1.87-1.06,3.77-2.08,5.67-3.07.5-.26,1.07-.37,1.85-.63Z"/>
    <path class="cls-1" d="M267.93,291.52c-11.94.16-23.88.3-35.82.52-1.96.04-3.12-1.29-4.53-2.21-.18-.12-.15-.84.02-1.15.49-.89.99-1.82,1.7-2.54.47-.47,1.28-.82,1.95-.84,5.06-.15,10.13-.21,15.19-.3,11.03-.2,22.06-.38,33.09-.6,7.18-.15,14.37-.36,21.55-.55,1.06-.03,2.13-.01,3.17-.18,2.21-.37,3.96.47,5.63,1.77.6.47.69.93.34,1.5-.55.9-1.03,1.92-1.79,2.61-.57.52-1.54.79-2.35.82-6.24.3-12.47.57-18.72.75-6.48.19-12.96.26-19.44.39Z"/>
    <path class="cls-2" d="M241.66,348.35c-8.77-.16-16.71-.21-24.64-.47-5.77-.19-11.53-.72-17.29-.99-3.02-.14-6.05-.06-9.07-.03-1.76.02-2.8-1.25-4.04-2.15-.14-.1-.01-.73.13-1.05,1.12-2.6,3.1-3.75,5.95-3.6,4.39.23,8.8.22,13.18.52,10.31.7,20.63,1.01,30.96,1.02,9.38,0,18.77.19,28.15.24,2.04.01,3.35,1.38,4.85,2.38.18.12.19.81.02,1.08-1.32,2.07-2.99,3.18-5.69,3.12-7.77-.18-15.56-.06-22.5-.06Z"/>
    <path class="cls-2" d="M209.86,396c-5.44,0-15.3.08-25.15-.09-1.29-.02-2.58-1.29-3.82-2.07-.14-.09.02-.78.15-1.14,1.31-3.53,4.37-3.61,7.39-3.66,6.04-.1,12.09-.11,18.14-.21,11.34-.18,22.69-.38,34.03-.62,4.1-.08,8.04.45,11.72,2.38.34.18.77.17,1.12.33.29.14.78.45.74.59-.08.33-.35.72-.65.88-.82.43-1.68.79-2.54,1.11-2.65.99-5.34,1.76-8.22,1.81-9.5.17-19,.39-32.92.69Z"/>
    <path class="cls-3" d="M355.15,193.98c-8.2.36-16.4.71-24.6,1.06-1.06.05-2.13-.03-3.18.07-1.95.18-3.36-.9-4.76-1.97-.25-.19-.32-.95-.15-1.29.38-.81.85-1.64,1.49-2.24.49-.46,1.27-.8,1.95-.85,3.96-.28,7.92-.41,11.88-.7,11.06-.81,22.13-.37,33.2-.53,4.2-.06,8.4-.25,12.6-.39,1.86-.06,3.11,1.18,4.45,2.16.19.14.11.88-.05,1.26-1.04,2.45-2.89,3.32-5.59,3.33-9.07.02-18.14.26-27.22.41,0-.11,0-.22-.01-.32Z"/>
    <path class="cls-3" d="M435.28,195.18c-9.14-.16-19.19-.36-29.24-.48-1.62-.02-2.68-.99-3.86-1.79-.19-.12-.29-.57-.23-.82.39-1.61,2.09-3.13,3.77-3.21,2.9-.14,5.8-.22,8.71-.21,9.82.02,19.63.13,29.45.14,7.06,0,14.13-.05,21.19-.19,1.91-.04,3.29.87,4.63,1.93.24.19.29.95.12,1.29-.39.8-.85,1.65-1.51,2.21-.52.44-1.38.67-2.09.67-5.93.02-11.85-.1-17.78-.04-4.08.04-8.16.31-13.15.51Z"/>
    <path class="cls-2" d="M219.99,411.35c-6.99,0-13.98-.05-20.97.03-2.14.03-3.79-.87-5.33-2.1-.27-.21-.4-.95-.24-1.28.4-.84.91-1.68,1.56-2.34.42-.43,1.14-.78,1.73-.8,3.76-.14,7.53-.26,11.29-.22,8.95.1,17.9.26,26.85.48,2.9.07,5.82.23,8.68.71,1.33.22,2.54,1.25,3.76,2,.16.1.16.76.01,1.03-.95,1.78-2.04,3.17-4.48,3.09-6.24-.19-12.48-.14-18.73-.19-1.37,0-2.75,0-4.12,0,0-.14,0-.28,0-.42Z"/>
    <path class="cls-1" d="M288.96,215.28c-8,.31-14.99.55-21.97.87-1.92.09-3.84.32-5.73.66-1.5.27-2.72.01-3.95-.89-1.92-1.4-1.84-1.26-.69-3.34.99-1.78,2.43-2.32,4.29-2.56,7.5-.98,15.03-1.09,22.57-1.21,7.3-.11,14.61-.15,21.92-.24,1.92-.02,3.08,1.38,4.48,2.31.15.1.14.7,0,.95-.51.88-.99,1.84-1.72,2.51-.58.52-1.51.89-2.29.9-5.97.07-11.94.04-16.9.04Z"/>
    <path class="cls-2" d="M227.61,363.76c-5.1,0-10.21-.08-15.31.04-1.83.04-2.99-1.01-4.28-1.9-.2-.14-.22-.81-.07-1.12.99-2.15,2.52-3.39,5.08-3.43,6.16-.11,12.32-.33,18.47-.67,7.87-.43,15.74-1.01,23.61-1.52.82-.05,1.65-.02,2.47-.12,1.88-.23,3.15.97,4.5,1.92.19.14.2.8.06,1.11-.98,2.15-2.57,3.27-5.04,3.58-9.79,1.25-19.63,1.66-29.48,1.79,0,.1,0,.21,0,.31Z"/>
    <path class="cls-2" d="M205.82,435.59c-8.62-.6-17.28-1.1-25.92-1.88-1.44-.13-2.79-1.42-4.13-2.27-.17-.1-.11-.83.06-1.14.49-.89.99-1.84,1.7-2.53.53-.51,1.42-.93,2.14-.91,3.53.11,7.05.45,10.58.58,8.35.31,16.7.54,25.06.81.63.02,1.27.13,1.88.06,2.37-.3,4.24.77,6.01,2.13,1,.77.83,1.9-.38,2.51-.3.15-.72.27-.84.53-.59,1.19-1.57,1.48-2.81,1.53-4.43.16-8.86.38-13.35.59Z"/>
    <path class="cls-2" d="M271.78,330.83c-6.63.32-13.26.6-19.88.99-1.96.12-3.61-.36-5.13-1.57-.59-.47-.6-.86-.29-1.5,1-2.09,2.62-3.07,4.92-3.18,3.72-.18,7.44-.52,11.16-.68,9.1-.4,18.2-.7,27.29-1.14,2.94-.14,5.5.41,7.53,2.67.58.65.44,1.13-.36,1.44-.46.18-1.01.46-1.24.86-.64,1.15-1.56,1.51-2.81,1.54-6.01.13-12.01.31-18.02.48-1.06.03-2.12.1-3.18.15,0-.02,0-.03,0-.05Z"/>
    <path class="cls-3" d="M396.05,226.21c6.91-.1,13.83-.16,20.74-.32,1.78-.04,2.87,1.11,4.14,1.97.18.12.19.76.04,1.03-.47.85-.96,1.73-1.62,2.43-.34.36-1.04.54-1.58.55-13.12.2-26.24.33-39.36.58-2.74.05-5.48.44-8.19.88-1.71.28-2.71-.76-3.87-1.57-.15-.1-.22-.56-.12-.73.85-1.39,1.46-3.08,3.39-3.31,3.7-.44,7.39-1.02,11.1-1.16,5.1-.2,10.21-.05,15.32-.05,0-.1,0-.19,0-.29Z"/>
    <path class="cls-3" d="M381.07,213.54c-2.93,0-6.74-.07-10.55.03-1.92.05-3.07-1.21-4.44-2.14-.18-.12-.16-.83,0-1.14.44-.83.9-1.71,1.57-2.33.55-.51,1.41-.91,2.15-.94,4.86-.24,9.73-.28,14.59-.55,6.43-.35,12.84-.86,19.27-1.29.78-.05,1.6.03,2.35-.16,2.29-.6,4.11.26,5.86,1.61.64.49.76.95.36,1.58-.46.73-.85,1.55-1.46,2.13-.59.56-1.4,1.16-2.15,1.22-8.88.7-17.78,1.3-27.56,1.99Z"/>
    <path class="cls-3" d="M324.47,247.74c1.68-.44,4.04.98,6.43,2.25.96.51,1.01,1.08.08,1.91-1.79,1.6-3.7,2.91-6.28,3.09-8.06.57-16.12,1.24-24.17,1.94-2.85.25-5.71.56-8.51,1.11-2.07.4-3.34-.78-4.73-1.79-.21-.15-.18-.89-.01-1.23,1.11-2.34,2.85-3.9,5.52-4.23,3.5-.44,7-.96,10.51-1.29,6.64-.61,13.29-1.11,21.17-1.75Z"/>
    <path class="cls-2" d="M201.77,443.23c5.77-.21,11.54-.38,17.3-.66,2.52-.12,4.4,1.17,6.28,2.5.22.15.26.9.09,1.2-1.01,1.78-2.59,2.89-4.61,3.04-3.25.25-6.51.38-9.76.44-7.38.13-14.76.21-22.15.27-1.37.01-2.75-.25-4.11-.21-1.94.05-3.47-.78-4.94-1.88-.55-.41-.66-.83-.29-1.4.5-.75.96-1.54,1.51-2.25.74-.96,1.85-.93,2.91-.93,2.67,0,5.34.04,8,.05,3.26.01,6.52,0,9.77,0,0-.06,0-.11,0-.17Z"/>
    <path class="cls-1" d="M521.24,335.1c.33-.79.51-1.31.76-1.79,9.85-18.64,19.76-37.24,29.53-55.92,2.63-5.04,4.86-10.29,7.28-15.43.22-.46.47-.91.75-1.33,1.17-1.8,2.18-1.89,3.53-.25.23.28.25.93.08,1.28-1.3,2.71-2.62,5.41-4.02,8.07-4.94,9.38-9.95,18.72-14.86,28.11-3.27,6.25-6.47,12.52-9.6,18.84-2.59,5.23-5,10.54-7.54,15.79-.63,1.29-1.43,2.5-2.2,3.72-.54.85-1.25,1.02-2.06.33-.56-.47-1.11-.95-1.66-1.42Z"/>
    <path class="cls-2" d="M192.98,320.12c4.98.46,9.9.89,14.83,1.36,6.76.65,13.51,1.34,20.27,2.01,2.37.24,4.76.31,6.71,2.06.64.58.76,1.03.36,1.69-.52.83-.97,1.75-1.66,2.42-.42.41-1.26.62-1.88.56-3.13-.26-6.24-.67-9.37-.97-8.01-.78-16.02-1.52-24.03-2.3-1.48-.14-3.03-.12-4.43-.56-1.5-.47-2.86-1.38-4.25-2.14-.18-.1-.37-.57-.29-.69.73-1.09,1.46-2.19,2.33-3.16.26-.29.96-.2,1.42-.27Z"/>
    <path class="cls-1" d="M284.2,233.87c-1.45.46-2.91-.52-4.37-1.58-.61-.44-.63-.85-.3-1.49,1.03-1.99,2.44-3.14,4.85-3.23,5.61-.21,11.21-.69,16.81-.98,5.96-.31,11.93-.47,17.89-.81,1.93-.11,3.09,1.12,4.43,2.07.19.13.24.78.09,1.01-.59.92-1.24,1.82-1.99,2.61-.3.31-.91.43-1.39.46-5.1.25-10.2.41-15.3.68-6.74.37-13.48.82-20.73,1.27Z"/>
    <path class="cls-1" d="M254.38,197.88c-4.95,0-9.9-.07-14.85.04-2.06.05-3.27-1.34-4.75-2.3-.18-.12-.18-.84,0-1.14.53-.96,1.08-1.95,1.83-2.73.45-.47,1.29-.8,1.96-.82,6.05-.13,12.09-.15,18.14-.26,4.16-.08,8.32-.22,12.48-.37,2.05-.07,3.36,1.33,4.86,2.35.15.1.15.69.01.92-.58.97-1.13,2.01-1.92,2.77-.53.51-1.45.82-2.21.86-5.18.23-10.36.36-15.55.52,0,.05,0,.11,0,.16Z"/>
    <path class="cls-3" d="M299.62,267.91c5.02,0,10.05-.01,15.07,0,1.66,0,3.17.56,4.46,1.59.91.73,1.89,1.07,3.04.95.23-.02.5-.06.7.02.43.19,1.17.47,1.17.7-.01.69-.6.9-1.28.84-.7-.05-1.42-.1-2.12-.03-.44.04-1.06.14-1.27.45-1.13,1.66-2.82,1.86-4.57,1.91-6.72.19-13.43.34-20.15.53-2.9.08-5.81.2-8.71.35-2.02.11-3.32-1.23-4.77-2.25-.2-.14-.2-.84-.04-1.14.51-.93,1.03-1.89,1.76-2.63.46-.47,1.3-.75,1.98-.79,4.9-.27,9.81-.45,14.71-.65,0,.05,0,.1,0,.15Z"/>
    <path class="cls-1" d="M257.9,251.24c5.54,0,11.07.02,16.61-.01,1.67,0,2.65,1.22,3.89,1.99.15.09.15.51.13.77-.02.22-.19.42-.29.63-1.03,2.26-2.66,2.96-5.22,2.9-9.78-.23-19.56-.2-29.34-.16-2.12,0-3.91-.52-5.54-1.83-.61-.49-.79-.92-.34-1.58.4-.58.82-1.16,1.16-1.78.5-.89,1.21-1.23,2.22-1.23,5.58.02,11.15.01,16.73.01,0,.09,0,.19,0,.28Z"/>
    <path class="cls-1" d="M252.28,274.59c-6.68,0-11.43-.05-16.18.02-2.11.03-3.64-1.08-5.17-2.23-.24-.18-.35-.9-.19-1.2.47-.9,1-1.81,1.7-2.54.4-.43,1.15-.72,1.75-.74,10.01-.2,20.02-.32,30.02-.53,1.95-.04,3.15,1.25,4.56,2.17.2.13.16.92-.03,1.27-.48.9-.98,1.84-1.69,2.53-.5.48-1.37.76-2.09.79-4.86.22-9.73.36-12.67.45Z"/>
    <path class="cls-3" d="M429.08,248.52c4.34.28,8.69.53,13.03.87,3.67.29,7.32.77,10.99,1,1.88.12,3.2,1.17,4.57,2.19.23.17.25.96.07,1.31-.46.9-.99,1.8-1.67,2.54-.4.44-1.12.64-1.74.8-.39.1-.87.02-1.28-.1-4.42-1.3-9-1.01-13.51-1.35-5.16-.39-10.34-.52-15.52-.66-1.75-.05-2.85-1.18-4.12-2.04-.19-.13-.18-.82-.02-1.13.44-.83.9-1.71,1.57-2.33.52-.47,1.36-.77,2.08-.81,1.84-.11,3.69-.04,5.53-.04,0-.08,0-.16.01-.25Z"/>
    <path class="cls-3" d="M448.92,214.68c-4.08,0-8.16-.11-12.24.04-2.07.08-3.62-.75-5.16-1.88-.56-.41-.58-.88-.22-1.42.43-.65.78-1.39,1.32-1.94.43-.43,1.08-.89,1.64-.9,6.9-.08,13.81-.08,20.71-.09,2.24,0,4.47.03,6.71,0,1.78-.03,2.92,1.18,4.2,2.11.17.12.15.74,0,1.01-.43.79-.85,1.66-1.5,2.22-.56.48-1.43.82-2.17.83-4.43.07-8.87.04-13.3.04,0,0,0-.01,0-.02Z"/>
    <path class="cls-3" d="M341.02,206.26c2.63,0,5.25.03,7.88,0,1.87-.03,3.02,1.3,4.36,2.26.16.12.06.83-.12,1.15-.45.78-.91,1.6-1.56,2.19-.53.48-1.33.9-2.03.94-5.33.29-10.66.48-15.99.72-2.08.09-4.16.17-6.23.36-1.97.19-3.15-1.19-4.55-2.13-.18-.12-.15-.83.01-1.13.46-.86.95-1.75,1.63-2.44.47-.48,1.25-.86,1.92-.9,4.89-.31,9.79-.53,14.68-.78,0-.07,0-.14,0-.22Z"/>
    <path class="cls-3" d="M441.42,272.2c-4.27.17-8.55.26-12.81.55-2.12.14-3.72-.77-5.23-1.98-.27-.21-.4-.95-.24-1.27.4-.84.92-1.67,1.55-2.34.38-.4,1.07-.7,1.63-.72,6.31-.19,12.62-.32,18.94-.43,1.29-.02,2.66-.12,3.85.26,1.3.4,2.46,1.28,3.64,2.03.18.11.14.64.12.96,0,.17-.23.32-.3.49-1.02,2.42-2.69,3.34-5.39,2.87-1.87-.33-3.83-.06-5.76-.06v-.35Z"/>
    <path class="cls-3" d="M449.26,234.2c-4.1-.32-8.21-.66-12.31-.94-1.53-.1-2.57-1.09-3.71-1.88-.2-.14-.28-.75-.15-1.01.97-1.96,2.21-3.28,4.78-3.14,6.11.32,12.23.38,18.35.51,1.78.04,3.08,1.06,4.41,2.01.2.14.27.75.14,1.02-.93,1.95-2.22,3.35-4.66,3.24-2.27-.11-4.55-.02-6.83-.02,0,.07-.01.14-.02.22Z"/>
    <path class="cls-3" d="M299.16,195c-2.9.13-5.8.22-8.69.39-1.87.11-2.93-1.29-4.25-2.19-.16-.11-.06-.83.12-1.15.47-.85.97-1.73,1.63-2.44.44-.47,1.17-.92,1.78-.94,5.37-.16,10.74-.35,16.1-.2,1.26.04,2.51,1.28,3.69,2.09.2.13.15.91-.03,1.26-.47.9-.98,1.83-1.68,2.53-.46.46-1.28.73-1.96.76-2.23.09-4.47.03-6.7.03,0-.05,0-.1,0-.15Z"/>
    <path class="cls-2" d="M235.04,372.56c3.08-.18,6.11-.08,8.88,1.54.55.32,1.04.76,1.56,1.14-.5.62-.91,1.37-1.53,1.83-2.53,1.89-5.58,2.11-8.58,2.43-2.93.31-5.86.54-8.79.82-1.83.17-2.88-1.22-4.16-2.11-.15-.1.02-.79.17-1.15,1.24-3.07,3.84-3.87,6.82-4.04,1.88-.11,3.75-.3,5.63-.45Z"/>
    <path class="cls-3" d="M434.77,293.95c-2.51,0-5.03-.06-7.54.02-1.77.05-2.84-1.18-4.12-2.02-.18-.12-.16-.83,0-1.14.42-.8.86-1.63,1.5-2.24.49-.47,1.28-.87,1.94-.87,5.1-.01,10.22-.09,15.3.24,1.47.09,2.87,1.41,4.27,2.22.16.09.24.64.12.83-1.17,1.92-1.79,3.47-4.53,3.15-1.17-.13-2.35-.13-3.53-.15-1.14-.02-2.28,0-3.42,0v-.03Z"/>
    <path class="cls-1" d="M482.35,166.16c-1.94-.17-3.8-.46-5.38-1.78-.65-.54-.73-.95-.32-1.67.89-1.55,1.88-2.82,3.95-2.42.22.04.49.02.69-.08,1.91-.9,3.4-.03,4.8,1.14.26.22.53.62.53.93-.02.95-2.18,3.43-3.12,3.68-.38.1-.76.14-1.15.21Z"/>
    <path class="cls-3" d="M341.02,225.7c1.12.77,2.07,1.41,3.01,2.07.05.04.11.16.08.21-.6,1.06-1.09,2.21-1.84,3.15-.57.71-1.36.22-2-.21-2.53-1.72-2.51-1.2-.76-3.8.34-.5.9-.86,1.5-1.42Z"/>
  </g>
  <g>
    <path class="cls-1" d="M457.14,472.9c-.24-4.52-2-6.7-6.34-7.61-.85-.18-1.12-.48-1.06-1.3.08-1.23-.4-2.25-1.46-2.9-1.03-.63-2.1-1.21-3.17-1.75-.44-.23-.94-.43-1.43-.46-2.2-.12-4.4-.27-6.59-.23-1.88.03-3.77.5-5.63.39-4.03-.25-8.08-.52-11.93-1.94-2.14-.79-4.35-1.25-6.56-.43-4.86,1.81-9.74,3.57-14.51,5.6-13.89,5.89-27.87,11.54-42.21,16.28-6.25,2.07-12.53,3.81-19.16,4.14-5.49.28-10.98.64-16.44,1.25-9.09,1.01-18.16,2.25-27.23,3.39-1.01.13-2.02.21-3.27.34,1.38-1.41,2.5-2.61,3.69-3.75.96-.91.86-2.06.79-3.18-.01-.22-.43-.59-.69-.61-.99-.08-1.92,0-2.71.8-1.74,1.76-3.56,3.44-5.32,5.18-.35.35-.82.81-.84,1.23-.05,1.15-.76,1.16-1.58,1.25-5.74.63-11.48,1.25-17.2,1.96-7.75.95-15.51,1.94-23.25,2.99-7.39,1-14.76,2.15-22.02,3.93-5.52,1.35-11.14,2.31-16.72,3.41-.69.13-.91.43-.94,1.08-.04.96.17,1.63,1.29,1.68.63.03,1.26.21,1.87.16,3.79-.32,7.64-.37,11.36-1.09,8.28-1.59,16.51-3.45,24.91-4.43,8.03-.94,16.03-2.13,24.05-3.13,9.81-1.22,19.64-2.35,29.46-3.52,1.13-.13,2.26-.25,3.34-.36-1.34,2.55-2.75,4.91-3.85,7.42-4.35,9.85-5.72,20.21-4.82,30.87.38,4.46,1.08,8.91,3.3,12.92.4.73-.17.79-.6.92-1.98.64-3.98,1.23-5.95,1.89-19.01,6.4-38.52,10.55-58.36,13.32-10.02,1.4-19.98,3.23-29.96,4.88-4.99.83-9.98,1.68-15.07.78-5.55-.98-10.56-2.99-14.01-7.65-3.25-4.39-4.95-9.48-5.37-14.89-.54-6.84,1.1-13.25,4.55-19.19,4.39-7.55,9.18-14.85,14.86-21.5,7.23-8.45,14.64-16.75,21.9-25.17,8.5-9.85,16.96-19.72,25.38-29.64,5.79-6.83,12.66-12.28,20.41-16.71,4.4-2.51,8.74-5.13,12.99-7.9,4.69-3.07,9.52-5.35,15.25-6.03,4.67-.56,9.2-2.24,13.81-3.37,1.48-.36,3.04-.91,4.49-.74,5.81.68,11.57,1.73,17.15,3.55,6.68,2.18,13.29,4.6,20.03,6.56,10.7,3.11,21.6,4.98,32.79,3.45,9.03-1.23,17.68-3.79,25.54-8.49,8.91-5.33,13.35-13.17,12.98-23.71-.19-5.36-2.08-9.68-6.47-12.83-.63-.45-1.24-.94-1.97-1.5.43-.19.7-.34.98-.43,4.52-1.45,9.04-2.91,13.58-4.31,1-.31,2.07-.58,3.11-.56,2.15.04,4.3.25,6.45.45,7.12.68,13.09,3.69,18.32,8.55,7.36,6.84,12.9,14.82,16.72,24.03,1.51-1.31,2.94-2.55,4.26-3.7-3.16-7.62-6.99-14.83-12.42-21.15-3.84-4.47-8.12-8.5-13.64-10.81-2.33-.97-4.9-1.86-7.35-1.86-2.5,0-4.9-.36-7.33-.67-2.04-.26-4.1-.75-6.15-.08-.91.3-1.11-.11-1-.92.25-1.87.53-3.73.71-5.61.79-7.9,1.59-15.79,2.29-23.69.42-4.64,1.39-9.26.79-13.97-.05-.4.18-.83.29-1.24.53-2,1.12-3.99,1.58-6.01.35-1.57.53-3.18.78-4.77.85-5.31,1.73-10.62,2.54-15.93.4-2.63.41-5.36,1.08-7.91,2.5-9.45,3.16-18.99,1.44-28.6-1.19-6.63-3.73-12.73-8.66-17.59-2.92-2.88-6.4-4.9-10.04-6.72-6.17-3.08-12.53-5.46-19.48-5.96-1.25-.09-2.48-.25-3.72-.38h-5.9c-.54.08-1.08.19-1.62.24-3.4.35-6.83.49-10.18,1.07-16.71,2.9-32.42,8.77-47.44,16.51-5.55,2.85-10.38,6.78-13.66,12.18-2.36,3.88-4.59,7.91-6.27,12.12-2.93,7.32-5.46,14.8-8.02,22.26-.95,2.76-2.02,5.36-3.78,7.76-4.71,6.41-8.35,13.48-12.03,20.51-1.34,2.57-2.68,5.1-4.78,7.23-4.94,4.99-10.4,9.33-16,13.53-5.22,3.91-10.48,7.79-15.4,12.05-8.84,7.64-12.32,17.31-9.79,28.88.7,3.22,1.63,6.39,2.45,9.58.31,1.21.06,2.31-.52,3.4-.81,1.53-2.15,2.45-3.55,3.35-4.33,2.78-8.69,5.51-12.93,8.43-6.62,4.56-11.17,10.7-13.66,18.38-1.42,4.38-2.25,8.83-.97,13.31,1.59,5.62,4.88,10.33,8.85,14.56.44.47,1.06.77,1.47,1.26.75.9,1.34,1.95,2.13,2.81.74.81.82,1.35.03,2.25-9.22,10.57-18.38,21.19-27.58,31.78-7.38,8.5-14.13,17.46-19.7,27.27-2.29,4.04-3.92,8.3-4.5,12.93-.24,1.9-.43,3.81-.65,5.71v3.77c.08.46.21.92.22,1.38.16,4.3,1.3,8.36,2.88,12.33,2.87,7.21,8.18,11.58,15.64,13.37,7.15,1.71,14.35,1.33,21.53.16,13.13-2.13,26.24-4.36,39.37-6.47,14.44-2.33,28.73-5.25,42.63-9.85,23.56-7.79,47.08-15.69,70.62-23.52.52-.17,1.16-.2,1.7-.1,3.4.61,6.79.49,10.2.06,6.16-.77,11.86-2.95,17.4-5.63,5.72-2.77,11.44-5.54,17.17-8.28,3.33-1.59,6.72-3.07,10.02-4.72,2.69-1.34,5.53-1.98,8.49-2.23,3.33-.28,6.66-.5,9.97-.85,5.19-.54,10.38-1.15,15.56-1.77,2.4-.29,4.84-.31,7.13-1.37,3.09-1.43,5.26-3.76,6.91-6.65.09-.16.14-.39.1-.56-.4-1.56-.77-3.13-2.07-4.26-1.07-.94-2.37-.92-3.67-.97-5.41-.23-10.83-.3-16.23-.73-3.94-.31-7.84-1.09-11.76-1.67-.18-.03-.34-.14-.52-.21.12-.17.21-.41.37-.52,1.81-1.18,3.6-2.39,5.46-3.49.45-.26,1.13-.23,1.7-.18,5.66.49,11.3,1.3,17.02.33,2.78-.48,5.63-.46,8.28-1.62,3.94-1.73,4.83-6.89,1.69-9.86-.25-.23-.41-.66-.43-1ZM369.96,264.46s.05,0,.08.01c-.03,0-.06.02-.09.02-.06.45-.04.92-.19,1.34-.5,1.45-1.04,2.88-1.59,4.31-.41,1.04-2.17,2.05-3.39,2,0,.03,0,.06,0,.09,0-.02,0-.04-.02-.06,1.73-2.57,3.47-5.14,5.21-7.71ZM358.29,282.41c.13-.18.35-.46.5-.45,1.94.15,2.97-1.43,4.37-2.27.19-.11.38-.2.64-.34-1.09,3.78-9.49,13.27-14.81,16.51,3.09-4.49,6.19-8.97,9.29-13.45ZM319.11,306.32c.11-1.04.37-2.11.8-3.05,1.24-2.74,2.68-3.45,5.64-2.96,5.27.89,9.7,3.54,13.8,6.8.79.63,1.61.88,2.6.84.83-.03,1.27-.29,1.2-1.18-.03-.39.13-.87-.04-1.16-.8-1.42.37-1.21,1.11-1.56,1.59-.74,3.22-1.49,4.63-2.51,6.13-4.45,11.87-9.36,15.98-15.84,1.78-2.8,3.08-5.91,4.67-8.84.34-.63.93-1.29,1.57-1.56,2.66-1.14,5.41-1.86,8.36-1.44,1.04.15,2.12.06,3.18.05.74,0,1.11-.38,1.16-1.17.16-2.6-.17-3.2-2.8-3.39-2.53-.19-5.09-.08-7.62.04-.9.04-.97-.15-.62-.83.45-.87.92-1.73,1.39-2.6,4.4-8.18,7.04-16.95,8.52-26.08.17-1.06.55-1.21,1.46-1.25,9.29-.44,16.93,3.12,23.3,9.65,3.76,3.86,6.64,8.34,8.9,13.24.43.94.25,1.12-.75,1.2-3.56.27-6.82,1.44-9.69,3.61-.89.67-1.71,1.39-1.87,2.6-.03.22-.18.43-.31.62-2.92,4.22-4.1,9.01-4.81,14.01-.71,4.97.42,9.42,3.22,13.52.26.39.5.8.73,1.21,1.47,2.58,1.39,3.56-.39,5.87-.62.81-1.27,1.61-1.83,2.46-.29.44-.51.99-.56,1.51-.04.45.09,1.28.31,1.33.55.15,1.48.2,1.76-.13,1.61-1.9,3.51-3.66,4.09-6.22.44-1.96-.1-3.82-.92-5.6-.36-.78-.79-1.54-1.24-2.27-2.51-4.14-3.56-8.53-2.27-13.31.53-1.97,1.03-3.95,1.71-5.87,2.22-6.33,7.56-8.2,13.45-9.23.98-.17,1.33.16,1.4,1.23.33,4.97.84,9.94,1.16,14.91.18,2.86.07,5.73.17,8.59.18,5.32-1.05,10.45-2.06,15.6-1.03,5.28-2.07,10.59-3.66,15.71-3.29,10.58-8.61,20.02-16.81,27.68-5.51,5.14-12.01,5.86-19.02,4.42-5.79-1.2-10.73-4.15-15.42-7.58-1.71-1.25-3.38-2.57-5.07-3.85-.24-.18-.49-.33-.68-.46-.86,5.22,2.06,8.93,5.14,12.44,2.27,2.59,4.92,4.84,7.4,7.25,1.02,1,2.22,1.45,3.64,1.24.73-.11.97.1.83.89-1.59,8.45-3.14,16.9-4.74,25.35-.4,2.09-.24,4.06.86,5.91.7,1.17,2.08,1.75,3.34,1.28.28-.1.62-.58.59-.86-.1-1.16-.1-2.41-.56-3.43-.62-1.38-.81-2.67-.4-4.08.06-.19.07-.39.11-.58.43-2.46.48-2.24,2.86-2.79,4.16-.96,8.26-2.21,12.36-3.4,1.24-.36,2.44-.88,3.63-1.39.68-.29,1.21-.28,1.82.23,1.11.94,2.31,1.77,3.46,2.66,5.23,4.07,6.69,9.08,4.52,15.37-2.07,6.02-6.28,10.18-11.66,13.23-7.54,4.27-15.73,6.72-24.31,7.79-8.13,1.01-16.05-.53-23.88-2.48-3.58-.89-7.12-1.97-10.62-3.11-6.57-2.14-13-4.69-19.87-6.23.41-.16.82-.33,1.23-.48,5.36-1.91,10.07-4.73,13.47-9.46,2.48-3.45,3.57-7.36,4.32-11.46,1.29-7.1,1.49-14.29,2.12-21.44.62-7.04,1.31-14.08,2.32-21.07.36-2.49,1.7-4.86,2.75-7.22.55-1.24,2.29-1.7,3.81-1.26,2.38.68,4.61.29,6.33-1.44,1.39-1.4,2.52-3.09,3.61-4.75.52-.79.9-1.87.04-2.71-.54-.52-1.7.12-2.5,1.25-.45.64-.87,1.31-1.33,1.95-1.95,2.71-4.8,3.58-7.76,2.04-2.42-1.27-4.76-2.77-6.94-4.42-4.61-3.49-8.46-7.73-11.49-12.68-1.65-2.7-2.67-5.62-2.31-8.84ZM310.41,402.47c.07-.17.13-.36.24-.5,7.31-9.74,12.71-20.44,16.26-32.09.07-.22.14-.45.23-.67.02-.06.1-.09.34-.3-.1,1.66-.1,3.17-.31,4.66-.69,4.81-1.2,9.67-2.25,14.41-1.15,5.18-4.41,9.07-8.91,11.82-1.75,1.07-3.72,1.79-5.58,2.67-.01,0,0,0,0,0ZM236.53,364.24c1.77-2.42,3.8-4.72,6.03-6.72,2.88-2.59,6.07-4.83,9.13-7.21.29-.13.57-.27.86-.4.06-.04.12-.08.19-.12.07-.14.14-.28.21-.42.06-.11.11-.22.17-.33l.05-.04s-.02.09-.02.09c-.06.1-.11.21-.17.31-.08.14-.16.28-.23.42-.06.03-.13.06-.19.09-.26.17-.52.32-.79.48-.59.57-1.17,1.16-1.78,1.7-4.76,4.21-8.53,9.19-11.55,14.76-2.55,4.7-3.56,9.77-3.64,15.06-.02,1.39,0,2.78,0,4.17-.16.02-.32.05-.48.07-.57-2.73-1.29-5.45-1.67-8.2-.71-5.1.96-9.66,3.91-13.7ZM209.65,424c-2.64,4.25-3.89,8.89-3.89,13.87v2.69c-1.51-2.26-2.65-4.65-2.04-7.42,1.64-7.49,4.91-14.11,11.02-18.97,3.25-2.58,6.73-4.89,10.11-7.31.23-.17.55-.21.84-.29.03-.02.05-.04.08-.07.07-.07.14-.14.21-.22-.06.11-.12.19-.19.26-.04.01-.07.02-.1.03-1.69,1.48-3.36,2.97-5.08,4.42-4.4,3.72-7.95,8.13-10.97,13.01ZM455.27,477.37c-.28.18-.54.45-.85.52-1.33.32-2.66.75-4.01.81-.85.04-1.75-.47-2.58-.83-.26-.11-.59-.68-.51-.81.2-.33.59-.67.96-.77.52-.13,1.09-.03,1.64-.03,0-.03,0-.06,0-.09,1.48.19,2.96.35,4.42.6.33.05.62.39.93.6ZM452.03,471.02c.3-.11.84-.14.99.04.33.4.49.94.72,1.43-.26.08-.53.26-.79.25-1.4-.08-2.8-.2-4.27-.31,1.14-.48,2.23-.98,3.35-1.4ZM450.66,468.57c0,.15,0,.3,0,.45-2.33,1.42-3.91,1.47-5.47.11-.21-.18-.33-.49-.48-.74.27-.12.55-.35.81-.33,1.72.14,3.44.33,5.16.5ZM437.83,463.07c1.61-.04,3.23-.19,4.82-.01.9.1,1.76.74,2.61,1.18.16.08.2.39.29.6-.2.07-.4.19-.61.21-.58.07-1.17.1-1.76.14-.02.07-.04.13-.05.2-1.83-.54-3.66-1.08-5.49-1.64-.17-.05-.28-.32-.42-.48.21-.07.41-.19.62-.19ZM446.74,495.31c.82-.03,1.64-.01,2.46-.01.94.04,1.87.03,2.81.05.17,0,.33.16.49.25-.12.17-.22.43-.38.49-1.85.61-3.73.79-5.61.1-.24-.09-.4-.41-.6-.63.28-.09.55-.24.83-.25ZM454.04,480.38c-1.75.53-3.55.95-5.35,1.31-1,.2-2.05.07-3.04.26-3.82.74-7.58.22-11.35-.33-1.28-.19-2.56-.38-3.85-.54-1.58-.2-3.01.17-4.37,1.03-4.54,2.87-9.25,5.52-13.64,8.6-2.69,1.89-5.65,2.07-8.63,2.55-3.24.53-6.37,1.38-9.21,3.1-1.28.78-1.73,1.79-1.32,3.18.08.28.53.63.81.63.77,0,1.65.04,2.3-.3,4.4-2.23,9.14-3.06,13.96-3.54,3.04-.3,5.97-1.02,8.68-2.42,2.12-1.1,4.23-1.02,6.51-.64,4.37.73,8.78,1.25,13.18,1.79,1.35.17,2.73.07,4.1.16.25.02.63.3.69.52.55,2.21,1.29,2.9,3.59,3.14.78.08,1.57.08,2.35.04.78-.04,1.55-.16,2.4-.25-.04.13-.04.27-.1.3-2.24,1.21-4.42,2.3-7.14,2.4-4.11.15-8.19.88-12.29,1.31-4.57.48-9.13,1.06-13.71,1.33-5.16.31-9.93,1.76-14.51,4.08-2.7,1.37-5.5,2.51-8.22,3.84-3.91,1.92-7.7,4.09-11.68,5.85-6.95,3.06-14.1,5.6-21.67,6.67-1.85.26-3.77.26-5.63.09-3.52-.33-6.89-.22-10.31.97-14.69,5.09-29.44,10.03-44.17,15.03-1.87.63-2.18.54-3.31-1.1-1.79-2.59-2.51-5.58-2.95-8.62-1.83-12.67.78-24.44,7.51-35.28,1.17-1.88,2.82-3.47,4.29-5.15.24-.28.76-.39,1.17-.43,8.35-.88,16.7-1.78,25.06-2.61,3.67-.37,7.43-.24,11.01-.97,4.87-.99,9.66-2.42,14.39-3.97,13.9-4.54,27.31-10.34,40.81-15.93,4.64-1.92,9.43-3.46,14.19-5.07.83-.28,1.87-.24,2.75-.06,5.51,1.11,11.05,2.04,16.69,1.84,1.18-.04,1.11.71,1.28,1.37.02.07-.47.4-.72.38-2.74-.16-5.49-.27-8.21-.59-2.29-.27-4.56-.77-6.83-1.23-4.26-.87-8.14.17-11.93,2.08-5.71,2.88-11.46,5.7-17.24,8.44-1.35.64-2.91.9-4.39,1.21-.79.17-.91.62-.91,1.26-.01.78,0,1.65,1.02,1.67,1.16.04,2.41.09,3.47-.3,2.58-.93,5.1-2.03,7.58-3.21,4.71-2.26,9.36-4.63,14.04-6.95,2.13-1.05,4.35-1.25,6.64-.64,6.74,1.79,13.6,1.73,20.49,1.43,1.14-.05,2.28-.09,3.42-.05.29,0,.8.33.81.53.12,1.86,1.41,2.71,2.86,3.64-.7,0-1.41.07-2.1,0-3.98-.44-7.95-.91-11.93-1.39-.66-.08-1.33-.21-1.95-.43-2.2-.78-4.34-.66-6.4.38-2.55,1.3-5.11,2.6-7.59,4.03-4.92,2.83-9.98,5.34-15.4,7.03-2.35.73-4.79,1.19-7.2,1.73-2.62.59-4.8,1.91-6.62,3.85-.08.09-.21.16-.23.26-.12.77-.23,1.54-.34,2.32.74-.07,1.74.15,2.18-.25,2.71-2.45,6-3.18,9.46-3.79,6.42-1.12,12.24-3.91,17.93-6.98,3.08-1.66,6.12-3.37,9.18-5.06.95-.52,1.83-.45,2.91-.19,2.74.66,5.53,1.14,8.33,1.51,2.88.37,5.79.5,8.68.79.34.04.9.38.93.64.32,2.55,2.04,4.16,4.6,4.25,1.72.06,3.23-.52,4.68-1.38.36-.21.71-.43,1.07-.64.06.09.13.18.19.27-.58.41-1.1,1-1.74,1.2Z"/>
    <path class="cls-1" d="M587.77,391.35c-.09-1.09-.54-1.92-1.45-2.56-1.94-1.35-4.06-1.24-6.09-.5-3.4,1.25-6.22,3.37-8.2,6.44-.95,1.47-1.73,3.06-2.66,4.72-.12-.48-.19-.89-.33-1.27-.59-1.66-1.16-3.32-1.82-4.95-1.26-3.11-5.95-3.43-7.92-1.04-.65.79-1.33,1.56-1.82,2.44-.35.62-.72.87-1.38.79-1.56-.19-2.63.63-3.48,1.79-.41.56-.77,1.2-1,1.86-1.57,4.41-2.42,8.93-1.91,13.65.11,1.05.02,2.12.02,3.18-.14.04-.27.09-.41.14-.96-1.99-1.86-4-2.89-5.95-.38-.72-.98-1.71-1.61-1.82-1.22-.21-2.65-.19-3.77.27-2.23.92-3.72,2.7-4.43,5.07-.74,2.45-.62,4.9.13,7.31.88,2.81,1.78,5.61,2.71,8.41.73,2.18.5,4.2-.6,6.24-2.34,4.33-4.39,8.79-5.63,13.57-.32,1.24-.42,2.55-.53,3.83-.03.3.24.8.5.94,1.08.54,2.42,0,2.76-1.15,1.77-5.87,3.83-11.62,6.52-17.16,1.45-2.99.96-6.21,0-9.34-.85-2.78-1.7-5.56-2.42-8.37-.21-.82.04-1.75.07-2.63.14,0,.28,0,.42,0,.1.41.2.83.3,1.24.56,2.26,1.46,4.33,3.27,5.88,1.1.95,2.4.92,3.07-.14.49-.77.67-.53.96.07,2.17,4.43,2.47,8.98.67,13.56-2.35,5.99-4.89,11.92-7.25,17.9-.71,1.79-1.72,3.2-3.5,3.91-3.31,1.32-6.62,2.7-10.01,3.75-3.91,1.21-7.84,2.29-11.45,4.27-2.16,1.18-4.41,2.15-6.72,2.92l-4.95,7.33c.21-.04.42-.09.63-.15,5.92-1.61,11.61-3.85,16.94-6.95.19-.11.75-.03.76.04.32,1.35.72,2.7.81,4.07.1,1.57.05,3.12.72,4.61.51,1.14.88,2.35,1.27,3.55.7,2.19,1.42,4.36.35,6.69-.9,1.95-1.3,4.19-2.49,5.91-4.26,6.17-10.27,10.01-17.46,11.86-6.57,1.69-12.82.68-18.36-3.39-2.77-2.03-4.91-4.54-5.18-8.21l-3.4,2.99c.12.98.24,1.96.38,2.94.45,3.38,1.1,6.74,1.45,10.13.25,2.41.43,4.88-.52,7.22-1.34,3.3-2.12,6.73-2.4,10.28-.27,3.34.06,6.59,1.22,9.74.11.29.51.66.77.66s.62-.4.72-.7c.22-.71.36-1.45.45-2.19.41-3.35.78-6.7,1.21-10.05.09-.73.37-1.43.56-2.15.11.02.21.04.32.05.2.83.35,1.68.61,2.49,1.3,4.14,1.5,8.81,5.54,11.63.29.2.67.4.99.38.14,0,.42-.56.38-.83-.31-1.76-.6-3.54-1.05-5.27-.88-3.38-1.88-6.73-2.78-10.11-.65-2.46-1.28-4.94-1.8-7.44-.44-2.11-.71-4.25-1.05-6.37-.09-.59.1-.69.63-.38,1.18.7,2.36,1.42,3.59,2.01,5.25,2.48,10.83,2.37,16.42,1.97,1.78-.12,3.62-.47,5.28-1.11,7.37-2.81,13.6-7.15,17.9-13.93.13-.21.35-.36.53-.54.07.21.19.42.21.63.56,6.18,1.49,12.35,1.56,18.53.12,9.72-1.1,19.36-3.06,28.88-1.21,5.87-3.67,11.19-8.18,15.35-5.67,5.22-12.07,7.62-19.88,5.74-10.18-2.45-19.74-6.24-28.58-11.89-9.25-5.91-17.84-12.59-24.99-20.99-.17-.2-.33-.39-.5-.59l-4.91,5.22c1.32,1.82,2.84,3.48,4.42,5.09,7.23,7.36,15.4,13.53,24.26,18.78,8.52,5.05,17.65,8.56,27.36,10.51,1.99.4,4.03.58,6.05.86h4.48c.46-.09.92-.2,1.38-.26,2.93-.41,5.78-1,8.44-2.43,8.41-4.51,13.19-11.69,15.14-20.83,1.89-8.86,2.46-17.9,2.77-26.93.45-12.82-1.13-25.49-3.64-38.04-.99-4.95-2.39-9.82-3.68-14.69-.29-1.12-.03-1.5,1.05-1.78,3.93-.99,7.77-2.19,11.38-4.11,2.56-1.36,4.1-3.29,4.66-6.12.42-2.12.97-4.21,1.54-6.29.1-.38.57-.71.94-.96.62-.42,1.43-.62,1.92-1.14,2.1-2.23,4-4.66,6.2-6.78,2.27-2.19,3.91-4.7,4.85-7.68.22-.7.61-.85,1.28-.89.88-.05,1.85-.11,2.61-.5,3.55-1.8,6.01-4.61,7.37-8.37.39-1.07.34-2.48,1.93-2.72.09-.01.18-.15.25-.24,1.16-1.38,2.51-2.65,3.45-4.17,1.92-3.14,3.68-6.39,5.41-9.65,1.36-2.57,2.67-5.17,3.83-7.83,1.07-2.46,1.83-5.02,1.6-7.77ZM545.9,421.15c-.38-.19-.88-.29-1.13-.59-1.52-1.86-2.11-4.08-2.44-6.65.1-.21.28-.58.46-.96.28.34.62.65.82,1.03.8,1.52,1.56,3.06,2.34,4.59.16.31.53.63.5.91-.07.57-.35,1.12-.55,1.68ZM557.06,402.41c.02-.12.17-.21.27-.31.12.15.29.28.34.44.72,2.22,1.43,4.45,2.14,6.67-.07.05-.14.1-.21.14-.12.34-.24.68-.36,1.03-.35-.2-.83-.32-1.04-.62-1.55-2.26-1.6-4.77-1.13-7.35ZM558.58,424.98c-1.02,2.71-2.07,5.42-3.3,8.05-.67,1.42-1.74,2.65-2.68,4.04-.22-.31-.3-.38-.29-.41,1.55-4.48,1.14-9.04.55-13.61-.08-.61-.14-1.26,0-1.85.71-3.18.75-6.38.3-9.6-.46-3.28.29-6.41,1.28-9.48.25-.77.83-1.44,1.26-2.15.1.06.19.13.29.19-1.24,3.09-1.2,6.2-.06,9.28.56,1.51,1.39,2.83,3.32,2.89.18,0,.45.52.5.82.61,4.04.28,7.99-1.15,11.82ZM563.19,396.08c.33.52.8.99.97,1.55.62,2.06,1.13,4.15,1.67,6.24.05.2-.04.43-.07.65-.24-.1-.59-.13-.7-.3-.61-.99-1.29-1.97-1.69-3.05-.38-1.01-.44-2.13-.66-3.29.16-.59.32-1.19.48-1.8ZM567.47,421.97c-1.07,2.35-2.7,4.22-4.86,5.64-.23.15-.53.21-.81.31.11-.61.17-1.22.33-1.81,1.23-4.41,1.52-8.89.99-13.43-.17-1.4-.24-2.82-.31-4.23-.17-3.26-.98-6.37-2.25-9.35-.47-1.11-.15-1.84.69-2.71.12,1.32.09,2.54.37,3.67.36,1.43.86,2.86,1.54,4.16.41.78,1.19,1.65,1.98,1.89,1.15.35,1.08,1.02,1.21,1.88.49,3.22,1.03,6.43,1.66,9.62.31,1.55.09,2.96-.55,4.35ZM579.42,403.92c-2.19,3.71-4.4,7.41-6.64,11.09-.18.3-.57.48-.86.71-.1-.36-.23-.72-.29-1.08-.23-1.36-.5-2.71-.62-4.07-.07-.84-.01-1.73.19-2.55.91-3.79,1.99-7.52,4.31-10.75,1.47-2.03,3.26-3.72,5.45-4.95.4-.22.88-.29,1.33-.42,0-.01.02-.03.03-.04v-.06s.04.08.04.08c-.02,0-.04.01-.07.02-1.03,1.35-2.18,2.64-3.07,4.08-.99,1.59-1.43,3.43-1.11,5.31.12.68.73,1.28,1.09,1.93.12.21.29.56.21.7ZM583.3,396.11c-.63,1.48-1.34,2.92-2.09,4.34-.18.35-.68.52-1.03.78-.11-.35-.33-.71-.31-1.05.25-3.16,1.79-5.58,4.19-7.52.13.05.25.11.38.16-.38,1.1-.68,2.22-1.14,3.29Z"/>
    <path class="cls-1" d="M437.58,423.63c-1.36,1.17-2.67,2.29-3.91,3.36-.33-.55-.66-1.1-.98-1.66-1.41-2.37-3-4.6-4.65-6.82-1.88-2.54-2.28-5.67-2.45-8.73-.13-2.42.07-4.86.23-7.29.13-1.91,1.17-2.56,2.97-1.95.29.1.59.51.68.84.15.56.14,1.16.18,1.58-.09,1.43-.13,2.69-.25,3.94-.22,2.45.39,4.76,1.12,7.04.12.4.35.83.66,1.09,2.79,2.39,4.54,5.54,6.4,8.59Z"/>
    <path class="cls-1" d="M405.01,319.17c-2.94-1.14-5.9-1.76-9.04-.52-3.82,1.52-7.49,3.25-10.69,5.88-.83.68-1.73,1.21-2.9,1.03-.61-.09-1.19.01-1.22.88-.03.78.2,1.32,1.04,1.42,1.75.21,3.49.41,4.99.59,6.68-.39,12.83-1.9,18.76-4.33.29-.12.61-.41.72-.7.5-1.22-.44-3.78-1.67-4.25ZM403.22,322.43c-4.47,1.81-9.17,2.68-13.9,3.39-.34.05-.69,0-1.04,0l-.13-.32c1.14-.74,2.23-1.57,3.43-2.19,1.6-.83,3.31-1.45,4.92-2.25,2.27-1.13,4.5-.73,6.73.05.33.12.59.45.89.69-.3.21-.57.49-.9.62Z"/>
    <path class="cls-1" d="M343.03,318.42c-.1-.75-.33-1.59-.79-2.17-1.03-1.32-2.12-2.64-3.39-3.72-3.58-3.01-7.97-4.68-12.05-6.85-.23-.12-.53-.17-.8-.17-.6,0-1.37-.23-1.52.67-.13.79-.13,1.56.83,1.97,1.15.49,2.29,1.03,3.4,1.62,2.25,1.2,4.47,2.44,6.69,3.69.39.22.87.42.17.99-1.78,1.46-1.77,3.96.16,5.17,1.39.87,3.04,1.33,3.83,1.65,2.9-.01,3.73-.87,3.46-2.86ZM339.82,318.74c-.94-.36-1.85-.8-2.74-1.28-.22-.12-.47-.63-.4-.72.21-.28.58-.44.63-.47,1.71-.1,2.43.81,3.02,1.88.33.6-.08.76-.5.59Z"/>
    <path class="cls-1" d="M374.07,289.16c.09-1.77.09-1.78-1.54-1.01-1.94.92-3.65,2.09-4.83,3.99-.24.39-1.03.52-1.58.57-.14.01-.53-.79-.48-1.19.08-.68.3-1.39.64-1.97,1.6-2.75,8.21-6.06,12.07-4.76,1.48.5,2.12,1.07,1.92,2.62-.17,1.34-.56,2.69-1.09,3.93-.51,1.22-2.2,1.71-3.7,1.32-1.29-.34-1.31-1.41-1.41-2.43-.03-.35,0-.71,0-1.06Z"/>
    <path class="cls-1" d="M412.72,276.36c.94.37,2.21.67,3.26,1.34,1.35.85,1.34,2.12.34,3.38-.29.37-.33.95-.49,1.43-.54,1.64-1.88,2.52-3.59,2.43-.86-.05-1.36-.47-1.36-1.29,0-1.01.15-2.02.22-3.03.01-.21-.03-.43-.05-.64-.18.06-.39.08-.53.2-1.36,1.11-2.67,2.28-4.07,3.34-.47.35-1.14.43-1.71.63-.15-.44-.39-.88-.42-1.34-.03-.41.07-.89.29-1.23,1.8-2.88,4.34-4.62,8.11-5.22Z"/>
    <path class="cls-1" d="M394.42,335.85c-.76.1-1.53.27-2.29.28-.45,0-1.29-.26-1.29-.36.04-.65.07-1.55.48-1.86.86-.64,1.91-1.09,2.95-1.37,2.26-.61,4.56-1.11,6.87-1.53.49-.09,1.42.19,1.56.54.31.78.28,1.68-.65,2.26-1.42.88-6.01,2.21-7.63,2.05Z"/>
    <path class="cls-1" d="M392.62,310.65c-.41-.36-1.03-.64-1.18-1.08-.27-.78.17-1.23,1.05-1.46.7-.19,1.31-.73,1.94-1.15.19-.12.27-.47.45-.52.63-.18,1.29-.28,1.94-.42.05.62.36,1.42.09,1.83-.95,1.43-2.2,2.56-4.3,2.8Z"/>
    <path class="cls-1" d="M373.24,296.94c-.11-.17-.46-.46-.51-.8-.13-.79.37-1.21,1.1-1.1.33.05.8.46.86.77.14.77-.37,1.12-1.44,1.13Z"/>
  </g>
  <path class="cls-1" d="M422.79,262.64c.07.04.13.1.21.11,5.15.66,7.1,4.27,7.72,8.78,1.24,8.96-1.02,17.03-6.88,23.94-3.8,4.48-8.9,5.63-14.53,4.79-2.14-.32-3.76-1.51-4.45-3.58-.74-2.22-1.5-4.49-1.79-6.8-.3-2.38-1.95-3.29-4.05-2.25-2.97,1.47-5.86,3.05-8.32,5.29-.41.37-.78.9-.94,1.42-1.61,5.2-4.14,9.94-7.42,14.24-1.19,1.56-2.67,3.05-4.31,4.12-4.91,3.21-11.36,2.34-15.55-1.89-4.42-4.45-5.91-9.95-5.73-16.05.06-2.17.24-4.31,1.21-6.31.37-.75.94-1.2,1.66-.86.33.16.53.98.48,1.47-.12,1.28-.49,2.55-.62,3.83-.58,5.64.76,10.74,4.72,14.88,1.34,1.41,3.12,2.49,4.86,3.4,2.14,1.12,4.3.63,6.19-.82.9-.69,1.77-1.45,2.49-2.33,4.15-5.1,7.59-10.62,9.31-17.02,1.09-4.05.95-8.05-1.72-11.58-3.53-4.66-9.52-5.68-14.28-2.33-1.52,1.07-3,2.37-4.07,3.87-2.09,2.93-4.14,5.93-4.94,9.57-.07.31-.62.52-.94.78-.17-.31-.5-.64-.47-.93.69-6.43,2.76-12.06,8.38-16.01,6.88-4.83,15.76-1.8,18.95,2.56,2.12,2.89,2.73,6.2,2.92,9.66.02.27.01.55,0,.82-.04.71.25.67.76.39,1.47-.82,2.96-1.62,4.46-2.4,1.77-.93,3.65-1.51,5.66-1.23.94.13,1.09-.31,1.2-1.07.76-4.93,2.45-9.51,5.43-13.53,2.49-3.36,5.56-5.98,9.86-6.75.11-.02.2-.12.3-.18h4.24ZM405.99,285.85c.04,2.93.57,5.77,1.73,8.48.75,1.76,2.1,2.53,3.98,2.58,4.07.11,7.19-1.73,9.67-4.75,3.09-3.76,4.86-8.12,5.65-12.91.5-3.05.38-6.04-.92-8.88-1.54-3.37-4.99-4.61-8.38-3.13-2.14.94-3.8,2.49-5.39,4.12-3.92,4.03-6.35,8.73-6.34,14.5Z"/>
  <path class="cls-1" d="M500.11,164.49l-277.81,4.2c.83-2.48,1.61-4.98,2.75-7.31,1.68-3.41,4.8-5.03,8.54-5.49,5.84-.73,11.67-1.55,17.52-2.22,2.8-.32,5.63-.46,8.45-.58,3.57-.15,7.15-.13,10.71-.3,5.02-.23,10.03-.57,15.04-.87,3.99-.24,7.99-.53,11.98-.76,5.68-.32,11.36-.6,17.05-.89.31-.02.63-.03.94-.04,7.19-.08,14.38-.12,21.56-.26,9.26-.19,18.53-.46,27.79-.71,4.43-.12,8.86-.31,13.3-.46,35.34-1.19,73.34-3.61,112.19,1.46,2.62.34,5,1.68,7.11,3.33,1.87,1.46,2.84,3.37,3.03,5.75.14,1.74.05,3.45-.16,5.14Z"/>
  <path class="cls-3" d="M486.1,153.44c-.86.41-1.54,1.19-1.71,2.14-.08.45-.04.95.11,1.39.03.09.07.17.11.26.1,1.14.58,2.2,1.76,2.67,1.23.49,2.75.13,3.72-.73,2.93-2.58-.57-7.35-3.99-5.72Z"/>
  <path class="cls-3" d="M630.91,223.73c-.09-.01-.18-.02-.26-.03-.03-.21-.17-.41-.41-.41-.04,0-.09,0-.13,0-.11-.12-.27-.21-.44-.23-1.49-.22-3.04.1-3.81,1.51-.15.26-.25.54-.33.82-.13.22-.26.44-.38.65-.14.25-.12.75.16.91.03.02.05.03.08.05.04.69.2,1.39.39,2.03.08.28.31.41.57.45.7.13,1.26.05,1.73-.16.24.09.54.03.75-.14.73-.59,1.47-1.23,1.82-2.13.16-.4.21-.82.21-1.24.19-.38.37-.75.53-1.14.17-.41.02-.9-.47-.96Z"/>
</svg>