<?xml version="1.0" encoding="UTF-8"?>
<svg id="_Layer_" data-name="&amp;lt;Layer&amp;gt;" xmlns="http://www.w3.org/2000/svg" viewBox="0 0 794.88 794.88">
  <defs>
    <style>
      .cls-1 {
        fill: #000;
      }

      .cls-1, .cls-2, .cls-3 {
        stroke-width: 0px;
      }

      .cls-2 {
        fill: #cf0;
      }

      .cls-3 {
        fill: #fff;
      }
    </style>
  </defs>
  <g>
    <path class="cls-2" d="M316.75,352.67c-.78-.1-1.6-.09-2.33-.32-13.13-4.22-26.63-7.07-39.86-10.88-7.56-2.17-15.03-4.66-22.54-7.01-.07-.02-.14-.05-.21-.07-2.95-.82-3.16-1.14-2.73-4.27.12-.91.66-1.33,1.61-1.4,2.23-.16,4.33.35,6.43,1,7.8,2.42,15.58,4.95,23.43,7.19,6.37,1.82,12.86,3.2,19.25,4.95,6.17,1.69,12.28,3.6,18.42,5.4.84.25,1.26.77,1.25,1.65,0,.68,0,1.36,0,2.03-.01,1.34-.31,1.63-1.68,1.65-.34,0-.68,0-1.02,0,0,.03,0,.06-.01.09Z"/>
    <path class="cls-2" d="M497.51,498.07c-2.18-.53-4.41-.91-6.53-1.61-11.01-3.62-21.97-7.37-32.98-10.98-6.4-2.1-12.88-3.95-19.27-6.05-2.82-.93-5.51-2.2-8.27-3.31-.95-.38-1.3-1.03-1.31-2.09-.04-3.54.4-3.05,3.5-3.04.22,0,.45.09.65.18,6.13,2.78,12.66,4.34,19.04,6.37,8.32,2.65,16.57,5.5,24.87,8.2,7.15,2.33,14.34,4.57,21.51,6.83,1.4.44,1.77.9,1.79,2.33q.04,2.89-2.92,2.89c-.02.09-.05.19-.07.28Z"/>
    <path class="cls-2" d="M300.01,388.56c-.89-.14-1.8-.2-2.65-.45-11.39-3.29-22.79-6.53-34.14-9.97-5.9-1.79-11.67-4.01-17.54-5.94-3.18-1.05-6.42-1.91-9.65-2.8-1.1-.3-1.47-.89-1.45-2.03.06-3.09.03-3.12,3.09-3.05.67.01,1.35.13,2,.29,7.1,1.74,13.99,4.16,20.93,6.43,7.65,2.51,15.47,4.47,23.2,6.75,5.92,1.75,11.8,3.62,17.71,5.42.87.27,1.33.81,1.29,1.73-.01.26,0,.53,0,.79q0,2.71-2.79,2.82Z"/>
    <path class="cls-2" d="M284.91,433.97c-1.06-.22-2.14-.35-3.17-.67-14.7-4.57-29.42-9.06-44.34-12.9-3.99-1.03-7.89-2.51-11.73-4.05-2-.8-3.8-2.12-5.59-3.35-.48-.33-.63-1.16-.89-1.79-.08-.19-.03-.45-.01-.67.06-.87-.35-2.19.63-2.43,1.19-.29,2.9-.39,3.77.25,3.9,2.91,8.36,4.49,12.92,5.81,6.79,1.97,13.69,3.59,20.48,5.56,7.81,2.26,15.56,4.74,23.34,7.12,1.73.53,3.48.99,5.2,1.52,1.9.58,2.23,1.04,2.24,2.98,0,.26,0,.53,0,.79-.02,1.37-.29,1.63-1.68,1.66-.38,0-.75,0-1.13,0-.01.06-.02.11-.04.17Z"/>
    <path class="cls-2" d="M261.26,463.73c-1.17-.34-2.35-.65-3.52-1.03-6.73-2.17-13.49-4.29-20.19-6.55-10.66-3.6-21.29-7.3-31.95-10.93-1.01-.34-1.42-.84-1.4-1.95.06-2.98.01-3.04,2.94-2.91,1.07.05,2.16.32,3.19.65,10.4,3.43,20.79,6.91,31.19,10.35,6.36,2.1,12.75,4.13,19.12,6.19.18.06.36.12.53.19,2.6.95,3.27,2.15,2.6,4.83-.09.36-.6.73-1,.87-.44.15-.97.03-1.46.03-.02.08-.05.17-.07.25Z"/>
    <path class="cls-2" d="M506.3,470.64c-3.01-.08-5.84-1.05-8.64-2-6.3-2.14-12.55-4.46-18.81-6.71-1.88-.67-3.75-1.36-5.63-2.03-.96-.34-1.51-.95-1.34-2.04,0-.04,0-.08,0-.11-.02-3.04,1.3-3.87,4.26-2.8,8.04,2.89,16.08,5.76,24.15,8.56,2.3.8,4.7,1.33,7.05,2.02,1.7.5,2.68,2.9,1.75,4.42-.21.35-.77.56-1.21.66-.5.11-1.05.03-1.58.03Z"/>
    <path class="cls-2" d="M224.72,496.96c0,.34,0,.68,0,1.02.03.89-.4,1.32-1.28,1.34-1.59.05-3.09-.12-4.63-.7-7.15-2.68-14.38-5.16-21.52-7.88-2.98-1.13-5.82-2.63-8.69-4.03-1-.49-1.34-3.32-.57-4.14.16-.17.45-.35.67-.34,1.19.08,2.53-.1,3.54.38,6.48,3.11,13.42,4.93,20.13,7.39,3.71,1.36,7.39,2.8,11.11,4.15,1.46.53,1.24,1.69,1.24,2.81Z"/>
    <path class="cls-2" d="M275.49,360.72c-1.23-.28-2.5-.48-3.69-.87-9.02-2.93-18.01-5.91-27.03-8.84-1.01-.33-1.45-.82-1.44-1.93.03-3.21,0-3.38,3.15-3.14,2.22.17,4.46.7,6.59,1.38,7.82,2.49,15.59,5.11,23.38,7.7,1.6.53,1.93,1.04,1.94,2.73q0,2.78-2.89,2.98Z"/>
    <path class="cls-2" d="M313.33,369.83c-1.09-.24-2.21-.37-3.27-.72-6.18-2.03-12.34-4.12-18.52-6.16-1.03-.34-2.1-.58-3.15-.88-.66-.19-.94-.6-.97-1.32-.15-3.82-.03-4.03,3.78-3.74,1.48.11,2.96.53,4.39,1,6.33,2.07,12.64,4.2,18.95,6.32,1.27.43,1.74,1.1,1.77,2.43q.07,2.9-2.97,3.08Z"/>
    <path class="cls-2" d="M252.54,390.9c-2.57-.68-5.16-1.27-7.7-2.05-5.32-1.62-10.61-3.36-15.93-5-1.15-.35-1.61-.94-1.57-2.19.09-2.79.04-2.98,2.76-2.73,2.14.2,4.26.85,6.35,1.45,5.64,1.63,11.25,3.33,16.87,5.01,1.58.47,1.93.95,1.94,2.58,0,.34,0,.68,0,1.02-.02,1.28-.31,1.57-1.61,1.59-.34,0-.68,0-1.02,0-.03.1-.05.21-.08.31Z"/>
    <path class="cls-2" d="M233.55,434.66c-1.23-.29-2.5-.47-3.7-.88-4.91-1.7-9.79-3.48-14.69-5.19-1.02-.35-1.35-.92-1.37-1.99-.06-3.78.39-3.33,3.86-3.26.26,0,.52.11.76.2,4.94,1.73,9.88,3.45,14.81,5.19.35.12.71.27,1.05.42,1.92.88,2.64,2.42,1.95,4.43-.13.38-.73.7-1.17.84-.44.14-.97.03-1.46.03-.02.07-.03.14-.05.21Z"/>
    <path class="cls-2" d="M306.55,477.61c-1.1-.2-2.24-.28-3.3-.62-4.33-1.39-8.65-2.79-12.93-4.32-2.07-.74-2.78-2.54-2.05-4.59.12-.34.52-.82.8-.83,1.07-.05,2.23-.15,3.22.17,4.97,1.59,9.89,3.35,14.85,4.98,1.88.62,2.89,2.65,1.98,4.4-.16.3-.61.55-.97.62-.5.11-1.05.03-1.57.03,0,.06-.02.11-.03.17Z"/>
    <path class="cls-2" d="M290.39,493.67c-1.31-.33-3.73-.85-6.09-1.58-3.02-.94-5.97-2.06-8.97-3.08-1.04-.35-1.45-.96-1.42-2.1.07-3.1.09-3.18,3.18-3.04.41.02.82.11,1.21.23,4.74,1.48,9.47,2.99,14.22,4.43,1.08.32,1.62.87,1.58,1.99,0,.19,0,.38,0,.57q0,2.59-3.71,2.59Z"/>
    <path class="cls-2" d="M270.96,514.96c-1.05-.23-2.12-.41-3.16-.71-3.18-.91-6.34-1.89-9.52-2.77-.86-.24-1.79-.16-2.69-.29-.34-.05-.92-.29-.92-.46-.03-1.22-.03-2.45.18-3.64.06-.32.88-.66,1.38-.72,2.93-.38,5.78.23,8.57,1.02,2.53.72,5.02,1.6,7.52,2.4.86.28,1.29.86,1.25,1.78-.01.23,0,.45,0,.68q0,2.53-2.61,2.69Z"/>
    <path class="cls-2" d="M328.1,448.99c-.97-.25-1.97-.43-2.9-.78-3.27-1.23-6.54-2.47-9.77-3.81-1.57-.65-2.24-2.8-1.46-4.31.16-.32.6-.7.91-.71,1.08-.01,2.24-.09,3.23.24,3.59,1.23,7.14,2.6,10.69,3.94,1.76.66,1.84.82,1.84,2.74q0,2.49-2.55,2.67Z"/>
    <path class="cls-2" d="M455.6,456.39c-1.09-.25-2.19-.44-3.26-.75-2.05-.6-4.08-1.31-6.13-1.9-.82-.23-1.17-.61-1.18-1.48-.05-3.28,0-3.38,3.28-3.25.93.04,1.87.24,2.76.5,1.91.57,3.8,1.2,5.68,1.88,1.46.52,2.32,2.75,1.54,4.07-.21.35-.75.59-1.18.71-.46.12-.97.03-1.46.03l-.04.2Z"/>
  </g>
  <path class="cls-2" d="M639.24,280.75v6.1c-.31,2.27-.55,4.55-.94,6.81-1.02,5.83-3.77,10.49-9.38,12.98-4.88,2.16-9.71,4.6-14.8,6.13-12.18,3.66-24.48,6.94-36.77,10.21-8.52,2.27-17.16,3.96-25.92,5.04-1.78.22-3.57.44-5.35.65h-6.78c-.92-.15-1.83-.33-2.76-.46-3.29-.46-5.59-2.22-7-5.22-1.38-2.94-2.03-6.07-2.4-9.25-.97-8.41-1.87-16.83-2.75-25.25-.62-5.99-1.28-11.98-1.7-17.98-.47-6.78-.85-13.58-.35-20.39,18.64-4.63,92.37-22.95,110.73-27.51.76,3.39.81,7.16,1.16,10.09,1.18,10.06,2.44,20.11,3.54,30.17.54,4.94.81,9.91,1.2,14.86.08,1.01.18,2.01.27,3.02Z"/>
  <path class="cls-3" d="M560.4,248.98c.34,0,.68.02,1.02,0,1.07-.06,1.45.49,1.47,1.51.05,2.66-.14,2.98-2.69,3.73-7.43,2.2-14.85,4.41-22.29,6.53-1.05.3-2.24.18-3.35.13-.27-.01-.72-.48-.75-.78-.1-.85-.09-1.73-.01-2.59.08-.89.73-1.34,1.55-1.58,4.14-1.24,8.28-2.5,12.43-3.73,3.1-.93,6.2-1.85,9.31-2.73,1.08-.3,2.2-.43,3.3-.64,0,.05.02.1.03.14Z"/>
  <path class="cls-3" d="M621.9,277.2c.38,0,.75,0,1.13,0,.82.02,1.2.44,1.24,1.27.12,2.32-.3,3.01-2.68,3.48-6.08,1.18-12.19,2.26-18.28,3.42-2.32.44-4.61,1.07-6.93,1.52-1.17.23-2.38.26-3.57.32-.24.01-.6-.2-.72-.41-.73-1.37.02-3.72,1.51-4.14,3.03-.85,6.11-1.58,9.2-2.19,5.31-1.06,10.64-1.99,15.97-2.96,1.03-.19,2.08-.29,3.12-.43v.11Z"/>
  <path class="cls-3" d="M592.75,245.58c-.59-.31-1.53-.5-1.71-.97-.6-1.58-.07-3.36,1.06-3.76,2.34-.82,4.69-1.66,7.11-2.16,5.63-1.17,11.3-2.17,16.96-3.19,1.02-.18,2.1-.12,3.15-.12.75,0,1.18.41,1.2,1.2,0,.11,0,.23,0,.34.06,2.65-.1,2.72-2.72,3.23-7.08,1.39-14.14,2.85-21.2,4.32-1.23.26-2.43.69-3.84,1.11Z"/>
  <path class="cls-3" d="M594.63,300.62q-2.22-.03-2.21-2.25c0-1.8.19-2.1,1.98-2.39,6.38-1.05,12.77-2.04,19.15-3.09,1.48-.24,2.93-.66,4.4-.97.73-.15,1.48-.35,2.22-.34.79.01,1.85-.46,2.28.66.53,1.35.01,3.12-1.27,3.6-1.96.73-4,1.32-6.05,1.68-6.22,1.06-12.47,1.99-18.71,2.96-.59.09-1.2.1-1.8.15Z"/>
  <path class="cls-3" d="M617.71,250.14c1.97.07,2.1.21,2.1,2.21,0,2.13-.04,2.22-2.18,2.67-6.91,1.46-13.82,2.91-20.74,4.33-1.17.24-2.37.29-3.56.39-.64.05-.98-.29-.98-.94,0-.41,0-.83,0-1.24,0-1.55.27-2.03,1.77-2.46,2.06-.58,4.15-1.05,6.25-1.49,5.04-1.08,10.08-2.12,15.12-3.16.73-.15,1.48-.19,2.23-.29Z"/>
  <path class="cls-3" d="M555.34,277.04c.38,0,.76-.04,1.13.01.28.04.62.11.82.29.9.8.32,3.51-.84,3.82-4.47,1.21-8.94,2.39-13.41,3.57-.32.09-.67.12-1,.14-2.51.1-2.91-.36-2.44-2.85.07-.39.4-.92.73-1.04,4.89-1.73,9.84-3.29,15.02-3.95Z"/>
  <path class="cls-3" d="M550.19,263.91c.38,0,.76-.03,1.13,0,.25.02.69.11.71.22.17,1.08.38,2.19.33,3.27-.02.39-.65.96-1.1,1.08-3.63.97-7.28,1.86-10.93,2.76-.25.06-.52.05-.79.06-2.85.06-2.83.06-2.76-2.83.02-1.03.48-1.61,1.45-1.86,3.39-.87,6.77-1.77,10.16-2.62.57-.14,1.19-.1,1.79-.15,0,.02,0,.03,0,.05Z"/>
  <path class="cls-3" d="M544.26,298.51c-.38,0-.76.05-1.12-.02-.26-.05-.61-.19-.73-.4-.69-1.22.01-3.62,1.29-4.05,4.02-1.36,8.12-2.47,12.39-2.67,1.53-.07,1.81.29,1.82,1.85.02,2.27-.11,2.41-2.33,2.92-3.18.73-6.36,1.49-9.54,2.22-.58.13-1.19.15-1.78.21,0-.02,0-.04,0-.06Z"/>
  <path class="cls-3" d="M595.9,274.11c-.34,0-.68-.01-1.02,0-.78.03-1.09-.36-1.05-1.11.02-.45.04-.91,0-1.35-.1-1.17.43-1.82,1.53-2.15,1.94-.58,3.85-1.31,5.82-1.79,1.11-.27,2.31-.23,3.46-.23.81,0,1.21.5,1.18,1.33-.02.41-.03.83,0,1.24.09,1.14-.51,1.75-1.53,2.04-2.09.61-4.18,1.24-6.28,1.81-.68.18-1.4.2-2.11.29,0-.03,0-.05,0-.08Z"/>
  <path class="cls-3" d="M547.88,308.39c-.41,0-.84.06-1.23-.02-.29-.06-.68-.24-.8-.48-.86-1.7.1-3.81,1.98-4.14,1.43-.24,2.9-.29,4.35-.33.88-.02,1.63.32,1.82,1.33.19,1.04-.25,2.19-1.22,2.52-1.58.55-3.22.92-4.83,1.36-.02-.08-.04-.17-.06-.25Z"/>
  <g>
    <path class="cls-1" d="M345.17,318.07c.38-.12.8-.17,1.14-.37,5.35-3.2,11.23-5.09,17.15-6.9.5-.15,1.01-.58,1.31-1.01,1.27-1.85,2.37-3.84,3.72-5.63,1.62-2.13,3.45-4.08,5.16-6.14,3.83-4.6,8.39-8.19,13.93-10.53,5.96-2.53,11.98-4.94,17.85-7.67,3.29-1.53,6.44-3.46,9.47-5.49,4.84-3.24,8.33-7.64,10.61-13.04,6.9-16.34,13.9-32.63,20.79-48.98.86-2.03,1.27-4.25,1.84-6.39.06-.23-.2-.55-.31-.83-.4.17-1.05.23-1.17.52-1.56,3.7-2.95,7.48-4.57,11.15-2.91,6.58-5.93,13.11-8.94,19.64-2.89,6.27-5.95,12.5-10.45,17.78-2.55,2.98-5.77,5.38-8.63,8.11-5.76,5.51-12.75,8.8-20.09,11.64-8.19,3.17-15.79,7.51-22.45,13.3-1.66,1.45-3.16,3.14-4.51,4.89-5.8,7.59-13.11,13.05-22.22,15.97-7.19,2.31-13.58,6.12-19.71,10.4-2.89,2.01-4.74,4.92-6.05,8.15-1.33,3.28-2.6,6.59-3.84,9.9-.35.92-.8,1.25-1.76.82-.68-.31-1.42-.49-2.15-.7-.48-.14-.68-.29-.44-.87,1.62-3.77,3.24-7.54,4.76-11.35,2.12-5.3,5.85-9.1,10.69-12.01,5.63-3.38,11.38-6.44,17.66-8.54,8.02-2.68,14.48-7.7,19.67-14.29,5.31-6.75,12.19-11.4,19.67-15.25,4.07-2.09,8.35-3.85,12.65-5.42,6.25-2.28,11.64-5.83,16.93-9.79,8.45-6.32,13.39-15.06,17.8-24.24,3.76-7.84,7.39-15.75,11.04-23.64.74-1.6,1.35-3.27,2.04-4.9.32-.75.09-.86-.66-.85-1.82.04-3.08.92-4.2,2.27-4,4.84-7.41,10.09-10.28,15.65-3.27,6.34-6.73,12.56-10.75,18.44-2.67,3.9-5.23,7.98-8.88,11.09-3.81,3.25-8.12,5.77-12.84,7.46-5.44,1.95-10.47,4.63-15.12,8.01-4.51,3.28-9,6.59-13.28,10.15-2.11,1.75-3.92,3.96-5.56,6.19-3.75,5.11-7.87,9.84-13.11,13.45-4.01,2.76-8.58,4.37-13.17,5.85-5.65,1.81-11.11,4.07-16.33,6.86-4.72,2.52-8.78,5.96-12.48,9.81-1.95,2.04-3.87,4.12-5.77,6.21-.45.5-.79.65-1.38.17-3.01-2.44-2.54-1.95-.57-4.19,4.95-5.66,10.19-11.04,16.76-14.85,5.3-3.07,10.99-5.25,16.75-7.32,4.03-1.45,8.1-2.93,11.88-4.9,5.16-2.69,9.18-6.89,12.53-11.56,3.5-4.88,7.62-8.97,12.49-12.45,5.95-4.25,11.8-8.64,18.34-11.97,1.6-.82,3.31-1.44,5-2.09,5.1-1.95,9.9-4.43,14.09-7.98.86-.73,1.62-1.58,2.34-2.44,6.28-7.46,11.69-15.51,16.28-24.12,2.92-5.49,5.97-10.91,9.83-15.82.14-.18.19-.44.28-.67-.22,0-.45-.05-.66,0-1.58.32-3.18.6-4.74,1.03-.61.17-1.18.64-1.67,1.08-6.64,6.01-12,13.1-17.11,20.39-3.57,5.09-6.95,10.31-10.59,15.35-4.66,6.45-10.54,11.57-17.66,15.17-6.49,3.28-13.02,6.5-18.93,10.79-4.09,2.96-8.21,5.9-12.05,9.16-2.83,2.4-5.17,5.36-7.82,7.99-4.68,4.66-9.59,9.07-15.35,12.38-4.48,2.57-9.13,4.77-14.16,6.13-7.82,2.11-15.37,4.87-21.97,9.75-.82.6-1.55,1.32-2.37,1.91-.21.15-.72.17-.9.02-.8-.68-1.55-1.43-2.26-2.2-.12-.13-.08-.64.07-.77.8-.74,1.63-1.46,2.51-2.1,5.76-4.15,12.11-7.03,19.01-8.63,7.8-1.8,15.09-4.77,21.62-9.4,4.8-3.41,9.31-7.21,13.2-11.64,4.85-5.53,10.73-9.77,16.69-13.95,6.31-4.43,13-8.18,19.98-11.44,4.87-2.28,8.98-5.59,13-9.1,4.67-4.09,7.95-9.24,11.32-14.31,4.91-7.38,10.06-14.57,15.83-21.3.95-1.1,2.08-2.05,3.12-3.07-.05-.09-.1-.18-.16-.27-.35.13-.72.23-1.06.39-3.31,1.53-6.11,3.73-8.36,6.58-1.75,2.22-3.39,4.52-5.02,6.83-5.03,7.12-10.51,13.87-16.58,20.13-6.03,6.21-13.33,10.47-21.1,14.12-9.32,4.39-18.3,9.38-26.39,15.86-4.17,3.34-7.51,7.37-10.55,11.71-.73,1.05-1.54,2.05-2.26,3.11-3.12,4.55-7.41,7.28-12.78,8.42-6.99,1.49-14,2.92-20.96,4.56-5.75,1.36-11.5,2.76-16.92,5.21q-2.07.94-3.65-.61-1.42-1.39.33-2.27c4.82-2.41,10-3.79,15.21-5,7.22-1.68,14.45-3.36,21.73-4.73,6.78-1.28,11.99-4.59,15.62-10.46,6.25-10.1,15.49-16.83,25.65-22.45,5.34-2.95,10.76-5.76,16.26-8.39,7.35-3.52,13.7-8.28,19.24-14.21,6.35-6.79,11.91-14.18,17.29-21.75,1.56-2.19,3.44-4.2,5.42-6.03,3.76-3.46,8.49-4.88,13.4-5.82,1.81-.34,3.57-.96,5.38-1.28,3.84-.69,7.7-1.29,11.56-1.88,1.59-.24,3.2-.34,4.8-.5h11.08c.48.09.95.22,1.43.25,4.65.26,9.04,1.41,13.19,3.57,8.42,4.38,13.95,11.51,18.32,19.59,1.83,3.38,2.87,7.19,4.3,10.78.3.75.66,1.53,1.19,2.13,2.9,3.31,5.87,6.57,8.8,9.86.32.36.61.77.86,1.18,1.05,1.73.89,3.7-.44,5.24-.44.51-.87,1.09-1.42,1.44-1.95,1.23-2.16,3.22-2.4,5.2-.03.27.19.71.42.83,1.05.55,1.05,1.5.97,2.44-.08.95,0,2.08-1.22,2.42-.71.2-.82.62-.88,1.23-.48,5.39-1.59,10.64-3.59,15.69-.75,1.89-1.73,3.65-3.37,4.87-2.02,1.5-4.13,2.88-6.28,4.18-1.7,1.04-3.61,1.49-5.63,1.28-.75-.08-1.5-.2-2.25-.18-3.68.07-7.29-.28-10.81-1.43-.23-.07-.73.2-.87.44-.68,1.21-1.22,2.51-1.93,3.7-4.09,6.86-8.09,13.77-11.44,21.04-.23.51-.43,1.03-.64,1.55.48.15.96.3,1.43.46,2.71.91,5.45,1.74,8.12,2.77,3.83,1.47,7.72,2.83,11.37,4.67,9.09,4.6,16.31,11.24,20.66,20.59,4.79,10.27,9.58,20.54,14.03,30.96,3.52,8.23,6.49,16.7,9.76,25.04,1.54,3.93,3.19,7.81,4.81,11.7.1.25.33.46.49.68.14-.22.3-.42.41-.65,4.05-8.96,8.24-17.86,12.08-26.9,3.83-9.01,7.41-18.14,9.99-27.6,1.97-7.21,4.13-14.33,7.29-21.12,1.84-3.94,2.49-8.18,3.01-12.46.81-6.75.12-13.42-1.35-19.97-1.65-7.33-2.44-14.69-2.29-22.18.14-6.86.89-13.67,1.92-20.46.71-4.65,1.82-9.16,4.08-13.32,1.55-2.87,3.42-5.5,5.92-7.64,1.15-.98,2.48-1.24,3.91-.7,1.54.58,2.23,1.82,2.19,3.36-.04,1.37-.22,2.78-.6,4.1-.79,2.75-1.77,5.44-2.64,8.17-.18.56-.23,1.17-.34,1.75-.03.05-.06.1-.09.15.02-.06.04-.12.06-.18.22-.39.47-.75.64-1.16,1.8-4.28,3.88-8.41,6.75-12.08,1.05-1.35,2.32-2.59,3.7-3.6,2.34-1.72,5.69-.94,6.6,1.47.34.89.77,1.05,1.61,1.11,3.4.27,4.82,2.19,4.04,5.52-.43,1.83-1,3.62-1.57,5.42-.2.64-.24.93.6.93,1.59,0,2.38.65,2.87,2.18.22.68.35,1.38.53,2.06v4.07c-.37,1.73-.74,3.45-1.13,5.18-.62,2.75-1.35,5.49-1.87,8.26-.31,1.68-.48,3.42-.39,5.12.14,2.88.01,5.67-.58,8.51-.48,2.33-.28,4.8-.38,7.21-.25,6.21.72,12.29,1.81,18.39,1.78,9.97.47,19.58-4.37,28.6-.87,1.63-1.62,3.31-2.46,4.96-.86,1.7-1.58,3.41-1.36,5.39.04.39-.1.82-.21,1.22-2.53,9.42-4.69,18.92-6.29,28.54-.83,5.01-1.73,10.02-2.53,15.04-.17,1.05,0,2.16.01,3.24,0,.34.07.74-.09,1-1.49,2.51-1.3,5.37-1.63,8.08-1.91,15.42-4.48,30.7-8.65,45.68-1.68,6.02-3.47,12.02-6.28,17.64-2.02,4.04-4.63,7.68-7.74,10.94-3.48,3.64-7.94,5.5-12.73,6.68-5.55,1.37-11.15,1.08-16.73.33-9.28-1.24-16.51-5.99-22.43-13.14-11.3-13.64-21.65-27.92-30.11-43.52-1.24-2.28-2.37-4.63-3.51-6.96-.36-.75-.57-.93-1.32-.28-2.96,2.55-6.01,5.01-9.03,7.49-1.54,1.26-2.96,2.57-4.05,4.33-2.48,4-5.28,7.8-7.77,11.79-2.43,3.9-4.66,7.92-6.93,11.92-.28.49-.39,1.16-.36,1.73.06,1.1-.43,1.84-1.2,2.54-1.68,1.52-3.69,2.42-5.74,3.29-.6.25-1.24.79-1.51,1.36-2.4,5.03-4.72,10.09-7.05,15.16-.9,1.95-1.75,3.92-2.63,5.88-.2.45-.31.78.34,1.03,4.53,1.74,9.05,3.49,13.56,5.28,9.42,3.74,18.8,7.6,27.42,13.02,8.16,5.13,16.2,10.46,24.35,15.61,3.21,2.03,6.53,3.89,9.86,5.74,6.77,3.77,12.77,8.38,17.01,15.02,1.01,1.59,2.1,3.13,3.22,4.64,1.08,1.46.7,3.1.7,4.69,0,.18-.19.41-.36.54-.86.68-3.66.14-4.3-.78-1.31-1.89-2.66-3.75-3.96-5.64-4.03-5.9-9.45-10.24-15.68-13.52-6.89-3.63-13.33-7.95-19.72-12.35-13.83-9.5-28.65-17.06-44.33-22.99-3.98-1.51-7.91-3.11-11.88-4.65-1.59-.62-1.99-1.28-2.13-2.94-.2-2.32.59-4.37,1.5-6.41,2.27-5.09,4.53-10.18,6.79-15.27.13-.29.17-.62.26-.93-.33.03-.66.02-.98.08-6.09,1.34-12.27,1.93-18.49,2.06-.82.02-1.23.3-1.51,1.02-1.46,3.79-2.93,7.59-4.43,11.36-1.98,4.97-3.84,9.99-6.05,14.86-1.25,2.75-2.96,5.32-4.67,7.82-1.2,1.75-2.97,2.71-5.25,2.53-1.54-.13-2.23-.67-2.47-2.22-.3-1.96.05-3.84.81-5.63,1.18-2.77,2.49-5.49,3.66-8.26,1.98-4.68,3.98-9.35,5.8-14.1.79-2.06,1.12-4.29,1.67-6.44.24-.94.06-1.33-1.07-1.47-11.45-1.47-22.42-4.82-33.3-8.55-.96-.33-1.93-.63-2.87-1.02-.68-.28-.91-.03-1.29.55-4.7,7.31-8.43,15.28-14.13,21.9-8.2,9.52-18.39,15.93-30.8,18.53-4.46.94-9,.64-13.52.53-.82-.02-1.22,0-1.24,1-.01.55-.44,1.17-.84,1.63-7.29,8.45-13.23,17.74-17.5,28.07-.57,1.39-.92,2.87-1.4,4.29-.2.59-.02.9.51,1.17.8.42,1.55.93,2.35,1.34,6.32,3.28,10.73,8.4,14.05,14.58,1.1,2.05,2.43,3.97,3.45,6.05.5,1.01.69,2.24.76,3.38.21,3.71-1.34,4.91-5.28,4.15-1.33-.26-2.75-1.02-3.74-1.97-2.98-2.86-5.8-5.9-8.63-8.9-1.65-1.75-3.08-3.74-4.88-5.33-1.6-1.41-3.57-2.41-5.37-3.59-.1.1-.2.2-.29.31.18.34.36.68.53,1.03,2.05,4.32,4.22,8.58,6.12,12.96,1.95,4.49,2.63,9.28,2.31,14.15-.08,1.24-.65,2.57-1.33,3.64-1.02,1.6-4.74,1.56-5.97,0-.47-.6-.76-.59-1.44-.35-1.62.58-3.19.05-4.25-1.12-1.99-2.19-3.84-4.52-5.56-6.93-3.76-5.24-6.67-11.11-11.62-15.46-.25-.22-.49-.45-.94-.59.09.37.18.74.26,1.11,1.08,4.89,2.23,9.76,3.21,14.67.45,2.25.65,4.55-.09,6.82-.86,2.62-3.24,3.2-5.14,1.23-.49-.51-.95-1.08-1.32-1.69-4.23-6.95-8.48-13.89-11.24-21.61-.92-2.58-2.02-5.13-4.09-7.08-3.16-2.98-7.07-4.16-11.25-4.33-6.24-.25-12.18-1.87-18.13-3.51-1.01-.28-2-.62-3-.9-1.2-.33-1.97-1.12-2.1-2.38-.37-3.79.31-7.28,2.96-10.2,5.19-5.7,9.77-11.86,13.76-18.46,1.27-2.09,2.74-4.06,4.17-6.04,1.64-2.28,3.44-4.45,5-6.79,1.86-2.78,3.47-5.72,5.31-8.51,1.38-2.11,3.01-4.05,4.42-6.14,3.67-5.48,7.4-10.92,10.88-16.52,6.75-10.84,13.42-21.73,19.99-32.68,7.89-13.15,15.61-26.4,23.49-39.55,9.27-15.47,19.79-30.08,30.4-44.64,2.75-3.78,5.28-7.72,8.1-11.44,3.89-5.13,7.97-10.11,11.95-15.18.55-.7,1.07-1.46,1.47-2.25,3.52-6.97,7.68-13.44,14.35-17.84,2.83-1.86,5.81-3.49,8.76-5.17,6.04-3.44,11.04-8.04,15.58-13.27,2.48-2.86,5.12-5.66,8.05-8.04,3.79-3.09,8.57-4.33,13.12-5.89,5.31-1.82,10.71-3.4,15.59-6.28,1.74-1.03,3.34-2.3,5-3.47.21-.15.41-.38.65-.43.34-.07.79-.13,1.05.04.18.11.24.64.15.91-.15.45-.37.95-.72,1.24-1.5,1.25-2.96,2.58-4.61,3.6-4.25,2.64-9.05,4.06-13.67,5.89-4.19,1.66-8.32,3.53-12.29,5.67-2.04,1.1-3.82,2.82-5.43,4.52-2.77,2.93-5.29,6.08-7.96,9.11-3.75,4.25-8.22,7.64-13.09,10.48-4.37,2.54-8.77,5-12.37,8.62.01.02.03.03.04.05,0-.03-.01-.05-.02-.08ZM432.69,265.68c-.11.1-.23.2-.34.29-.3.42-.64.81-.89,1.25-2.94,5.36-6.65,10.1-11,14.4-6.21,6.14-13.67,10.37-21.4,14.14-5.56,2.72-9.74,6.88-13.43,11.67-.13.17-.18.39-.27.59.2.06.4.18.59.17,2.48-.13,4.97-.27,7.44-.45.27-.02.63-.26.77-.5,1.9-3.15,4.42-5.73,7.43-7.78,3.2-2.18,6.49-4.26,9.8-6.27,8.01-4.88,14.17-11.38,17.86-20.1,1.01-2.38,2.03-4.76,3.05-7.14.12-.09.25-.19.37-.28,0-.06-.02-.13-.03-.19,0,.07.01.13.02.2ZM564.34,322.81s.03.04.05.05c0-.02,0-.03,0-.05.05.25.1.51.15.76.44,4.79-.87,9.3-2.49,13.67-2.78,7.51-4.68,15.26-6.65,22.99-.69,2.7-1.18,5.47-2.11,8.08-2.72,7.63-5.6,15.19-8.46,22.77-.27.72-.24,1.23.18,1.87,2.76,4.29,6.43,7.56,10.95,9.87,2.84,1.45,5.83,2.63,9.07,2.35,2.42-.22,4.79-.92,7.19-1.37.81-.15,1.1-.6,1.21-1.37.29-1.97.63-3.94.96-5.91,1.72-10.32,3.51-20.62,5.82-30.84,1.64-7.25,3.77-14.25,7.34-20.78,1.42-2.59,2.47-5.29,3.28-8.14,1.52-5.37,1.77-10.83.74-16.22-1.29-6.77-2.09-13.53-1.59-20.43.06-.8,0-1.61,0-2.42-.29,0-.33.1-.39.2-3.35,5.85-4.94,12.16-4.31,18.87.74,7.89.2,15.65-1.72,23.32-.41,1.64-.83,3.31-2.22,4.47-.26.22-.71.56-.88.47-.29-.15-.61-.6-.6-.92.05-2.13-.1-4.32.35-6.37,1.33-6.08,2.09-12.19,1.57-18.39-.4-4.75,0-9.39,1.12-14,.91-3.75,2.95-6.99,4.53-10.44,1.03-2.24,1.93-4.6,2.41-7,.39-1.95.08-4.05.08-6.08-.35.22-.51.46-.6.73-.93,2.68-3.05,4.03-5.54,4.91-.9.32-2.01.57-2.74-.32-.51-.61-.65-.36-.91.09-1.03,1.8-2.06,3.59-3.07,5.4-1.5,2.69-2.93,5.44-4.52,8.08-.47.78-1.31,1.54-2.16,1.87-1.66.63-2.56.3-2.58-1.47-.02-1.43.23-2.64,1.25-3.7.71-.74,1.57-1.6.4-2.69-.05-.04-.04-.14-.06-.21-2.55-8.1-3.23-16.36-2.34-24.79.72-6.89,2.95-13.35,5.36-19.78.17-.45.25-.93.37-1.39.05-.03.1-.06.15-.09-.03-.02-.07-.05-.1-.07,0,.06-.02.12-.03.18-.27.4-.49.84-.82,1.18-.99,1.02-1.94,2.09-3.06,2.94-.53.41-1.52.68-2.11.47-1.23-.43-1.49.16-1.73,1.08-.15.58-.4,1.14-.51,1.73-.71,3.88-1.46,7.76-2.08,11.66-1.47,9.33-1.76,18.73-1.23,28.15.04.71.19,1.42.33,2.12,1.51,7.38,2.6,14.82,3.16,22.34.08,1.1-.12,2.22-.19,3.33-.07-.25-.14-.51-.21-.76ZM287.13,571.59l-.08.04s.05-.02.08-.03c-1.09-1.7-1.98-3.62-1.3-5.53.6-1.69-.03-2.62-.97-3.72-.76-.89-1.42-1.85-2.12-2.79-1.7-2.3-3.72-4.3-6.18-5.72-3.45-1.99-6.95-3.92-10.55-5.61-2.9-1.37-5.99-2.34-9.17-3.55.1.33.11.45.17.52,1.85,2.23,3.69,4.47,5.57,6.67.19.23.62.29.96.35.81.13,1.73-.01,2.41.34,4.35,2.23,8.35,4.78,10.94,9.25,2.22,3.82,5.27,7.05,9.12,9.39.33.2.73.26,1.1.4ZM483.37,290.31c1.35-.12,2.83.09,4.01-.41,2.37-1.01,4.62-2.34,6.84-3.67,1.93-1.16,3.24-2.93,3.98-5.06.88-2.52,1.68-5.07,2.46-7.63.44-1.44.39-1.45-1.11-1.76-.4-.08-.81-.19-1.19-.36-2.02-.92-4.05-1.83-6.04-2.81-1.23-.6-2.09-2.18-1.85-3.4.07-.36.5-.8.86-.92.55-.19.88.15.94.78.02.24.35.67.5.65.81-.1,1.67-.17,2.4-.5,2.15-.98,4.25-2.08,6.35-3.16.29-.15.65-.45.71-.73.34-1.7.56-3.42.91-5.11.11-.54.4-1.11.78-1.51.94-.97,1.96-1.87,2.97-2.77.79-.7.75-1.39.06-2.12-.23-.25-.44-.52-.68-.76-2.95-3.02-5.91-6.02-8.84-9.06-.51-.53-.93-1.2-1.21-1.87-.92-2.18-1.74-4.4-2.65-6.59-2.14-5.2-5.14-9.89-8.74-14.19-5.81-6.93-12.96-11.53-22.18-12.37-.6-.05-1.14-.3-1.14.76,0,3.35,0,6.7-.25,10.04-.93,12.4-5.21,23.76-10.99,34.63-.37.69-.32,1.09.06,1.79.84,1.53,1.48,3.17,2.08,4.81.17.47.24,1.26-.65,1.43-.81.15-1.07-.33-1.36-1-1.52-3.55-3.96-6.17-7.64-7.57-1.58-.6-3.08-.53-4.6.15-3.01,1.34-4.85,4.58-4.54,8.38.33,4.14,2.26,7.7,4.5,11.08,2.33,3.52,5.72,4.54,9.76,3.81,1.37-.25,2.75-.44,4.13-.56.31-.03.88.31.93.57.08.41-.02,1.04-.3,1.29-.52.46-1.19.84-1.86,1.01-2.99.75-6,1.17-9.02.18-.67-.22-.82-.05-.9.62-.08.66-.33,1.32-.62,1.92-2.41,5.03-4.73,10.1-7.32,15.03-1.59,3.03-2.47,6.57-5.55,8.7-.62.43-.99,1.22-1.49,1.84-3.19,4-7.14,6.56-12.41,6.85-7.82.43-15.64.99-23.46,1.41-1.56.08-2.9.39-4.29,1.19-3.14,1.81-5.54,6.44-4.82,9.99.71,3.52,2.59,6.41,5.15,8.85,8.38,7.98,17.9,14.26,28.54,18.8,12.74,5.44,25.82,6.34,39.25,2.98,11.75-2.94,16.9-11.75,18.75-22.31.31-1.79.22-1.9-1.54-2.54-5.09-1.85-10.21-3.63-15.33-5.39-.23-.08-.76.2-.91.45-.61,1.04-1.1,2.15-1.69,3.2-.39.68-.77,1.44-1.35,1.92-.42.35-1.16.38-1.76.37-.14,0-.45-.77-.38-1.12.19-.99.41-2.02.86-2.9,4.76-9.41,8.83-19.16,14.34-28.19.39-.63.38-1.14,0-1.76-1.92-3.15-3.77-6.35-5.75-9.46-.8-1.26-1.77-2.43-2.8-3.5-.87-.9-1.02-1.45-.24-2.47.68-.9,1.33-.94,2.05-.06.16.2.41.33.64.46,3.48,2.02,6.93,4.11,10.47,6.04,4.41,2.41,9.12,3.72,14.2,3.63ZM268.29,580.26c.72-.82,1.33-1.77,2.19-2.39.63-.45.76-.75.52-1.43-3.03-8.61-6.75-16.85-12.57-24-3.67-4.51-7.65-8.75-11.6-13.01-1.3-1.4-2.14-3.01-2.38-4.89-.17-1.34-.12-2.72-.36-4.04-.72-3.97-.13-7.71,1.79-11.24,1.67-3.06,3.72-5.85,6.19-8.31,5.73-5.69,10.04-12.5,14.97-18.83.38-.48.44-.69-.33-.81-.7-.11-1.47-.38-1.99-.83-3.13-2.7-6.5-5.02-10.22-6.81-4-1.93-8.07-3.73-12.06-5.68-1.11-.55-1.56-.28-2.2.68-5.43,8.18-10.92,16.32-16.4,24.48-.53.78-1.06,1.56-1.58,2.34-1.98,2.97-3.97,5.94-5.94,8.93-2.11,3.21-4.29,6.38-6.29,9.66-3.4,5.59-7.36,10.74-11.62,15.7-1.13,1.32-1.9,2.94-2.78,4.46-.1.18.05.74.2.79,1.41.49,2.83.96,4.27,1.34,5.17,1.38,10.38,2.45,15.72,3,7.49.77,12.72,4.87,15.8,11.71.74,1.65,1.36,3.35,2.07,5.01,2.3,5.36,4.62,10.71,6.95,16.06.17.38.43.72.65,1.09.17-.39.15-.68.13-.98-.15-2.06-.3-4.1,1.66-5.54.17-.12.16-.62.09-.91-.85-3.51-1.73-7.02-2.61-10.52-1.56-6.16-4.37-11.61-9.09-15.97-.66-.61-1.33-1.3-1.71-2.08-.39-.8-.51-1.76-.61-2.66-.02-.22.45-.67.75-.73.76-.15,1.4.03,1.97.74,1.61,1.99,3.22,4,5.06,5.77.9.87,1.47,1.84,2.12,2.84,1.11,1.7,2.17,3.46,3.54,4.94,3.31,3.6,6.78,7.06,10.19,10.56,1.49,1.53,2.59,3.28,3.51,5.21,1.64,3.43,3.27,6.88,5.75,9.82.36.43.77.83,1.16,1.24.04-.68-.16-1.19-.32-1.72-.38-1.26-.93-2.51-1.05-3.8-.11-1.11,0-2.43.54-3.35.5-.86.42-1.34.02-2.07-5.22-9.64-12.11-17.96-20.13-25.38-1.41-1.3-2.76-2.67-4.14-4-.88-.85-.72-1.93-.61-2.97.02-.22.42-.54.68-.58.87-.12,1.7-.07,2.39.66.88.93,1.82,1.81,2.78,2.65,6.22,5.48,11.73,11.6,16.48,18.39,3.37,4.83,6.46,9.82,8.01,15.6.18.67.34,1.35.47,1.88ZM348.53,394.92c-.14-.42-.2-.61-.26-.81-.18.11-.41.18-.55.34-1.3,1.42-2.61,2.82-3.86,4.28-4.21,4.87-8.68,9.56-12.53,14.7-8.03,10.69-15.74,21.62-23.57,32.47-5.73,7.94-11.27,16.03-17.18,23.84-7.54,9.97-15.37,19.74-23.07,29.59-3.2,4.09-6.23,8.34-9.69,12.2-3.32,3.71-6.59,7.38-8.94,11.8-.72,1.36-1.31,2.71-1.21,4.27.07,1.12.33,2.25.3,3.37-.08,2.9,1.18,5.05,3.61,6.45,1.89,1.08,3.92,1.91,5.87,2.89.94.47,1.26.23,1.23-.8-.01-.47.18-.96.31-1.42,1.65-5.72,4.58-10.78,7.88-15.68,5.41-8.03,10.63-16.18,16.76-23.71,7.62-9.36,15.93-18.1,24.4-26.68,4.02-4.07,8.21-7.98,12.45-11.82,1.25-1.13,2.61-2.03,3.3-3.66.69-1.65,1.5-3.24,2.26-4.86.1-.2.2-.4.32-.59.48-.75,1.06-1.44,1.45-2.23,1.81-3.73,3.47-7.52,5.37-11.21,3.87-7.53,7.89-14.99,11.77-22.53.89-1.72,1.82-3.56,2.09-5.43.7-4.95,1.04-9.95,1.5-14.74ZM298.08,506.74c2.52-.21,4.4-.29,6.27-.53,4.77-.61,9.18-2.35,13.47-4.41,14.55-7,24.98-17.86,30.89-32.97.31-.8.17-1.09-.63-1.37-2.95-1.03-5.9-2.06-8.79-3.25-3.6-1.48-6.94-3.46-9.96-5.94-.26-.22-.63-.82-.94-.1-.59,1.38-1.23,2.76-1.55,4.21-.19.86-.47,1.52-1.09,2.12-5.27,5.11-10.61,10.16-15.77,15.39-7.67,7.79-15.15,15.75-22.02,24.27-.89,1.1-.88,1.26.54,1.46,3.39.47,6.79.81,9.58,1.13ZM451.67,204.84c-1.01-.28-1.37.3-1.51,1.41-.15,1.23-.41,2.47-.83,3.63-2.65,7.21-5.17,14.48-8.1,21.57-4.54,11-9.34,21.89-14.14,32.79-1.08,2.47-2.37,4.91-3.95,7.08-4.27,5.85-10.28,9.59-16.65,12.68-5.58,2.71-11.36,5.03-17.06,7.5-5.08,2.2-9.3,5.53-12.77,9.82-1.12,1.37-2.23,2.75-3.37,4.1-.95,1.12-1.94,2.2-2.9,3.32-.16.19-.24.45-.35.68.27.03.55.11.82.08,3.03-.32,6.07-.64,9.09-1.03.37-.05.76-.41,1.02-.72,1.36-1.71,2.57-3.53,4.02-5.16,4.06-4.57,8.93-8.03,14.61-10.38,9.58-3.98,17.6-10.06,24.14-18.13,3.09-3.81,5.36-8.09,7.68-12.36.21-.38.16-.93.16-1.4-.01-1.35-.2-2.72-.07-4.05.46-4.65,2.86-8.01,6.81-8.67,2.31-.39,3.26-1.5,3.78-3.46.06-.22.16-.42.24-.63,3.42-8.75,5.97-17.77,8.37-26.84.92-3.45,1.71-6.94,2.44-10.43.29-1.41.14-1.44-1.46-1.37ZM434.87,269.35c-.08.14-.22.31-.3.5-.98,2.16-1.94,4.33-2.94,6.48-2.41,5.17-5.46,9.9-9.74,13.74-4.39,3.94-9.37,7.09-14.38,10.15-2.94,1.79-5.79,3.67-8.02,6.36-.15.18-.22.44-.33.66.22.03.44.09.65.07,4.05-.36,8.11-.69,12.15-1.12,4.04-.44,7.33-2.29,9.99-5.38,1.94-2.25,4.04-4.37,6.07-6.55.51-.54,1.16-1.02,1.48-1.66,3-5.95,5.95-11.93,8.89-17.91.12-.24.11-.68-.04-.88-1.13-1.5-2.3-2.96-3.49-4.46ZM269.89,545.13c.12-.24.29-.48.37-.75,1.64-5.15,3.82-10.07,6.61-14.69,3.85-6.38,7.88-12.66,12.89-18.23.47-.52.76-.8-.29-.98-1.36-.22-2.75-.54-4.01-1.09-.96-.42-1.4-.35-1.98.51-5.19,7.71-10.45,15.38-15.64,23.1-1.78,2.65-3.46,5.38-4.37,8.5-.2.68-.13,1,.58,1.25,1.25.42,2.46.94,3.68,1.44.66.27,1.31.57,2.16.94ZM569.98,275.68c-.03,5.34.79,11.21,2.07,15.33.12.37.34.71.52,1.06.25-.31.51-.62.76-.93,1.24-1.53,1.91-3.2,1.41-5.2-.04-.18-.02-.38,0-.56.42-9.82,2.27-19.25,7.38-27.85,1.77-2.97,3.34-6.06,4.95-9.13.31-.58.56-1.3.51-1.92-.04-.5-.47-1.19-.91-1.38-.43-.19-1.19-.02-1.62.27-2.62,1.78-4.46,4.3-5.86,7.06-2.56,5.02-4.84,10.19-7.36,15.24-1.38,2.76-2.32,5.54-1.84,8.03ZM458.63,207.42c0-.38,0-.75,0-1.13.02-1.61.02-1.57-1.65-1.59-.82-.01-1.06.3-1,1.06.04.41,0,.84-.08,1.24-.84,3.78-1.6,7.58-2.58,11.33-2.38,9.15-5.01,18.23-8.4,27.07-.81,2.12-.8,2.07,1.14,3.14.74.41,1.05.22,1.37-.45,1.02-2.1,2.12-4.16,3.09-6.28,4.99-10.92,8.01-22.31,8.1-34.39ZM578.04,283.15c.1.01.2.02.3.04,1.35-1.66,2.56-3.48,4.1-4.94,1.95-1.86,2.97-3.84,3.27-6.63.33-3.05,1.58-6.01,2.56-8.97,1.35-4.07,2.8-8.1,4.23-12.14.44-1.23-.39-1.61-1.24-2-.84-.39-1.56-.25-2.01.61-1.54,2.93-3.17,5.82-4.58,8.81-2.97,6.33-5.2,12.9-5.99,19.9-.2,1.77-.43,3.54-.64,5.32ZM395.33,479.59c-.08-.1-.17-.19-.25-.29-.19.29-.47.56-.55.88-.17.69-.2,1.42-.33,2.12-1.61,8.3-5.19,15.85-8.97,23.32-1.02,2.01-1.93,4.07-2.82,6.14-.2.46-.08,1.06-.1,1.59.46-.28,1.01-.49,1.37-.86,2.21-2.27,3.86-4.94,5.04-7.85,3.27-8.06,6.4-16.17,9.61-24.26.23-.57.18-.83-.51-.8-.83.03-1.65,0-2.48,0ZM591.91,278.07c.09-.05.17-.1.26-.15.07-.21.17-.42.22-.64.71-3.12,1.43-6.23,2.12-9.35.44-1.95.96-3.91.44-5.91-.17-.67-.61-1.32-1.09-1.84-.23-.25-2.03,1-2.2,1.48-.79,2.24-1.68,4.45-2.3,6.73-.49,1.8-.67,3.69-.92,5.55-.04.3.13.86.34.93,1.54.56,2.63,1.56,3.13,3.2ZM583.05,285.33c.2-.07.31-.11.41-.15,2.92-1.09,4.28-3.4,4.86-6.29.03-.17-.51-.66-.68-.61-.44.12-.9.38-1.22.71-.83.87-1.52,1.89-2.4,2.69-1.02.92-.92,2.13-1.14,3.27-.02.11.11.26.16.38ZM272.44,583.19c-.1-.03-.21-.06-.31-.09-.02-.34.01-.69-.06-1.01-.15-.72-.35-1.44-.54-2.15-.38.74-.93,1.44-1.1,2.22-.3,1.35-.32,2.76-.58,4.12-.09.48-.33.94.3,1.03.37.05,1.05-.17,1.15-.44.47-1.19.78-2.44,1.14-3.67ZM572.12,245.34c-.11-.22-.19-.44-.22-.44-.21.05-.47.1-.6.25-1.49,1.72-2.97,3.46-4.42,5.22-.14.17-.05.53-.06.8.31-.02.74.09.92-.07,1.08-.97,2.21-1.93,3.11-3.05.61-.76.87-1.8,1.28-2.7ZM495.3,268.2c-.02.08-.05.15-.07.23,1.15.43,2.28.91,3.45,1.29,2.45.79,2.73.57,2.87-1.95.04-.68-.24-.79-.78-.68-1.83.37-3.65.74-5.48,1.12ZM290.67,572.54c0-2.09-.95-3.81-2.04-5.47-.14-.22-.42-.34-.64-.51-.05.28-.19.58-.14.84.4,2,1.54,3.61,2.81,5.14ZM244.36,586.9c.12,0,.25,0,.37,0,.06-.61.22-1.22.16-1.81-.19-1.68-.47-3.35-.75-5.02-.04-.27-.23-.51-.35-.77-.17.3-.53.63-.49.9.31,2.24.7,4.48,1.06,6.71ZM265.54,584.24c.23-2.15-.61-4.06-1.24-6.01-.06-.19-.25-.35-.37-.52-.1.22-.28.44-.28.66-.05,2.17.83,4.05,1.9,5.87ZM573.06,247.63l.03.07.03-.07h-.06Z"/>
    <path class="cls-1" d="M387.61,533.24c1.58,1.24,2.92,2.25,4.23,3.31,10.94,8.83,20.77,18.82,30.07,29.32,3.77,4.25,7.17,8.83,10.68,13.3,3.54,4.51,7.16,8.92,11.32,12.89.91.87,1.1,2.55,1.51,3.88.18.59-.27.9-.86.87-1.64-.07-3.07-.45-4.39-1.66-7.61-6.96-13.46-15.43-20.05-23.27-1.82-2.16-3.7-4.29-5.73-6.24-9.72-9.28-19.1-18.96-29.92-27.04-.9-.67-1.73-1.46-2.55-2.23-1.28-1.2-1.86-2.59-2.03-4.44-.26-2.73.7-4.56,2.68-6.27,2.51-2.17,5.2-3.99,8.23-5.3.49-.21,1.17.02,1.77.05-.14.65-.05,1.51-.44,1.93-1.89,2.04-3.91,3.96-5.88,5.94-.2.2-.34.45-.51.68.28.06.55.14.83.18,3.33.43,6.34-1.07,9.5-1.63,1.52-.27,3.02-.63,4.55-.83.45-.06,1.23.16,1.38.48.28.6.12,1.19-.64,1.67-4.11,2.59-8.6,3.92-13.74,4.39ZM384.97,530.1c-.04-.15-.07-.25-.1-.35-.09.04-.23.06-.26.13-.03.08.02.21.08.29.02.03.16-.04.28-.07Z"/>
    <path class="cls-1" d="M447,260.6c-1.94-1.11-3.88-2.23-5.83-3.32-.56-.31-1.22-.48-1.69-.89-.31-.27-.49-.85-.45-1.27.02-.2.68-.41,1.07-.47.31-.05.69.05.97.22,2.62,1.53,5.3,2.99,7.81,4.68,1.48,1,2.48,2.52,2.71,4.39.22,1.76-.7,3.49-2.13,4.13-1.61.72-3.94.33-5.04-.88-1.03-1.13-1.02-2.46-.63-3.82.42-1.46,1.19-2.05,3.03-2.44.06-.11.11-.22.17-.34ZM447.48,266.45c1.1.02,2.08-.85,2.11-1.9.03-.78-.91-1.31-2.33-1.32-.78,0-1.59.84-1.65,1.7-.05.84.75,1.49,1.87,1.51Z"/>
    <path class="cls-1" d="M484.34,222.67c.17.87-.32,1.22-1.21,1.11-.93-.11-1.85-.29-2.78-.4-4.78-.58-9.3.03-13.33,2.91-.3.21-.67.49-.99.47-.65-.04-1.7-.08-1.85-.44-.34-.79-.24-1.69.68-2.37,3.13-2.33,6.69-3.45,10.51-3.58,2.5-.08,5.02.21,7.51.47,1.25.13,1.47.56,1.47,1.83Z"/>
    <path class="cls-1" d="M480.82,228.68c1.64.51,3.29.97,4.9,1.55.96.35,1.56,1.1,1.78,2.17.25,1.2.69,2.37.85,3.58.06.46-.34,1.31-.71,1.43-.49.16-1.42-.03-1.7-.4-1.05-1.45-1.99-2.99-2.78-4.59-.27-.53-.47-.82-1.02-.97-1.93-.52-3.72,0-5.5.66-.38.14-.78.34-1.17.33-.35,0-1-.25-1-.37.02-.47.11-1.19.42-1.35,1.83-.96,3.73-1.79,5.95-2.04Z"/>
    <path class="cls-1" d="M500.4,254.23c-.1-.11-.52-.38-.55-.68-.09-.82.99-1.71,1.9-1.73.69-.01.93.32.9.98-.05.91-.76,1.46-2.25,1.43Z"/>
  </g>
  <g>
    <path class="cls-1" d="M275.14,550.71c.93.27,1.86.54,2.79.81,10.54,3.02,21.12,5.89,31.61,9.09,10.09,3.07,20.02,6.67,30.13,9.67,13.83,4.11,27.85,7.61,41.63,11.86,12.83,3.96,25.93,6.48,39.15,8.52,11.53,1.78,22.79,4.63,33.9,8.18,11.63,3.71,23.31,7.25,34.99,10.78,4.75,1.44,6.72.67,9.73-3.29,2.6-3.42,4.06-7.37,5.31-11.41,2.52-8.17,4.94-16.37,7.54-24.51,4.4-13.78,9.29-27.39,14.4-40.92,8.88-23.5,17.87-46.96,25.96-70.76,5.41-15.92,12.24-31.28,19.33-46.53,3.38-7.27,6.2-14.8,9.3-22.2.33-.79.1-1.09-.66-1.22-.44-.08-.88-.22-1.31-.33-1.56-.37-1.57-.39-1.06-1.95.08-.25.19-.49.27-.74q.66-2.12,2.84-1.53c2.34.63,2.37.63,2.64-1.78.28-2.45-.24-4.76-1.72-6.73-.71-.94-1.05-1.79-.92-2.96.14-1.23.11-2.48.12-3.72,0-.75.16-1.05.97-.6,2.67,1.48,4.53,3.6,5.34,6.56,1.17,4.25,1.02,8.5-.15,12.72-.1.36-.2.76-.41,1.05-2.42,3.27-3.36,7.21-4.96,10.85-3.89,8.86-7.77,17.74-11.68,26.59-7.58,17.14-14.09,34.68-20.13,52.42-3.8,11.16-8.12,22.14-12.24,33.18-8.02,21.45-16.38,42.78-23.24,64.65-2.04,6.5-3.87,13.07-5.88,19.59-1.34,4.35-2.66,8.73-5.19,12.6-.08.13-.16.26-.24.39-3.54,5.59-6.91,7.13-13.36,5.57-5.01-1.21-9.92-2.81-14.86-4.27-12.96-3.84-25.86-7.91-38.9-11.46-6.7-1.82-13.61-2.96-20.5-3.98-13.37-1.98-26.45-5.08-39.39-8.96-16.74-5.01-33.66-9.43-50.34-14.63-13.41-4.18-26.75-8.6-40.36-12.11-1.74-.45-2.95-1.37-4.16-2.6-1.78-1.81-3.79-3.4-5.7-5.08-.22-.19-.45-.38-.68-.57.03-.08.06-.15.09-.23Z"/>
    <path class="cls-1" d="M287.17,301.82c-.47.1-.94.19-1.42.29-1.54.33-2.85,1.02-3.6,2.47-.31.6-.61.64-1.23.53-5.59-1.04-11.16-2.24-16.78-2.99-5.88-.78-11.23.71-15.58,4.99-.23.23-.42.51-.63.77.33.13.65.32.99.39,11,2.35,22.01,4.7,33.02,7.03.78.17,1.06.44.8,1.3-.27.85-.32,1.77-.45,2.66-.1.68-.36.91-1.13.74-7.57-1.67-15.15-3.27-22.73-4.92-4.08-.89-8.15-1.82-12.22-2.76-.56-.13-.84-.05-1.17.48-8.9,14.37-16.79,29.28-23.92,44.6-6.22,13.35-12.35,26.74-18.59,40.09-3.83,8.19-8.01,16.22-11.62,24.51-5.49,12.61-10.61,25.37-15.88,38.07-2.46,5.91-5.1,11.76-7.31,17.76-2.2,5.96-4.42,11.96-5.47,18.27-.54,3.22-.88,6.49-1.05,9.76-.29,5.34,2.05,9.52,6.15,12.82,2.88,2.33,6.28,3.7,9.59,5.24,7.67,3.57,15.62,6.39,23.78,8.6.75.2,1.08.28.33,1.05-1.01,1.04-1.8,2.3-2.75,3.4-.2.23-.78.33-1.1.23-4.21-1.29-8.48-2.44-12.6-4-5.28-1.99-10.47-4.25-15.65-6.51-3.56-1.56-6.68-3.76-9.21-6.77-2.95-3.5-3.96-7.67-4.07-12.08-.19-7.64,1.26-15.05,3.43-22.35,2.89-9.75,7.1-18.96,10.99-28.32,5.7-13.74,11.06-27.63,17.44-41.09,4.08-8.61,8.32-17.15,12.4-25.76,6.52-13.75,12.89-27.58,19.45-41.31,6-12.55,12.63-24.77,20.28-36.41.16-.25.34-.51.42-.79,2.74-9.73,11.45-14.15,18.53-14.46,8.64-.38,16.91,1.6,25.24,3.33,1.13.23,2.24.55,3.36.82,0,.11-.01.21-.02.32Z"/>
    <path class="cls-1" d="M481.95,391.15c-.5-4.41-1.01-8.81-1.5-13.22-.28-2.55.04-5.01.93-7.43.66-1.79,1.11-3.66,1.56-5.52.18-.76.48-1.1,1.28-1.08.82.02,1.74-.04,1.77,1.06.04,1.26,0,2.56-.23,3.8-.26,1.48-.75,2.91-1.16,4.36-.53,1.91-.25,3.79.04,5.71,1.84,12.17,1.36,24.18-2.81,35.88-2.09,5.87-5.75,10.81-9.52,15.67-.41.54-.9,1.03-1.25,1.6-.9,1.48-2.27,1.75-3.81,1.53-.29-.04-.75-.37-.77-.6-.13-1.39-.14-2.7.89-3.92,3.72-4.41,7.21-9,9.64-14.28,2.69-5.85,4-12.05,4.43-18.45.11-1.69.18-3.38.27-5.07.07-.01.14-.02.21-.03Z"/>
    <path class="cls-1" d="M495.09,346.89c2.38.59,4.74,1.25,7.13,1.76,7.55,1.6,15.13,3.04,22.66,4.74,6.72,1.51,13.37,3.3,20.06,4.93,2.6.63,5.21,1.17,7.83,1.69.81.16.97.5.72,1.22-.37,1.06-.77,2.13-1.03,3.22-.17.71-.48.79-1.11.64-6.81-1.64-13.6-3.32-20.43-4.85-7.42-1.67-14.87-3.18-22.3-4.81-3.38-.75-6.73-1.63-10.08-2.48-.3-.08-.67-.25-.83-.5-1.03-1.57-2.01-3.17-2.99-4.77-.12-.2-.12-.47-.18-.71.18-.02.36-.04.55-.06Z"/>
    <path class="cls-1" d="M504.49,365.87c4.28.98,8.3,1.89,12.33,2.82,10.37,2.4,20.74,4.82,31.12,7.2,1,.23,1.2.61.85,1.53-.28.73-.42,1.52-.54,2.3-.12.81-.52.92-1.25.75-9.49-2.22-18.98-4.42-28.47-6.61-3.44-.8-6.9-1.56-10.33-2.41-.49-.12-1.06-.49-1.3-.91-.82-1.42-1.52-2.92-2.41-4.67Z"/>
    <path class="cls-1" d="M372.91,372.1c-.37.78-.57,1.72-1.13,2.32-5.02,5.47-10.1,10.88-15.17,16.3-1.47,1.57-2.96,3.11-4.47,4.64-.33.34-.77.72-1.2.78-.67.09-1.88.1-1.97-.17-.27-.75-.23-1.7-.02-2.49.17-.64.73-1.22,1.2-1.74,6.11-6.82,12.22-13.64,18.37-20.42.51-.57,1.32-1.07,2.06-1.19,1.86-.31,2.09-.03,2.33,1.98Z"/>
    <path class="cls-1" d="M260.2,303.47c.93.09,1.87.15,2.79.28,1.24.17,1.96,1.03,2.46,2.08.11.23,0,.68-.16.91-1.5,2.03-6.85,2.53-8.04-.4-.3-.74-.37-1.31.34-1.75.8-.5,1.65-.91,2.47-1.37.05.08.1.17.15.25Z"/>
  </g>
  <path class="cls-2" d="M330.4,247.66c-1.37,6.1-4.91,9.88-11.19,11.26-12.16,2.66-24.24,5.72-36.43,8.28-6.91,1.45-13.95,2.29-20.95,3.34-5.1.77-10.2,1.49-15.31,2.15-5.83.75-11.68,1.28-17.57.98-1.83-.09-3.68-.4-5.45-.86-5.99-1.57-9.19-5.39-9.75-11.54-.5-5.47-.8-10.96-1.4-16.42-1.01-9.21-3.01-18.29-3.6-27.54-.16-2.4-.2-4.85.09-7.16l116.51-23.71c.57,2.04.82,4.22,1.13,6.04.93,5.45,1.56,10.96,2.25,16.45.77,6.13,1.57,12.25,2.18,18.39.67,6.79,1.02,13.61-.5,20.36Z"/>
  <path class="cls-3" d="M318.86,224.74c.41,1.45-.48,2.36-1.89,3.14-8.44,4.65-16.85,9.36-25.28,14.04-1.96,1.09-4,1.89-6.34,1.64-.88-.1-1.3-.35-1.29-1.28.05-3.5-.33-3.16,2.93-4.86,6-3.15,11.87-6.55,17.79-9.84,1.05-.59,2.12-1.15,3.17-1.74.18-.1.3-.28.45-.43-.18-.11-.35-.25-.55-.33-2.72-1.12-5.52-2.05-8.13-3.37-4.09-2.07-8.06-4.39-12.08-6.6-.74-.41-1.12-.97-.99-1.83.16-1.07-.56-2.62.67-3.09,1.34-.52,2.93-.47,4.35.38,5.87,3.49,11.93,6.61,18.36,8.94,2.04.74,4.17,1.28,6.29,1.78,2.53.6,2.54.54,2.54,3.47Z"/>
  <path class="cls-3" d="M223.31,239.11c-.35-1.52.55-2.53,2.03-3.35,7.59-4.17,14.27-9.68,21.33-14.63.62-.43,1.3-.79,1.86-1.28,1.39-1.23,3.05-1.18,4.7-1,.36.04.86.69.94,1.12.15.84.15,1.74,0,2.59-.08.47-.48,1.01-.89,1.3-6.66,4.74-13.35,9.44-20.03,14.15-.16.12-.27.31-.41.46.15.09.3.21.47.27,5.96,1.99,11.91,4.01,17.89,5.95,1.71.56,3.5.88,5.26,1.31,1.39.34,1.79.85,1.81,2.29.04,2.95-.03,3.3-2.9,2.89-3.66-.52-7.34-1.33-10.83-2.54-6.3-2.19-12.56-4.45-19.04-6.04-2.12-.52-2.19-.72-2.19-3.49Z"/>
  <path class="cls-3" d="M262.6,255.64c.26-1.04.41-1.97.73-2.84,5.68-15.68,10.81-31.53,14.54-47.8.33-1.44,1.44-2.05,2.79-1.46.31.13.62.7.62,1.06,0,1.08-.03,2.19-.28,3.24-3.05,13.06-6.96,25.86-11.64,38.43-1.17,3.13-1.92,6.4-2.82,9.63-.41,1.46-1.88,2.31-3.19,1.53-.45-.27-.52-1.19-.74-1.78Z"/>
  <path class="cls-1" d="M522.35,250.09c.06-.78-.12-1.57-.17-2.35-.31-4.7,1.59-7.91,5.98-9.69,3-1.21,6.06-2.28,9.15-3.23,22.19-6.85,40.44-9.35,63.32-14.45,19.17-4.28,25.82-7.02,28.9-4.43,1.92,1.61,2.94,4.04,3.53,6.69-18.35,4.56-92.08,22.89-110.73,27.51,0-.01,0-.02,0-.03Z"/>
  <path class="cls-1" d="M325.34,186.42l-116.51,23.71c.58-4.64,2.51-8.73,7.64-10.81,5.59-2.27,12.03-2.62,17.92-3.91,13.3-2.92,26.58-5.99,39.89-8.9,13.62-2.97,27.33-6.75,41.37-6.81,1.67,0,3.38.05,4.95.62,2.7.99,3.99,3.41,4.74,6.1Z"/>
</svg>