<?xml version="1.0" encoding="UTF-8"?>
<svg id="_Layer_" data-name="&amp;lt;Layer&amp;gt;" xmlns="http://www.w3.org/2000/svg" viewBox="0 0 794.88 794.88">
  <defs>
    <style>
      .cls-1 {
        fill: #000;
      }

      .cls-1, .cls-2, .cls-3 {
        stroke-width: 0px;
      }

      .cls-2 {
        fill: #1a1a1a;
      }

      .cls-3 {
        fill: #ccff00;
      }
    </style>
  </defs>
  <path class="cls-1" d="M521.9,269.03c-.04,1.65-.56,3.32-1.02,4.93-.58,2-1.96,3.34-4.01,3.77-4.91,1.02-9.8,2.28-14.77,2.83-6.58.73-13.22.95-19.85,1.25-7.61.35-15.18,1-22.73,2.03-5.01.68-10.06,1.07-15.1,1.51-3.83.34-7.66.61-11.5.79-2.43.12-2.34-.11-3.24-2.33-2.6-6.4-5.14-12.83-8.14-19.04-1.47-3.03-3.88-5.6-5.94-8.32-1.17-1.54-2.45-2.99-2.6-5.04-.01-.16-.16-.44-.27-.46-1.25-.16-1.15-1.13-1.17-1.97-.08-2.83-.01-5.66-.18-8.48-.38-6.31-.89-12.61-1.31-18.91-.3-4.54-.68-9.09-.73-13.63,0-.54.04-1.08.12-1.63.04-.26.08-.51.14-.77,2.39,0,4.77,0,7.16,0,10.54.01,21.08.08,31.62-.14,10.75-.23,21.49-.74,32.24-1.03,12.42-.33,24.84-.55,37.25-.73.06.28.11.55.17.82.39,2,.73,4,.99,6.02.78,6.15,1.5,12.32,2,18.5.51,6.26.9,12.54,1.03,18.82.15,7.07,0,14.14-.15,21.21Z"/>
  <path class="cls-2" d="M619.28,467.99c-1.15.3-2.42.37-3.64.54-.01-.04-.02-.08-.03-.12h-.33c-2.13,0-3.3-.91-3.02-2.18-.82.09-1.36.16-1.36.16,0,0,2.31-3.66-2.99-6.95-5.3-3.29-24.16,8.34-24.16,8.34,0,0,.84-2.93,2.51-6.29,1.68-3.35,11.22-11.95,11.77-14.83s-8.1-2.04-8.1-2.04c0,0,.31-5.97-4.68-7.44-5-1.47-15.37,7.23-15.37,7.23,0,0,4.12-8.18,4.12-10.36s-3.35-2.53-8.28-2.32-14.04,22.37-16.09,22.33c-2.05-.04-23.11,13.05-36.32,13.29-8.9.16-18.09-2.3-23.68-3.98.13.16.27.32.42.47.12.13.23.27.33.42-1.14-.17-2.28-.4-3.41-.63-1.48-.3-2.96-.52-4.44-.63,0-.18-.01-.37-.01-.55,0-2.86,0-5.71,0-8.57,0-.44,0-.89,0-1.33,0-5.34,0-10.69,0-16.03h.06c0-7.15-.05-14.3.01-21.45.06-6.68.22-13.35.38-20.02.1-4.2.29-8.39.45-12.59.06-1.56.37-3.11.92-4.58,1.91-.21,3.82-.44,5.74-.58,6.25-.46,12.51-.79,18.77-1.15,12.29-.71,24.58-1.36,36.88-1.79,12.36-.43,24.73-.68,37.1-1.04.71.18,1.12.3,1.13.33.1.29,5.76,3.27,5.76,3.27l8.12-2.24-.89,3.63s-.42,3.02,2.12,4.59,4.49-1.47,5.82-2.41c1.33-.94,4.18-2.62,4.18-2.62l2.86.44.65,7.21-2.73,5.14-4.29,20.12,1.17,5.03.48,5.77s-3.53,3.35-5,7.14c-1.47,3.78-2.31,7.64-2.54,11.07-.2,2.93,13.93,20.22,18.71,24.81h.24c1.09.01,1.89.4,2.04,1.24.17.92-.04,1.81-1.38,2.16Z"/>
  <g>
    <path class="cls-3" d="M539.96,459.43c-1.59-.65-.8-2.01-.86-3.07-.04-.89.74-1.29,1.53-1.34,4.23-.27,8.46-.51,12.69-.72.96-.05,1.43.52,1.43,1.48,0,.35,0,.71,0,1.06-.02,1.27-.36,1.69-1.66,1.79-1.68.14-3.37.2-5.06.29-1.61.09-3.21.17-4.82.28-.3.02-.6.15-.9.23h-2.36Z"/>
    <path class="cls-3" d="M588.72,412.7c-3.14,0-6.29-.18-9.41.04-4.85.35-9.67,1.02-14.51,1.49-4.06.4-8.12.75-12.18,1.03-.66.05-1.88-.28-1.95-.6-.2-1.07-.08-2.23.12-3.32.05-.29.8-.6,1.26-.66,6.86-.82,13.72-1.56,20.57-2.39,5-.6,10-.72,15.04-.54,3.63.13,7.28-.36,10.92-.55,1.29-.07,2.59-.09,3.88-.11.27,0,.62,0,.79.16,1.11,1.02.51,2.37.5,3.56,0,.34-.82.94-1.31.99-4.56.46-9.13.82-13.69,1.21,0-.1-.02-.2-.03-.3Z"/>
    <path class="cls-3" d="M525.68,397.72c6.17,0,12.34-.08,18.5.07,1.11.03,2.22,1.01,3.29,1.61.14.08.17.52.11.75-.57,2.08-1.97,3.13-4.16,3.19-10.88.29-21.76.56-32.64.9-2.67.08-5.34.26-7.99.63-1.79.25-2.99-.71-4.29-1.54-.18-.12-.28-.57-.22-.82.43-1.82,1.86-3.04,3.74-3.16,7.88-.49,15.76-.96,23.64-1.43,0-.07,0-.13,0-.2Z"/>
    <path class="cls-3" d="M535.78,440.37c2.47,0,4.95-.02,7.42,0,.9,0,1.8.1,2.7.2,1,.12,1.56.66,1.51,1.73-.02.39,0,.79,0,1.18-.03,1.24-.5,1.78-1.72,1.95-.31.04-.63.04-.94.04-6.48.08-12.95.06-19.43.28-3.83.13-7.65.68-11.48,1-1.21.1-2.43.13-3.64.08-.35-.01-.97-.37-.99-.61-.08-1.16-.1-2.35.1-3.48.07-.38.85-.85,1.34-.9,4.45-.47,8.89-.98,13.35-1.21,3.91-.2,7.85-.04,11.77-.04v-.23Z"/>
    <path class="cls-3" d="M561.73,401.64c-2.04,0-4.08.03-6.12-.01-.69-.01-1.57.19-1.76-.9-.33-1.86.02-2.89,1.24-3.26.78-.24,1.61-.4,2.42-.43,8.5-.35,17.01-.66,25.51-.99.12,0,.24,0,.35,0,3.06-.04,3.08.55,2.94,3.51-.05,1.06-.89,1.3-1.77,1.33-2.23.09-4.47.15-6.7.23-5.37.2-10.74.42-16.1.62v-.1Z"/>
    <path class="cls-3" d="M531.18,411.13c.94-.08,1.9-.06,2.81-.25,1.47-.31,2.66.21,3.85.98.67.44.76.83.42,1.54-.8,1.65-1.87,2.47-3.88,2.52-5.33.12-10.64.57-15.97.82-1.66.08-3.27-.21-4.68-1.24-.63-.46-.75-.81-.41-1.54.7-1.5,1.74-2.01,3.42-2.04,4.82-.11,9.63-.44,14.45-.69,0-.03,0-.06,0-.09Z"/>
    <path class="cls-3" d="M548.15,426.57c-4.71.55-9.43,1.04-14.13,1.68-1.51.2-2.55-.51-3.65-1.25-.15-.1-.24-.41-.22-.61.08-.96,1.58-2.66,2.57-2.78,4.6-.56,9.2-1.07,13.8-1.58,1.17-.13,2.35-.13,3.52-.28,1.63-.21,3.03.32,4.25,1.31.24.19.36.8.25,1.11-.69,1.91-2.1,2.71-4.12,2.54-.74-.06-1.49-.01-2.23-.01,0-.04-.02-.08-.03-.11Z"/>
    <path class="cls-3" d="M578.54,443.79c-1.14,0-2.28.02-3.41,0-.93-.03-1.47-.46-1.37-1.48.04-.35.02-.71,0-1.06-.04-1.13.45-1.78,1.63-1.84,2-.11,3.99-.26,5.99-.37,4.19-.23,8.38-.48,12.58-.64,2.11-.08,3.21,1.85,2.12,3.71-.23.39-.86.73-1.34.77-3.44.29-6.88.51-10.33.73-1.96.13-3.92.2-5.88.3,0-.04,0-.07,0-.11Z"/>
    <path class="cls-3" d="M575.58,421c.98,0,1.96-.05,2.94.01.96.06,1.48.63,1.51,1.62,0,.31,0,.63,0,.94-.01,1.61-.52,2.18-2.15,2.3-1.37.1-2.74.09-4.11.18-3.79.25-7.58.55-11.37.79-.68.04-1.57.28-1.82-.8-.38-1.68,0-2.97,1.15-3.33,1.38-.42,2.8-.76,4.23-.93,3.19-.37,6.39-.62,9.59-.91,0,.04,0,.09.01.13Z"/>
    <path class="cls-3" d="M517.68,458.58c-2.71,0-5.42.06-8.13-.02-1.61-.05-1.65-.18-1.66-1.75,0-.35.01-.71,0-1.06-.03-1.1.46-1.72,1.59-1.73,5.22-.06,10.45-.16,15.67-.13,2.04,0,3.05,1.99,1.97,3.77-.26.43-1.01.77-1.54.78-2.63.08-5.26.04-7.89.04,0,.03,0,.07,0,.1Z"/>
    <path class="cls-3" d="M591.72,424.88c-.44,0-.72,0-.99,0-2.27,0-2.8-.65-2.19-2.86.12-.43.65-.95,1.08-1.06,3.61-.91,7.26-1.66,11.02-1.58.91.02,1.38.46,1.37,1.39,0,.47-.02.94,0,1.41.05,1.04-.54,1.49-1.48,1.61-2.99.37-5.99.74-8.82,1.09Z"/>
    <path class="cls-3" d="M501.28,383.16q2.87.12,2.86,2.98c0,1.95-.05,2.09-1.95,2.36-2.51.35-5.04.59-7.57.86-.96.1-1.3-.37-1.31-1.32-.05-3.57.04-3.72,3.56-4.25,1.47-.22,2.94-.42,4.41-.63Z"/>
    <path class="cls-3" d="M600.37,399.56c-.08,0-.16,0-.24,0-2.54,0-2.7-.13-2.38-2.67.06-.49.62-1.23,1.03-1.3,2.74-.42,5.5-.72,8.26-.99.84-.08,1.26.41,1.31,1.29.15,2.74,0,2.91-2.73,3.15-.9.08-1.79.23-2.68.33-.85.1-1.71.17-2.57.25,0-.02,0-.03,0-.05Z"/>
  </g>
  <path class="cls-2" d="M517.87,203.66c-12.42.18-24.84.4-37.25.73-10.75.28-21.49.8-32.24,1.03-10.54.22-21.08.16-31.62.14-2.38,0-4.77,0-7.16,0,.23-1.08.57-2.16.93-3.19.88-2.53,2.81-4.12,5.49-4.43,4.24-.49,8.51-1.04,12.77-1.13,7.77-.18,15.55.05,23.33-.06,8.28-.12,16.56-.43,24.84-.65,3.38-.09,6.75-.19,10.13-.28,3.49-.09,6.99-.18,10.48-.28.42-.01.84-.15,1.26-.22h8.02c2.08.41,4.15.81,6.22,1.22,2.31.46,3.7,1.94,4.18,4.14.21,1,.43,2,.62,3Z"/>
  <g>
    <path class="cls-3" d="M504.94,237.63c-2.63-2.18-5.1-4.55-7.74-6.71-2.92-2.38-5.94-4.63-8.96-6.87-1.27-.94-2.87-.82-4.17-.31-1.13.45-.58,1.88-.68,2.9-.01.16-.05.34.01.47.26.52.43,1.22.87,1.5,5.54,3.65,10.3,8.23,15.31,12.51.55.47.51.73-.06,1.13-5.71,3.96-11.4,7.95-17.1,11.91-1.32.92-2.07,3.27-1.39,4.73.12.26.52.55.79.56,1.72.08,3.38.15,4.95-.97,6.13-4.38,12.33-8.67,18.52-12.97,1.33-.92,1.81-2.1,1.49-3.67.42-1.85-.47-3.09-1.85-4.23Z"/>
    <path class="cls-3" d="M436.57,241.06c3.68-2.55,7.33-5.15,11.01-7.71,2.16-1.5,4.37-2.94,6.52-4.46,1.18-.83,1.76-3.08,1.15-4.33-.13-.26-.51-.55-.79-.57-1.17-.08-2.3-.09-3.38.64-6.8,4.6-13.66,9.12-20.45,13.73-2.55,1.73-2.25,6.07.36,7.71,2.22,1.4,4.42,2.85,6.53,4.42,3.55,2.64,7.3,4.91,11.42,6.53.96.38,2.01.55,3.02.81q2.7-.2,2.7-2.88c0-.12-.01-.24,0-.35.13-1.25-.52-1.86-1.62-2.39-3.03-1.48-6.06-2.98-8.94-4.72-2.61-1.59-4.99-3.55-7.53-5.26-.77-.52-.67-.71,0-1.17Z"/>
    <path class="cls-3" d="M480.42,216.34c-.87-.49-2.24-.03-2.65.93-.87,2.02-1.76,4.03-2.51,6.09-4.8,13.28-8.94,26.81-14.95,39.64-.37.8-.46,1.73-.71,2.71.2.49.27,1.23.65,1.47,1.02.65,2.66-.03,3.12-1.2,1.83-4.76,3.68-9.52,5.45-14.3,3.95-10.67,7.87-21.35,11.76-32.05.29-.81.22-1.76.25-2.65,0-.21-.22-.52-.42-.64Z"/>
    <path class="cls-3" d="M509.69,198.04c-3.16.02-3.33.19-3.26,3.32,0,.08,0,.16,0,.23-.04.76.31,1.24,1.06,1.26,1.36.02,2.74.03,4.09-.1.38-.04.93-.53,1.03-.91.73-2.93.03-3.81-2.93-3.79Z"/>
  </g>
  <g>
    <path class="cls-1" d="M154.8,443.72c-.87.11-1.06.75-1.1,1.43-.27,3.88-.55,7.75-.75,11.63-.07,1.37-.13,2.74-.19,4.11-.01.3-.03.6-.04.9,1.59.41,3.16.9,4.72,1.39.02-.35.03-.71.04-1.06.18-4.51.35-9.02.5-13.54.04-1.28-.15-2.59-.42-3.85-.22-1.05-.99-1.25-2.77-1.02Z"/>
    <path class="cls-1" d="M427.18,366.09c-.83.03-1.66-.04-2.47.08-.42.06-.91.31-1.17.64-.67.84-.35,3.42.4,4.23.14.15.19.46.14.67-.29,1.29-.68,2.56-.89,3.86-.12.73-.42.88-1.07.88-1.06,0-2.13,0-3.17.15-1.46.19-1.65.6-1.66,2.29,0,1.33.86,1.4,1.8,1.48.43.04.86.06,1.29.05,3.03-.05,6.07-.11,9.1-.17.38,0,.75-.01,1.13-.02.3-.98.6-1.95.9-2.93,1.17-3.79,2.22-7.62,3.32-11.44-.32.01-.64.03-.96.04-2.23.08-4.46.12-6.69.19Z"/>
    <path class="cls-1" d="M463.07,467.29c-1.42.67-2.78,1.45-4.04,2.38-.09.07-.19.14-.28.21-.05-2.03-.05-4.06-.21-6.08-.08-1.08-.17-2.15-.26-3.23-.03-.32-.06-.64-.08-.96,1.37-.61,2.75-1.2,4.15-1.75.22-.08.44-.17.65-.25.02.39.04.75.06,1.11.12,2.85.08,5.71,0,8.57Z"/>
    <path class="cls-1" d="M397.02,585.12c-2.17.03-4.35.21-6.52.37-.14-.37-.29-.73-.44-1.04-.67-1.44-1.62-2.74-2.61-3.98,2.78-.29,5.56-.45,8.34-.51.64,1.61,1.03,3.39,1.23,5.16Z"/>
    <path class="cls-1" d="M453.39,565.43c-.43.03-.87.04-1.29,0-1.12-.11-1.58.55-1.74,1.5-.1.58-.04,1.18-.08,1.76-.15,2.27-.15,4.56-.51,6.79,0,.06-.02.13-.03.19,1.9-.48,3.67-1.36,5.48-2.13.12-2.26-.01-4.54-.29-6.82-.1-.82-.6-1.35-1.53-1.29Z"/>
  </g>
  <g>
    <path class="cls-1" d="M582.83,373.31c-12.36.36-24.74.6-37.1,1.04-12.3.43-24.6,1.08-36.88,1.79-6.25.36-12.52.69-18.77,1.15-1.92.14-3.83.37-5.74.58.1-.27.21-.54.33-.8,1.94-4.37,6.04-7.89,11.72-8.49,6.13-.65,12.23-1.5,18.36-2.11,2.84-.28,5.73-.09,8.59-.3,8.19-.58,16.39-.89,24.6-.73.43,0,.87,0,1.3,0,1.3.02,2.11.46,2.35,1.26,1.41-.08,2.21-.13,2.21-.13,0,0,17.25,3.89,25.66,5.91,1.42.34,2.58.62,3.37.83Z"/>
    <path class="cls-2" d="M643.55,413.23c-.29-4.69-.58-9.38-.88-14.07-.15.69-.29,1.39-.44,2.08-.63,2.98-1.35,5.95-2.71,8.67.02,1.17.05,2.34.07,3.51-1.96,5.5-4.72,13.28-4.71,13.49.02.31-3.19,7.44-3.47,7.65-.28.21-8.14,5.87-8.14,5.87l6.47,19.99c-.05,0-.11,0-.16,0,.14,1.39.22,2.79.35,4.15.86,0,1.72-.01,2.58-.06,2.51-.14,4.73-1.08,6.18-3.17.96-1.39,1.76-2.98,2.27-4.59,1.51-4.78,2-9.75,2.38-14.73.19-2.46.34-4.92.51-7.38v-16.98c-.1-1.48-.21-2.96-.3-4.45Z"/>
  </g>
  <g>
    <path class="cls-2" d="M249.04,192.64c1.2.13,2.4.3,3.61.37,6.14.38,11.92,2.3,17.76,4.05,7.02,2.11,13.38,5.49,19.19,9.85,2.08,1.56,3.85,3.58,5.53,5.59.76.9,1.08,2.25,1.39,3.44.22.85.43.95,1.22.67,5.89-2.08,11.77-4.19,17.71-6.11,7.06-2.29,14.3-3.14,21.74-2.57,7.01.53,14.03.93,20.94,2.33,15.58,3.17,29.82,9.45,42.85,18.55,6.45,4.5,12.84,9.07,18.42,14.67,7.83,7.85,12.87,17.18,14.85,28.11,1.23,6.77.09,13.3-2.46,19.61-.51,1.26-1.25,2.36-2.65,2.84-.22.08-.42.52-.43.8-.12,4.12-.34,8.25-.25,12.37.04,1.54.59,3.2,1.32,4.58,1.69,3.19,3.68,6.22,5.48,9.35,1.27,2.21,2.48,4.46,3.65,6.72,1.13,2.2,1.45,4.6,1.07,7-.19,1.18-.71,2.5-1.51,3.35-2,2.14-4.26,4.03-6.38,6.07-.45.43-.94,1-1.03,1.57-.68,4.1-1.07,8.26-1.91,12.32-1.66,8.09-4.08,16.05-8.69,22.9-6.09,9.04-14.58,14.52-25.91,14.86-7.86.24-15.49-1-23.04-3-.45-.12-.9-.22-1.7-.42.47.68.72,1.13,1.05,1.52,3.08,3.57,6.18,7.11,9.26,10.68,1.74,2.02,3.52,4.02,5.15,6.13,2.61,3.36,4.18,7.17,4.61,11.43.53,5.26.63,10.51-.56,15.71-.57,2.48-1.61,4.75-3.35,6.67-.29.32-.45.92-.41,1.36.38,3.95.79,7.89,1.25,11.83.04.36.34.79.65.99,6.93,4.53,12.18,10.54,16.11,17.82,6.76,12.54,12.51,25.53,17.33,38.92.11.31.3.59.46.89.22-.27.46-.52.65-.8,7.2-11.31,14.82-22.33,23.01-32.94,2.61-3.39,5.55-6.52,8.35-9.76,1.62-1.87,3.23-3.74,4.89-5.58,1.48-1.63,3.35-2.5,5.53-2.88,3.94-.7,7.84-1.68,11.8-2.27,4.86-.72,9.71-.27,14.54.56,4.84.83,9.67,1.68,14.53,2.34,1.89.26,3.84.07,5.76.03,1.57-.03,3.15-.32,4.7-.21,5.57.37,10.58-1.47,15.52-3.7,5.94-2.69,11.9-5.33,17.83-8.02.38-.17.69-.59.92-.96,3.41-5.6,6.52-11.39,10.65-16.53,2.64-3.28,5.89-5.45,10.26-5.31,1.24.04,2.52.28,3.68.71.68.25,1.43.97,1.65,1.64.76,2.31.8,4.63-.78,6.72-.48.63-.86,1.34-1.29,2.01-.03-.02-.05-.04-.08-.06.02.01.05.02.07.03,1.64-1.21,3.22-2.51,4.93-3.62,3.61-2.34,7.34-2.22,11.06-.23,1.64.88,2.22,2.52,2.55,4.19.19.97.59,1.13,1.48,1.14,1.28.01,2.57.15,3.82.39,1.15.22,1.82,1.09,2.02,2.22.39,2.18.17,4.24-1.46,5.93-1.52,1.59-3.06,3.16-4.55,4.78-1.86,2.02-3.67,4.09-5.49,6.15-.32.37-.56.8-.67,1.41.82-.42,1.64-.84,2.45-1.27,4.67-2.48,9.66-3.95,14.87-4.7,4.08-.59,7.09.92,8.28,4.41,1.41,4.15.56,5.99-2.82,7.85-4.92,2.71-9.78,5.52-14.64,8.33-1.08.63-2.06,1.45-3.04,2.22-2.88,2.26-6.08,3.79-9.61,4.84-2.34.7-4.57,1.87-6.7,3.09-1.83,1.05-3.7,1.8-5.73,2.37-4.12,1.16-8.19,2.49-12.26,3.81-3.68,1.19-7.4,2.1-11.31,2.05-2.57-.03-5.15-.16-7.71-.01-15.55.93-30.94,2.98-46.11,6.62-2.14.51-4.31.85-6.46,1.32-.31.07-.68.34-.82.62-.77,1.53-1.33,3.19-2.24,4.62-3.09,4.87-6.38,9.63-9.46,14.51-4.02,6.37-6.85,13.33-9.94,20.17-4.22,9.34-8.54,18.64-12.84,27.94-.82,1.77-2.25,2.65-4.22,2.66-.83,0-1.37-.36-1.32-1.14.12-1.82-.05-3.83.66-5.42,5.48-12.39,11.16-24.69,16.73-37.04,3.24-7.2,7.4-13.84,12.03-20.21,1.8-2.47,3.74-4.91,5.12-7.61,1.1-2.17,2.58-2.39,4.69-2.66,3.57-.45,7.07-1.45,10.58-2.31,10.01-2.46,20.12-4.45,30.41-5.06,4.58-.27,8.03-2.28,11.09-5.24,6.77-6.56,14.9-10.96,23.27-14.99,1.48-.71,3.12-1.08,4.61-1.78.73-.34,1.52-.94,1.86-1.64,2.85-5.85,6.58-11.06,11.18-15.66.24-.24.33-.84.21-1.17-.65-1.75-.62-3.47.1-5.17,1.49-3.52,3.93-6.21,7.23-8.13.25-.14.45-.36.67-.54-.27-.13-.54-.3-.82-.38-1.49-.45-2.81.09-4.03.83-3.64,2.2-6.68,5.07-9.43,8.29-1.12,1.31-2.31,2.57-3.55,3.77-.49.47-1.25.67-1.85,1.04-.32.2-.64.47-.83.79-1.68,2.79-3.49,5.51-4.94,8.41-1.45,2.89-3.31,5.19-6.3,6.55-4.9,2.22-9.78,4.47-14.62,6.81-1.6.78-3.18,1.73-4.51,2.89-1.95,1.69-3.74,3.59-5.49,5.5-1.54,1.69-3.34,2.07-5.44,1.5-.76-.21-1.49-.51-2.24-.72-.68-.2-.89-.62-.89-1.31,0-1.63.1-1.78,1.7-1.71.23,0,.51-.02.7.08,1.85,1,2.99.05,4.36-1.17,2.93-2.59,5.95-5.15,9.22-7.29,2.84-1.86,6.09-3.08,9.13-4.64,2.55-1.31,5.06-2.68,7.59-4.04,1.76-.94,2.69-2.58,3.57-4.27,2.67-5.16,5.05-10.48,8.39-15.26.14-.19.09-.6,0-.86-.24-.6-.73-1.14-.82-1.75-.53-3.33-.13-6.44,2.53-8.88.08-.07.09-.2.14-.31,0,0,.05-.04.05-.04l-.02.06c-1.07.68-2.34,1.16-3.16,2.06-3.53,3.88-6.41,8.23-9.02,12.77-1.19,2.07-2.48,4.11-3.92,6.02-.72.95-1.78,1.78-2.87,2.3-7.42,3.59-14.99,6.89-22.29,10.71-2.94,1.53-5.78,1.65-8.84,1.59-3.77-.07-7.56.21-11.3-.14-4.09-.38-8.12-1.36-12.18-2-4.07-.64-8.14-1.46-12.24-1.65-2.89-.13-5.83.56-8.72,1.06-2.32.4-4.59,1.06-6.88,1.62-2.34.57-4.32,1.62-5.27,4.02-.08.21-.26.4-.41.57-8.33,9.25-15.43,19.42-22.46,29.66-8.92,13-16.99,26.53-24.98,40.1-6.76,11.47-13.71,22.84-20.58,34.24-.65,1.08-1.35,2.12-2.08,3.15-.34.48-.3.76.1,1.2,1.84,2.01,2.36,4.41,1.34,6.88-1.01,2.45-3.14,3.92-5.7,4.21-1.81.21-3.76-.13-5.55-.59-2.43-.62-4.76-1.6-7.14-2.41-.24-.08-.52-.08-.78-.11.05.25.1.5.13.76.23,1.62.69,3.24.64,4.85-.1,3.19-3.68,5.38-5.74,5.57-1.71.16-3.46.35-5.03-.69-.17-.11-.57.03-.83.14-4.13,1.74-8.15,1.84-12.01-.78-.22-.15-.81-.17-.9-.03-1.45,2.13-3.52,3.19-6,3.55-.11.02-.21.1-.31.16h-2.59c-.34-.09-.68-.16-1.01-.26-2.46-.77-5.04-1.29-7.35-2.38-5.66-2.66-10.46-6.65-15.31-10.52-2.36-1.88-4.52-4.01-6.82-5.97-.29-.25-.92-.29-1.32-.18-2.12.58-4.2.52-6.23-.31-.31-.13-.59-.7-.59-1.08,0-.27.45-.59.75-.81.19-.14.47-.15.64-.19-.39-.65-.81-1.22-1.07-1.86-.22-.52-.09-1.13.64-1.06,2.68.23,5.34.32,7.52,2.38,3.62,3.42,7.4,6.69,11.11,10.01,4.8,4.28,10.13,7.56,16.55,8.77,1.22.23,2.48.29,3.73.36.34.02.69-.23,1.04-.35-.27-.21-.52-.43-.8-.62-1.79-1.22-3.62-2.4-4.61-4.44-1.15-2.36-.5-4.32,1.82-5.33-1.1-1.05-2.19-2.05-3.25-3.09-5.96-5.87-12.48-11.03-19.63-15.36-1.81-1.1-3.73-2.02-5.64-2.91-.59-.27-1.52-.46-2-.18-2.09,1.21-4.24,2.42-6.07,3.98-3.82,3.26-7.45,6.74-11.18,10.12-1.22,1.11-2.6,1.94-4.34,1.73-.51-.06-1.38-.34-1.4-.59-.09-.82-.44-1.73.47-2.49,3.16-2.64,6.26-5.34,9.36-8.04,1.95-1.71,3.76-3.58,5.8-5.18,2.34-1.84,4.99-3.2,8.08-3,1.38.09,2.74.61,4.08,1,.88.26,2.6-.8,2.61-1.71.02-1.45-.07-2.9.01-4.35.08-1.51.28-3.03.47-4.53.36-2.76.75-5.52,1.12-8.28.09-.63-.09-.73-.77-.64-2.96.39-5.92.68-8.89.99-4.84.51-9.67,1.08-14.52,1.48-6.29.53-12.6,1.25-18.9,1.3-12.1.09-24.2-.33-36.3-.35-8.44-.02-16.89.28-25.33.4-.87.01-.82.48-.85,1.04-.29,6.71-.52,13.42-.89,20.13-.2,3.53-.62,7.04-1.01,10.55-.05.48-.37,1.14-.76,1.33-1.89.93-3.57-.05-3.48-2.12.13-3.1.45-6.18.72-9.27.69-7.86,1.07-15.73.77-23.63-.02-.51-.01-1.02.05-1.53.15-1.32.41-2.62.51-3.94.31-4.27.56-8.55.83-12.82.27-4.23.53-8.47.83-12.7.05-.75-.11-1.11-.93-.96-1.66.29-2.94-.41-4.15-1.48-1.2-1.06-2.2-2.23-2.71-3.77-.4-1.2.01-1.71,1.27-1.59,2.87.27,5,1.78,6.73,3.96.58-1.08,1.37-1.42,2.88-1.08,1.15.26,1.07,1.26,1.05,2.09-.06,4.12-.09,8.25-.3,12.37-.3,5.96-.71,11.91-1.13,17.87-.07.96.23,1.2,1.15,1.17,5.69-.21,11.38-.46,17.08-.52,11.04-.11,22.08-.3,33.11-.08,7.36.15,14.69.02,22-.67,9.34-.88,18.66-1.95,28-2.89,1.12-.11,2.32-.11,3.37.21.85.26.86.05.9-.6.19-2.9.45-5.8.58-8.7.23-5.14.41-10.29.57-15.43.24-7.62.46-15.23.66-22.85.04-1.41.03-2.85-.2-4.23-.67-3.99-1.43-7.96-2.21-11.92-1.52-7.74-3.05-15.48-5.62-22.97-6.68-19.44-19.39-33.02-38.74-40.2-3.37-1.25-6.73-2.61-10.49-2.3-1.27.1-2.58-.18-3.86-.32-2.38-.25-4.75-.72-7.13-.74-6.14-.06-12.2.65-18.16,2.3-11.73,3.24-23.15,7.27-33.18,14.28-10.79,7.53-21.27,15.49-31.81,23.38-3.05,2.28-5.83,4.91-8.7,7.42-.79.69-1,.56-1.14-.42-.27-1.86-.67-3.71-.95-5.57-.07-.43-.06-1.01.18-1.31.42-.51.18-.66-.17-1.01-1.65-1.67-3.44-3.24-4.84-5.09-4.47-5.91-6.81-12.78-8.48-19.9-1.42-6.07-.92-12,1.29-17.82.4-1.05.59-2.18.81-3.29.55-2.69.91-5.42,1.63-8.07,3.03-11.22,10.75-18.98,19.5-25.88,2.67-2.11,4.07-4.71,3.91-7.95-.24-4.78-.94-9.53-1.26-14.31-.42-6.35-.2-12.66,1.99-18.74,2.85-7.92,8.2-13.1,16.58-14.79,4.21-.84,8.46-.52,12.67.03,5.72.74,11.33.75,16.84-1.3,2.89-1.08,5.57-2.38,7.5-4.85,2.2-2.81,4.56-5.54,6.45-8.55,3.13-4.99,5.94-10.18,8.87-15.28,3.88-6.76,8.27-13.17,12.93-19.41,0,0-.05-.02-.05-.02l.08.05c-.43.16-.87.28-1.28.47-2.36,1.06-4.66,2.29-7.08,3.18-4.77,1.76-9.75,1.79-14.76,1.48-10.43-.65-18.3-7.06-20.99-17.15-.23-.87-.71-1.75-1.3-2.42-6.25-7.15-8.25-15.28-4.86-24.19,5.93-15.57,16.32-26.72,32.76-31.4,2.13-.61,4.37-.85,6.56-1.26h6.37ZM382.88,416.83c0-.05.02-.1.03-.15,0,.03.03.06.02.08-.01.03-.05.04-.08.06,2.22,5.63,2.64,11.43,1.33,17.31-.38,1.7-.07,3.24.31,4.85.21-.34.39-.69.43-1.06.39-3.1.99-6.21,1.08-9.32.11-3.69-.34-7.38-2.18-10.72-.22-.4-.63-.71-.95-1.06ZM262.43,249.32c-.35.1-.76.12-1.05.31-1.29.83-2.59,1.64-3.8,2.59-4.47,3.51-9.51,5.82-15.01,7.09-9.26,2.13-18.09.82-26.44-3.72-.42-.23-.85-.43-1.28-.65,1.61,3.29,3.86,5.97,6.98,7.69,6.83,3.75,14.1,4.16,21.29,1.53,7.91-2.9,14.78-7.42,19.3-14.86l-.08-.02s.05.03.08.04ZM399.84,552.64c-.31.09-.67.1-.92.27-7.46,5.13-15.57,9.14-23.46,13.52-1.88,1.04-3.86,1.9-5.84,2.86.16.14.24.23.34.28,4.79,2.26,9.59,4.5,14.37,6.79.66.32.79-.03,1.05-.45,2.89-4.72,5.79-9.44,8.71-14.14,1.9-3.06,3.85-6.1,5.77-9.15v-.07s-.02.06-.02.09ZM343.01,507.56s.05,0,.07,0c0-.47-.08-.96.03-1.41.08-.34.32-.78.61-.9,1.65-.69,3.29.02,3.64,1.77.45,2.26.83,4.57.89,6.87.24,8.66-1.23,17.13-3.15,25.54-1.43,6.24-2.86,12.49-5.81,18.25-.61,1.19-.59,1.14.81,1.22,2.43.12,4.88.15,7.26.53,4.64.75,8.25,3.3,11.16,6.92.39.48.78.63,1.46.66,1.62.07,3.02-.5,4.37-1.18,6.52-3.28,13.04-6.58,19.52-9.96,4.63-2.42,9.27-4.83,13.41-8.08,2.94-2.3,5.92-4.54,8.84-6.87.72-.57,1.4-1.29,1.87-2.07,3.2-5.27,6.35-10.57,9.46-15.9.28-.48.33-1.29.15-1.83-.7-2.12-1.52-4.21-2.32-6.3-4.92-12.82-10.63-25.27-17.42-37.21-2.7-4.75-6.47-8.57-10.59-12.08-.44-.38-.83-.82-1.24.18-2.55,6.31-6.6,11.49-12.17,15.41-4.66,3.28-9.95,5.17-15.45,6.46-4.25,1-8.52,1.9-12.94,1.22-.4-.06-.9.2-1.3.41-1.61.82-3.14,1.82-4.81,2.49-4.66,1.87-9.42,2.42-14.23.55-.86-.33-.7.14-.71.63-.13,5.69-.19,11.39-.41,17.08-.34,8.95-.76,17.89-1.21,26.83-.21,4.08-.45,8.16-.92,12.21-.43,3.77-1.15,7.51-1.79,11.26-.25,1.49-.32,1.34,1.22,1.2,1.78-.16,3.58-.04,5.38-.06.37,0,.77-.02,1.12-.14,1.36-.49,2.72-1,4.06-1.54.3-.12.68-.32.81-.58,2.11-4.6,4.74-8.98,5.91-13.97,1.32-5.66,2.69-11.31,3.81-17.01.97-4.98,1.52-10.03,1.25-15.12-.1-1.84-.41-3.66-.62-5.49ZM366.16,311.55c1.49.43,2.03.76,3.45,2.54,4.76,6.01,9.24,12.21,12.99,18.93,3.75,6.73,5.86,13.74,4.87,21.54-.66,5.19-2.51,9.69-6.53,13.18-1.84,1.59-3.61,3.27-5.46,4.85-3.74,3.19-6.97,6.79-9.3,11.16-1.05,1.98-.32,3.67,1.89,4.01.58.09,1.16.19,1.74.28,6.12,1,12.2,2.26,18.35,2.94,12.12,1.34,21.22-4.14,28.13-13.58,3.19-4.36,4.78-9.61,6.51-14.71.1-.3-.17-.9-.45-1.11-2.24-1.71-4.09-3.74-5.76-6.02-2.41-3.29-5.07-6.41-7.48-9.7-.39-.54-.07-1.6-.08-2.42.72.11,1.91.01,2.07.37.46,1.04,1.28,1.14,2.08,1.17,4.31.13,8.63.2,12.94.24.26,0,.64-.43.74-.74.14-.39.1-.86.05-1.28-.17-1.46.53-2.31,1.64-3.23,2.23-1.83,4.26-3.92,6.36-5.92.64-.61.75-1.34.34-2.15-1.06-2.1-2.05-4.24-3.2-6.29-1.94-3.46-4.16-6.77-5.94-10.3-1.58-3.15-2.68-6.51-2.09-10.18.17-1.08.22-2.19.24-3.29.11-7.79-.1-15.56-1.42-23.25-1.14-6.66-2.83-13.14-6.52-18.92-4.35-6.82-9.97-12.51-16.12-17.72-.1-.08-.25-.1-.47-.18.05.3.08.49.12.68,1.78,8.73,1.64,17.5.23,26.24-1.43,8.84-5.03,16.87-9.39,24.63-4.98,8.88-12.35,14.58-22.04,17.43-.78.23-1.55.49-2.48.78ZM587.75,449.39c-.2.19-.38.34-.53.51-2.51,2.7-4.99,5.43-7.54,8.11-4.05,4.26-7.14,9.15-9.66,14.43-.74,1.56-1.81,2.6-3.45,3.12-1.72.55-3.48,1.05-5.09,1.83-7.65,3.71-15.09,7.76-21.3,13.71-.46.44-.94.85-1.41,1.28,2.48.24,4.83.25,7.18.23.33,0,.7-.12.98-.3,2.12-1.26,4.23-2.56,6.35-3.84,6.58-3.98,13-8.29,20.22-11.08,2.41-.93,3.66-2.74,4.34-4.92,1.79-5.8,5.33-10.53,8.93-15.24.49-.64,1.06-1.08.28-1.93-.31-.34-.37-1.07-.28-1.57.25-1.41.63-2.8,1-4.33ZM316,308.66c.08.83.15,1.57.22,2.31.46,4.42,1.52,8.63,4.09,12.37,3.46,5.04,8.38,7.91,14.1,9.62,1.12.34,2.36.45,3.36,1,.86.48.9.07,1.04-.49.26-1.03.48-2.06.74-3.09.2-.76-.02-1.02-.84-1.25-1.05-.29-2.21-.74-2.97-1.49-2.55-2.51-3.14-5.6-2.09-9,.56-1.83,1.65-3.09,3.65-3.39.22-.03.42-.17.62-.26-.17-.19-.3-.43-.5-.57-1.02-.73-2.03-1.48-3.09-2.15-.64-.41-1.33-.84-2.05-1-5.08-1.15-10.19-2.21-15.27-3.36-.87-.2-1.19-.07-1.02.75ZM317.54,566.72c.59.39.92.6,1.24.82,4.48,3.05,9.26,5.74,13.37,9.23,5.53,4.7,10.53,10,15.75,15.07.41.4.95.93.99,1.43.16,2.03,1.64,2.38,3.17,2.84,2.04.61,4.04,1.4,6.18.47.27-.12.52-.29.79-.43-.24-.16-.46-.38-.73-.48-2.63-1.02-4.62-2.78-6.04-5.2-1.01-1.72-1.31-3.5-.03-5.19.53-.69.42-1.02-.16-1.51-3.91-3.34-7.7-6.83-11.74-10.01-4.24-3.34-8.94-5.97-13.81-8.31-1.38-.66-2.72-.9-4.19-.34-1.49.56-3.02,1.03-4.78,1.63ZM366.36,596.82c.28-.12.79-.31,1.25-.59.11-.06.14-.53.04-.62-2.48-2.16-3.31-5.08-3.71-8.17-.18-1.34-.09-2.72.91-3.77.47-.49.39-.79.07-1.29-2.49-3.91-4.83-7.91-7.44-11.74-2.08-3.05-4.41-5.91-7.99-7.44-3.38-1.44-7.17-1.7-10.79-1.31-.91.1-6.57,1.99-7.2,1.48.25.21.49.44.77.61,2.98,1.82,5.96,3.65,8.96,5.44.52.31,1.16,1.36,1.68-.05.03-.09.28-.11.43-.13,1.15-.19,1.64.21,1.63,1.66,0,.95.38,1.5,1.08,2.03,1.78,1.35,3.57,2.71,5.25,4.19,3.6,3.16,7.21,6.34,10,10.28,1.6,2.27,3.12,4.64,3.07,7.62-.02,1.44.28,1.73,2.01,1.79ZM607.75,461.78c-.75-.65-1.76-.64-2.82-.46-6.13,1.07-11.72,3.49-16.92,6.83-1.01.64-1.8,1.61-2.73,2.38-.54.44-1.16,1.09-1.74,1.09-1.43,0-1.76.86-2.02,1.93-.13.53-.31,1.06-.46,1.58-.86,2.91-2.37,5.19-5.34,6.45-3.03,1.29-5.93,2.88-8.86,4.4-1.51.79-2.94,1.72-4.41,2.58,2.13-.39,4.17-.91,6.16-1.59,1.4-.47,2.83-.99,4.06-1.78,2.74-1.76,5.67-2.98,8.77-3.95,2.11-.66,4.16-1.65,6.06-2.78,3.13-1.86,6.13-3.95,9.16-5.98.27-.18.49-.69.46-1.02-.1-1.41.07-2.74.83-3.97,1.14-1.85,2.62-3.4,4.64-4.2,1.67-.67,3.46-1.03,5.18-1.52ZM388.49,587.11c-.32,0-.53-.02-.75,0-3.58.34-6.31-1.25-8.56-3.84-1.2-1.38-1.16-3.49.09-4.32.96-.63.59-.83-.13-1.15-4.84-2.15-9.68-4.31-14.53-6.43-.49-.21-1.06-.25-1.6-.3-.29-.03-.59.09-.88.14.12.28.2.58.36.83,2.14,3.39,4.37,6.72,6.39,10.17.99,1.68,2.07,2.95,4.04,3.54,3.15.94,6.23,2.13,9.35,3.19,2.43.83,4.43.09,6.21-1.83ZM204.45,318.3c0-.09-.01-.18-.02-.28-1.12-.11-2.24-.25-3.37-.32-2.85-.17-5.75-.71-8.56-.4-8.2.91-13.59,5.6-16.53,13.21-2.42,6.25-2.31,12.67-1.37,19.16.02.11.15.21.27.35.45-3.75.81-7.42,1.36-11.06,1.12-7.43,5.17-12.69,12.07-15.67,2.34-1.01,4.77-1.8,7.21-2.55,2.96-.9,5.96-1.64,8.95-2.45ZM378.87,335.51c2.43,10.94,1.5,21.43-4.05,31.39,1.83-1.47,3.46-2.99,4.98-4.62,1.82-1.93,2.84-4.29,3.46-6.86,1.77-7.34-.75-13.74-4.38-19.91ZM340.35,321.68h-.2c0-1.06.03-2.12-.02-3.17-.01-.26-.29-.73-.45-.74-1.36-.04-2.65.13-3.52,1.42-1.79,2.64.06,6.78,3.26,7.17.22.03.68-.35.7-.57.13-1.36.17-2.73.25-4.1ZM579.63,450.37c.07.07.14.14.21.2.15.34.3.69.44,1.03.26-.21.55-.39.78-.63.55-.56,1.07-1.15,1.62-1.7,2-1.99,4.02-3.96,6-5.97.23-.23.25-.66.36-1-.32-.09-.66-.28-.97-.25-.45.04-.98.12-1.32.39-1.64,1.27-3.39,2.45-4.79,3.95-1.02,1.09-1.58,2.63-2.34,3.97ZM594.3,445.82c-.48.18-.89.24-1.17.47-.66.54-1.45,1.06-1.85,1.78-.92,1.66-1.66,3.42-2.41,5.17-.11.25.15.65.23.98.28-.14.62-.23.84-.44,1.78-1.71,3.57-3.42,5.29-5.2.49-.5.75-1.22,1.12-1.84-.69-.31-1.39-.62-2.06-.93ZM339.95,590.36c-.06.1-.12.2-.18.3-1.13-.07-1.7.62-1.21,1.61,1.29,2.6,3.52,4.07,6.24,4.78.39.1,1.06-.39,1.41-.77.15-.17-.08-.89-.34-1.17-.96-1.04-1.94-2.07-3.04-2.96-.87-.7-1.91-1.19-2.88-1.78ZM607.49,464.28c-3-.04-7.13,2.9-7.95,5.59-.08.27,0,.59,0,.89.25-.08.52-.12.75-.24,2.65-1.35,5.3-2.7,7.94-4.09.54-.28,1.01-.7,1.51-1.06-.63-.35-1.26-.71-1.9-1.05-.13-.07-.31-.03-.35-.04ZM415.79,347.67c.47.29.77.52,1.1.67,2.37,1.04,4.72,2.1,7.12,3.08,1.46.59,1.49.53,1.74-.98.07-.43.09-.86.22-1.27.23-.77-.03-1.09-.81-1.12-3.05-.11-6.09-.24-9.36-.38ZM388.75,585.75c.15-.04.36-.1.58-.15-.07-.25-.05-.6-.22-.75-1.49-1.31-2.95-2.68-4.57-3.81-.7-.49-1.75-.56-2.66-.65-.38-.03-.85.36-1.16.67-.08.08.25.67.49.93,2.01,2.18,4.69,3.04,7.54,3.77ZM566.88,440.73c.03.19.1.73.21,1.27.04.2.2.37.31.56.14-.13.3-.23.41-.38,1.5-2.06,3.01-4.11,4.47-6.19.22-.31.38-.9.23-1.17-.18-.32-.81-.67-1.11-.57-2.57.78-4.49,3.45-4.52,6.5ZM416.94,351.88c-.11.13-.22.27-.33.4,1.88,1.91,3.71,3.89,5.67,5.72,1.82,1.69,1.58,1.55,2.21-.66.54-1.91.51-1.89-1.26-2.65-2.11-.91-4.19-1.87-6.28-2.8ZM360.5,594.1c-.31-.63-.43-1.01-.65-1.3-1.48-1.93-2.97-3.85-4.5-5.74-.25-.31-.72-.44-1.09-.66-.27.54-.68,1.06-.76,1.63-.06.39.27.89.51,1.28,1.44,2.35,3.59,3.76,6.49,4.79ZM365.88,587.06c.42,2.38,1.12,4.76,3.17,6.49.28.23.61.41.91.61.16-.47.45-.93.45-1.4,0-.48-.24-.99-.47-1.44-.9-1.74-1.82-3.47-2.76-5.19-.16-.29-.44-.51-.66-.77-.19.32-.41.64-.56.97-.08.17-.05.38-.08.73Z"/>
    <path class="cls-2" d="M417.75,292.77c-1.32-.31-3.28-.9-5.29-1.2-4.1-.6-8.03-.35-11.5,2.42-.63.51-1.84.32-2.79.38-.14,0-.43-.38-.45-.6-.09-1.21-.15-2.37.86-3.39,1.49-1.49,3.15-2.56,5.21-3.03,4.79-1.09,9.52-.9,14.18.63,2.19.72,2.4,1.06,2.4,2.91,0,1.86-.01,1.88-2.63,1.88Z"/>
    <path class="cls-2" d="M413.26,306.95c.15-.87.24-1.89.52-2.86.2-.7.04-1.11-.61-1.23-1.06-.2-2.13-.26-3.2-.42-.7-.1-1.76.51-1.95-.65-.18-1.09.89-1.3,1.65-1.46,2.74-.59,5.31-.15,7.5,1.7.45.38.95.99.99,1.53.14,1.94.23,3.91.07,5.84-.12,1.53-.8,1.94-2.26,1.94-1.67,0-2.07-.28-2.42-1.9-.16-.76-.19-1.55-.3-2.49Z"/>
    <path class="cls-2" d="M426.94,336.88c1.06.04,1.77.03,1.91,1.02.13.94-.32,1.3-1.17,1.55-1.95.56-3.86,1.25-5.8,1.82-.38.11-.85-.11-1.28-.18.13-.46.12-1.05.41-1.37,1.67-1.84,3.99-2.31,5.94-2.83Z"/>
  </g>
  <g>
    <path class="cls-1" d="M624.32,472.37c-2.56-1.64-4.21-4.18-6.1-6.44-3.33-3.96-6.98-7.65-10.25-11.64-3.46-4.22-6.43-8.83-9.62-13.27-.81-1.13-.81-2.63-.23-3.54,1.33-2.13,1.35-4.52,1.87-6.79.69-2.98,1.39-5.95,2.19-8.91.22-.82.84-.91,1.46-1.06,3.1-.75,4.25-3.88,2.02-6.05-1.5-1.45-1.54-2.95-1.25-4.75.72-4.32,1.41-8.64,2.03-12.97.48-3.32,1.42-6.47,3.4-9.18,1.11-1.52,1.49-3.03,1.12-4.81-.06-.29-.06-.59-.07-.89-.05-2.93-.07-2.96-2.72-1.84-1.84.78-3.63,1.7-5.24,2.9-2.43,1.81-4.15,1.91-6.18.34-1.91-1.48-2.36-3.71-1.19-6.5-1.94.87-3.92.3-5.86,1.17-1.95.87-4.18-.15-6.24-.7-.26-.07-.67-.33-.68-.51-.04-2.43-2.2-2.26-3.55-2.63-3.52-.96-7.14-1.51-10.71-2.32-3.44-.78-6.87-1.64-10.29-2.51-3.18-.81-6.29-2.01-9.48-2.67-1.96-.41-4.19.36-6.28.71-2.75.46-5.45,1.04-8.27.39-2.94-.68-5.02-2.62-7.07-4.57-4.69-4.44-7.06-9.98-8.17-16.35-.94-5.44.22-10.26,2.57-14.99.66-1.32,1.54-2.5,3.07-2.99.9-.29,1.28-.87,1.21-1.88-.17-2.45.5-4.81,1-7.18.06-.29.27-.56.06-.83-2.75-3.55-.95-7.24-.01-10.7,1.11-4.13,2.35-8.24,3.6-12.34,2.14-7.02,5.01-13.6,9.8-19.38,3.26-3.93,6.95-6.94,11.55-8.96,2.77-1.22,5.72-1.79,8.64-2.47.5-.12,1.28.34,1.4-.64.11-.84-.59-.98-1.09-1.17-4.1-1.57-6.5-4.77-8.11-8.64-1.33-3.2-1.41-6.58-1.03-9.97.47-4.18,2.03-8.1,3.17-12.11.41-1.45.72-2.22-.26-3.57-.92-1.26-.9-3.06-.24-4.63.45-1.06.31-1.87-.31-2.92-1.38-2.35-2.09-4.89-.35-7.47h2.5c1.9.6,3.86,1.06,5.69,1.83,1.49.63,2.56.55,3.96-.41,1.31-.9,3.17-.87,4.56.08,5.4,3.68,10.27,8.02,15.09,12.41,1.81,1.65,3.07,3.79,3.56,6.29.61,3.14-.37,5.95-1.76,8.67-.5.98-.55,1.74.02,2.78,1.55,2.82.91,7.48-1.8,9.32-1.12.76-2.3,1.42-3.58,1.84-.43.14-.69.18-.77.73-.33,2.23,1.74,6.62,3.78,7.64,3.13,1.56,6.53,2.54,9.55,4.36,3.21,1.93,6.14,4.06,7.75,7.66,2.62,5.87,5.11,11.82,8.97,17.04.68.92.94,1.77.18,2.71-1.03,1.26-.86,2.54-.13,3.85.42.77,1,1.5,1.22,2.32.24.92.81,1.02,1.44.8,4.34-1.49,8.92,0,13.35-1.21,2.3-.63,4.94-.51,7.42-.66,1.03-.06,1.79.37,2.35,1.27.83,1.34.68,2.69.22,4.09-1.08,3.28-2.3,6.52-3.19,9.86-.73,2.72-1.39,5.44-2.37,8.08-1.22,3.3-2.78,6.46-3.86,9.82-.33,1.04-.06,1.31.86,1.31,3.83.01,7.41,1.19,11.08,2.12,6.16,1.55,9.77,5.26,11.16,11.47.43,1.91.19,3.89.92,5.72v2.5c-.3.54-.36,1.13-.37,1.72-.09,5.66-1.44,11.12-2.66,16.59-.74,3.33-1.59,6.63-2.38,9.95-.75,3.15-1.49,6.29-2.22,9.45-.81,3.49-1.57,7-2.39,10.48-.78,3.32-1.6,6.63-2.44,9.94-.83,3.3-1.46,6.68-2.63,9.85-.86,2.31-.31,4.87-2.47,7.06-2.46,2.51-5.14,4.41-8.14,6-.94.5-1.43.98-1.13,2.15.32,1.24.59,2.53.94,3.75,1.61,5.57,3.32,11.11,5.29,16.57.84,2.32,1.25,4.77.26,7.28-.81,2.05-1.46,2.69-3.71,2.77-.46.02-.97-.1-1.31.35h-2.14ZM553.39,301.62c.44.72.38,1.45.2,1.98-1.12,3.13-1.61,6.4-2.31,9.62-.21.95-.44,2.18-1.97,2-.3-.04-.57.22-.6.55-.16,1.67-.84,3.19-1.34,4.76-.27.84.09,1.04.85,1.08,1.78.08,3.56.28,5.34.32,3.75.07,7.48.41,11.15,1.06,3.41.6,6.69,1.88,10.19,2.17,2.61.21,5.46.67,6.73-2.32,1.76-4.15,3.57-8.32,4.5-12.77.73-3.51,3-5.77,6.44-5.88,1.28-.04,1.67-.67,1.4-1.65-.64-2.32-.29-4.59.14-6.86.52-2.73-.16-5.47.17-8.19.07-.58-.18-1.43.85-1.47,1-.04,1.08.77,1.26,1.44.1.39.09.83.08,1.24-.09,4.81.28,9.64-.21,14.45-.04.38-.28.95.36.98,1.3.05,2.97.64,3.83-.18,2.58-2.45,5.67-4.41,7.6-7.54.5-.82.46-1.56.04-2.33-1.95-3.54-3.92-7.08-5.89-10.61-3.35-5.99-8.02-10.5-14.41-13.21-1.21-.51-1.14-.23-1.27.79-.64,4.69-2.97,5.75-6.48,6.6-.45.11-1.06.2-1.21-.4-.11-.45.39-.67.76-.86.75-.37,1.49-.75,2.23-1.13-6.39,1.49-12.13-.28-17.71-3.25.61,1.29,1.49,2.15,2.57,2.81,2.19,1.34,4.63,1.98,7.07,2.68.49.14,1.53,0,1.28,1.06-.24.99-1.12.97-1.87.85-1.22-.2-2.4-.56-3.58-.91-4.55-1.34-7.74-4.31-9.65-8.44-.67-1.46-1.3-1.54-2.28-1.17-1.44.54-2.94.85-4.37,1.44-5.72,2.36-9.66,6.72-13.34,11.41-.49.63-.38.98.38,1.5,3.07,2.1,5.85,4.58,8.51,7.18,1.14,1.11,2.1,2.4,3.11,3.63.41.5.58,1.13-.11,1.48-.57.29-.92-.07-1.17-.67-.3-.69-.75-1.34-1.21-1.95-2.85-3.68-6.67-6.22-10.41-8.86-.75-.53-.8.2-1,.5-2.07,3.18-3.69,6.56-4.74,10.23-1.12,3.9-2.02,7.85-3.31,11.71-.65,1.95-1.71,3.93-1.18,6.17.23-.03.41-.02.57-.07,5.05-1.54,10.13-2.85,15.5-2.01,1.11.17,2.24.18,3.34.39.78.15,1.1-.16,1.52-.76,1-1.43,1.26-3.12,1.83-4.7.48-1.32.54-2.87,1.85-3.9ZM612.76,349.27c-.22.28-.44.55-.65.83,1.82,1.55,3.86,2.91,5.42,4.69,4.54,5.16,8.14,11.03,11.96,16.72,3.79,5.64,6.76,11.7,9.3,17.99.97,2.42.12,3.72-2.45,3.56-2.54-.15-5.01-.66-7.34-1.74-1.69-.78-3.37-1.69-5.1-2.29-1.4-.48-2.59-.9-3.73-1.95-1.84-1.71-4-3.08-6.2-4.72,0,1.01-.08,1.83.02,2.63.24,1.96-.44,3.62-1.59,5.11-1.55,2.02-2.15,4.4-2.75,6.8-.76,2.99-1.12,6.04-1.59,9.08-.16,1.02.02,1.64.66,2.34,6.59,7.27,14.94,11.9,23.7,15.92,1.05.48,1.31.09,1.54-.85,1.07-4.4,2.18-8.79,3.29-13.18.8-3.19,1.66-6.37,2.42-9.58,1.14-4.87,2.18-9.77,3.33-14.64.73-3.09,1.68-6.13,2.36-9.22.82-3.74,1.54-7.5,2.13-11.29.83-5.33,1.39-10.66-1.02-15.83-1.15-2.46-2.37-4.6-5.17-5.64-4.51-1.68-9.07-2.9-13.87-3.38-3.49-.34-4.53.36-4.5,3.79.02,1.81-.93,2.81-2.41,3.24-2.54.74-5.07,1.58-7.76,1.61ZM542.39,363.75c-1.1-1.02-2.08-1.66-2.7-2.63-.42-.66-.85-.41-1.35-.11-1.89,1.13-3.4.9-5.09-.54-1.62-1.38-2.59-3.39-4.42-4.55-.77-.49-1.19-1.11-.72-1.89.52-.86,1.31-.52,2.03-.12.46.26.88.52,1.25.93,1.07,1.17,2.22,2.27,3.32,3.41.91.95,1.67,1.24,2.75.04,1.22-1.37,2.57-1.24,3.55.22,1.51,2.24,3.73,3.54,6.07,4.56,4.58,2,9.38,3.31,14.26,4.36,3.8.82,7.58,1.75,11.37,2.6,3.39.76,6.84,1.33,10.17,2.3,1.58.46,2.01.14,2.05-1.32,0-.42.03-.83.03-1.25.05-4.53-.62-8.98-1.75-13.34-.63-2.41-1.52-4.54-4.43-5.32-2.47-.66-4.78-1.93-7.12-3-5.7-2.61-11.38-5.24-17.05-7.91-4.2-1.98-8.69-3.21-12.97-4.98-2.91-1.2-5.52-3.04-8.58-3.99-3.67-1.13-7.49.52-9.46,3.69-2.59,4.17-2.06,8.49-1.26,12.86.91,4.96,3.2,9.34,6.56,13.04,1.5,1.65,3.01,3.88,5.87,3.33,2.4-.46,4.83-.25,7.63-.39ZM576.26,273.06c.53,0,1.07.04,1.6-.01.59-.06,1.17-.17,1.75-.3,1.25-.26,2.62-2.04,2.14-3.02-1.56-3.19-1.27-6.79-2.42-10.06-.46-1.31-.54-2.81-2.54-2.81-.6,0-1.2-.68-1.8-1.04-.81-.48-1.35-1.29-.82-2.04.5-.71,1.32-.25,2.02.21,4.2,2.71,7.75.44,8.75-3.89.38-1.65-.26-2.95-1.67-3.95-1.31-.93-2.4-.62-3.5.3-.36.3-.73.57-1.24.65-.98.15-2.03.71-2.84-.21-.78-.89-.56-1.95-.18-3.03.4-1.13.9-2.19,1.75-3.02.65-.64.59-1.07-.02-1.7-1.02-1.07-1.96-2.21-2.87-3.37-1.18-1.5-1.08-2.45.58-3.41,1.22-.7.87-1.16-.01-1.62-2.34-1.22-4.67-2.47-7.08-3.53-4.64-2.04-4.75-1.97-8.03,1.91-.45.54-.91,1.08-1.31,1.67-.36.53-.76,1.08.27,1.47,1.35.51,1.75,1.63,1.63,3-.27,3.18-1.05,6.27-1.79,9.36-.26,1.11-.87,2.15-.57,3.39.15.63.99,1.59-.08,1.92-1.1.35-1.42-.88-1.71-1.64-.21-.56-.15-1.32.02-1.92.56-1.98,1.22-3.93,1.85-5.89.11-.34.29-.68-.12-.93-.98-.62-3.12.38-3.31,1.57-.31,1.93-.52,3.87-.88,5.78-1.43,7.58,6.07,15.73,12.8,14.8.7-.1,1.63-.3,1.95.75.32,1.07.06,2.04-.87,2.63-.7.45-1.35.93-1.94,1.51-.85.83-.68,2.78.34,3.42,3.1,1.98,6.48,3.06,10.17,3.06ZM573.54,336.21c-.79-1.77-.2-2.57,1.65-2.33.63.08,1.23.39,1.85.59.72.24,1.15-.15,1.38-.75.33-.87-.51-.49-.8-.71-.97-.73-2.26-.61-3.29-1.27-.56-.36-.79-.72-.65-1.28.18-.73.83-.61,1.32-.49,1.03.25,2.03.63,3.06.88.4.1.99.41,1.24-.22.2-.53.03-1-.5-1.37-1.23-.84-2.43-1.64-4.03-1.55-1.24.07-2.49.07-3.71-.29-5.74-1.71-11.63-2.58-17.6-2.98-3.09-.21-6.18-.23-9.26-.35-.84-.03-1.9-.05-1.92-1.35-.02-1.2.98-1.25,1.76-1.27.71-.02.99-.13,1.15-.91.3-1.44.84-2.82,1.23-4.24.27-.98.32-1.73-1.1-2.01-4.3-.84-8.57-1.16-12.8.27-.59.2-1.5.36-1.61.97-.66,3.59-2.39,6.93-2.27,10.7.04,1.2.46,1.57,1.57,1.5,2.72-.18,5.28.54,7.69,1.69,2.9,1.37,5.59,3.18,8.73,4.05,1.62.45,3.09,1.11,4.93.75,3.39-.66,6.84-1.08,10.26.21.69.26,1.34.7,2.13.78,3.18.3,6.35.64,9.59.97ZM608.88,358.08c2.4-.62,4.36.39,5.68,2.81.17.3.47.53.72.79,3.74,3.92,7.4,7.9,10.58,12.31,1.61,2.23,1.81,3.58.46,5.87-.87,1.47-1.51,3.03-2.13,4.6-.24.61-.25,1.07.37,1.32,3.04,1.25,6.07,2.51,9.14,3.67.89.34,1.24-.24.89-1.06-1.12-2.58-2.11-5.22-3.53-7.67-3.2-5.54-6.99-10.7-10.55-16-2.9-4.32-6.24-8.28-10.03-11.87-.86-.81-1.4-.94-2.34-.12-1.22,1.07-2.16,2.34-3.06,3.64-.68.98-.34,1.7.97,1.7.83,0,1.67,0,2.83,0ZM603.44,431.37c-.16,0-.32,0-.47,0-.31,1.86-.25,3.88-1.01,5.54-.99,2.18-.26,3.57,1.11,5.03.36.38.68.81,1,1.23,3.02,3.97,5.44,8.36,9.11,11.89,4.04,3.89,7.4,8.44,11.37,12.42.86.86,1.92,1.43,2.81.79.94-.67,1.58-1.85,1.05-3.27-.51-1.38-.72-2.87-1.28-4.22-.48-1.14-.22-2.86-1.72-3.29-2.49-.7-4.98-1.58-7.66-1.13-1.32.22-2.21-.28-2.93-1.46-2.28-3.73-4.91-7.19-8.14-10.18-2.04-1.89-3.79-3.87-2.52-7.18.77-2-.56-4.09-.71-6.17ZM631.25,431.99c-2.63-1.12-5.1-2.16-7.56-3.22-.2-.09-.44-.38-.6-.2-1.46,1.69-3.87,1.94-5.37,3.59-.68.74-1.35,5.03-.75,5.88.16.22.46.37.72.48.97.4,1.96.75,2.93,1.15.25.1.64.49.71.14.28-1.31,1.51-1.29,2.33-1.83,2.68-1.78,5.35-3.57,7.59-6ZM599.29,381.67c1.59-.09,2.8-.97,3.76-2.11.82-.98,1.73-1.68,2.92-2.13,1.63-.61,2.95-1.58,3.53-3.35.18-.56.44-1.06-.35-1.25-2.51-.6-4.56-2.1-6.72-3.38-.76-.45-1.22-.43-1.52.37-1.29,3.35-2.22,6.8-2.98,10.3-.23,1.05.3,1.56,1.37,1.55ZM592.55,368.25c0,1.07,0,2.14,0,3.2,0,2.94-.02,2.87,2.89,2.1.81-.21.92-.5,1.1-1.22.38-1.53.84-3.08,1.55-4.47.98-1.92,1.32-3.7-.37-5.3-1.42-1.34-2.69-2.96-4.92-3.11-.79-.05-.92.07-.76.81.57,2.63.57,5.3.5,7.97ZM591.73,355.75c2.34,1.04,4.65,1.39,6.9,1.87.61.13,1.39-.5,1.51-1,.58-2.48,2.37-4.33,3.51-6.73-.96,0-1.8-.22-2.47.04-2.21.86-5.67-.72-6.38,3.16-.04.19-.31.34-.49.5-.8.68-1.6,1.35-2.57,2.16ZM584.97,353.66c-.41.63-.27,1.11-.17,1.55.12.51.44.97.57,1.48,1.23,5.04,1.78,10.15,1.42,15.33-.09,1.32.81,1.85,1.47,2.58.48.53.7.08.71-.42.03-.89.04-1.78.06-2.67.09-4.15.24-8.31-.78-12.38-.52-2.07-1.41-3.98-3.28-5.45ZM607.27,410.12c-.34,1.3-.36,1.32.22,1.93,2.82,2.98,6.11,5.41,9.34,7.91,4.01,3.1,8.49,5.34,13.16,7.26.85.35,2.2,1.21,2.44.58.49-1.3-1.11-1.23-1.93-1.65-8.35-4.33-16.64-8.77-23.23-16.03ZM609.94,327.04c2.21.05,3.97-1.86,4.03-4.36.04-1.6-1.16-2.75-2.92-2.8-2.21-.06-4.19,1.81-4.24,4.01-.04,1.87,1.19,3.11,3.13,3.15ZM609.17,418.69c.13.72-.7,1.26.09,2.12,1.49,1.63,2.75,3.49,4.01,5.33,1.83,2.68,1.79,2.71,4.86,1.57.16-.06.34-.12.47-.23.56-.47,1.12-.75-.02-1.42-3.43-1.99-6.45-4.54-9.39-7.37ZM622.54,445.34c-.45-.78,0-1.87-.8-2.36-1.55-.95-3.11-1.89-4.72-2.73-.46-.24-1.21-.71-1.61.32-.35.88-.05,1.25.74,1.62,2.15,1,4.26,2.09,6.39,3.15ZM613.14,377.07c.16-.08.47-.14.55-.3.87-1.7,1.72-3.42,2.55-5.15.21-.44.1-.85-.38-1.02-.47-.16-.86-.03-1.23.4-1.13,1.31-2.05,2.73-2.72,4.31-.45,1.06.24,1.51,1.23,1.76ZM620.29,376.34c.08-.35.11-.71-.21-.97-.22-.18-.48-.12-.63.06-1.15,1.34-2.18,2.79-2.65,4.5-.28,1.03.78,1.44,1.45,1.69.75.27.63-.63.78-1.08.48-1.38,1.06-2.73,1.25-4.2ZM558.45,238.79c.65-.99.49-1.9.48-2.77-.02-1.1-1.14-.81-1.7-1.23-.43-.31-.75.14-.93.52-.35.74-.01,1.26.63,1.6.7.38,1.14.97,1.52,1.87ZM609.49,304.07l.3-.33c-.93-.54-.63-2.21-1.45-2.16-1.13.07-1.75,1.42-2.73,2.49h3.88ZM617.34,448.91c2.33.68,4.46,1.3,6.74,1.97-1.08-1.76-4.91-2.92-6.74-1.97ZM584.18,269.54c.08,1.32-.4,2.56-.65,3.84.77-1.17,1.65-2.32.65-3.84Z"/>
    <path class="cls-1" d="M569.12,235.22c2.11-.14,3.69.96,5.06,2.36.56.57.98,1.52.27,2.23-.7.69-1.45.1-1.99-.43-1.15-1.13-2.58-1.58-4.1-1.81-.87-.13-1.62-.2-1.49-1.43.13-1.28,1.06-.8,1.72-.92.17-.03.35,0,.53,0Z"/>
    <path class="cls-1" d="M580.45,249.19c.41,0,.83-.01,1.24,0,.46.02.78.22.84.72.07.58-.2.93-.74,1.01-.8.11-1.66-.02-1.81,1.18-.06.46-.98.43-1,.25-.17-1.55-2.83.09-2.43-1.88.21-1,1.42-.78,2.17-1.11.51-.23,1.15-.17,1.73-.23,0,.02,0,.04,0,.07Z"/>
    <path class="cls-1" d="M561.78,253.62c-1.58.15-2.96-.74-4.48-.9-.52-.06-.48-.44-.43-.79.07-.5.44-.48.8-.37,2.03.61,4.06.67,6.11.08.58-.17,1.13.05,1.22.68.09.6-.32,1-.93,1.08-.76.1-1.53.15-2.29.22Z"/>
    <path class="cls-1" d="M568.79,240.14c1.2-.08,2.21.33,3.02,1.2.39.43.56,1,.18,1.46-.44.53-.85.18-1.35-.15-.61-.39-1.45-1.63-2.07.12-.18.53-.85.36-1.27.23-.62-.18-.41-.78-.43-1.22-.04-.68.09-1.33.86-1.56.33-.1.7-.07,1.06-.09Z"/>
  </g>
  <g>
    <path class="cls-1" d="M313.07,586.23c-.38.07-.75.21-1.12.21-2.75-.03-5.5-.12-8.24-.13-9.67-.02-19.33,0-29,0v.24c-8.45,0-16.89-.07-25.34.02-10.17.11-20.34.43-30.52.51-15.38.13-30.7-.62-45.86-3.46-2.74-.51-5.45-1.18-8.12-1.96-4.23-1.24-7.2-3.93-8.19-8.3-.99-4.36-1.88-8.75-2.48-13.17-.83-6.1-1.5-12.24-1.98-18.38-.43-5.51-.66-11.06-.7-16.59-.05-8.17.18-16.34.22-24.51.02-3.85-.29-7.7-.18-11.54.18-6.59.56-13.18.85-19.77.11-2.53.21-5.06.31-7.58,1.59.41,3.16.9,4.72,1.39-.13,3.14-.27,6.28-.43,9.42-.4,7.73-.69,15.45-.49,23.2.2,7.58.18,15.17-.04,22.75-.28,9.73.31,19.39,1.66,29.01.57,4.08.79,8.21,1.38,12.29.46,3.22,1.18,6.4,1.88,9.58.84,3.84,3.38,6.25,7.06,7.16,4.91,1.22,9.87,2.33,14.87,3.03,6.48.89,13.02,1.52,19.56,1.9,5.99.35,12.01.28,18.02.28,7.62,0,15.24-.13,22.86-.22,4.63-.05,9.27-.2,13.9-.22,16.11-.08,32.22-.13,48.32-.21.9,0,1.58.2,2.29.87,1.25,1.18,2.71,2.14,4.05,3.22.31.25.51.65.76.99Z"/>
    <path class="cls-1" d="M461.29,439.23c-.38-4.7-.53-9.41-.8-14.12-.43-7.49-1.08-14.96-.66-22.48.38-6.7.7-13.8-.4-20.58-.84-5.17-2.05-13.37-7.91-14.97-4.59-1.25-9.26-1.63-14-1.35-.89.05-1.79.1-2.68.13-1.1,3.82-2.14,7.65-3.32,11.44-.3.98-.61,1.95-.9,2.93.52,0,1.03-.02,1.55-.03,6.87-.12,13.74-.25,20.61-.34.29,0,.8.36.84.61.58,3.48,1.45,6.96,1.54,10.46.17,5.88-.17,11.78-.29,17.67.04,1.45-.03,2.91.04,4.36.32,6.67.62,13.34,1.04,20,.34,5.41.83,10.8,1.29,16.19.3,3.49.65,6.98.95,10.47,1.37-.61,2.75-1.2,4.15-1.75.22-.08.44-.17.65-.25-.36-6.14-1.21-12.25-1.71-18.39ZM452.03,375.4l-.03-.08h.08s-.04.08-.04.08Z"/>
    <path class="cls-3" d="M445.37,375.75c-.08,0-.16,0-.23,0-3.13-.01-2.9.28-2.88-2.94,0-1.41.34-1.88,1.72-2.02,1.86-.19,3.74-.25,5.61-.29,1.04-.02,1.56.56,1.52,1.64-.09,2.61.66,3.21-2.93,3.46-.94.07-1.87.13-2.81.19v-.04Z"/>
    <path class="cls-3" d="M496.53,375.14c-.06,0-.11,0-.17,0-2.25-.01-2.08.23-2.07-2.39,0-1.15.24-1.53,1.24-1.64,1.34-.15,2.69-.2,4.03-.24.75-.02,1.12.46,1.09,1.33-.06,2.13.47,2.61-2.1,2.82-.67.05-1.34.1-2.02.15,0-.01,0-.02,0-.03Z"/>
    <path class="cls-1" d="M455.21,573.53c-.02.4-.05.8-.09,1.2-.16,1.66-.47,3.32-.97,4.95-.9,2.9-2.94,4.8-6,5.14-4.01.44-8.05.7-12.08.91-2.47.13-4.95.02-7.43.02-4.12.03-8.25.11-12.38,0-6.04-.16-12.08-.58-18.13-.64-.37,0-.74,0-1.11,0-.2-1.77-.59-3.54-1.23-5.16.36,0,.71-.01,1.07-.02,3.43-.05,6.86.04,10.29.16,6.28.22,12.56.31,18.84.38,4.2.05,8.41.03,12.61-.08,2.31-.07,4.62-.33,6.91-.64,1.93-.25,3.22-1.32,3.87-2.89.15-.37.27-.78.35-1.2,1.9-.48,3.67-1.36,5.48-2.13Z"/>
    <path class="cls-1" d="M392.68,413.17c-.12,0-.24,0-.35,0q-2.94,0-2.86-2.91c.03-1.32.45-1.85,1.81-1.98,2.54-.25,5.08-.49,7.62-.64,7.48-.44,14.97-.94,22.46-1.21,8-.29,16.02-.36,24.03-.5.94-.02,1.88.1,2.81.21.92.11,1.34.63,1.36,1.59.05,2.54-.11,2.76-2.65,3.17-.39.06-.78.11-1.17.12-4.95.09-9.9.11-14.84.27-7.33.24-14.67.54-22,.9-5.41.27-10.81.67-16.21,1.02,0-.02,0-.03,0-.05Z"/>
    <path class="cls-1" d="M410.16,442.37c-5.02,0-10.05.03-15.07-.03-.71,0-1.99-.34-2.03-.64-.14-1.19.03-2.45.26-3.65.05-.26.85-.52,1.32-.53,3.14-.09,6.28-.24,9.41-.15,10.53.34,21.03.11,31.52-.95,3.04-.31,6.1-.41,9.16-.52,1.53-.05,1.94.45,1.96,1.98,0,.31,0,.63,0,.94-.01,1.43-.35,1.82-1.75,1.95-2.46.23-4.93.39-7.38.66-8.87.97-17.78,1.04-26.68,1.17-.24,0-.47,0-.71,0v-.23Z"/>
    <path class="cls-1" d="M422.65,457.55c-5.73,0-11.47,0-17.2-.01-.72,0-1.66.3-1.82-.93-.27-2.08.07-3.21,1.32-3.47,1.34-.28,2.72-.45,4.08-.46,10.21-.05,20.42-.06,30.64-.05,2.33,0,3.44,1.75,2.45,3.89-.17.38-.86.69-1.33.72-1.29.1-2.59.04-3.89.04-4.75,0-9.5,0-14.25,0,0,.09,0,.18,0,.27Z"/>
    <path class="cls-1" d="M430.9,420.8c4.36,0,8.71,0,13.07,0,.58,0,1.25-.03,1.73.23.5.27.81.88,1.21,1.35.02.02,0,.08,0,.12.16,3.05-.14,3.42-3.21,3.38-8.91-.13-17.81-.31-26.72-.45-1.06-.02-1.44-.45-1.45-1.49-.04-3.27-.04-3.38,3.25-3.45,4.04-.09,8.08-.02,12.12-.02,0,.11,0,.22,0,.33Z"/>
    <path class="cls-1" d="M396.88,420.85c2.61.21,5.23.36,7.84.66,1.61.18,2.15.8,2.25,2.08.14,1.85-.43,2.57-2.32,2.53-4.23-.09-8.45-.27-12.68-.43-.26,0-.72-.14-.73-.25-.11-1.06-.32-2.17-.13-3.19.09-.47.96-1.06,1.54-1.13,1.39-.16,2.81-.05,4.22-.05,0-.07,0-.14.01-.21Z"/>
  </g>
</svg>