<?xml version="1.0" encoding="UTF-8"?>
<svg id="Camada_2" data-name="Camada 2" xmlns="http://www.w3.org/2000/svg" viewBox="0 0 1080 478.11">
  <defs>
    <style>
      .cls-1 {
        fill: #cf0;
        stroke-width: 0px;
      }
    </style>
  </defs>
  <g>
    <path class="cls-1" d="M168.84,115.21c0,24.47-19.84,44.31-44.31,44.31-10.58,0-20.27-3.7-27.88-9.88,15.14-25.69,36.58-47.2,62.23-62.42,6.22,7.63,9.96,17.37,9.96,27.99Z"/>
    <path class="cls-1" d="M400.82,149.64c-7.61,6.18-17.3,9.88-27.88,9.88-24.47,0-44.31-19.84-44.31-44.31,0-10.62,3.74-20.35,9.96-27.99,25.65,15.22,47.1,36.73,62.23,62.42Z"/>
    <circle class="cls-1" cx="248.73" cy="239.13" r="44.31" transform="translate(-96.24 245.92) rotate(-45)"/>
    <path class="cls-1" d="M168.84,363.05c0,10.57-3.7,20.27-9.88,27.89-25.65-15.19-47.11-36.69-62.26-62.37,7.61-6.17,17.28-9.84,27.83-9.84,24.47,0,44.31,19.84,44.31,44.31Z"/>
    <path class="cls-1" d="M400.77,328.58c-15.15,25.68-36.61,47.18-62.26,62.37-6.18-7.62-9.88-17.33-9.88-27.89,0-24.47,19.84-44.31,44.31-44.31,10.55,0,20.22,3.67,27.83,9.84Z"/>
    <path class="cls-1" d="M417.26,239.12c0,24.47-19.85,44.32-44.32,44.32-44.15,0-79.89,35.59-79.89,79.6,0,24.47-19.84,44.31-44.31,44.31s-44.31-19.84-44.31-44.31,19.84-44.31,44.31-44.31c44.17,0,79.89-35.61,79.89-79.62,0-24.47,19.84-44.31,44.31-44.31s44.32,19.84,44.32,44.31Z"/>
    <path class="cls-1" d="M293.19,115.06c0,24.47-19.85,44.32-44.32,44.32-44.15,0-79.89,35.59-79.89,79.6,0,24.47-19.84,44.31-44.31,44.31s-44.31-19.84-44.31-44.31,19.84-44.31,44.31-44.31c44.17,0,79.89-35.61,79.89-79.62,0-24.47,19.84-44.31,44.31-44.31s44.32,19.84,44.32,44.31Z"/>
  </g>
  <g>
    <g>
      <polygon class="cls-1" points="521.89 213.7 545.34 213.7 545.34 102.46 587.96 102.46 587.96 81.35 479.27 81.35 479.27 102.46 521.89 102.46 521.89 213.7"/>
      <path class="cls-1" d="M579.5,116.75v64.37c0,10.82,3.1,19.41,9.22,25.53,6.12,6.12,14.65,9.22,25.35,9.22s20.29-4.15,27.37-12.34v10.18h21.1v-96.95h-21.83v54.44c0,7.89-2.1,14.11-6.25,18.48-4.18,4.41-9.2,6.55-15.34,6.55-12.14,0-17.8-5.6-17.8-17.62v-61.84h-21.83Z"/>
      <path class="cls-1" d="M731.97,115.4v21.01h-3.77c-8.74,0-15.55,2.13-20.23,6.37-4.68,4.24-6.96,10.28-6.96,18.47v52.45h-21.84v-96.95h21.11v11.68c6.32-8.71,15.43-13.12,27.2-13.12,1.96,0,3.45.04,4.48.1Z"/>
      <path class="cls-1" d="M792.76,115.3v21.46h-18.79v52.66c0,2.17.55,3.67,1.71,4.56.88.69,2.83,1.49,7.06,1.49h10.02v18.06l-1.72.15c-4.01.36-7.77.55-11.19.55-9.18,0-16.14-1.83-20.68-5.47-4.66-3.72-7.02-9.68-7.02-17.72v-54.28h-12.61v-21.46h12.61v-25.28h21.82v25.28h18.79Z"/>
      <rect class="cls-1" x="803.43" y="81.35" width="21.83" height="132.35"/>
      <path class="cls-1" d="M929.64,165.95c0-14.83-4.11-27.21-12.19-36.81-8.29-9.66-19.7-14.55-33.94-14.55s-24.84,4.7-33.35,13.96c-8.48,9.23-12.77,21.56-12.77,36.68s4.29,27.44,12.77,36.67c8.51,9.27,19.87,13.98,33.72,13.98,11.08,0,20.54-2.9,28.13-8.6,7.6-5.71,12.78-13.62,15.41-23.51l.63-2.36h-22.03l-.44,1.26c-3.35,9.61-10.33,14.27-21.33,14.27-7.37,0-13.02-2.08-17.27-6.39-3.89-3.94-6.37-9.81-7.36-17.47h70.03v-7.12ZM859.89,155.03c1.19-6.68,3.72-11.9,7.5-15.55,4.19-4.02,9.47-5.98,16.12-5.98s12.08,2.1,16.26,6.39c3.78,3.88,6.2,8.95,7.22,15.13h-47.1Z"/>
    </g>
    <g>
      <path class="cls-1" d="M982.7,346.14c-9.34,0-16.94,7.61-16.94,16.95s7.6,16.95,16.94,16.95,16.95-7.61,16.95-16.95-7.61-16.95-16.95-16.95ZM982.7,375.88c-7.04,0-12.77-5.74-12.77-12.78s5.73-12.78,12.77-12.78,12.78,5.74,12.78,12.78-5.74,12.78-12.78,12.78Z"/>
      <path class="cls-1" d="M985.8,365.04c.41-.18.8-.39,1.17-.67.6-.43,1.09-.99,1.46-1.68.36-.69.55-1.53.55-2.49s-.15-1.78-.44-2.47c-.29-.72-.73-1.29-1.29-1.75-.54-.43-1.21-.74-1.96-.94-.73-.19-1.54-.28-2.46-.28h-6.39v16.66h3.15v-5.78h3.01l3.08,5.78h3.49l-3.37-6.39ZM985.5,361.45c-.16.31-.39.54-.67.7-.31.19-.69.33-1.12.4-.46.08-.97.11-1.49.11h-2.64v-4.92h3.05c.74,0,1.37.09,1.86.26.44.15.75.38.97.7.21.34.33.82.31,1.42-.01.55-.11.99-.28,1.32Z"/>
      <path class="cls-1" d="M578.59,318.01c-6.66-6.1-17.62-10.81-32.57-14l-11.2-2.35c-10.37-2.21-17.51-4.87-21.29-7.97-3.51-2.65-5.21-6.53-5.21-11.86s1.92-9.04,5.88-11.82c4.11-2.89,10.25-4.35,18.24-4.35,10.34,0,17.88,1.84,22.39,5.45,4.43,3.55,6.95,9.27,7.52,17l.13,1.75h22.82l-.04-1.92c-.25-13.15-4.88-23.64-13.76-31.19-8.8-7.49-22-11.29-39.24-11.29-14.33,0-25.9,3.32-34.38,9.87-8.63,6.66-13.01,15.7-13.01,26.86s3.61,19.97,10.74,26.32c6.96,6.22,17.35,10.75,30.84,13.44l11,2.35c10.65,2.34,18.07,5,22.05,7.9,3.73,2.72,5.55,6.5,5.55,11.57,0,6.4-2.25,11.12-6.89,14.45-4.77,3.42-11.78,5.16-20.84,5.16-21.97,0-32.81-8.85-33.15-27.05l-.03-1.85h-23.07l.02,1.9c.12,15.33,5.19,27.18,15.05,35.22,9.75,7.95,23.49,11.98,40.83,11.98,16,0,28.76-3.6,37.91-10.69,9.29-7.2,14-17.18,14-29.66,0-10.49-3.46-18.98-10.27-25.23Z"/>
      <path class="cls-1" d="M647.84,281.58c-10.69,0-19.63,3.88-26.65,11.54v-44.77h-21.83v132.35h21.83v-54.44c0-8.1,2.24-14.39,6.64-18.68,4.5-4.27,9.39-6.34,14.96-6.34,12.14,0,17.8,5.6,17.8,17.62v61.84h21.83v-64.37c0-10.95-3.1-19.57-9.23-25.63-6.12-6.05-14.65-9.12-25.34-9.12Z"/>
      <path class="cls-1" d="M786.97,332.94c0-14.83-4.09-27.21-12.19-36.81-8.28-9.66-19.7-14.57-33.93-14.57s-24.84,4.71-33.35,13.98c-8.49,9.23-12.78,21.56-12.78,36.67s4.31,27.45,12.78,36.68c8.51,9.27,19.85,13.96,33.7,13.96,11.09,0,20.56-2.89,28.14-8.59,7.58-5.71,12.77-13.62,15.41-23.51l.63-2.37h-22.03l-.44,1.27c-3.35,9.61-10.33,14.27-21.35,14.27-7.37,0-13.01-2.08-17.25-6.39-3.91-3.94-6.38-9.82-7.37-17.47h70.03v-7.12ZM717.21,322.03c1.21-6.69,3.72-11.9,7.51-15.55,4.18-4.02,9.46-5.98,16.12-5.98s12.07,2.1,16.26,6.39c3.77,3.87,6.19,8.95,7.22,15.13h-47.11Z"/>
      <rect class="cls-1" x="799.28" y="248.35" width="21.83" height="132.35"/>
      <rect class="cls-1" x="837.56" y="248.35" width="21.83" height="132.35"/>
      <path class="cls-1" d="M944.87,333.14c-5.29-4.53-13.9-7.95-25.66-10.18l-9.69-1.62c-5.73-1.14-9.92-2.65-12.46-4.47-2.27-1.62-3.37-3.87-3.37-6.86,0-3.35,1.27-5.85,3.88-7.66,2.79-1.94,6.93-2.92,12.29-2.92,6.77,0,11.8,1.18,14.95,3.51,3,2.23,4.7,6.22,5.02,11.87l.1,1.77h21.23l-.06-1.94c-.64-21.94-14.51-33.07-41.25-33.07-11.57,0-20.82,2.59-27.51,7.7-6.84,5.23-10.31,12.39-10.31,21.27,0,15.9,10.48,25.88,31.15,29.66l9.59,1.81c7.16,1.27,12.13,2.87,14.77,4.74,2.38,1.69,3.54,4.02,3.54,7.13,0,2.75,0,11.12-18.7,11.12-7.13,0-12.34-1.21-15.48-3.59-3.05-2.31-4.93-6.49-5.59-12.43l-.19-1.68h-21.75l.12,2c1.39,22.38,15.75,33.73,42.69,33.73,12.63,0,22.66-2.64,29.82-7.85,7.34-5.35,11.07-12.94,11.07-22.56,0-8.24-2.77-14.8-8.24-19.49Z"/>
    </g>
  </g>
</svg>